<svg xmlns="http://www.w3.org/2000/svg">
<defs>
<font id="TTRamillas-Bold" horiz-adv-x="1208" >
  <font-face 
    font-family="TTRamillas-Bold"
    font-weight="700"
    font-stretch="normal"
    units-per-em="2048"
    panose-1="2 14 0 0 8 0 0 2 0 4"
    ascent="1638"
    descent="-410"
    x-height="1024"
    cap-height="1434"
    bbox="-803 -539 2945 1962"
    underline-thickness="102"
    underline-position="-358"
    unicode-range="U+000D-FB04"
  />
<missing-glyph horiz-adv-x="1843" 
d="M1638 0h-1433v582h92v-285h68v285h102v63h-262v258l39 -125h47l69 217l68 -217h47l111 348h-66l-69 -225l-72 225h-39l-72 -225l-63 211v322h1433v-308h-225v-348h225v-186q-25 55 -102 55q-56 0 -89.5 -29t-33.5 -71q0 -34 18.5 -56t45 -31.5t53 -17t45 -18t18.5 -27.5
q0 -43 -57 -43q-29 0 -43 15t-14 37h-68q0 -50 34.5 -81.5t90.5 -31.5q35 0 62.5 13.5t39.5 27.5v-334zM637 1126v-348h68v127h49l71 -127h76l-82 137q74 35 74 103q0 44 -32.5 76t-84.5 32h-139zM961 1126v-348h67v348h-67zM1188 1063v-285h65v285h103v63h-271v-63h103z
M776 969h-71v94h71q21 0 35 -13t14 -34q0 -24 -15.5 -35.5t-33.5 -11.5zM1638 989h-159v74h159v-74zM1638 842h-159v84h159v-84zM672 293q75 0 121.5 50.5t46.5 125.5q0 76 -47 127t-121 51t-121 -51t-47 -127q0 -75 46.5 -125.5t121.5 -50.5zM1198 293q59 0 98 38.5
t39 96.5v217h-65v-217q0 -31 -19.5 -51.5t-52.5 -20.5q-35 0 -54.5 21.5t-19.5 50.5v217h-65v-217q0 -58 40 -96.5t99 -38.5zM1638 537v-78q-19 17 -48 29.5t-51.5 17.5t-39 15.5t-16.5 25.5q0 18 15.5 29.5t37.5 11.5t37.5 -13.5t15.5 -37.5h49zM672 356q-45 0 -75 32.5
t-30 80.5q0 51 28.5 83t76.5 32t76 -32t28 -83q0 -48 -29.5 -80.5t-74.5 -32.5z" />
    <glyph glyph-name="f_f.liga" unicode="ff" horiz-adv-x="1400" 
d="M1434 1309h-228q-101 0 -158 -37.5t-57 -108.5q0 -47 36 -85t108 -54h264l-25 -74h-229v-708q0 -150 57 -232v-10h-391v10q57 82 57 232v573q0 92 -55 135h-350v-708q0 -150 57 -232v-10h-391v10q57 82 57 232v585q0 114 -88 156v10q68 31 103.5 79t56.5 128
q42 163 156.5 250.5t324.5 87.5q205 0 353 -88q111 88 292 88h50v-229zM451 1024h383q65 50 104 178q3 10 8.5 29t7.5 26q-166 84 -348 84q-154 0 -226.5 -48t-72.5 -130q0 -47 36 -85t108 -54z" />
    <glyph glyph-name="fi.liga" unicode="fi" horiz-adv-x="1306" 
d="M520 0h-391v10q57 82 57 232v585q0 114 -88 156v10q68 31 103.5 79t56.5 128q87 338 444 338h33v-229h-211q-103 0 -160 -37.5t-57 -108.5q0 -47 36 -85t108 -54h477q103 0 196 27h11v-809q0 -150 57 -232v-10h-391v10q57 82 57 232v495q0 97 -43.5 155t-124.5 58h-227
v-708q0 -150 57 -232v-10zM995 1167q-69 0 -116.5 47t-47.5 117q0 69 47.5 116.5t116.5 47.5t116.5 -47.5t47.5 -116.5q0 -70 -47.5 -117t-116.5 -47z" />
    <glyph glyph-name="fl.liga" unicode="fl" horiz-adv-x="1310" 
d="M520 0h-391v10q57 82 57 232v585q0 114 -88 156v10q68 31 103.5 79t56.5 128q42 164 158.5 251t337.5 87q72 0 183 -13t208 -36v-1247q0 -150 57 -232v-10h-391v10q57 82 57 232v1034q-129 55 -290 55q-136 0 -203.5 -45.5t-67.5 -122.5q0 -47 36 -85t108 -54h223
l-25 -74h-186v-708q0 -150 57 -232v-10z" />
    <glyph glyph-name="f_f_i.liga" unicode="ffi" horiz-adv-x="1988" 
d="M1817 1051v-809q0 -150 57 -232v-10h-391v10q57 82 57 232v495q0 97 -42.5 155t-123.5 58h-229v-708q0 -150 57 -232v-10h-391v10q57 82 57 232v575q0 90 -55 133h-350v-708q0 -150 57 -232v-10h-391v10q57 82 57 232v585q0 114 -88 156v10q68 31 103.5 79t56.5 128
q42 163 156.5 250.5t324.5 87.5q205 0 353 -88q111 88 292 88h33v-229h-211q-101 0 -158 -37.5t-57 -108.5q0 -47 36 -85t108 -54h475q103 0 196 27h11zM1677 1167q-69 0 -116.5 47t-47.5 117q0 69 47.5 116.5t116.5 47.5t116.5 -47.5t47.5 -116.5q0 -70 -47.5 -117
t-116.5 -47zM451 1024h383q37 28 60.5 70t43.5 108q3 10 8.5 29t7.5 26q-166 84 -348 84q-154 0 -226.5 -48t-72.5 -130q0 -47 36 -85t108 -54z" />
    <glyph glyph-name="f_f_l.liga" unicode="ffl" horiz-adv-x="1992" 
d="M1827 1489v-1247q0 -150 57 -232v-10h-391v10q57 82 57 232v1034q-140 61 -272 61q-146 0 -216.5 -47.5t-70.5 -126.5q0 -47 36 -85t108 -54h245l-24 -74h-211v-708q0 -150 57 -232v-10h-391v10q57 82 57 232v573q0 93 -55 135h-350v-708q0 -150 57 -232v-10h-391v10
q57 82 57 232v585q0 114 -88 156v10q68 31 103.5 79t56.5 128q42 163 157.5 250.5t329.5 87.5q200 0 353 -92q126 92 340 92q183 0 389 -49zM451 1024h385q69 47 102 172q15 51 18 57q-75 43 -167 65.5t-177 22.5q-158 0 -231.5 -48t-73.5 -130q0 -47 36 -85t108 -54z" />
    <glyph glyph-name="f_f_j.liga" unicode="ffj" horiz-adv-x="1978" 
d="M1135 1024h475q103 0 196 27h11v-1100q0 -184 -119 -272.5t-334 -88.5v21q102 48 139 125t37 215v786q0 97 -42.5 155t-123.5 58h-229v-708q0 -150 57 -232v-10h-391v10q57 82 57 232v575q0 90 -55 133h-350v-708q0 -150 57 -232v-10h-391v10q57 82 57 232v585
q0 114 -88 156v10q68 31 103.5 79t56.5 128q42 163 156.5 250.5t324.5 87.5q205 0 353 -88q111 88 292 88h33v-229h-211q-101 0 -158 -37.5t-57 -108.5q0 -47 36 -85t108 -54zM1677 1167q-69 0 -116.5 47t-47.5 117q0 69 47.5 116.5t116.5 47.5t116.5 -47.5t47.5 -116.5
q0 -70 -47.5 -117t-116.5 -47zM451 1024h383q37 28 60.5 70t43.5 108q3 10 8.5 29t7.5 26q-166 84 -348 84q-154 0 -226.5 -48t-72.5 -130q0 -47 36 -85t108 -54z" />
    <glyph glyph-name="f_b.liga" unicode="fb" horiz-adv-x="1953" 
d="M1315 -27q-259 0 -447 123v1180q-129 55 -290 55q-136 0 -203.5 -45.5t-67.5 -122.5q0 -47 36 -85t108 -54h223l-25 -74h-186v-708q0 -150 57 -232v-10h-391v10q57 82 57 232v585q0 114 -88 156v10q68 31 103.5 79t56.5 128q42 164 158.5 251t337.5 87q72 0 183 -13
t208 -36v-623h10q48 87 129 136t184 49q183 0 294.5 -139t111.5 -369q0 -112 -40 -215t-111 -182t-177 -126t-231 -47zM1325 20q121 0 186.5 125.5t65.5 341.5q0 198 -63 309t-173 111q-79 0 -133 -48t-63 -124v-569q10 -59 57.5 -102.5t122.5 -43.5z" />
    <glyph glyph-name="f_h.liga" unicode="fh" horiz-adv-x="1968" 
d="M520 0h-391v10q57 82 57 232v585q0 114 -88 156v10q68 31 103.5 79t56.5 128q42 164 158.5 251t337.5 87q72 0 183 -13t208 -36v-639h10q41 88 125 144.5t197 56.5q150 0 239.5 -96t89.5 -250v-463q0 -149 58 -232v-10h-391v10q57 82 57 232v456q0 84 -51.5 138.5
t-135.5 54.5q-82 0 -140 -53t-58 -140v-456q0 -150 57 -232v-10h-391v10q57 82 57 232v1034q-129 55 -290 55q-136 0 -203.5 -45.5t-67.5 -122.5q0 -47 36 -85t108 -54h223l-25 -74h-186v-708q0 -150 57 -232v-10z" />
    <glyph glyph-name="f_j.liga" unicode="fj" horiz-adv-x="1296" 
d="M682 -410v21q102 48 139 125t37 215v786q0 97 -43.5 155t-124.5 58h-227v-708q0 -150 57 -232v-10h-391v10q57 82 57 232v585q0 114 -88 156v10q68 31 103.5 79t56.5 128q87 338 444 338h33v-229h-211q-103 0 -160 -37.5t-57 -108.5q0 -47 37 -86t107 -53h477
q103 0 196 27h11v-1100q0 -184 -119 -272.5t-334 -88.5zM995 1167q-69 0 -116.5 47t-47.5 117q0 69 47 116.5t117 47.5q69 0 116.5 -47.5t47.5 -116.5q0 -70 -47.5 -117t-116.5 -47z" />
    <glyph glyph-name="f_k.liga" unicode="fk" horiz-adv-x="1869" 
d="M520 0h-391v10q57 82 57 232v585q0 114 -88 156v10q68 31 103.5 79t56.5 128q42 164 158.5 251t337.5 87q72 0 183 -13t208 -36v-1247q0 -150 57 -232v-10h-391v10q57 82 57 232v1034q-129 55 -290 55q-136 0 -203.5 -45.5t-67.5 -122.5q0 -47 36 -85t108 -54h223
l-25 -74h-186v-708q0 -150 57 -232v-10zM1718 -16q-95 0 -157.5 35.5t-120.5 113.5l-254 346v10l252 289q133 154 45 236v10h311v-10q-86 -41 -147 -87.5t-134 -125.5l-122 -133l389 -525q71 -96 104 -106v-14q-73 -39 -166 -39z" />
    <glyph glyph-name=".notdef" horiz-adv-x="1843" 
d="M1638 0h-1433v582h92v-285h68v285h102v63h-262v258l39 -125h47l69 217l68 -217h47l111 348h-66l-69 -225l-72 225h-39l-72 -225l-63 211v322h1433v-308h-225v-348h225v-186q-25 55 -102 55q-56 0 -89.5 -29t-33.5 -71q0 -34 18.5 -56t45 -31.5t53 -17t45 -18t18.5 -27.5
q0 -43 -57 -43q-29 0 -43 15t-14 37h-68q0 -50 34.5 -81.5t90.5 -31.5q35 0 62.5 13.5t39.5 27.5v-334zM637 1126v-348h68v127h49l71 -127h76l-82 137q74 35 74 103q0 44 -32.5 76t-84.5 32h-139zM961 1126v-348h67v348h-67zM1188 1063v-285h65v285h103v63h-271v-63h103z
M776 969h-71v94h71q21 0 35 -13t14 -34q0 -24 -15.5 -35.5t-33.5 -11.5zM1638 989h-159v74h159v-74zM1638 842h-159v84h159v-84zM672 293q75 0 121.5 50.5t46.5 125.5q0 76 -47 127t-121 51t-121 -51t-47 -127q0 -75 46.5 -125.5t121.5 -50.5zM1198 293q59 0 98 38.5
t39 96.5v217h-65v-217q0 -31 -19.5 -51.5t-52.5 -20.5q-35 0 -54.5 21.5t-19.5 50.5v217h-65v-217q0 -58 40 -96.5t99 -38.5zM1638 537v-78q-19 17 -48 29.5t-51.5 17.5t-39 15.5t-16.5 25.5q0 18 15.5 29.5t37.5 11.5t37.5 -13.5t15.5 -37.5h49zM672 356q-45 0 -75 32.5
t-30 80.5q0 51 28.5 83t76.5 32t76 -32t28 -83q0 -48 -29.5 -80.5t-74.5 -32.5z" />
    <glyph glyph-name=".null" horiz-adv-x="1228" 
 />
    <glyph glyph-name="nonmarkingreturn" horiz-adv-x="682" 
 />
    <glyph glyph-name="CR" unicode="&#xd;" horiz-adv-x="512" 
 />
    <glyph glyph-name="space" unicode=" " horiz-adv-x="512" 
 />
    <glyph glyph-name="exclam" unicode="!" horiz-adv-x="657" 
d="M354 406h-51l-139 1021q68 33 166 33q96 0 164 -33zM330 -20q-69 0 -114.5 44.5t-45.5 112.5q0 69 45.5 114.5t114.5 45.5q68 0 112.5 -45.5t44.5 -114.5q0 -67 -44.5 -112t-112.5 -45z" />
    <glyph glyph-name="quotedbl" unicode="&#x22;" horiz-adv-x="649" 
d="M180 948h-30q-101 313 -101 395q0 117 117 117q115 0 115 -117q0 -91 -101 -395zM500 948h-31q-100 301 -100 395q0 117 114 117q117 0 117 -117q0 -85 -100 -395z" />
    <glyph glyph-name="numbersign" unicode="#" horiz-adv-x="1632" 
d="M1554 993l-22 -78h-358l-115 -397h356l-22 -78h-357l-125 -440h-82l125 440h-436l-125 -440h-82l125 440h-358l22 78h359l114 397h-356l25 78h354l125 441h82l-125 -441h436l125 441h82l-125 -441h358zM541 518h436l115 397h-437z" />
    <glyph glyph-name="dollar" unicode="$" horiz-adv-x="1234" 
d="M1147 418q0 -186 -128.5 -308t-352.5 -135v-180h-64v178q-137 1 -263.5 33t-199.5 70v407h21q67 -204 199 -328t290 -124q126 0 199.5 71.5t73.5 180.5q0 49 -19 89.5t-47.5 68.5t-76.5 54t-91 42t-106 36t-106.5 35.5t-96 39t-87 47t-70 57.5t-55.5 73.5t-33 91
t-13 113.5q0 180 132 300.5t349 129.5v168h64v-168q111 -4 215 -30t170 -56v-379h-21q-71 190 -182 299t-256 109q-110 0 -183 -64t-73 -168q0 -45 18 -82.5t46.5 -64.5t78.5 -53t97.5 -44t121.5 -42q41 -13 67 -22t64 -24t63.5 -28t58.5 -31.5t55 -38t46.5 -44.5t40 -54
t29 -63t19.5 -75t6 -87z" />
    <glyph glyph-name="percent" unicode="%" horiz-adv-x="1613" 
d="M401 788q-148 0 -248 89.5t-100 246.5t100 246.5t248 89.5q147 0 247 -90t100 -246t-100 -246t-247 -90zM426 0h-96l858 1434h96zM401 825q67 0 110.5 77t43.5 222q0 153 -43 226t-111 73t-111.5 -76.5t-43.5 -222.5t43.5 -222.5t111.5 -76.5zM1214 -27q-147 0 -247.5 90
t-100.5 246t100.5 246t247.5 90t247 -90t100 -246t-100 -246t-247 -90zM1214 10q67 0 110.5 77t43.5 222t-43.5 222t-110.5 77q-68 0 -111.5 -76.5t-43.5 -222.5t43.5 -222.5t111.5 -76.5z" />
    <glyph glyph-name="ampersand" unicode="&#x26;" horiz-adv-x="1460" 
d="M1446 655h-41q-111 0 -189.5 -52.5t-156.5 -196.5l166 -197q141 -171 205 -186v-15q-81 -35 -177 -35q-100 0 -176 45.5t-157 141.5l-11 12q-135 -199 -374 -199q-199 0 -320 113.5t-121 284.5q0 130 77 225.5t237 173.5l-56 66q-67 80 -97 147t-30 152q0 143 110.5 234
t315.5 91q188 0 288.5 -79t100.5 -201q0 -99 -67.5 -172.5t-206.5 -135.5l-72 -32l334 -396q95 264 178.5 360.5t218.5 96.5h21v-246zM633 1409q-77 0 -126.5 -49.5t-49.5 -126.5q0 -64 30.5 -123t85.5 -125l86 -102q70 34 113 114t43 177q0 111 -50.5 173t-131.5 62z
M664 133q126 0 208 82l-434 516q-100 -89 -100 -250q0 -152 94 -250t232 -98z" />
    <glyph glyph-name="quotesingle" unicode="'" horiz-adv-x="329" 
d="M180 948h-30q-101 313 -101 395q0 117 117 117q115 0 115 -117q0 -91 -101 -395z" />
    <glyph glyph-name="parenleft" unicode="(" horiz-adv-x="655" 
d="M627 -436h-41q-85 64 -161 157.5t-138.5 213t-99.5 270t-37 307.5t37 307.5t99.5 270t138.5 213t161 157.5h41q-120 -220 -167.5 -451.5t-47.5 -496.5t47.5 -496.5t167.5 -451.5z" />
    <glyph glyph-name="parenright" unicode=")" horiz-adv-x="655" 
d="M70 -436h-41q120 220 167.5 451.5t47.5 496.5t-47.5 496.5t-167.5 451.5h41q85 -63 161.5 -157t139 -213.5t99 -269.5t36.5 -308t-36.5 -308t-99 -269.5t-139 -213.5t-161.5 -157z" />
    <glyph glyph-name="asterisk" unicode="*" horiz-adv-x="782" 
d="M197 856q-34 25 -40 57t17 64q22 32 182 137q-188 -10 -229 4q-37 12 -51 41.5t-2 69.5q12 39 41.5 55t66.5 4q44 -15 187 -131q-66 182 -66 219q0 39 23.5 61.5t64.5 22.5t64.5 -22.5t23.5 -61.5q0 -40 -65 -219q144 117 186 131q37 12 67 -4t42 -55q12 -40 -2.5 -69.5
t-51.5 -41.5q-41 -14 -229 -4q160 -105 182 -137q23 -32 17.5 -64t-39.5 -57q-34 -24 -65.5 -19.5t-55.5 35.5q-22 27 -74 215q-52 -188 -74 -215q-24 -31 -55 -35.5t-65 19.5z" />
    <glyph glyph-name="plus" unicode="+" 
d="M641 754h373v-72h-373v-375h-72v375h-372v72h372v372h72v-372z" />
    <glyph glyph-name="comma" unicode="," horiz-adv-x="518" 
d="M164 -297l-21 27q115 112 115 239v11h-10q-69 0 -114.5 44.5t-45.5 112.5q0 70 47 115t121 45q78 0 126 -51t48 -156q0 -72 -21 -133t-60 -107.5t-83 -80.5t-102 -66z" />
    <glyph glyph-name="hyphen" unicode="-" horiz-adv-x="653" 
d="M575 479h-497v107h497v-107z" />
    <glyph glyph-name="period" unicode="." horiz-adv-x="493" 
d="M248 -20q-69 0 -114.5 44.5t-45.5 112.5q0 69 45.5 114.5t114.5 45.5q68 0 113 -45.5t45 -114.5q0 -67 -45 -112t-113 -45z" />
    <glyph glyph-name="slash" unicode="/" horiz-adv-x="792" 
d="M84 -205h-80l666 1639h80z" />
    <glyph glyph-name="zero" unicode="0" horiz-adv-x="1345" 
d="M674 -27q-119 0 -224.5 53t-183.5 148.5t-123 236t-45 306.5t45 306.5t123 235.5t183.5 148t224.5 53q118 0 223 -53t182.5 -148t122.5 -235.5t45 -306.5t-45 -306.5t-122.5 -236t-182.5 -148.5t-223 -53zM674 20q117 0 186.5 189t69.5 508t-69.5 507.5t-186.5 188.5
q-118 0 -188 -188t-70 -508t70 -508.5t188 -188.5z" />
    <glyph glyph-name="one" unicode="1" horiz-adv-x="804" 
d="M637 0h-440v10q71 95 71 258v774q0 74 -28.5 110t-77.5 36q-40 0 -92 -25v43l462 228h33v-1166q0 -161 72 -258v-10z" />
    <glyph glyph-name="two" unicode="2" horiz-adv-x="1136" 
d="M915 0h-856v20l347 375q58 62 95 104.5t79 99.5t66 103.5t40 103t16 112.5q0 134 -76.5 219.5t-209.5 85.5q-106 0 -185 -56t-122 -159h-21q25 207 147.5 329.5t313.5 122.5q188 0 304 -110.5t116 -280.5q0 -44 -10 -87.5t-24 -78.5t-40.5 -76t-47 -68.5t-57.5 -67.5
t-58.5 -61.5t-61.5 -60.5l-326 -315h430q192 0 258 143h21z" />
    <glyph glyph-name="three" unicode="3" horiz-adv-x="1087" 
d="M489 -27q-158 0 -282 74.5t-176 216.5h20q48 -73 137.5 -120.5t198.5 -47.5q127 0 214 76t87 211q0 138 -92 227.5t-244 89.5q-29 0 -45 -2v27q147 28 226 111t79 190q0 100 -63 164.5t-164 64.5q-199 0 -287 -200h-20q28 186 144.5 295.5t295.5 109.5q163 0 266 -87.5
t103 -219.5q0 -104 -66 -194.5t-180 -139.5q148 -39 246 -152t98 -274q0 -192 -138 -306t-358 -114z" />
    <glyph glyph-name="four" unicode="4" horiz-adv-x="1144" 
d="M934 0h-440v10q71 95 71 258v82h-557v152l692 932h162v-891h250l-65 -193h-185v-82q0 -161 72 -258v-10zM565 1163l-459 -620h459v620z" />
    <glyph glyph-name="five" unicode="5" horiz-adv-x="1120" 
d="M475 -27q-164 0 -273.5 70t-154.5 176h21q51 -63 137.5 -101t187.5 -38q148 0 231 81.5t83 211.5q0 172 -142 281.5t-415 142.5l256 637h604l-97 -244h-546l-66 -154q106 -13 205 -42.5t190 -79.5t158 -116t107 -156.5t40 -195.5q0 -209 -143.5 -341t-382.5 -132z" />
    <glyph glyph-name="six" unicode="6" horiz-adv-x="1191" 
d="M604 -27q-110 0 -203 36.5t-163.5 107t-110 182.5t-39.5 254q0 137 32.5 260.5t101.5 232.5t169 192t242 138.5t315 73.5v-20q-186 -70 -302.5 -179t-178 -284t-61.5 -424q0 -523 198 -523q92 0 147.5 104.5t55.5 307.5q0 188 -53.5 298t-141.5 110q-64 0 -116 -29v27
q66 49 174 49q201 0 327.5 -121t126.5 -334q0 -214 -142 -336.5t-378 -122.5z" />
    <glyph glyph-name="seven" unicode="7" horiz-adv-x="1064" 
d="M571 0h-338l637 1180h-571q-164 0 -236 -144h-20l104 398h854v-25z" />
    <glyph glyph-name="eight" unicode="8" horiz-adv-x="1191" 
d="M768 827q190 -116 277.5 -225.5t87.5 -234.5q0 -179 -145 -286.5t-382 -107.5q-247 0 -382.5 103t-135.5 262q0 240 328 379q-142 92 -202 181.5t-60 197.5q0 169 128 266.5t330 97.5q196 0 319.5 -90t123.5 -233q0 -112 -77 -186t-210 -124zM604 1413
q-89 0 -138.5 -61.5t-49.5 -145.5q0 -102 68.5 -176.5t232.5 -171.5q57 60 81.5 122t24.5 144q0 129 -56.5 209t-162.5 80zM614 20q107 0 175.5 69t68.5 185q0 48 -15.5 89t-42 76t-78.5 76t-105.5 76t-143.5 89q-4 4 -8 4q-133 -133 -133 -326q0 -155 80.5 -246.5
t201.5 -91.5z" />
    <glyph glyph-name="nine" unicode="9" horiz-adv-x="1191" 
d="M244 -16v20q186 70 302.5 179t178 284t61.5 424q0 522 -198 522q-92 0 -147.5 -104.5t-55.5 -307.5q0 -188 53.5 -297.5t141.5 -109.5q64 0 116 29v-27q-66 -49 -174 -49q-201 0 -327.5 120.5t-126.5 333.5q0 214 142 336.5t378 122.5q110 0 203 -36.5t163.5 -106.5
t110 -182t39.5 -254q0 -137 -32.5 -260.5t-101.5 -232.5t-169 -192t-242 -138.5t-315 -73.5z" />
    <glyph glyph-name="colon" unicode=":" horiz-adv-x="530" 
d="M266 733q-69 0 -114.5 45t-45.5 113q0 69 45.5 114.5t114.5 45.5q68 0 113 -45.5t45 -114.5q0 -67 -45 -112.5t-113 -45.5zM266 -20q-69 0 -114.5 44.5t-45.5 112.5q0 69 45.5 114.5t114.5 45.5q68 0 113 -45.5t45 -114.5q0 -67 -45 -112t-113 -45z" />
    <glyph glyph-name="semicolon" unicode=";" horiz-adv-x="555" 
d="M266 733q-69 0 -114.5 45t-45.5 113q0 69 45.5 114.5t114.5 45.5q68 0 113 -45.5t45 -114.5q0 -67 -45 -112.5t-113 -45.5zM182 -297l-20 27q114 111 114 239v11h-10q-69 0 -114.5 44.5t-45.5 112.5q0 70 47 115t121 45q79 0 127 -51t48 -156q0 -72 -21 -133
t-60.5 -107.5t-83.5 -80.5t-102 -66z" />
    <glyph glyph-name="less" unicode="&#x3c;" 
d="M936 406v-91l-737 383v50l737 382v-90l-621 -317z" />
    <glyph glyph-name="equal" unicode="=" 
d="M1014 842h-817v71h817v-71zM1014 522h-817v72h817v-72z" />
    <glyph glyph-name="greater" unicode="&#x3e;" 
d="M1010 698l-738 -383v91l619 317l-619 317v90l738 -382v-50z" />
    <glyph glyph-name="question" unicode="?" horiz-adv-x="880" 
d="M330 406h-54q-12 58 -12 122q0 106 52.5 176.5t195.5 143.5q141 73 189.5 111t48.5 83q0 77 -156 122.5t-485 45.5v250h92q275 0 438.5 -118.5t163.5 -321.5q0 -138 -64 -236t-227 -184q-110 -58 -146 -94t-36 -90v-10zM309 -20q-69 0 -114 44.5t-45 112.5q0 69 45 114.5
t114 45.5q68 0 113 -45.5t45 -114.5q0 -67 -45 -112t-113 -45z" />
    <glyph glyph-name="at" unicode="@" horiz-adv-x="1640" 
d="M848 -231q-172 0 -319 56.5t-249 154.5t-159.5 234.5t-57.5 293.5t56.5 293.5t156 234t242.5 153.5t309 56q168 0 309.5 -54.5t237.5 -148.5t149.5 -222t53.5 -273q0 -211 -98.5 -328t-266.5 -117q-100 0 -159 40t-78 102h-10q-78 -142 -240 -142q-100 0 -158.5 52
t-58.5 139q0 59 27.5 105.5t71.5 76t104.5 49t122.5 27.5t129 8v68q0 86 -56.5 138t-152.5 52q-126 0 -205 -112h-21q36 117 119.5 177t204.5 60q146 0 229.5 -84.5t83.5 -224.5v-297q0 -71 34 -106t95 -35q100 0 166 90.5t66 261.5q0 132 -49.5 251t-136.5 206.5
t-213 138.5t-271 51q-178 0 -325 -87.5t-233.5 -245.5t-86.5 -353q0 -198 88 -355t245 -245t355 -88q240 0 426 117l21 -31q-197 -137 -498 -137zM831 221q50 0 86.5 34.5t45.5 86.5v170q-111 0 -180.5 -42.5t-69.5 -125.5q0 -58 31 -90.5t87 -32.5z" />
    <glyph glyph-name="A" unicode="A" horiz-adv-x="1419" 
d="M291 0h-303v10q116 99 180 256l461 1168h168l456 -1162q35 -87 69.5 -145.5t88.5 -116.5v-10h-508v10q26 31 40 69.5t13.5 90t-22.5 104.5l-82 205h-537l-75 -190q-32 -92 -17 -160.5t68 -118.5v-10zM584 1171l-250 -641h500z" />
    <glyph glyph-name="B" unicode="B" horiz-adv-x="1396" 
d="M752 0h-609v10q72 97 72 258v897q0 161 -72 258v11h609q80 0 151.5 -11t137 -36.5t112 -64t74.5 -97t28 -131.5q0 -71 -28 -129t-75 -96t-101.5 -61.5t-114.5 -33.5v-8q73 -9 138.5 -36.5t119 -72.5t85.5 -113.5t32 -150.5q0 -107 -48 -186t-130 -122.5t-177 -64
t-204 -20.5zM512 1356v-563h150q134 0 210 82t76 215q0 129 -76 211.5t-208 82.5q-76 0 -152 -28zM678 49q144 0 232.5 93t88.5 251q0 164 -89.5 256t-241.5 92h-156v-655q67 -37 166 -37z" />
    <glyph glyph-name="C" unicode="C" horiz-adv-x="1372" 
d="M762 -27q-198 0 -354 94t-242 259.5t-86 373.5q0 163 57 304.5t156.5 241.5t239.5 157t301 57q129 0 245 -28t187 -64v-383h-21q-59 177 -188 295.5t-295 118.5q-187 0 -300.5 -149.5t-113.5 -409.5q0 -184 69 -332t194 -233t282 -85q144 0 251.5 73t172.5 212h20
q-35 -220 -189 -361t-386 -141z" />
    <glyph glyph-name="D" unicode="D" horiz-adv-x="1566" 
d="M737 0h-594v10q72 97 72 258v897q0 161 -72 258v11h594q119 0 225 -23t203.5 -76.5t167.5 -134.5t112 -204.5t42 -278.5t-42 -278.5t-112 -204.5t-167.5 -134.5t-203.5 -76.5t-225 -23zM698 53q222 0 350 177t128 487q0 308 -128 485.5t-350 177.5q-87 0 -186 -30v-1266
q102 -31 186 -31z" />
    <glyph glyph-name="E" unicode="E" horiz-adv-x="1308" 
d="M1194 0h-1051v10q72 97 72 258v897q0 161 -72 258v11h1006l51 -392h-20q-28 65 -57 113.5t-70.5 93t-91 72.5t-117.5 44.5t-152 16.5h-180v-634h182q116 0 183 55.5t96 159.5h20v-482h-20q-29 104 -96 159.5t-183 55.5h-182v-645h225q84 0 152 16.5t117.5 44.5t91 72.5
t70.5 93t57 113.5h20z" />
    <glyph glyph-name="F" unicode="F" horiz-adv-x="1236" 
d="M584 0h-441v10q72 97 72 258v897q0 161 -72 258v11h1014l51 -392h-20q-28 65 -57 113.5t-70.5 93t-91 72.5t-117.5 44.5t-152 16.5h-188v-634h190q117 0 183.5 55t97.5 160h21v-482h-21q-31 105 -97.5 160t-183.5 55h-190v-428q0 -161 72 -258v-10z" />
    <glyph glyph-name="G" unicode="G" horiz-adv-x="1456" 
d="M795 -27q-218 0 -382 94.5t-248.5 258.5t-84.5 374q0 223 99 396.5t274.5 268.5t398.5 95q124 0 237.5 -28.5t182.5 -63.5v-393h-21q-68 194 -194.5 309t-276.5 115q-182 0 -297.5 -149.5t-115.5 -420.5q0 -339 157.5 -550t395.5 -211q88 0 131 22v348q0 159 -105 258v11
h457v-11q-72 -97 -72 -258v-288q-100 -81 -242 -129t-294 -48z" />
    <glyph glyph-name="H" unicode="H" horiz-adv-x="1626" 
d="M584 0h-441v10q72 97 72 258v897q0 161 -72 258v11h441v-11q-72 -97 -72 -258v-401h602v401q0 161 -72 258v11h441v-11q-72 -97 -72 -258v-897q0 -161 72 -258v-10h-441v10q72 97 72 258v445h-602v-445q0 -161 72 -258v-10z" />
    <glyph glyph-name="I" unicode="I" horiz-adv-x="739" 
d="M590 0h-440v10q71 95 71 258v897q0 163 -71 258v11h440v-11q-72 -97 -72 -258v-897q0 -161 72 -258v-10z" />
    <glyph glyph-name="J" unicode="J" horiz-adv-x="722" 
d="M-14 -410v21q67 18 113.5 57t71.5 98t35.5 126t10.5 153v1120q0 161 -72 258v11h441v-11q-72 -97 -72 -258v-1112q0 -129 -38 -220.5t-110.5 -143.5t-165 -75.5t-214.5 -23.5z" />
    <glyph glyph-name="K" unicode="K" horiz-adv-x="1445" 
d="M584 0h-441v10q72 97 72 258v897q0 161 -72 258v11h441v-11q-72 -97 -72 -258v-897q0 -161 72 -258v-10zM1286 -16q-84 0 -148.5 25t-115 71t-111.5 127l-352 471v10l414 486q131 154 33 249v11h356v-11q-154 -65 -320 -254l-256 -288l488 -658q68 -91 110 -132.5
t82 -53.5v-14q-80 -39 -180 -39z" />
    <glyph glyph-name="L" unicode="L" horiz-adv-x="1206" 
d="M1174 0h-1031v10q72 97 72 258v897q0 161 -72 258v11h441v-11q-72 -97 -72 -258v-1114h205q104 0 182 23.5t134 73t94 108.5t77 147h21z" />
    <glyph glyph-name="M" unicode="M" horiz-adv-x="1912" 
d="M389 0h-283v12q111 131 111 256v899q0 125 -111 256v11h396l463 -1057l458 1057h346v-11q-71 -95 -71 -258v-897q0 -163 71 -258v-10h-440v10q72 97 72 258v963l-539 -1231h-43l-540 1223v-955q0 -126 110 -256v-12z" />
    <glyph glyph-name="N" unicode="N" horiz-adv-x="1484" 
d="M389 0h-283v12q111 131 111 256v899q0 125 -111 256v11h365l746 -992v723q0 125 -111 256v13h283v-13q-111 -131 -111 -256v-1165h-76l-923 1212v-944q0 -126 110 -256v-12z" />
    <glyph glyph-name="O" unicode="O" horiz-adv-x="1564" 
d="M782 -27q-211 0 -370.5 92.5t-245.5 261.5t-86 390q0 335 191.5 539t510.5 204t511 -204t192 -539t-192 -539.5t-511 -204.5zM782 27q181 0 283 189t102 501t-102 501t-283 189q-180 0 -282.5 -189.5t-102.5 -500.5t102.5 -500.5t282.5 -189.5z" />
    <glyph glyph-name="P" unicode="P" horiz-adv-x="1329" 
d="M584 0h-441v10q72 97 72 258v897q0 161 -72 258v11h582q89 0 167 -12t153 -42t128.5 -76t86 -120.5t32.5 -169.5q0 -89 -30.5 -162t-82 -122t-121 -82.5t-144 -48.5t-154.5 -15q-104 0 -187 34v33q59 -14 123 -14q71 0 127 30t91 82.5t53 120t18 144.5q0 73 -18.5 138.5
t-53.5 117.5t-92.5 83t-130.5 31q-96 0 -178 -30v-1086q0 -161 72 -258v-10z" />
    <glyph glyph-name="Q" unicode="Q" horiz-adv-x="1564" 
d="M1485 717q0 -335 -192 -539.5t-511 -204.5q-44 0 -102 7q44 -44 104 -72t142.5 -40.5t154.5 -16t185 -3.5v-262h-60q-214 0 -370 106t-209 296q-253 47 -400 242.5t-147 486.5q0 335 191.5 539t510.5 204t511 -204t192 -539zM397 717q0 -311 102.5 -500.5t282.5 -189.5
q181 0 283 189t102 501t-102 501t-283 189q-180 0 -282.5 -189.5t-102.5 -500.5z" />
    <glyph glyph-name="R" unicode="R" horiz-adv-x="1476" 
d="M1264 -16q-57 0 -106.5 14t-85.5 34.5t-68 57t-52 66.5t-41.5 79.5t-32.5 80.5t-28 83q-15 46 -24 71.5t-24.5 63t-30 57.5t-35 41.5t-46 30.5t-55.5 9h-123v-404q0 -161 72 -258v-10h-441v10q72 97 72 258v897q0 161 -72 258v11h586q109 0 202.5 -20t173.5 -62
t126.5 -118t46.5 -179q0 -69 -24 -128t-64 -100t-93.5 -71t-111 -45.5t-117.5 -18.5v-8q64 -2 117.5 -26.5t89.5 -57.5t68.5 -86t51 -95.5t40.5 -103.5q17 -48 28.5 -77.5t29.5 -66.5t34.5 -58t38 -35.5t45.5 -14.5q37 0 62 25l16 -14q-27 -42 -89 -66t-136 -24zM512 1354
v-631h178q132 0 206.5 89t74.5 243q0 153 -75.5 241t-213.5 88q-94 0 -170 -30z" />
    <glyph glyph-name="S" unicode="S" horiz-adv-x="1234" 
d="M614 -27q-139 0 -269 32t-206 71v407h21q67 -204 199 -328t290 -124q126 0 199.5 71.5t73.5 180.5q0 49 -19 89.5t-47.5 68.5t-76.5 54t-91 42t-106 36t-106.5 35.5t-96 39t-87 47t-70 57.5t-55.5 73.5t-33 91t-13 113.5q0 186 141 308t369 122q119 0 234.5 -27
t185.5 -59v-379h-21q-71 190 -182 299t-256 109q-110 0 -183 -64t-73 -168q0 -45 18 -82.5t46.5 -64.5t78.5 -53t97.5 -44t121.5 -42q41 -13 67 -22t64 -24t63.5 -28t58.5 -31.5t55 -38t46.5 -44.5t40 -54t29 -63t19.5 -75t6 -87q0 -197 -143.5 -321t-389.5 -124z" />
    <glyph glyph-name="T" unicode="T" horiz-adv-x="1370" 
d="M905 0h-440v10q72 97 72 258v1114h-76q-158 0 -265 -93.5t-182 -264.5h-20l51 410h1282l49 -410h-20q-73 171 -180 264.5t-267 93.5h-75v-1114q0 -163 71 -258v-10z" />
    <glyph glyph-name="U" unicode="U" horiz-adv-x="1460" 
d="M756 -27q-267 0 -419.5 127.5t-152.5 356.5v708q0 163 -71 258v11h440v-11q-72 -97 -72 -258v-708q0 -189 99.5 -290t271.5 -101t271.5 102t99.5 289v708q0 125 -111 256v13h283v-13q-111 -131 -111 -256v-708q0 -232 -136 -358t-392 -126z" />
    <glyph glyph-name="V" unicode="V" horiz-adv-x="1388" 
d="M770 0h-168l-442 1161q-32 87 -65.5 145.5t-86.5 116.5v11h508v-11q-93 -112 -35 -268l332 -887l326 865q26 69 27.5 124.5t-16 94t-52.5 71.5v11h303v-11q-128 -107 -189 -264z" />
    <glyph glyph-name="W" unicode="W" horiz-adv-x="2074" 
d="M731 0h-168l-409 1161q-57 163 -146 262v11h502v-11q-95 -119 -43 -264l307 -870l223 641l-84 231q-33 93 -64.5 153.5t-76.5 108.5v11h502v-11q-100 -121 -49 -264l307 -870l301 858q61 173 -49 276v11h303v-11q-139 -118 -189 -264l-407 -1159h-168l-295 838z" />
    <glyph glyph-name="X" unicode="X" horiz-adv-x="1390" 
d="M315 0h-303v10q77 51 140 112.5t124 151.5l277 412l-291 475q-92 147 -221 262v11h530v-11q-65 -111 31 -270l180 -295l209 313q35 53 47.5 102t5 85t-29.5 65v11h301v-11q-76 -50 -137.5 -109t-120.5 -145l-244 -360l338 -537q93 -150 217 -262v-10h-528v10
q67 114 -31 271l-223 354l-238 -356q-39 -58 -53.5 -110.5t-8 -90.5t28.5 -68v-10z" />
    <glyph glyph-name="Y" unicode="Y" horiz-adv-x="1323" 
d="M895 0h-440v10q71 95 71 258v248l-321 637q-80 159 -197 270v11h522v-11q-35 -48 -38.5 -112t36.5 -154l258 -520l252 502q42 91 38.5 163t-46.5 121v11h305v-11q-138 -98 -217 -254l-295 -581v-320q0 -161 72 -258v-10z" />
    <glyph glyph-name="Z" unicode="Z" horiz-adv-x="1308" 
d="M1165 0h-1075v43l780 1339h-227q-139 0 -239 -44.5t-159.5 -120t-105.5 -193.5h-20l49 410h1051v-43l-781 -1340h254q105 0 186 24.5t140.5 73t101 111.5t76.5 150h21z" />
    <glyph glyph-name="bracketleft" unicode="[" horiz-adv-x="677" 
d="M670 -436h-490v1896h490v-43h-49q-106 0 -145.5 -35.5t-39.5 -128.5v-1482q0 -93 39.5 -128.5t145.5 -35.5h49v-43z" />
    <glyph glyph-name="backslash" unicode="\" horiz-adv-x="792" 
d="M791 -205h-80l-666 1639h80z" />
    <glyph glyph-name="bracketright" unicode="]" horiz-adv-x="677" 
d="M498 -436h-490v43h49q106 0 145.5 35.5t39.5 128.5v1482q0 93 -39.5 128.5t-145.5 35.5h-49v43h490v-1896z" />
    <glyph glyph-name="asciicircum" unicode="^" 
d="M379 961h-74l266 483h68l264 -483h-72l-223 262h-8z" />
    <glyph glyph-name="underscore" unicode="_" horiz-adv-x="612" 
d="M612 -430h-612v86h612v-86z" />
    <glyph glyph-name="grave" unicode="`" horiz-adv-x="432" 
d="M371 1163h-27l-283 305v27h228z" />
    <glyph glyph-name="a" unicode="a" horiz-adv-x="1077" 
d="M1040 82l11 -10q-25 -45 -79.5 -72t-121.5 -27q-85 0 -137.5 40t-63.5 110l-2 8h-6q-88 -158 -289 -158q-125 0 -195.5 60t-70.5 162q0 86 49 153t131 106.5t179.5 60t203.5 20.5v127q0 115 -69.5 185.5t-190.5 70.5q-89 0 -157 -41t-107 -115h-21q35 134 146.5 211.5
t263.5 77.5q193 0 302.5 -107.5t109.5 -281.5v-515q0 -81 63 -81q39 0 51 16zM502 106q63 0 105 43t42 103v235q-126 -3 -201 -63t-75 -164q0 -79 37 -116.5t92 -37.5z" />
    <glyph glyph-name="b" unicode="b" horiz-adv-x="1241" 
d="M602 -27q-258 0 -446 123v1080q0 154 -74 225v10l340 115h10v-660h10q48 87 129 136t185 49q183 0 294 -139t111 -369q0 -112 -40 -215t-111 -182t-177 -126t-231 -47zM612 20q121 0 186.5 125.5t65.5 341.5q0 198 -62.5 309t-172.5 111q-79 0 -133.5 -48t-63.5 -124
v-569q10 -59 57.5 -102.5t122.5 -43.5z" />
    <glyph glyph-name="c" unicode="c" horiz-adv-x="1040" 
d="M561 -27q-99 0 -186.5 34.5t-153 98t-103.5 161t-38 216.5q0 120 45 226t120.5 180.5t179.5 118t218 43.5q74 0 156.5 -19t148.5 -53v-307h-20q-52 143 -148 233t-213 90q-112 0 -188 -87t-76 -255q0 -204 114.5 -340.5t284.5 -136.5q90 0 164 44t105 126h20
q-26 -169 -145 -271t-285 -102z" />
    <glyph glyph-name="d" unicode="d" horiz-adv-x="1253" 
d="M489 -27q-185 0 -297 138t-112 370q0 124 39.5 232t106 181t156 115t187.5 42q152 0 242 -76v201q0 156 -72 225v10l338 115h10v-1247q0 -156 72 -222v-10l-338 -74h-10v183h-10q-48 -85 -127 -134t-185 -49zM614 117q82 0 135.5 48.5t61.5 123.5v493q-8 83 -62.5 146
t-140.5 63q-110 0 -172.5 -119t-62.5 -327q0 -201 65.5 -314.5t175.5 -113.5z" />
    <glyph glyph-name="e" unicode="e" horiz-adv-x="1077" 
d="M997 346h21q-36 -169 -157 -271t-294 -102q-137 0 -246 58.5t-175 177t-66 278.5q0 125 41 232t111 179t163 112.5t195 40.5q95 0 174.5 -32t131 -86.5t80 -125t28.5 -148.5h-701q9 -229 122.5 -356t279.5 -127q100 0 176.5 45.5t115.5 124.5zM512 991q-92 0 -149 -73
t-60 -211h428q-12 131 -68.5 207.5t-150.5 76.5z" />
    <glyph glyph-name="f" unicode="f" horiz-adv-x="716" 
d="M520 0h-391v10q57 82 57 232v585q0 114 -88 156v10q68 31 103.5 79t56.5 128q87 338 444 338h48v-229h-226q-103 0 -160 -37.5t-57 -108.5q0 -47 36 -85t108 -54h264l-25 -74h-227v-708q0 -150 57 -232v-10z" />
    <glyph glyph-name="g" unicode="g" horiz-adv-x="1126" 
d="M1114 1155v-182q-87 0 -138.5 -9t-90.5 -32q96 -93 96 -227q0 -155 -122 -251t-312 -96q-156 0 -273 66q-32 -37 -32 -76q0 -19 5.5 -34t19 -26t26.5 -19t37.5 -13t43 -8.5t52 -5.5t54.5 -2.5t61 -1.5q76 -2 134.5 -6.5t120.5 -15.5t105.5 -31t79.5 -49.5t54 -74
t18 -102.5q0 -111 -79 -200.5t-211.5 -139t-289.5 -49.5q-199 0 -301 74t-102 202q0 130 110 220q-76 61 -76 161q0 126 136 222q-131 94 -131 256q0 155 122.5 250.5t313.5 95.5t313 -95q71 199 256 199zM545 406q82 0 127 78.5t45 220.5q0 141 -45 220t-127 79
q-80 0 -126 -79.5t-46 -219.5q0 -141 46 -220t126 -79zM244 25q-5 2 -14.5 7t-14.5 7q-16 -31 -16 -80q0 -120 130.5 -208.5t311.5 -88.5q127 0 209 48t82 126q0 75 -69.5 105t-260.5 34q-136 3 -220 13.5t-138 36.5z" />
    <glyph glyph-name="h" unicode="h" horiz-adv-x="1275" 
d="M510 0h-391v10q57 82 57 232v934q0 154 -74 225v10l340 115h11v-676h10q41 89 124.5 145t196.5 56q151 0 240.5 -96t89.5 -250v-463q0 -150 57 -232v-10h-391v10q58 83 58 232v456q0 84 -51.5 138.5t-135.5 54.5q-82 0 -140 -53t-58 -140v-456q0 -150 57 -232v-10z" />
    <glyph glyph-name="i" unicode="i" horiz-adv-x="634" 
d="M324 1167q-69 0 -116.5 47t-47.5 117q0 69 47.5 116.5t116.5 47.5t116 -47.5t47 -116.5q0 -70 -47 -117t-116 -47zM520 0h-391v10q57 82 57 232v458q0 153 -73 226v10l340 115h10v-809q0 -150 57 -232v-10z" />
    <glyph glyph-name="j" unicode="j" horiz-adv-x="614" 
d="M313 1167q-69 0 -116 47t-47 117q0 69 47 116.5t116 47.5t116.5 -47.5t47.5 -116.5q0 -70 -47.5 -117t-116.5 -47zM0 -410v21q102 48 139 125t37 215v749q0 152 -74 226v10l340 115h11v-1100q0 -185 -118 -273t-335 -88z" />
    <glyph glyph-name="k" unicode="k" horiz-adv-x="1177" 
d="M510 0h-391v10q57 82 57 232v934q0 154 -74 225v10l340 115h11v-1284q0 -150 57 -232v-10zM1026 -16q-96 0 -158 35t-120 114l-254 346v10l251 289q135 154 46 236v10h313v-10q-87 -41 -148.5 -87.5t-134.5 -125.5l-123 -133l389 -525q71 -95 105 -106v-14
q-73 -39 -166 -39z" />
    <glyph glyph-name="l" unicode="l" horiz-adv-x="618" 
d="M510 0h-391v10q57 82 57 232v934q0 154 -74 225v10l340 115h11v-1284q0 -150 57 -232v-10z" />
    <glyph glyph-name="m" unicode="m" horiz-adv-x="1857" 
d="M520 0h-391v10q57 82 57 232v458q0 153 -73 226v10l340 115h10v-201h10q41 94 119 147.5t184 53.5q107 0 185.5 -57t107.5 -156h10q38 94 116 153.5t189 59.5q140 0 226 -92.5t86 -239.5v-477q0 -150 57 -232v-10h-391v10q57 82 57 232v465q0 80 -43.5 129t-115.5 49
q-76 0 -128.5 -53.5t-52.5 -141.5v-448q0 -149 58 -232v-10h-392v10q58 83 58 232v465q0 80 -44 129t-116 49q-76 0 -128 -53.5t-52 -141.5v-448q0 -150 57 -232v-10z" />
    <glyph glyph-name="n" unicode="n" horiz-adv-x="1286" 
d="M520 0h-391v10q57 82 57 232v458q0 153 -73 226v10l340 115h10v-201h10q41 88 125 144.5t197 56.5q150 0 239.5 -96t89.5 -250v-463q0 -149 58 -232v-10h-391v10q57 82 57 232v456q0 84 -51 138.5t-135 54.5q-83 0 -141 -53.5t-58 -139.5v-456q0 -150 57 -232v-10z" />
    <glyph glyph-name="o" unicode="o" horiz-adv-x="1189" 
d="M596 -27q-228 0 -375 152t-147 387t147 387t375 152q227 0 373.5 -152t146.5 -387t-146.5 -387t-373.5 -152zM596 20q76 0 127 65t73.5 173t22.5 254t-22.5 254t-73.5 173t-127 65q-112 0 -168.5 -134.5t-56.5 -357.5t56.5 -357.5t168.5 -134.5z" />
    <glyph glyph-name="p" unicode="p" horiz-adv-x="1265" 
d="M510 -410h-391v11q57 82 57 231v868q0 152 -74 226v10l340 115h11v-185h10q48 87 128 136t179 49q189 0 302.5 -136.5t113.5 -363.5q0 -169 -67.5 -302.5t-178.5 -204.5t-242 -71q-152 0 -245 76v-217q0 -149 57 -231v-11zM657 33q111 0 173.5 121.5t62.5 337.5
q0 193 -66.5 304t-177.5 111q-79 0 -133 -48t-63 -124v-493q10 -83 64 -146t140 -63z" />
    <glyph glyph-name="q" unicode="q" horiz-adv-x="1255" 
d="M1141 -410h-391v11q57 82 57 231v324h-10q-48 -85 -127 -134t-185 -49q-184 0 -294.5 137.5t-110.5 362.5q0 116 38.5 220t108.5 184t178.5 127t239.5 47q246 0 438 -123v-1096q0 -148 58 -231v-11zM608 117q83 0 137 48.5t62 123.5v569q-8 59 -56 102.5t-122 43.5
q-120 0 -186 -124t-66 -331q0 -205 61.5 -318.5t169.5 -113.5z" />
    <glyph glyph-name="r" unicode="r" horiz-adv-x="849" 
d="M520 0h-391v10q57 82 57 232v458q0 153 -73 226v10l340 115h10v-281h10q34 136 119 208.5t239 72.5v-256h-118q-129 0 -189.5 -54t-60.5 -180v-319q0 -150 57 -232v-10z" />
    <glyph glyph-name="s" unicode="s" horiz-adv-x="980" 
d="M477 -27q-204 0 -360 76v305h20q52 -151 159.5 -240t213.5 -89q82 0 133 49t51 125q0 74 -54.5 114.5t-178.5 71.5q-81 20 -140 45t-111 63.5t-79 97t-27 134.5q0 147 111.5 236.5t284.5 89.5q149 0 325 -76v-287h-20q-46 134 -143.5 222.5t-200.5 88.5
q-75 0 -120.5 -42.5t-45.5 -110.5q0 -70 55.5 -109.5t177.5 -72.5q67 -18 117.5 -37.5t98.5 -49t79 -66t49.5 -88.5t18.5 -116q0 -87 -35.5 -153.5t-96 -104.5t-131.5 -57t-151 -19z" />
    <glyph glyph-name="t" unicode="t" horiz-adv-x="755" 
d="M477 -27q-133 0 -223 85t-90 229v540q0 108 -92 144v10q195 74 358 262h10v-219h297l-24 -74h-273v-663q0 -92 49 -141.5t123 -49.5q45 0 78 15.5t47 35.5l21 -10q-32 -72 -108 -118t-173 -46z" />
    <glyph glyph-name="u" unicode="u" horiz-adv-x="1267" 
d="M487 -27q-145 0 -234 96.5t-89 249.5v381q0 151 -72 226v10l338 115h10v-725q0 -84 50 -138.5t131 -54.5q82 0 140 53t58 140v374q0 152 -71 226v10l337 115h11v-775q0 -154 73 -221v-10l-340 -72h-10v201h-10q-41 -88 -125 -144.5t-197 -56.5z" />
    <glyph glyph-name="v" unicode="v" horiz-adv-x="1054" 
d="M596 0h-123l-338 791q-64 150 -137 223v10h448v-10q-31 -39 -36 -94.5t24 -135.5l219 -520l207 506q23 56 23.5 106.5t-13 82t-36.5 55.5v10h243v-10q-94 -78 -151 -217z" />
    <glyph glyph-name="w" unicode="w" horiz-adv-x="1626" 
d="M1407 1014v10h242v-10q-92 -80 -150 -232l-303 -782h-123l-260 655l-254 -655h-121l-309 782q-62 160 -131 232v10h430v-10q-30 -38 -33.5 -95t25.5 -137l196 -501l168 446l-20 51q-68 176 -131 236v10h448v-10q-34 -36 -42.5 -93.5t18.5 -138.5l194 -501l189 489
q20 54 20 104t-14.5 84t-38.5 56z" />
    <glyph glyph-name="x" unicode="x" horiz-adv-x="1079" 
d="M266 0h-248v10q128 80 224 215l170 238l-205 321q-100 155 -191 230v10h471v-10q-52 -86 41 -232l99 -159l112 159q101 142 49 232v10h248v-10q-117 -73 -223 -215l-158 -215l217 -344q44 -69 96.5 -133t94.5 -97v-10h-471v10q50 82 -41 232l-113 182l-125 -182
q-99 -142 -47 -232v-10z" />
    <glyph glyph-name="y" unicode="y" horiz-adv-x="1075" 
d="M59 -422v229h103q145 0 233 38t140 132l-379 814q-64 137 -150 223v10h461v-10q-68 -87 -4 -232l211 -477l194 463q25 59 29 110t-7.5 82.5t-33.5 53.5v10h242v-10q-107 -93 -166 -230l-361 -843q-22 -51 -39 -85.5t-42.5 -75.5t-52 -68.5t-64.5 -55t-82 -43t-103 -25.5
t-129 -10z" />
    <glyph glyph-name="z" unicode="z" horiz-adv-x="1044" 
d="M928 0h-862v27l585 950h-149q-134 0 -226.5 -73.5t-142.5 -201.5h-20l41 322h821v-27l-582 -950h180q263 0 375 275h21z" />
    <glyph glyph-name="braceleft" unicode="{" horiz-adv-x="679" 
d="M672 -436h-70q-198 0 -281 78.5t-83 257.5v301q0 139 -57 213.5t-142 74.5v46q85 0 142 74.5t57 213.5v301q0 179 83 257.5t281 78.5h70v-43q-178 0 -178 -200v-398q0 -81 -21 -141.5t-56 -93t-67.5 -48.5t-66.5 -20v-8q34 -4 66.5 -20t67.5 -48.5t56 -93t21 -141.5v-398
q0 -200 178 -200v-43z" />
    <glyph glyph-name="bar" unicode="|" horiz-adv-x="399" 
d="M236 -205h-72v1639h72v-1639z" />
    <glyph glyph-name="braceright" unicode="}" horiz-adv-x="679" 
d="M78 -436h-70v43q178 0 178 200v398q0 81 21 141.5t56 93t67.5 48.5t66.5 20v8q-34 4 -66.5 20t-67.5 48.5t-56 93t-21 141.5v398q0 200 -178 200v43h70q198 0 281 -78.5t83 -257.5v-301q0 -139 57 -213.5t142 -74.5v-46q-85 0 -142 -74.5t-57 -213.5v-301
q0 -179 -83 -257.5t-281 -78.5z" />
    <glyph glyph-name="asciitilde" unicode="~" 
d="M795 582q-89 0 -222 63q-42 21 -65.5 31t-62.5 20.5t-74 10.5q-69 0 -122 -22t-108 -79l-26 17q64 120 135 175.5t164 55.5q39 0 80.5 -10t67.5 -21t71 -32q126 -62 205 -62q69 0 121.5 22t107.5 78l27 -16q-62 -120 -133.5 -175.5t-165.5 -55.5z" />
    <glyph glyph-name="uni00A0" unicode="&#xa0;" horiz-adv-x="512" 
 />
    <glyph glyph-name="exclamdown" unicode="&#xa1;" horiz-adv-x="657" 
d="M330 733q-69 0 -114.5 45.5t-45.5 114.5q0 68 45.5 113t114.5 45q67 0 112 -45t45 -113q0 -69 -44.5 -114.5t-112.5 -45.5zM330 -430q-98 0 -166 33l139 1022h51l140 -1022q-68 -33 -164 -33z" />
    <glyph glyph-name="cent" unicode="&#xa2;" horiz-adv-x="1040" 
d="M971 346h20q-24 -157 -129 -256.5t-254 -114.5v-180h-61v178q-97 2 -182 37.5t-148.5 99.5t-100 160t-36.5 213q0 215 133 370.5t334 188.5v177h61v-170q12 2 35 2q74 0 156.5 -19t148.5 -53v-307h-20q-52 143 -148 233t-213 90q-113 0 -188.5 -86.5t-75.5 -255.5
q0 -204 114.5 -340.5t284.5 -136.5q90 0 164 44t105 126z" />
    <glyph glyph-name="sterling" unicode="&#xa3;" horiz-adv-x="1228" 
d="M1145 317h20q-26 -161 -108 -252.5t-228 -91.5q-80 0 -211 43q-115 39 -215 39q-67 0 -118 -16t-129 -59l-21 20q85 111 121.5 212t36.5 232q0 120 -33 285h-172l21 51h141q-25 136 -25 236q0 212 126 328t368 116q176 0 344 -86v-352h-21q-32 103 -80.5 187.5
t-116.5 139t-140 54.5q-86 0 -142.5 -61.5t-56.5 -188.5q0 -132 39 -311l12 -62h338l-21 -51h-309q15 -103 15 -166q0 -126 -46 -217.5t-139 -169.5l4 -4q89 55 168 55q63 0 191 -22q126 -23 172 -23q77 0 125.5 31.5t89.5 103.5z" />
    <glyph glyph-name="currency" unicode="&#xa4;" horiz-adv-x="954" 
d="M815 731q0 -123 -74 -213l129 -127l-47 -49l-127 129q-95 -76 -219 -76t-219 76l-127 -129l-47 49l127 127q-72 91 -72 213t72 213l-127 127l47 49l127 -129q95 76 219 76t219 -76l127 129l47 -49l-129 -127q74 -90 74 -213zM477 469q73 0 114.5 66.5t41.5 195.5
t-41.5 195.5t-114.5 66.5q-74 0 -114.5 -66t-40.5 -196t40.5 -196t114.5 -66z" />
    <glyph glyph-name="yen" unicode="&#xa5;" horiz-adv-x="1323" 
d="M1030 1423v11h305v-11q-138 -98 -217 -254l-284 -563h288l-20 -51h-279v-135h299l-20 -51h-279v-101q0 -161 72 -258v-10h-440v10q71 95 71 258v101h-305l23 51h282v96l-20 39h-285l23 51h237l-276 547q-80 159 -197 270v11h522v-11q-35 -48 -38.5 -112t36.5 -154
l258 -520l252 502q42 91 38.5 163t-46.5 121z" />
    <glyph glyph-name="brokenbar" unicode="&#xa6;" horiz-adv-x="399" 
d="M236 766h-72v668h72v-668zM236 -205h-72v668h72v-668z" />
    <glyph glyph-name="section" unicode="&#xa7;" horiz-adv-x="1185" 
d="M1073 389q0 -183 -158 -307q62 -91 62 -191q0 -143 -108.5 -235t-290.5 -92q-100 0 -192.5 24t-152.5 58v352h21q27 -73 60 -135t77.5 -119t101.5 -90t119 -33q75 0 122.5 48t47.5 128q0 82 -66 161t-272 239q-138 107 -210.5 183t-96.5 131.5t-24 123.5q0 184 157 307
q-61 89 -61 191q0 143 108.5 235t290.5 92q100 0 192 -24t152 -58v-352h-20q-27 73 -60.5 135t-78 119t-101.5 90t-119 33q-75 0 -122.5 -48t-47.5 -128q0 -82 66 -161t272 -239q138 -107 210.5 -183t97 -131.5t24.5 -123.5zM610 369q198 -151 277 -248q33 58 33 137
q0 55 -23.5 99.5t-97 113.5t-224.5 184q-196 149 -276 248q-33 -58 -33 -137q0 -55 23.5 -99.5t97 -114t223.5 -183.5z" />
    <glyph glyph-name="dieresis" unicode="&#xa8;" horiz-adv-x="806" 
d="M195 1198q-59 0 -96.5 37.5t-37.5 95.5t37.5 95.5t96.5 37.5t96 -37t37 -96t-37 -96t-96 -37zM612 1198q-58 0 -95.5 37t-37.5 96t37.5 96t95.5 37t95.5 -37t37.5 -96t-37.5 -96t-95.5 -37z" />
    <glyph glyph-name="copyright" unicode="&#xa9;" horiz-adv-x="1716" 
d="M858 -27q-164 0 -309.5 58t-249.5 157.5t-164.5 237t-60.5 291.5t60.5 291.5t164.5 236.5t249.5 157t309.5 58t309.5 -58t249.5 -157t164.5 -236.5t60.5 -291.5t-60.5 -291.5t-164.5 -237t-249.5 -157.5t-309.5 -58zM858 31q142 0 261.5 54.5t199.5 148t124 218t44 265.5
t-44 265.5t-124 218t-199.5 148t-261.5 54.5q-188 0 -333 -93.5t-220.5 -249t-75.5 -343.5t75.5 -343.5t220.5 -249t333 -93.5zM866 281q-80 0 -151.5 28.5t-126 80.5t-87 132t-32.5 176q0 101 36.5 187t98 144t141 91t166.5 33q138 0 267 -47v-240h-19q-48 108 -125 172
t-176 64t-157 -69t-58 -183q0 -181 95.5 -298.5t248.5 -117.5q68 0 122.5 32t82.5 89h16q-19 -119 -114 -196.5t-228 -77.5z" />
    <glyph glyph-name="ordfeminine" unicode="&#xaa;" horiz-adv-x="700" 
d="M676 801l12 -15q-34 -69 -137 -69q-65 0 -98 29t-33 73v4h-6q-68 -106 -195 -106q-85 0 -135.5 46t-50.5 118q0 105 103 161.5t284 59.5v86q0 78 -44 128t-120 50q-117 0 -178 -104h-19q23 92 95.5 145t169.5 53q125 0 196.5 -72t71.5 -194v-348q0 -60 45 -60q20 0 39 15
zM307 795q48 0 80.5 41.5t32.5 109.5v121q-100 -4 -152.5 -46.5t-52.5 -113.5q0 -51 25.5 -81.5t66.5 -30.5z" />
    <glyph glyph-name="guillemotleft" unicode="&#xab;" horiz-adv-x="956" 
d="M496 147h-45l-381 377v23l381 377h45l-179 -383v-11zM858 147h-45l-379 377v23l379 377h45l-178 -383v-11z" />
    <glyph glyph-name="logicalnot" unicode="&#xac;" 
d="M1004 487h-72v240h-746v72h818v-312z" />
    <glyph glyph-name="uni00AD" unicode="&#xad;" horiz-adv-x="653" 
d="M575 479h-497v107h497v-107z" />
    <glyph glyph-name="registered" unicode="&#xae;" horiz-adv-x="1069" 
d="M535 588q-213 0 -343.5 124t-130.5 312q0 189 130.5 312.5t343.5 123.5t343 -123.5t130 -312.5q0 -188 -130 -312t-343 -124zM535 635q163 0 262.5 109t99.5 280t-99.5 280t-262.5 109t-263 -109.5t-100 -279.5t100 -279.5t263 -109.5zM696 813q-42 0 -68.5 22.5
t-47.5 79.5q-19 51 -36 70t-46 19h-33v-109q0 -40 20 -68v-10h-145v10q22 31 22 68v295q0 36 -22 67v11h215q78 0 125 -32.5t47 -94.5q0 -56 -36 -85.5t-79 -31.5v-4q30 -7 47.5 -28t36.5 -70q14 -36 25.5 -50t28.5 -14q12 0 24 8l6 -6q-26 -47 -84 -47zM465 1223v-176h59
q44 0 70.5 25.5t26.5 68.5q0 44 -28.5 67t-68.5 23q-31 0 -59 -8z" />
    <glyph glyph-name="macron" unicode="&#xaf;" horiz-adv-x="638" 
d="M578 1276h-517v102h517v-102z" />
    <glyph glyph-name="degree" unicode="&#xb0;" horiz-adv-x="688" 
d="M344 932q-128 0 -207.5 74.5t-79.5 189.5q0 114 80 189t207 75q129 0 208 -75t79 -189q0 -115 -79 -189.5t-208 -74.5zM344 969q53 0 86 55.5t33 171.5q0 115 -33 171t-86 56t-86 -56t-33 -171q0 -116 33 -171.5t86 -55.5z" />
    <glyph glyph-name="plusminus" unicode="&#xb1;" 
d="M1014 309h-817v72h372v332h-372v71h372v363h72v-363h373v-71h-373v-332h373v-72z" />
    <glyph glyph-name="uni00B2" unicode="&#xb2;" horiz-adv-x="616" 
d="M489 963h-475v10l181 176q85 82 124 152t39 143q0 74 -41 119t-106 45q-57 0 -92.5 -26.5t-63.5 -80.5h-20q16 108 82.5 172t181.5 64q112 0 172.5 -56.5t60.5 -142.5q0 -63 -42 -132.5t-134 -162.5l-127 -131h199q90 0 117 70h20z" />
    <glyph glyph-name="uni00B3" unicode="&#xb3;" horiz-adv-x="583" 
d="M279 946q-208 0 -271 168h21q60 -82 166 -82q74 0 118.5 43t44.5 111q0 72 -45 116t-125 44q-10 0 -45 -3v21q89 18 132.5 58.5t43.5 97.5q0 48 -31.5 78t-86.5 30q-96 0 -152 -100h-20q51 209 252 209q94 0 152.5 -47.5t58.5 -120.5q0 -56 -33 -103t-88 -69
q77 -22 124.5 -80.5t47.5 -147.5q0 -94 -72.5 -158.5t-191.5 -64.5z" />
    <glyph glyph-name="acute" unicode="&#xb4;" horiz-adv-x="432" 
d="M88 1163h-27l82 332h228v-27z" />
    <glyph glyph-name="uni00B5" unicode="&#xb5;" horiz-adv-x="1267" 
d="M1096 1051v-775q0 -154 73 -221v-10l-340 -72h-10v201h-10q-41 -88 -125 -144.5t-197 -56.5q-110 0 -194 62q30 -192 158 -318v-10l-277 -67h-10v1060q0 151 -72 226v10l338 115h10v-725q0 -85 49.5 -139t131.5 -54q84 0 141 53.5t57 141.5v372q0 152 -71 226v10l337 115
h11z" />
    <glyph glyph-name="paragraph" unicode="&#xb6;" horiz-adv-x="1091" 
d="M541 0h-154v10q72 97 72 258v353q-196 0 -311 112t-115 299q0 182 118.5 292t327.5 110h457v-11q-26 -34 -44 -83.5t-18 -100.5v-971q0 -161 72 -258v-10h-153v1376h-252v-1376z" />
    <glyph glyph-name="periodcentered" unicode="&#xb7;" horiz-adv-x="512" 
d="M258 365q-69 0 -114.5 44.5t-45.5 112.5q0 69 45.5 114.5t114.5 45.5q68 0 113 -45.5t45 -114.5q0 -67 -45 -112t-113 -45z" />
    <glyph glyph-name="cedilla" unicode="&#xb8;" horiz-adv-x="563" 
d="M285 -438q-85 0 -142.5 34.5t-81.5 94.5h27q65 -62 141 -62q52 0 80.5 25t28.5 67q0 104 -182 109l104 184l57 -14l-34 -59q108 -13 163.5 -69t55.5 -130q0 -77 -60.5 -128.5t-156.5 -51.5z" />
    <glyph glyph-name="uni00B9" unicode="&#xb9;" horiz-adv-x="444" 
d="M354 963h-248v10q39 56 39 137v410q0 67 -53 67q-17 0 -53 -16v35l256 114h20v-610q0 -81 39 -137v-10z" />
    <glyph glyph-name="ordmasculine" unicode="&#xba;" horiz-adv-x="747" 
d="M375 717q-148 0 -245 102t-97 271q0 167 97 268.5t245 101.5q145 0 242.5 -102t97.5 -268q0 -168 -97.5 -270.5t-242.5 -102.5zM375 752q75 0 114 88t39 250q0 159 -39.5 246t-113.5 87q-75 0 -115.5 -87t-40.5 -246q0 -162 40.5 -250t115.5 -88z" />
    <glyph glyph-name="guillemotright" unicode="&#xbb;" horiz-adv-x="956" 
d="M143 147h-45l178 383v11l-178 383h45l379 -377v-23zM506 147h-45l178 383v11l-178 383h45l381 -377v-23z" />
    <glyph glyph-name="onequarter" unicode="&#xbc;" horiz-adv-x="1193" 
d="M354 676h-248v10q39 56 39 137v410q0 67 -53 67q-17 0 -53 -16v35l256 115h20v-611q0 -81 39 -137v-10zM156 0h-88l858 1434h88zM1081 0h-247v10q38 55 38 117v53h-297v99l369 479h98v-449h127l-45 -129h-82v-53q0 -61 39 -117v-10zM872 596l-219 -287h219v287z" />
    <glyph glyph-name="onehalf" unicode="&#xbd;" horiz-adv-x="1253" 
d="M354 676h-248v10q39 56 39 137v410q0 67 -53 67q-17 0 -53 -16v35l256 115h20v-611q0 -81 39 -137v-10zM156 0h-88l858 1434h88zM1126 0h-475v10l180 176q86 83 125 152.5t39 142.5q0 74 -41 119t-106 45q-57 0 -92.5 -26.5t-63.5 -79.5h-20q16 108 82.5 171.5
t181.5 63.5q112 0 172.5 -56.5t60.5 -142.5q0 -63 -42 -132t-134 -162l-127 -131h199q90 0 117 69h20z" />
    <glyph glyph-name="threequarters" unicode="&#xbe;" horiz-adv-x="1333" 
d="M279 659q-208 0 -271 168h21q60 -82 166 -82q74 0 118.5 43t44.5 111q0 72 -45 116t-125 44q-22 0 -45 -2v20q89 18 132.5 58.5t43.5 97.5q0 48 -31.5 78t-86.5 30q-96 0 -152 -100h-20q51 209 252 209q94 0 152.5 -47.5t58.5 -120.5q0 -56 -33 -103t-88 -69
q77 -22 124.5 -80t47.5 -147q0 -94 -72.5 -159t-191.5 -65zM295 0h-88l858 1434h88zM1221 0h-248v10q39 56 39 117v53h-297v99l368 479h99v-449h127l-45 -129h-82v-53q0 -61 39 -117v-10zM1012 596l-219 -287h219v287z" />
    <glyph glyph-name="questiondown" unicode="&#xbf;" horiz-adv-x="780" 
d="M512 733q-68 0 -113 45.5t-45 114.5q0 67 45 112.5t113 45.5q69 0 114.5 -45t45.5 -113q0 -69 -45.5 -114.5t-114.5 -45.5zM713 -430h-92q-275 0 -439 118.5t-164 321.5q0 138 64 236t227 184q110 59 146.5 94.5t36.5 89.5v11h53q12 -59 12 -123q0 -106 -52.5 -176.5
t-195.5 -143.5q-140 -73 -188.5 -111t-48.5 -83q0 -77 156 -122.5t485 -45.5v-250z" />
    <glyph glyph-name="Agrave" unicode="&#xc0;" horiz-adv-x="1419" 
d="M823 1599h-26l-373 275v27h260zM291 0h-303v10q116 99 180 256l461 1168h168l456 -1162q35 -87 69.5 -145.5t88.5 -116.5v-10h-508v10q26 31 40 69.5t13.5 90t-22.5 104.5l-82 205h-537l-75 -190q-32 -92 -17 -160.5t68 -118.5v-10zM584 1171l-250 -641h500z" />
    <glyph glyph-name="Aacute" unicode="&#xc1;" horiz-adv-x="1419" 
d="M629 1599h-27l139 302h260v-27zM291 0h-303v10q116 99 180 256l461 1168h168l456 -1162q35 -87 69.5 -145.5t88.5 -116.5v-10h-508v10q26 31 40 69.5t13.5 90t-22.5 104.5l-82 205h-537l-75 -190q-32 -92 -17 -160.5t68 -118.5v-10zM584 1171l-250 -641h500z" />
    <glyph glyph-name="Acircumflex" unicode="&#xc2;" horiz-adv-x="1419" 
d="M406 1599h-27l295 302h76l294 -302h-26l-301 123h-12zM291 0h-303v10q116 99 180 256l461 1168h168l456 -1162q35 -87 69.5 -145.5t88.5 -116.5v-10h-508v10q26 31 40 69.5t13.5 90t-22.5 104.5l-82 205h-537l-75 -190q-32 -92 -17 -160.5t68 -118.5v-10zM584 1171
l-250 -641h500z" />
    <glyph glyph-name="Atilde" unicode="&#xc3;" horiz-adv-x="1419" 
d="M412 1630l-25 12q40 110 88 157.5t117 47.5q61 0 149 -43q76 -37 133 -37q37 0 67.5 16t70.5 64l24 -12q-39 -111 -87.5 -158t-119.5 -47q-63 0 -147 41q-80 39 -133 39q-37 0 -66.5 -16.5t-70.5 -63.5zM291 0h-303v10q116 99 180 256l461 1168h168l456 -1162
q35 -87 69.5 -145.5t88.5 -116.5v-10h-508v10q26 31 40 69.5t13.5 90t-22.5 104.5l-82 205h-537l-75 -190q-32 -92 -17 -160.5t68 -118.5v-10zM584 1171l-250 -641h500z" />
    <glyph glyph-name="Adieresis" unicode="&#xc4;" horiz-adv-x="1419" 
d="M485 1616q-59 0 -97 38t-38 97t38 97t97 38t97.5 -38.5t38.5 -96.5t-38.5 -96.5t-97.5 -38.5zM940 1616q-58 0 -96.5 38t-38.5 97t38.5 97t96.5 38t96.5 -38t38.5 -97t-38.5 -97t-96.5 -38zM291 0h-303v10q116 99 180 256l461 1168h168l456 -1162q35 -87 69.5 -145.5
t88.5 -116.5v-10h-508v10q26 31 40 69.5t13.5 90t-22.5 104.5l-82 205h-537l-75 -190q-32 -92 -17 -160.5t68 -118.5v-10zM584 1171l-250 -641h500z" />
    <glyph glyph-name="Aring" unicode="&#xc5;" horiz-adv-x="1419" 
d="M713 1540q-100 0 -163 60t-63 151q0 92 63 151.5t163 59.5q99 0 161 -59.5t62 -151.5q0 -90 -62.5 -150.5t-160.5 -60.5zM713 1614q63 0 102 38.5t39 98.5q0 62 -39 100.5t-102 38.5t-102.5 -38.5t-39.5 -100.5q0 -60 39.5 -98.5t102.5 -38.5zM291 0h-303v10
q116 99 180 256l461 1168h168l456 -1162q35 -87 69.5 -145.5t88.5 -116.5v-10h-508v10q26 31 40 69.5t13.5 90t-22.5 104.5l-82 205h-537l-75 -190q-32 -92 -17 -160.5t68 -118.5v-10zM584 1171l-250 -641h500z" />
    <glyph glyph-name="AE" unicode="&#xc6;" horiz-adv-x="1855" 
d="M1772 391h20l-51 -391h-840v10q38 48 48 112.5t-17 151.5l-72 205h-538l-78 -184q-72 -171 47 -285v-10h-303v10q110 93 180 256l422 1000q-33 100 -82 157v11h1188l51 -392h-21q-36 83 -74 140t-94.5 105t-135.5 71.5t-183 23.5h-385l221 -618h166q116 0 183 55.5
t96 159.5h20v-481h-20q-29 104 -96 159.5t-183 55.5h-147l237 -670q94 5 162.5 28.5t119.5 70.5t86 103.5t73 145.5zM614 1184l-270 -654h498z" />
    <glyph glyph-name="Ccedilla" unicode="&#xc7;" horiz-adv-x="1372" 
d="M762 -27h-14l-19 -32q108 -13 163.5 -69t55.5 -130q0 -77 -60.5 -128.5t-156.5 -51.5q-85 0 -142 34.5t-81 94.5h27q65 -62 141 -62q52 0 80 25t28 67q0 104 -182 109l84 147q-271 28 -438.5 228t-167.5 495q0 163 57 304.5t156.5 241.5t239.5 157t301 57q129 0 245 -28
t187 -64v-383h-21q-59 177 -188 295.5t-295 118.5q-187 0 -300.5 -149.5t-113.5 -409.5q0 -184 69 -332t194 -233t282 -85q144 0 251.5 73t172.5 212h20q-35 -220 -189 -361t-386 -141z" />
    <glyph glyph-name="Egrave" unicode="&#xc8;" horiz-adv-x="1308" 
d="M793 1599h-27l-373 275v27h260zM1194 0h-1051v10q72 97 72 258v897q0 161 -72 258v11h1006l51 -392h-20q-28 65 -57 113.5t-70.5 93t-91 72.5t-117.5 44.5t-152 16.5h-180v-634h182q116 0 183 55.5t96 159.5h20v-482h-20q-29 104 -96 159.5t-183 55.5h-182v-645h225
q84 0 152 16.5t117.5 44.5t91 72.5t70.5 93t57 113.5h20z" />
    <glyph glyph-name="Eacute" unicode="&#xc9;" horiz-adv-x="1308" 
d="M598 1599h-27l140 302h260v-27zM1194 0h-1051v10q72 97 72 258v897q0 161 -72 258v11h1006l51 -392h-20q-28 65 -57 113.5t-70.5 93t-91 72.5t-117.5 44.5t-152 16.5h-180v-634h182q116 0 183 55.5t96 159.5h20v-482h-20q-29 104 -96 159.5t-183 55.5h-182v-645h225
q84 0 152 16.5t117.5 44.5t91 72.5t70.5 93t57 113.5h20z" />
    <glyph glyph-name="Ecircumflex" unicode="&#xca;" horiz-adv-x="1308" 
d="M375 1599h-27l295 302h76l295 -302h-27l-301 123h-12zM1194 0h-1051v10q72 97 72 258v897q0 161 -72 258v11h1006l51 -392h-20q-28 65 -57 113.5t-70.5 93t-91 72.5t-117.5 44.5t-152 16.5h-180v-634h182q116 0 183 55.5t96 159.5h20v-482h-20q-29 104 -96 159.5
t-183 55.5h-182v-645h225q84 0 152 16.5t117.5 44.5t91 72.5t70.5 93t57 113.5h20z" />
    <glyph glyph-name="Edieresis" unicode="&#xcb;" horiz-adv-x="1308" 
d="M455 1616q-59 0 -97.5 38.5t-38.5 96.5t38.5 96.5t97.5 38.5t97 -38t38 -97t-38 -97t-97 -38zM909 1616q-59 0 -97 38t-38 97t38 97t97 38t97 -38t38 -97t-38 -97t-97 -38zM1194 0h-1051v10q72 97 72 258v897q0 161 -72 258v11h1006l51 -392h-20q-28 65 -57 113.5
t-70.5 93t-91 72.5t-117.5 44.5t-152 16.5h-180v-634h182q116 0 183 55.5t96 159.5h20v-482h-20q-29 104 -96 159.5t-183 55.5h-182v-645h225q84 0 152 16.5t117.5 44.5t91 72.5t70.5 93t57 113.5h20z" />
    <glyph glyph-name="Igrave" unicode="&#xcc;" horiz-adv-x="739" 
d="M481 1599h-26l-373 275v27h260zM590 0h-440v10q71 95 71 258v897q0 163 -71 258v11h440v-11q-72 -97 -72 -258v-897q0 -161 72 -258v-10z" />
    <glyph glyph-name="Iacute" unicode="&#xcd;" horiz-adv-x="739" 
d="M287 1599h-27l139 302h260v-27zM590 0h-440v10q71 95 71 258v897q0 163 -71 258v11h440v-11q-72 -97 -72 -258v-897q0 -161 72 -258v-10z" />
    <glyph glyph-name="Icircumflex" unicode="&#xce;" horiz-adv-x="739" 
d="M63 1599h-26l295 302h76l294 -302h-26l-301 123h-13zM590 0h-440v10q71 95 71 258v897q0 163 -71 258v11h440v-11q-72 -97 -72 -258v-897q0 -161 72 -258v-10z" />
    <glyph glyph-name="Idieresis" unicode="&#xcf;" horiz-adv-x="739" 
d="M164 1616q-58 0 -96.5 38t-38.5 97t38.5 97t96.5 38t96.5 -38t38.5 -97t-38.5 -97t-96.5 -38zM578 1616q-59 0 -97.5 38.5t-38.5 96.5t38.5 96.5t97.5 38.5q58 0 96.5 -38t38.5 -97t-38.5 -97t-96.5 -38zM590 0h-440v10q71 95 71 258v897q0 163 -71 258v11h440v-11
q-72 -97 -72 -258v-897q0 -161 72 -258v-10z" />
    <glyph glyph-name="Eth" unicode="&#xd0;" horiz-adv-x="1568" 
d="M145 1434h594q119 0 225 -23t203.5 -76.5t167.5 -134.5t112 -204.5t42 -278.5t-42 -278.5t-112 -204.5t-167.5 -134.5t-203.5 -76.5t-225 -23h-594v10q72 97 72 258v434h-176v52h176v411q0 161 -72 258v11zM700 53q222 0 350 177t128 487q0 308 -128 485.5t-350 177.5
q-87 0 -186 -30v-596h272v-52h-272v-618q102 -31 186 -31z" />
    <glyph glyph-name="Ntilde" unicode="&#xd1;" horiz-adv-x="1484" 
d="M463 1630l-25 12q40 110 88 157.5t117 47.5q62 0 150 -43q76 -37 133 -37q37 0 67 16t70 64l24 -12q-39 -111 -87 -158t-119 -47q-64 0 -148 41q-80 39 -133 39q-37 0 -66.5 -16.5t-70.5 -63.5zM389 0h-283v12q111 131 111 256v899q0 125 -111 256v11h365l746 -992v723
q0 125 -111 256v13h283v-13q-111 -131 -111 -256v-1165h-76l-923 1212v-944q0 -126 110 -256v-12z" />
    <glyph glyph-name="Ograve" unicode="&#xd2;" horiz-adv-x="1564" 
d="M893 1599h-27l-372 275v27h260zM782 -27q-211 0 -370.5 92.5t-245.5 261.5t-86 390q0 335 191.5 539t510.5 204t511 -204t192 -539t-192 -539.5t-511 -204.5zM782 27q181 0 283 189t102 501t-102 501t-283 189q-180 0 -282.5 -189.5t-102.5 -500.5t102.5 -500.5
t282.5 -189.5z" />
    <glyph glyph-name="Oacute" unicode="&#xd3;" horiz-adv-x="1564" 
d="M698 1599h-26l139 302h260v-27zM782 -27q-211 0 -370.5 92.5t-245.5 261.5t-86 390q0 335 191.5 539t510.5 204t511 -204t192 -539t-192 -539.5t-511 -204.5zM782 27q181 0 283 189t102 501t-102 501t-283 189q-180 0 -282.5 -189.5t-102.5 -500.5t102.5 -500.5
t282.5 -189.5z" />
    <glyph glyph-name="Ocircumflex" unicode="&#xd4;" horiz-adv-x="1564" 
d="M475 1599h-26l294 302h76l295 -302h-27l-301 123h-12zM782 -27q-211 0 -370.5 92.5t-245.5 261.5t-86 390q0 335 191.5 539t510.5 204t511 -204t192 -539t-192 -539.5t-511 -204.5zM782 27q181 0 283 189t102 501t-102 501t-283 189q-180 0 -282.5 -189.5t-102.5 -500.5
t102.5 -500.5t282.5 -189.5z" />
    <glyph glyph-name="Otilde" unicode="&#xd5;" horiz-adv-x="1564" 
d="M481 1630l-24 12q40 110 88 157.5t117 47.5q61 0 149 -43q76 -37 133 -37q37 0 67 16t70 64l25 -12q-39 -111 -87.5 -158t-119.5 -47q-63 0 -147 41q-80 39 -134 39q-37 0 -66.5 -16.5t-70.5 -63.5zM782 -27q-211 0 -370.5 92.5t-245.5 261.5t-86 390q0 335 191.5 539
t510.5 204t511 -204t192 -539t-192 -539.5t-511 -204.5zM782 27q181 0 283 189t102 501t-102 501t-283 189q-180 0 -282.5 -189.5t-102.5 -500.5t102.5 -500.5t282.5 -189.5z" />
    <glyph glyph-name="Odieresis" unicode="&#xd6;" horiz-adv-x="1564" 
d="M555 1616q-59 0 -97 38t-38 97t38 97t97 38t97 -38t38 -97t-38 -97t-97 -38zM1010 1616q-59 0 -97.5 38.5t-38.5 96.5t38.5 96.5t97.5 38.5q58 0 96.5 -38t38.5 -97t-38.5 -97t-96.5 -38zM782 -27q-211 0 -370.5 92.5t-245.5 261.5t-86 390q0 335 191.5 539t510.5 204
t511 -204t192 -539t-192 -539.5t-511 -204.5zM782 27q181 0 283 189t102 501t-102 501t-283 189q-180 0 -282.5 -189.5t-102.5 -500.5t102.5 -500.5t282.5 -189.5z" />
    <glyph glyph-name="multiply" unicode="&#xd7;" 
d="M604 666l-321 -322l-50 51l320 322l-320 321l50 52l321 -322l322 322l51 -52l-322 -321l322 -322l-51 -51z" />
    <glyph glyph-name="Oslash" unicode="&#xd8;" horiz-adv-x="1564" 
d="M1391 1485l-140 -189q112 -98 173 -246.5t61 -332.5q0 -335 -192 -539.5t-511 -204.5q-246 0 -424 127l-112 -151h-72l139 188q-112 98 -172.5 247t-60.5 333q0 335 191.5 539t510.5 204q246 0 424 -127l113 152h72zM397 717q0 -228 56 -393l634 850q-105 233 -305 233
q-180 0 -282.5 -189.5t-102.5 -500.5zM782 27q181 0 283 189t102 501q0 231 -55 393l-635 -850q105 -233 305 -233z" />
    <glyph glyph-name="Ugrave" unicode="&#xd9;" horiz-adv-x="1460" 
d="M897 1599h-27l-372 275v27h260zM756 -27q-267 0 -419.5 127.5t-152.5 356.5v708q0 163 -71 258v11h440v-11q-72 -97 -72 -258v-708q0 -189 99.5 -290t271.5 -101t271.5 102t99.5 289v708q0 125 -111 256v13h283v-13q-111 -131 -111 -256v-708q0 -232 -136 -358t-392 -126
z" />
    <glyph glyph-name="Uacute" unicode="&#xda;" horiz-adv-x="1460" 
d="M702 1599h-26l139 302h260v-27zM756 -27q-267 0 -419.5 127.5t-152.5 356.5v708q0 163 -71 258v11h440v-11q-72 -97 -72 -258v-708q0 -189 99.5 -290t271.5 -101t271.5 102t99.5 289v708q0 125 -111 256v13h283v-13q-111 -131 -111 -256v-708q0 -232 -136 -358t-392 -126
z" />
    <glyph glyph-name="Ucircumflex" unicode="&#xdb;" horiz-adv-x="1460" 
d="M479 1599h-26l295 302h75l295 -302h-26l-301 123h-13zM756 -27q-267 0 -419.5 127.5t-152.5 356.5v708q0 163 -71 258v11h440v-11q-72 -97 -72 -258v-708q0 -189 99.5 -290t271.5 -101t271.5 102t99.5 289v708q0 125 -111 256v13h283v-13q-111 -131 -111 -256v-708
q0 -232 -136 -358t-392 -126z" />
    <glyph glyph-name="Udieresis" unicode="&#xdc;" horiz-adv-x="1460" 
d="M559 1616q-59 0 -97 38t-38 97t38 97t97 38t97 -38t38 -97t-38 -97t-97 -38zM1014 1616q-58 0 -96.5 38t-38.5 97t38.5 97t96.5 38t96.5 -38t38.5 -97t-38.5 -97t-96.5 -38zM756 -27q-267 0 -419.5 127.5t-152.5 356.5v708q0 163 -71 258v11h440v-11q-72 -97 -72 -258
v-708q0 -189 99.5 -290t271.5 -101t271.5 102t99.5 289v708q0 125 -111 256v13h283v-13q-111 -131 -111 -256v-708q0 -232 -136 -358t-392 -126z" />
    <glyph glyph-name="Yacute" unicode="&#xdd;" horiz-adv-x="1323" 
d="M629 1599h-27l139 302h260v-27zM895 0h-440v10q71 95 71 258v248l-321 637q-80 159 -197 270v11h522v-11q-35 -48 -38.5 -112t36.5 -154l258 -520l252 502q42 91 38.5 163t-46.5 121v11h305v-11q-138 -98 -217 -254l-295 -581v-320q0 -161 72 -258v-10z" />
    <glyph glyph-name="Thorn" unicode="&#xde;" horiz-adv-x="1396" 
d="M584 0h-441v10q72 97 72 258v897q0 161 -72 258v11h441v-11q-34 -46 -53 -112t-19 -131v-21h250q96 0 178.5 -12t160.5 -41t132.5 -74.5t87.5 -117.5t33 -164q0 -86 -31 -157t-84 -119.5t-125 -81t-152.5 -47.5t-168.5 -15q-128 0 -220 35v32q63 -16 156 -16
q106 0 179.5 52.5t106 133.5t32.5 183q0 70 -19 132.5t-57.5 114.5t-104.5 82.5t-153 30.5q-103 0 -201 -31v-811q0 -161 72 -258v-10z" />
    <glyph glyph-name="germandbls" unicode="&#xdf;" horiz-adv-x="1351" 
d="M928 -27q-159 0 -277 54v292h21q41 -131 120.5 -212.5t178.5 -81.5q69 0 108 40t39 113q0 71 -53.5 116t-165.5 87q-141 54 -201.5 129.5t-60.5 181.5q0 77 38 140.5t130 146.5q70 63 96.5 131t26.5 150q0 110 -59 173.5t-152 63.5q-58 0 -102 -21t-79.5 -68t-54 -131
t-18.5 -202v-833q0 -150 57 -232v-10h-391v10q57 82 57 232v585q0 114 -88 156v10q68 31 103.5 79t56.5 128q87 338 463 338q206 0 309 -74t103 -188q0 -78 -46.5 -134.5t-142.5 -125.5q-82 -60 -111.5 -96.5t-29.5 -85.5q0 -56 46.5 -95t182.5 -96q152 -62 217.5 -140
t65.5 -202q0 -151 -99.5 -239.5t-287.5 -88.5z" />
    <glyph glyph-name="agrave" unicode="&#xe0;" horiz-adv-x="1077" 
d="M545 1495l82 -332h-27l-283 305v27h228zM1040 82l11 -10q-25 -45 -79.5 -72t-121.5 -27q-85 0 -137.5 40t-63.5 110l-2 8h-6q-88 -158 -289 -158q-125 0 -195.5 60t-70.5 162q0 86 49 153t131 106.5t179.5 60t203.5 20.5v127q0 115 -69.5 185.5t-190.5 70.5
q-89 0 -157 -41t-107 -115h-21q35 134 146.5 211.5t263.5 77.5q193 0 302.5 -107.5t109.5 -281.5v-515q0 -81 63 -81q39 0 51 16zM502 106q63 0 105 43t42 103v235q-126 -3 -201 -63t-75 -164q0 -79 37 -116.5t92 -37.5z" />
    <glyph glyph-name="aacute" unicode="&#xe1;" horiz-adv-x="1077" 
d="M778 1495v-27l-282 -305h-27l82 332h227zM1040 82l11 -10q-25 -45 -79.5 -72t-121.5 -27q-85 0 -137.5 40t-63.5 110l-2 8h-6q-88 -158 -289 -158q-125 0 -195.5 60t-70.5 162q0 86 49 153t131 106.5t179.5 60t203.5 20.5v127q0 115 -69.5 185.5t-190.5 70.5
q-89 0 -157 -41t-107 -115h-21q35 134 146.5 211.5t263.5 77.5q193 0 302.5 -107.5t109.5 -281.5v-515q0 -81 63 -81q39 0 51 16zM502 106q63 0 105 43t42 103v235q-126 -3 -201 -63t-75 -164q0 -79 37 -116.5t92 -37.5z" />
    <glyph glyph-name="acircumflex" unicode="&#xe2;" horiz-adv-x="1077" 
d="M553 1313h-12l-277 -150h-26l272 332h74l272 -332h-27zM1040 82l11 -10q-25 -45 -79.5 -72t-121.5 -27q-85 0 -137.5 40t-63.5 110l-2 8h-6q-88 -158 -289 -158q-125 0 -195.5 60t-70.5 162q0 86 49 153t131 106.5t179.5 60t203.5 20.5v127q0 115 -69.5 185.5
t-190.5 70.5q-89 0 -157 -41t-107 -115h-21q35 134 146.5 211.5t263.5 77.5q193 0 302.5 -107.5t109.5 -281.5v-515q0 -81 63 -81q39 0 51 16zM502 106q63 0 105 43t42 103v235q-126 -3 -201 -63t-75 -164q0 -79 37 -116.5t92 -37.5z" />
    <glyph glyph-name="atilde" unicode="&#xe3;" horiz-adv-x="1077" 
d="M395 1311q-38 0 -69.5 -16.5t-73.5 -63.5l-25 12q39 105 88.5 152t116.5 47q60 0 146 -43q42 -22 64.5 -29.5t53.5 -7.5q38 0 70 16.5t74 63.5l24 -12q-40 -104 -89.5 -151.5t-115.5 -47.5q-35 0 -65 9t-80 34q-42 21 -65 29t-54 8zM1040 82l11 -10q-25 -45 -79.5 -72
t-121.5 -27q-85 0 -137.5 40t-63.5 110l-2 8h-6q-88 -158 -289 -158q-125 0 -195.5 60t-70.5 162q0 86 49 153t131 106.5t179.5 60t203.5 20.5v127q0 115 -69.5 185.5t-190.5 70.5q-89 0 -157 -41t-107 -115h-21q35 134 146.5 211.5t263.5 77.5q193 0 302.5 -107.5
t109.5 -281.5v-515q0 -81 63 -81q39 0 51 16zM502 106q63 0 105 43t42 103v235q-126 -3 -201 -63t-75 -164q0 -79 37 -116.5t92 -37.5z" />
    <glyph glyph-name="adieresis" unicode="&#xe4;" horiz-adv-x="1077" 
d="M338 1198q-58 0 -95.5 37t-37.5 96t37.5 96t95.5 37t95.5 -37t37.5 -96t-37.5 -96t-95.5 -37zM756 1198q-58 0 -95.5 37t-37.5 96t37.5 96t95.5 37t95.5 -37t37.5 -96t-37.5 -96t-95.5 -37zM1040 82l11 -10q-25 -45 -79.5 -72t-121.5 -27q-85 0 -137.5 40t-63.5 110l-2 8
h-6q-88 -158 -289 -158q-125 0 -195.5 60t-70.5 162q0 86 49 153t131 106.5t179.5 60t203.5 20.5v127q0 115 -69.5 185.5t-190.5 70.5q-89 0 -157 -41t-107 -115h-21q35 134 146.5 211.5t263.5 77.5q193 0 302.5 -107.5t109.5 -281.5v-515q0 -81 63 -81q39 0 51 16zM502 106
q63 0 105 43t42 103v235q-126 -3 -201 -63t-75 -164q0 -79 37 -116.5t92 -37.5z" />
    <glyph glyph-name="aring" unicode="&#xe5;" horiz-adv-x="1077" 
d="M547 1139q-93 0 -152 55.5t-59 142.5q0 88 59 145.5t152 57.5q92 0 150.5 -57.5t58.5 -145.5q0 -87 -58.5 -142.5t-150.5 -55.5zM547 1466q-57 0 -92 -35.5t-35 -93.5q0 -56 35 -91.5t92 -35.5q55 0 91 36t36 91q0 59 -35.5 94t-91.5 35zM1040 82l11 -10
q-25 -45 -79.5 -72t-121.5 -27q-85 0 -137.5 40t-63.5 110l-2 8h-6q-88 -158 -289 -158q-125 0 -195.5 60t-70.5 162q0 86 49 153t131 106.5t179.5 60t203.5 20.5v127q0 115 -69.5 185.5t-190.5 70.5q-89 0 -157 -41t-107 -115h-21q35 134 146.5 211.5t263.5 77.5
q193 0 302.5 -107.5t109.5 -281.5v-515q0 -81 63 -81q39 0 51 16zM502 106q63 0 105 43t42 103v235q-126 -3 -201 -63t-75 -164q0 -79 37 -116.5t92 -37.5z" />
    <glyph glyph-name="ae" unicode="&#xe6;" horiz-adv-x="1646" 
d="M1567 346h20q-34 -168 -154.5 -270.5t-289.5 -102.5q-139 0 -251.5 61t-176.5 181q-55 -128 -144.5 -185t-218.5 -57q-125 0 -195.5 60t-70.5 162q0 86 49.5 153t131.5 106.5t179.5 60t202.5 20.5v127q0 115 -69.5 185.5t-190.5 70.5q-89 0 -157 -41t-107 -115h-21
q35 134 146.5 211.5t263.5 77.5q103 0 183 -37.5t128 -100.5q145 138 340 138q188 0 298 -118t110 -294h-699q13 -220 126.5 -341.5t279.5 -121.5q97 0 172.5 45.5t114.5 124.5zM1085 991q-104 0 -158.5 -81t-54.5 -216v-8h428q-11 144 -66.5 224.5t-148.5 80.5zM502 106
q69 0 113 51.5t53 133.5q-19 89 -19 188v8q-126 -3 -201 -63t-75 -164q0 -79 37 -116.5t92 -37.5z" />
    <glyph glyph-name="ccedilla" unicode="&#xe7;" horiz-adv-x="1040" 
d="M971 346h20q-26 -169 -144 -270t-284 -103l-18 -32q108 -13 163.5 -69t55.5 -130q0 -77 -60.5 -128.5t-156.5 -51.5q-85 0 -142 34.5t-81 94.5h26q65 -62 142 -62q52 0 80 25t28 67q0 104 -182 109l84 147q-185 19 -303.5 153t-118.5 353q0 120 45 226t120.5 180.5
t179.5 118t218 43.5q74 0 156.5 -19t148.5 -53v-307h-20q-52 143 -148 233t-213 90q-112 0 -188 -87t-76 -255q0 -204 114.5 -340.5t284.5 -136.5q90 0 164 44t105 126z" />
    <glyph glyph-name="egrave" unicode="&#xe8;" horiz-adv-x="1077" 
d="M571 1495l82 -332h-26l-283 305v27h227zM997 346h21q-36 -169 -157 -271t-294 -102q-137 0 -246 58.5t-175 177t-66 278.5q0 125 41 232t111 179t163 112.5t195 40.5q95 0 174.5 -32t131 -86.5t80 -125t28.5 -148.5h-701q9 -229 122.5 -356t279.5 -127q100 0 176.5 45.5
t115.5 124.5zM512 991q-92 0 -149 -73t-60 -211h428q-12 131 -68.5 207.5t-150.5 76.5z" />
    <glyph glyph-name="eacute" unicode="&#xe9;" horiz-adv-x="1077" 
d="M805 1495v-27l-283 -305h-26l82 332h227zM997 346h21q-36 -169 -157 -271t-294 -102q-137 0 -246 58.5t-175 177t-66 278.5q0 125 41 232t111 179t163 112.5t195 40.5q95 0 174.5 -32t131 -86.5t80 -125t28.5 -148.5h-701q9 -229 122.5 -356t279.5 -127q100 0 176.5 45.5
t115.5 124.5zM512 991q-92 0 -149 -73t-60 -211h428q-12 131 -68.5 207.5t-150.5 76.5z" />
    <glyph glyph-name="ecircumflex" unicode="&#xea;" horiz-adv-x="1077" 
d="M580 1313h-13l-276 -150h-27l273 332h73l273 -332h-27zM997 346h21q-36 -169 -157 -271t-294 -102q-137 0 -246 58.5t-175 177t-66 278.5q0 125 41 232t111 179t163 112.5t195 40.5q95 0 174.5 -32t131 -86.5t80 -125t28.5 -148.5h-701q9 -229 122.5 -356t279.5 -127
q100 0 176.5 45.5t115.5 124.5zM512 991q-92 0 -149 -73t-60 -211h428q-12 131 -68.5 207.5t-150.5 76.5z" />
    <glyph glyph-name="edieresis" unicode="&#xeb;" horiz-adv-x="1077" 
d="M365 1198q-59 0 -96.5 37.5t-37.5 95.5t37.5 95.5t96.5 37.5t96 -37t37 -96t-37 -96t-96 -37zM782 1198q-58 0 -95.5 37t-37.5 96t37.5 96t95.5 37t95.5 -37t37.5 -96t-37.5 -96t-95.5 -37zM997 346h21q-36 -169 -157 -271t-294 -102q-137 0 -246 58.5t-175 177
t-66 278.5q0 125 41 232t111 179t163 112.5t195 40.5q95 0 174.5 -32t131 -86.5t80 -125t28.5 -148.5h-701q9 -229 122.5 -356t279.5 -127q100 0 176.5 45.5t115.5 124.5zM512 991q-92 0 -149 -73t-60 -211h428q-12 131 -68.5 207.5t-150.5 76.5z" />
    <glyph glyph-name="igrave" unicode="&#xec;" horiz-adv-x="634" 
d="M403 1163h-26l-283 305v27h228zM520 0h-391v10q57 82 57 232v458q0 153 -73 226v10l340 115h10v-809q0 -150 57 -232v-10z" />
    <glyph glyph-name="iacute" unicode="&#xed;" horiz-adv-x="634" 
d="M272 1163h-26l82 332h227v-27zM520 0h-391v10q57 82 57 232v458q0 153 -73 226v10l340 115h10v-809q0 -150 57 -232v-10z" />
    <glyph glyph-name="icircumflex" unicode="&#xee;" horiz-adv-x="634" 
d="M41 1163h-27l273 332h73l273 -332h-27l-276 150h-13zM520 0h-391v10q57 82 57 232v458q0 153 -73 226v10l340 115h10v-809q0 -150 57 -232v-10z" />
    <glyph glyph-name="idieresis" unicode="&#xef;" horiz-adv-x="634" 
d="M129 1198q-59 0 -96 37t-37 96t37 96t96 37t96 -37t37 -96t-37 -96t-96 -37zM518 1198q-58 0 -95.5 37t-37.5 96t37.5 96t95.5 37t95.5 -37t37.5 -96t-37.5 -96t-95.5 -37zM520 0h-391v10q57 82 57 232v458q0 153 -73 226v10l340 115h10v-809q0 -150 57 -232v-10z" />
    <glyph glyph-name="eth" unicode="&#xf0;" horiz-adv-x="1181" 
d="M918 1497l-175 -111q351 -226 351 -768q0 -309 -141 -477t-375 -168q-227 0 -367.5 136.5t-140.5 373.5t140.5 372.5t367.5 135.5q140 0 233 -61h10q-11 101 -61 200t-135 183l-232 -146l-33 50l220 135q-124 103 -304 155v21q233 -14 410 -109l201 125zM578 20
q97 0 153.5 122.5t56.5 340.5q0 217 -56.5 340t-153.5 123t-154 -123t-57 -340q0 -218 56.5 -340.5t154.5 -122.5z" />
    <glyph glyph-name="ntilde" unicode="&#xf1;" horiz-adv-x="1286" 
d="M391 1231l-24 12q39 105 88 152t116 47q60 0 146 -43q42 -21 65 -29t54 -8q38 0 69.5 16.5t73.5 63.5l25 -12q-40 -104 -89.5 -151.5t-115.5 -47.5q-60 0 -146 43q-42 22 -64.5 29.5t-53.5 7.5q-38 0 -70 -16.5t-74 -63.5zM520 0h-391v10q57 82 57 232v458q0 153 -73 226
v10l340 115h10v-201h10q41 88 125 144.5t197 56.5q150 0 239.5 -96t89.5 -250v-463q0 -149 58 -232v-10h-391v10q57 82 57 232v456q0 84 -51 138.5t-135 54.5q-83 0 -141 -53.5t-58 -139.5v-456q0 -150 57 -232v-10z" />
    <glyph glyph-name="ograve" unicode="&#xf2;" horiz-adv-x="1189" 
d="M676 1163h-27l-282 305v27h227zM596 -27q-228 0 -375 152t-147 387t147 387t375 152q227 0 373.5 -152t146.5 -387t-146.5 -387t-373.5 -152zM596 20q76 0 127 65t73.5 173t22.5 254t-22.5 254t-73.5 173t-127 65q-112 0 -168.5 -134.5t-56.5 -357.5t56.5 -357.5
t168.5 -134.5z" />
    <glyph glyph-name="oacute" unicode="&#xf3;" horiz-adv-x="1189" 
d="M545 1163h-27l82 332h227v-27zM596 -27q-228 0 -375 152t-147 387t147 387t375 152q227 0 373.5 -152t146.5 -387t-146.5 -387t-373.5 -152zM596 20q76 0 127 65t73.5 173t22.5 254t-22.5 254t-73.5 173t-127 65q-112 0 -168.5 -134.5t-56.5 -357.5t56.5 -357.5
t168.5 -134.5z" />
    <glyph glyph-name="ocircumflex" unicode="&#xf4;" horiz-adv-x="1189" 
d="M313 1163h-26l272 332h74l272 -332h-26l-277 150h-12zM596 -27q-228 0 -375 152t-147 387t147 387t375 152q227 0 373.5 -152t146.5 -387t-146.5 -387t-373.5 -152zM596 20q76 0 127 65t73.5 173t22.5 254t-22.5 254t-73.5 173t-127 65q-112 0 -168.5 -134.5
t-56.5 -357.5t56.5 -357.5t168.5 -134.5z" />
    <glyph glyph-name="otilde" unicode="&#xf5;" horiz-adv-x="1189" 
d="M301 1231l-25 12q39 105 88.5 152t116.5 47q60 0 146 -43q42 -22 64.5 -29.5t53.5 -7.5q38 0 70 16.5t74 63.5l24 -12q-40 -104 -89 -151.5t-115 -47.5q-60 0 -146 43q-42 21 -65 29t-54 8q-38 0 -69.5 -16.5t-73.5 -63.5zM596 -27q-228 0 -375 152t-147 387t147 387
t375 152q227 0 373.5 -152t146.5 -387t-146.5 -387t-373.5 -152zM596 20q76 0 127 65t73.5 173t22.5 254t-22.5 254t-73.5 173t-127 65q-112 0 -168.5 -134.5t-56.5 -357.5t56.5 -357.5t168.5 -134.5z" />
    <glyph glyph-name="odieresis" unicode="&#xf6;" horiz-adv-x="1189" 
d="M387 1198q-59 0 -96 37t-37 96t37 96t96 37t96 -37t37 -96t-37 -96t-96 -37zM805 1198q-59 0 -96 37t-37 96t37 96t96 37t96 -37t37 -96t-37 -96t-96 -37zM596 -27q-228 0 -375 152t-147 387t147 387t375 152q227 0 373.5 -152t146.5 -387t-146.5 -387t-373.5 -152z
M596 20q76 0 127 65t73.5 173t22.5 254t-22.5 254t-73.5 173t-127 65q-112 0 -168.5 -134.5t-56.5 -357.5t56.5 -357.5t168.5 -134.5z" />
    <glyph glyph-name="divide" unicode="&#xf7;" 
d="M602 895q-50 0 -83.5 33t-33.5 84t33.5 83.5t83.5 32.5q51 0 84 -32.5t33 -83.5t-33 -84t-84 -33zM1014 682h-817v72h817v-72zM602 305q-50 0 -83.5 33t-33.5 84t33.5 84t83.5 33q51 0 84 -33t33 -84t-33 -84t-84 -33z" />
    <glyph glyph-name="oslash" unicode="&#xf8;" horiz-adv-x="1189" 
d="M1049 1075l-109 -147q84 -73 130 -180t46 -236q0 -235 -146.5 -387t-373.5 -152q-167 0 -301 88l-84 -112h-68l109 145q-84 73 -131 181t-47 237q0 235 147 387t375 152q168 0 301 -90l84 114h68zM371 512q0 -129 18 -231l395 530q-57 193 -188 193q-112 0 -168.5 -134.5
t-56.5 -357.5zM596 20q76 0 127 65t73.5 173t22.5 254q0 127 -18 229l-393 -530q57 -191 188 -191z" />
    <glyph glyph-name="ugrave" unicode="&#xf9;" horiz-adv-x="1267" 
d="M711 1163h-27l-283 305v27h228zM487 -27q-145 0 -234 96.5t-89 249.5v381q0 151 -72 226v10l338 115h10v-725q0 -84 50 -138.5t131 -54.5q82 0 140 53t58 140v374q0 152 -71 226v10l337 115h11v-775q0 -154 73 -221v-10l-340 -72h-10v201h-10q-41 -88 -125 -144.5
t-197 -56.5z" />
    <glyph glyph-name="uacute" unicode="&#xfa;" horiz-adv-x="1267" 
d="M580 1163h-27l82 332h227v-27zM487 -27q-145 0 -234 96.5t-89 249.5v381q0 151 -72 226v10l338 115h10v-725q0 -84 50 -138.5t131 -54.5q82 0 140 53t58 140v374q0 152 -71 226v10l337 115h11v-775q0 -154 73 -221v-10l-340 -72h-10v201h-10q-41 -88 -125 -144.5
t-197 -56.5z" />
    <glyph glyph-name="ucircumflex" unicode="&#xfb;" horiz-adv-x="1267" 
d="M348 1163h-26l272 332h74l272 -332h-27l-276 150h-12zM487 -27q-145 0 -234 96.5t-89 249.5v381q0 151 -72 226v10l338 115h10v-725q0 -84 50 -138.5t131 -54.5q82 0 140 53t58 140v374q0 152 -71 226v10l337 115h11v-775q0 -154 73 -221v-10l-340 -72h-10v201h-10
q-41 -88 -125 -144.5t-197 -56.5z" />
    <glyph glyph-name="udieresis" unicode="&#xfc;" horiz-adv-x="1267" 
d="M422 1198q-58 0 -95.5 37t-37.5 96t37.5 96t95.5 37t95.5 -37t37.5 -96t-37.5 -96t-95.5 -37zM840 1198q-58 0 -95.5 37t-37.5 96t37.5 96t95.5 37t95.5 -37t37.5 -96t-37.5 -96t-95.5 -37zM487 -27q-145 0 -234 96.5t-89 249.5v381q0 151 -72 226v10l338 115h10v-725
q0 -84 50 -138.5t131 -54.5q82 0 140 53t58 140v374q0 152 -71 226v10l337 115h11v-775q0 -154 73 -221v-10l-340 -72h-10v201h-10q-41 -88 -125 -144.5t-197 -56.5z" />
    <glyph glyph-name="yacute" unicode="&#xfd;" horiz-adv-x="1075" 
d="M547 1163h-27l82 332h227v-27zM59 -422v229h103q145 0 233 38t140 132l-379 814q-64 137 -150 223v10h461v-10q-68 -87 -4 -232l211 -477l194 463q25 59 29 110t-7.5 82.5t-33.5 53.5v10h242v-10q-107 -93 -166 -230l-361 -843q-22 -51 -39 -85.5t-42.5 -75.5t-52 -68.5
t-64.5 -55t-82 -43t-103 -25.5t-129 -10z" />
    <glyph glyph-name="thorn" unicode="&#xfe;" horiz-adv-x="1245" 
d="M489 -410h-391v11q58 83 58 231v1344q0 154 -74 225v10l340 115h10v-660h10q48 86 128.5 135.5t179.5 49.5q189 0 302 -136.5t113 -363.5q0 -127 -39.5 -236.5t-106 -183.5t-155 -116t-186.5 -42q-153 0 -246 76v-217q0 -149 57 -231v-11zM637 33q110 0 172.5 121.5
t62.5 337.5q0 193 -66 304t-177 111q-79 0 -133.5 -48t-63.5 -124v-493q10 -83 64.5 -146t140.5 -63z" />
    <glyph glyph-name="ydieresis" unicode="&#xff;" horiz-adv-x="1075" 
d="M389 1198q-59 0 -96 37t-37 96t37 96t96 37t96 -37t37 -96t-37 -96t-96 -37zM807 1198q-59 0 -96 37t-37 96t37 96t96 37t96 -37t37 -96t-37 -96t-96 -37zM59 -422v229h103q145 0 233 38t140 132l-379 814q-64 137 -150 223v10h461v-10q-68 -87 -4 -232l211 -477l194 463
q25 59 29 110t-7.5 82.5t-33.5 53.5v10h242v-10q-107 -93 -166 -230l-361 -843q-22 -51 -39 -85.5t-42.5 -75.5t-52 -68.5t-64.5 -55t-82 -43t-103 -25.5t-129 -10z" />
    <glyph glyph-name="Amacron" unicode="&#x100;" horiz-adv-x="1419" 
d="M1001 1702h-577v92h577v-92zM291 0h-303v10q116 99 180 256l461 1168h168l456 -1162q35 -87 69.5 -145.5t88.5 -116.5v-10h-508v10q26 31 40 69.5t13.5 90t-22.5 104.5l-82 205h-537l-75 -190q-32 -92 -17 -160.5t68 -118.5v-10zM584 1171l-250 -641h500z" />
    <glyph glyph-name="amacron" unicode="&#x101;" horiz-adv-x="1077" 
d="M289 1378h516v-102h-516v102zM1040 82l11 -10q-25 -45 -79.5 -72t-121.5 -27q-85 0 -137.5 40t-63.5 110l-2 8h-6q-88 -158 -289 -158q-125 0 -195.5 60t-70.5 162q0 86 49 153t131 106.5t179.5 60t203.5 20.5v127q0 115 -69.5 185.5t-190.5 70.5q-89 0 -157 -41
t-107 -115h-21q35 134 146.5 211.5t263.5 77.5q193 0 302.5 -107.5t109.5 -281.5v-515q0 -81 63 -81q39 0 51 16zM502 106q63 0 105 43t42 103v235q-126 -3 -201 -63t-75 -164q0 -79 37 -116.5t92 -37.5z" />
    <glyph glyph-name="Abreve" unicode="&#x102;" horiz-adv-x="1419" 
d="M711 1626q-117 0 -208.5 61.5t-123.5 184.5h27q103 -103 305 -103q204 0 307 103h26q-32 -124 -123 -185t-210 -61zM291 0h-303v10q116 99 180 256l461 1168h168l456 -1162q35 -87 69.5 -145.5t88.5 -116.5v-10h-508v10q26 31 40 69.5t13.5 90t-22.5 104.5l-82 205h-537
l-75 -190q-32 -92 -17 -160.5t68 -118.5v-10zM584 1171l-250 -641h500z" />
    <glyph glyph-name="abreve" unicode="&#x103;" horiz-adv-x="1077" 
d="M547 1214q-112 0 -194.5 60.5t-112.5 175.5h26q107 -96 281 -96q170 0 280 96h27q-28 -115 -110.5 -175.5t-196.5 -60.5zM1040 82l11 -10q-25 -45 -79.5 -72t-121.5 -27q-85 0 -137.5 40t-63.5 110l-2 8h-6q-88 -158 -289 -158q-125 0 -195.5 60t-70.5 162q0 86 49 153
t131 106.5t179.5 60t203.5 20.5v127q0 115 -69.5 185.5t-190.5 70.5q-89 0 -157 -41t-107 -115h-21q35 134 146.5 211.5t263.5 77.5q193 0 302.5 -107.5t109.5 -281.5v-515q0 -81 63 -81q39 0 51 16zM502 106q63 0 105 43t42 103v235q-126 -3 -201 -63t-75 -164
q0 -79 37 -116.5t92 -37.5z" />
    <glyph glyph-name="Aogonek" unicode="&#x104;" horiz-adv-x="1419" 
d="M1411 0h-188q-246 -80 -246 -227q0 -54 28.5 -85.5t77.5 -31.5q68 0 119 59h27q-62 -153 -223 -153q-91 0 -145 49t-54 127q0 86 70 152t194 100v10h-168v10q26 31 40 69.5t13.5 90t-22.5 104.5l-82 205h-537l-75 -190q-32 -92 -17 -160.5t68 -118.5v-10h-303v10
q116 99 180 256l461 1168h168l456 -1162q35 -87 69.5 -145.5t88.5 -116.5v-10zM584 1171l-250 -641h500z" />
    <glyph glyph-name="aogonek" unicode="&#x105;" horiz-adv-x="1077" 
d="M936 -14q-219 -76 -219 -213q0 -54 28.5 -85.5t77.5 -31.5q68 0 119 59h27q-62 -153 -224 -153q-91 0 -144.5 49t-53.5 127q0 83 64.5 145.5t166.5 91.5v9q-54 13 -87.5 49.5t-41.5 89.5l-2 8h-6q-88 -158 -289 -158q-125 0 -195.5 60t-70.5 162q0 86 49.5 153
t131.5 106.5t179.5 60t202.5 20.5v127q0 115 -69.5 185.5t-190.5 70.5q-89 0 -157 -41t-107 -115h-21q35 134 146.5 211.5t263.5 77.5q193 0 302.5 -107.5t109.5 -281.5v-515q0 -81 63 -81q39 0 51 16l11 -10q-32 -57 -115 -86zM502 106q63 0 105 43t42 103v235
q-126 -3 -201 -63t-75 -164q0 -79 37 -116.5t92 -37.5z" />
    <glyph glyph-name="Cacute" unicode="&#x106;" horiz-adv-x="1372" 
d="M723 1599h-27l140 302h260v-27zM762 -27q-198 0 -354 94t-242 259.5t-86 373.5q0 163 57 304.5t156.5 241.5t239.5 157t301 57q129 0 245 -28t187 -64v-383h-21q-59 177 -188 295.5t-295 118.5q-187 0 -300.5 -149.5t-113.5 -409.5q0 -184 69 -332t194 -233t282 -85
q144 0 251.5 73t172.5 212h20q-35 -220 -189 -361t-386 -141z" />
    <glyph glyph-name="cacute" unicode="&#x107;" horiz-adv-x="1040" 
d="M557 1163h-27l82 332h228v-27zM561 -27q-99 0 -186.5 34.5t-153 98t-103.5 161t-38 216.5q0 120 45 226t120.5 180.5t179.5 118t218 43.5q74 0 156.5 -19t148.5 -53v-307h-20q-52 143 -148 233t-213 90q-112 0 -188 -87t-76 -255q0 -204 114.5 -340.5t284.5 -136.5
q90 0 164 44t105 126h20q-26 -169 -145 -271t-285 -102z" />
    <glyph glyph-name="Ccircumflex" unicode="&#x108;" horiz-adv-x="1372" 
d="M500 1599h-27l295 302h76l295 -302h-27l-301 123h-12zM762 -27q-198 0 -354 94t-242 259.5t-86 373.5q0 163 57 304.5t156.5 241.5t239.5 157t301 57q129 0 245 -28t187 -64v-383h-21q-59 177 -188 295.5t-295 118.5q-187 0 -300.5 -149.5t-113.5 -409.5q0 -184 69 -332
t194 -233t282 -85q144 0 251.5 73t172.5 212h20q-35 -220 -189 -361t-386 -141z" />
    <glyph glyph-name="ccircumflex" unicode="&#x109;" horiz-adv-x="1040" 
d="M326 1163h-27l272 332h74l273 -332h-27l-277 150h-12zM561 -27q-99 0 -186.5 34.5t-153 98t-103.5 161t-38 216.5q0 120 45 226t120.5 180.5t179.5 118t218 43.5q74 0 156.5 -19t148.5 -53v-307h-20q-52 143 -148 233t-213 90q-112 0 -188 -87t-76 -255
q0 -204 114.5 -340.5t284.5 -136.5q90 0 164 44t105 126h20q-26 -169 -145 -271t-285 -102z" />
    <glyph glyph-name="Cdotaccent" unicode="&#x10a;" horiz-adv-x="1372" 
d="M807 1585q-71 0 -118.5 47.5t-47.5 118.5t47.5 118.5t118.5 47.5t118.5 -47.5t47.5 -118.5t-47.5 -118.5t-118.5 -47.5zM762 -27q-198 0 -354 94t-242 259.5t-86 373.5q0 163 57 304.5t156.5 241.5t239.5 157t301 57q129 0 245 -28t187 -64v-383h-21q-59 177 -188 295.5
t-295 118.5q-187 0 -300.5 -149.5t-113.5 -409.5q0 -184 69 -332t194 -233t282 -85q144 0 251.5 73t172.5 212h20q-35 -220 -189 -361t-386 -141z" />
    <glyph glyph-name="cdotaccent" unicode="&#x10b;" horiz-adv-x="1040" 
d="M608 1167q-69 0 -116.5 47t-47.5 117q0 69 47.5 116.5t116.5 47.5t116.5 -47.5t47.5 -116.5q0 -70 -47.5 -117t-116.5 -47zM561 -27q-99 0 -186.5 34.5t-153 98t-103.5 161t-38 216.5q0 120 45 226t120.5 180.5t179.5 118t218 43.5q74 0 156.5 -19t148.5 -53v-307h-20
q-52 143 -148 233t-213 90q-112 0 -188 -87t-76 -255q0 -204 114.5 -340.5t284.5 -136.5q90 0 164 44t105 126h20q-26 -169 -145 -271t-285 -102z" />
    <glyph glyph-name="Ccaron" unicode="&#x10c;" horiz-adv-x="1372" 
d="M844 1599h-76l-295 302h27l299 -121h12l301 121h27zM762 -27q-198 0 -354 94t-242 259.5t-86 373.5q0 163 57 304.5t156.5 241.5t239.5 157t301 57q129 0 245 -28t187 -64v-383h-21q-59 177 -188 295.5t-295 118.5q-187 0 -300.5 -149.5t-113.5 -409.5q0 -184 69 -332
t194 -233t282 -85q144 0 251.5 73t172.5 212h20q-35 -220 -189 -361t-386 -141z" />
    <glyph glyph-name="ccaron" unicode="&#x10d;" horiz-adv-x="1040" 
d="M645 1163h-74l-272 332h27l276 -147h12l277 147h27zM561 -27q-99 0 -186.5 34.5t-153 98t-103.5 161t-38 216.5q0 120 45 226t120.5 180.5t179.5 118t218 43.5q74 0 156.5 -19t148.5 -53v-307h-20q-52 143 -148 233t-213 90q-112 0 -188 -87t-76 -255
q0 -204 114.5 -340.5t284.5 -136.5q90 0 164 44t105 126h20q-26 -169 -145 -271t-285 -102z" />
    <glyph glyph-name="Dcaron" unicode="&#x10e;" horiz-adv-x="1566" 
d="M805 1599h-76l-295 302h27l299 -121h12l301 121h27zM737 0h-594v10q72 97 72 258v897q0 161 -72 258v11h594q119 0 225 -23t203.5 -76.5t167.5 -134.5t112 -204.5t42 -278.5t-42 -278.5t-112 -204.5t-167.5 -134.5t-203.5 -76.5t-225 -23zM698 53q222 0 350 177t128 487
q0 308 -128 485.5t-350 177.5q-87 0 -186 -30v-1266q102 -31 186 -31z" />
    <glyph glyph-name="dcaron" unicode="&#x10f;" horiz-adv-x="1253" 
d="M489 -27q-185 0 -297 138t-112 370q0 124 39.5 232t106 181t156 115t187.5 42q152 0 242 -76v201q0 156 -72 225v10l338 115h10v-1247q0 -156 72 -222v-10l-338 -74h-10v183h-10q-48 -85 -127 -134t-185 -49zM1227 1198h-27l25 328h215v-27zM614 117q82 0 135.5 48.5
t61.5 123.5v493q-8 83 -62.5 146t-140.5 63q-110 0 -172.5 -119t-62.5 -327q0 -201 65.5 -314.5t175.5 -113.5z" />
    <glyph glyph-name="Dcroat" unicode="&#x110;" horiz-adv-x="1568" 
d="M145 1434h594q119 0 225 -23t203.5 -76.5t167.5 -134.5t112 -204.5t42 -278.5t-42 -278.5t-112 -204.5t-167.5 -134.5t-203.5 -76.5t-225 -23h-594v10q72 97 72 258v434h-176v52h176v411q0 161 -72 258v11zM700 53q222 0 350 177t128 487q0 308 -128 485.5t-350 177.5
q-87 0 -186 -30v-596h272v-52h-272v-618q102 -31 186 -31z" />
    <glyph glyph-name="dcroat" unicode="&#x111;" horiz-adv-x="1253" 
d="M1223 1247v-51h-136v-917q0 -156 72 -222v-10l-338 -74h-10v183h-10q-48 -85 -127 -134t-185 -49q-184 0 -296.5 134.5t-112.5 351.5q0 120 39.5 225t106 177t156 113.5t187.5 41.5q152 0 242 -76v236v20h-422v51h418q-11 100 -68 154v10l338 115h10v-279h136zM811 289
v459q-8 83 -62.5 146.5t-140.5 63.5q-109 0 -172 -118.5t-63 -319.5q0 -185 66 -294t175 -109q82 0 135.5 48.5t61.5 123.5z" />
    <glyph glyph-name="Emacron" unicode="&#x112;" horiz-adv-x="1308" 
d="M971 1702h-578v92h578v-92zM1194 0h-1051v10q72 97 72 258v897q0 161 -72 258v11h1006l51 -392h-20q-28 65 -57 113.5t-70.5 93t-91 72.5t-117.5 44.5t-152 16.5h-180v-634h182q116 0 183 55.5t96 159.5h20v-482h-20q-29 104 -96 159.5t-183 55.5h-182v-645h225
q84 0 152 16.5t117.5 44.5t91 72.5t70.5 93t57 113.5h20z" />
    <glyph glyph-name="emacron" unicode="&#x113;" horiz-adv-x="1077" 
d="M315 1378h516v-102h-516v102zM997 346h21q-36 -169 -157 -271t-294 -102q-137 0 -246 58.5t-175 177t-66 278.5q0 125 41 232t111 179t163 112.5t195 40.5q95 0 174.5 -32t131 -86.5t80 -125t28.5 -148.5h-701q9 -229 122.5 -356t279.5 -127q100 0 176.5 45.5
t115.5 124.5zM512 991q-92 0 -149 -73t-60 -211h428q-12 131 -68.5 207.5t-150.5 76.5z" />
    <glyph glyph-name="Ebreve" unicode="&#x114;" horiz-adv-x="1308" 
d="M680 1626q-117 0 -208.5 61.5t-123.5 184.5h27q103 -103 305 -103q204 0 307 103h27q-32 -124 -123.5 -185t-210.5 -61zM1194 0h-1051v10q72 97 72 258v897q0 161 -72 258v11h1006l51 -392h-20q-28 65 -57 113.5t-70.5 93t-91 72.5t-117.5 44.5t-152 16.5h-180v-634h182
q116 0 183 55.5t96 159.5h20v-482h-20q-29 104 -96 159.5t-183 55.5h-182v-645h225q84 0 152 16.5t117.5 44.5t91 72.5t70.5 93t57 113.5h20z" />
    <glyph glyph-name="ebreve" unicode="&#x115;" horiz-adv-x="1077" 
d="M573 1214q-112 0 -194.5 60.5t-112.5 175.5h27q107 -96 280 -96q171 0 281 96h27q-28 -115 -111 -175.5t-197 -60.5zM997 346h21q-36 -169 -157 -271t-294 -102q-137 0 -246 58.5t-175 177t-66 278.5q0 125 41 232t111 179t163 112.5t195 40.5q95 0 174.5 -32t131 -86.5
t80 -125t28.5 -148.5h-701q9 -229 122.5 -356t279.5 -127q100 0 176.5 45.5t115.5 124.5zM512 991q-92 0 -149 -73t-60 -211h428q-12 131 -68.5 207.5t-150.5 76.5z" />
    <glyph glyph-name="Edotaccent" unicode="&#x116;" horiz-adv-x="1308" 
d="M682 1585q-70 0 -118 47.5t-48 118.5t48 118.5t118 47.5t118 -47.5t48 -118.5t-48 -118.5t-118 -47.5zM1194 0h-1051v10q72 97 72 258v897q0 161 -72 258v11h1006l51 -392h-20q-28 65 -57 113.5t-70.5 93t-91 72.5t-117.5 44.5t-152 16.5h-180v-634h182q116 0 183 55.5
t96 159.5h20v-482h-20q-29 104 -96 159.5t-183 55.5h-182v-645h225q84 0 152 16.5t117.5 44.5t91 72.5t70.5 93t57 113.5h20z" />
    <glyph glyph-name="edotaccent" unicode="&#x117;" horiz-adv-x="1077" 
d="M573 1167q-69 0 -116 47t-47 117q0 69 47 116.5t116 47.5t116.5 -47.5t47.5 -116.5q0 -70 -47.5 -117t-116.5 -47zM997 346h21q-36 -169 -157 -271t-294 -102q-137 0 -246 58.5t-175 177t-66 278.5q0 125 41 232t111 179t163 112.5t195 40.5q95 0 174.5 -32t131 -86.5
t80 -125t28.5 -148.5h-701q9 -229 122.5 -356t279.5 -127q100 0 176.5 45.5t115.5 124.5zM512 991q-92 0 -149 -73t-60 -211h428q-12 131 -68.5 207.5t-150.5 76.5z" />
    <glyph glyph-name="Eogonek" unicode="&#x118;" horiz-adv-x="1308" 
d="M1055 -344q68 0 119 59h26q-62 -153 -223 -153q-91 0 -145 49t-54 127q0 86 70 152t194 100v10h-899v10q72 97 72 258v897q0 161 -72 258v11h1006l51 -392h-20q-28 65 -57 113.5t-70.5 93t-91 72.5t-117.5 44.5t-152 16.5h-180v-634h182q116 0 183 55.5t96 159.5h20v-482
h-20q-29 104 -96 159.5t-183 55.5h-182v-645h225q84 0 152 16.5t117.5 44.5t91 72.5t70.5 93t57 113.5h20l-51 -391q-246 -80 -246 -227q0 -54 29 -85.5t78 -31.5z" />
    <glyph glyph-name="eogonek" unicode="&#x119;" horiz-adv-x="1077" 
d="M745 -344q66 0 115 59h27q-34 -81 -90 -117t-138 -36q-85 0 -137.5 49t-52.5 125q0 71 49.5 134t136.5 103v9q-53 -9 -88 -9q-137 0 -246 58.5t-175 177t-66 278.5q0 125 41 232t111 179t163 112.5t195 40.5q95 0 174.5 -32t131 -86.5t80 -125t28.5 -148.5h-701
q10 -227 121.5 -355t282.5 -128q99 0 175 45.5t115 124.5h21q-41 -179 -187 -297q-93 -73 -142.5 -136t-49.5 -132q0 -58 29 -91.5t77 -33.5zM512 991q-101 0 -154 -78t-55 -206h428q-12 131 -68.5 207.5t-150.5 76.5z" />
    <glyph glyph-name="Ecaron" unicode="&#x11a;" horiz-adv-x="1308" 
d="M719 1599h-76l-295 302h27l299 -121h12l301 121h27zM1194 0h-1051v10q72 97 72 258v897q0 161 -72 258v11h1006l51 -392h-20q-28 65 -57 113.5t-70.5 93t-91 72.5t-117.5 44.5t-152 16.5h-180v-634h182q116 0 183 55.5t96 159.5h20v-482h-20q-29 104 -96 159.5t-183 55.5
h-182v-645h225q84 0 152 16.5t117.5 44.5t91 72.5t70.5 93t57 113.5h20z" />
    <glyph glyph-name="ecaron" unicode="&#x11b;" horiz-adv-x="1077" 
d="M883 1495l-273 -332h-73l-273 332h27l276 -147h13l276 147h27zM997 346h21q-36 -169 -157 -271t-294 -102q-137 0 -246 58.5t-175 177t-66 278.5q0 125 41 232t111 179t163 112.5t195 40.5q95 0 174.5 -32t131 -86.5t80 -125t28.5 -148.5h-701q9 -229 122.5 -356
t279.5 -127q100 0 176.5 45.5t115.5 124.5zM512 991q-92 0 -149 -73t-60 -211h428q-12 131 -68.5 207.5t-150.5 76.5z" />
    <glyph glyph-name="Gcircumflex" unicode="&#x11c;" horiz-adv-x="1456" 
d="M516 1599h-27l295 302h76l295 -302h-27l-301 123h-12zM795 -27q-218 0 -382 94.5t-248.5 258.5t-84.5 374q0 223 99 396.5t274.5 268.5t398.5 95q124 0 237.5 -28.5t182.5 -63.5v-393h-21q-68 194 -194.5 309t-276.5 115q-182 0 -297.5 -149.5t-115.5 -420.5
q0 -339 157.5 -550t395.5 -211q88 0 131 22v348q0 159 -105 258v11h457v-11q-72 -97 -72 -258v-288q-100 -81 -242 -129t-294 -48z" />
    <glyph glyph-name="gcircumflex" unicode="&#x11d;" horiz-adv-x="1126" 
d="M563 1313h-12l-277 -150h-26l272 332h74l272 -332h-26zM1114 1155v-182q-87 0 -138.5 -9t-90.5 -32q96 -93 96 -227q0 -155 -122 -251t-312 -96q-156 0 -273 66q-32 -37 -32 -76q0 -19 5.5 -34t19 -26t26.5 -19t37.5 -13t43 -8.5t52 -5.5t54.5 -2.5t61 -1.5
q76 -2 134.5 -6.5t120.5 -15.5t105.5 -31t79.5 -49.5t54 -74t18 -102.5q0 -111 -79 -200.5t-211.5 -139t-289.5 -49.5q-199 0 -301 74t-102 202q0 130 110 220q-76 61 -76 161q0 126 136 222q-131 94 -131 256q0 155 122.5 250.5t313.5 95.5t313 -95q71 199 256 199z
M545 406q82 0 127 78.5t45 220.5q0 141 -45 220t-127 79q-80 0 -126 -79.5t-46 -219.5q0 -141 46 -220t126 -79zM244 25q-5 2 -14.5 7t-14.5 7q-16 -31 -16 -80q0 -120 130.5 -208.5t311.5 -88.5q127 0 209 48t82 126q0 75 -69.5 105t-260.5 34q-136 3 -220 13.5t-138 36.5z
" />
    <glyph glyph-name="Gbreve" unicode="&#x11e;" horiz-adv-x="1456" 
d="M821 1626q-117 0 -208.5 61.5t-123.5 184.5h27q103 -103 305 -103q204 0 307 103h27q-32 -124 -123.5 -185t-210.5 -61zM795 -27q-218 0 -382 94.5t-248.5 258.5t-84.5 374q0 223 99 396.5t274.5 268.5t398.5 95q124 0 237.5 -28.5t182.5 -63.5v-393h-21
q-68 194 -194.5 309t-276.5 115q-182 0 -297.5 -149.5t-115.5 -420.5q0 -339 157.5 -550t395.5 -211q88 0 131 22v348q0 159 -105 258v11h457v-11q-72 -97 -72 -258v-288q-100 -81 -242 -129t-294 -48z" />
    <glyph glyph-name="gbreve" unicode="&#x11f;" horiz-adv-x="1126" 
d="M557 1214q-112 0 -194.5 60.5t-112.5 175.5h26q107 -96 281 -96q171 0 281 96h26q-28 -115 -110.5 -175.5t-196.5 -60.5zM1114 1155v-182q-87 0 -138.5 -9t-90.5 -32q96 -93 96 -227q0 -155 -122 -251t-312 -96q-156 0 -273 66q-32 -37 -32 -76q0 -19 5.5 -34t19 -26
t26.5 -19t37.5 -13t43 -8.5t52 -5.5t54.5 -2.5t61 -1.5q76 -2 134.5 -6.5t120.5 -15.5t105.5 -31t79.5 -49.5t54 -74t18 -102.5q0 -111 -79 -200.5t-211.5 -139t-289.5 -49.5q-199 0 -301 74t-102 202q0 130 110 220q-76 61 -76 161q0 126 136 222q-131 94 -131 256
q0 155 122.5 250.5t313.5 95.5t313 -95q71 199 256 199zM545 406q82 0 127 78.5t45 220.5q0 141 -45 220t-127 79q-80 0 -126 -79.5t-46 -219.5q0 -141 46 -220t126 -79zM244 25q-5 2 -14.5 7t-14.5 7q-16 -31 -16 -80q0 -120 130.5 -208.5t311.5 -88.5q127 0 209 48t82 126
q0 75 -69.5 105t-260.5 34q-136 3 -220 13.5t-138 36.5z" />
    <glyph glyph-name="Gdotaccent" unicode="&#x120;" horiz-adv-x="1456" 
d="M823 1585q-71 0 -118.5 47.5t-47.5 118.5t47.5 118.5t118.5 47.5t118.5 -47.5t47.5 -118.5t-47.5 -118.5t-118.5 -47.5zM795 -27q-218 0 -382 94.5t-248.5 258.5t-84.5 374q0 223 99 396.5t274.5 268.5t398.5 95q124 0 237.5 -28.5t182.5 -63.5v-393h-21
q-68 194 -194.5 309t-276.5 115q-182 0 -297.5 -149.5t-115.5 -420.5q0 -339 157.5 -550t395.5 -211q88 0 131 22v348q0 159 -105 258v11h457v-11q-72 -97 -72 -258v-288q-100 -81 -242 -129t-294 -48z" />
    <glyph glyph-name="gdotaccent" unicode="&#x121;" horiz-adv-x="1126" 
d="M557 1167q-69 0 -116.5 47t-47.5 117q0 69 47.5 116.5t116.5 47.5t116.5 -47.5t47.5 -116.5q0 -70 -47.5 -117t-116.5 -47zM1114 1155v-182q-87 0 -138.5 -9t-90.5 -32q96 -93 96 -227q0 -155 -122 -251t-312 -96q-156 0 -273 66q-32 -37 -32 -76q0 -19 5.5 -34t19 -26
t26.5 -19t37.5 -13t43 -8.5t52 -5.5t54.5 -2.5t61 -1.5q76 -2 134.5 -6.5t120.5 -15.5t105.5 -31t79.5 -49.5t54 -74t18 -102.5q0 -111 -79 -200.5t-211.5 -139t-289.5 -49.5q-199 0 -301 74t-102 202q0 130 110 220q-76 61 -76 161q0 126 136 222q-131 94 -131 256
q0 155 122.5 250.5t313.5 95.5t313 -95q71 199 256 199zM545 406q82 0 127 78.5t45 220.5q0 141 -45 220t-127 79q-80 0 -126 -79.5t-46 -219.5q0 -141 46 -220t126 -79zM244 25q-5 2 -14.5 7t-14.5 7q-16 -31 -16 -80q0 -120 130.5 -208.5t311.5 -88.5q127 0 209 48t82 126
q0 75 -69.5 105t-260.5 34q-136 3 -220 13.5t-138 36.5z" />
    <glyph glyph-name="uni0122" unicode="&#x122;" horiz-adv-x="1456" 
d="M795 -27q-218 0 -382 94.5t-248.5 258.5t-84.5 374q0 223 99 396.5t274.5 268.5t398.5 95q124 0 237.5 -28.5t182.5 -63.5v-393h-21q-68 194 -194.5 309t-276.5 115q-182 0 -297.5 -149.5t-115.5 -420.5q0 -339 157.5 -550t395.5 -211q88 0 131 22v348q0 159 -105 258v11
h457v-11q-72 -97 -72 -258v-288q-100 -81 -242 -129t-294 -48zM725 -539l-23 27q41 37 58.5 69t17.5 72v11h-6q-55 0 -92 35.5t-37 86.5q0 53 37.5 90t93.5 37q62 0 101.5 -41t39.5 -124q0 -82 -51.5 -149.5t-138.5 -113.5z" />
    <glyph glyph-name="uni0123" unicode="&#x123;" horiz-adv-x="1126" 
d="M561 1147q-65 0 -105 42t-40 128q0 81 53 148t141 114l23 -27q-76 -68 -76 -137v-10h6q58 0 95.5 -36.5t37.5 -90.5q0 -56 -38 -93.5t-97 -37.5zM1114 1155v-182q-87 0 -138.5 -9t-90.5 -32q96 -93 96 -227q0 -155 -122 -251t-312 -96q-156 0 -273 66q-32 -37 -32 -76
q0 -19 5.5 -34t19 -26t26.5 -19t37.5 -13t43 -8.5t52 -5.5t54.5 -2.5t61 -1.5q76 -2 134.5 -6.5t120.5 -15.5t105.5 -31t79.5 -49.5t54 -74t18 -102.5q0 -111 -79 -200.5t-211.5 -139t-289.5 -49.5q-199 0 -301 74t-102 202q0 130 110 220q-76 61 -76 161q0 126 136 222
q-131 94 -131 256q0 155 122.5 250.5t313.5 95.5t313 -95q71 199 256 199zM545 406q82 0 127 78.5t45 220.5q0 141 -45 220t-127 79q-80 0 -126 -79.5t-46 -219.5q0 -141 46 -220t126 -79zM244 25q-5 2 -14.5 7t-14.5 7q-16 -31 -16 -80q0 -120 130.5 -208.5t311.5 -88.5
q127 0 209 48t82 126q0 75 -69.5 105t-260.5 34q-136 3 -220 13.5t-138 36.5z" />
    <glyph glyph-name="Hcircumflex" unicode="&#x124;" horiz-adv-x="1626" 
d="M508 1599h-27l295 302h76l295 -302h-27l-301 123h-12zM584 0h-441v10q72 97 72 258v897q0 161 -72 258v11h441v-11q-72 -97 -72 -258v-401h602v401q0 161 -72 258v11h441v-11q-72 -97 -72 -258v-897q0 -161 72 -258v-10h-441v10q72 97 72 258v445h-602v-445
q0 -161 72 -258v-10z" />
    <glyph glyph-name="hcircumflex" unicode="&#x125;" horiz-adv-x="1275" 
d="M8 1599h-26l294 302h76l295 -302h-26l-302 123h-12zM510 0h-391v10q57 82 57 232v934q0 154 -74 225v10l340 115h11v-676h10q41 89 124.5 145t196.5 56q151 0 240.5 -96t89.5 -250v-463q0 -150 57 -232v-10h-391v10q58 83 58 232v456q0 84 -51.5 138.5t-135.5 54.5
q-82 0 -140 -53t-58 -140v-456q0 -150 57 -232v-10z" />
    <glyph glyph-name="Hbar" unicode="&#x126;" horiz-adv-x="1630" 
d="M1589 1104v-51h-176v-785q0 -161 72 -258v-10h-441v10q72 97 72 258v445h-602v-445q0 -161 72 -258v-10h-441v10q72 97 72 258v785h-176v51h176v61q0 161 -72 258v11h441v-11q-72 -97 -72 -258v-61h602v61q0 161 -72 258v11h441v-11q-72 -97 -72 -258v-61h176zM514 764
h602v289h-602v-289z" />
    <glyph glyph-name="hbar" unicode="&#x127;" horiz-adv-x="1275" 
d="M1114 670v-428q0 -150 57 -232v-10h-391v10q58 83 58 232v422q0 84 -51.5 138t-135.5 54q-83 0 -140.5 -53t-57.5 -139v-422q0 -150 57 -232v-10h-391v10q57 82 57 232v934v20h-135v51h131q-11 98 -70 154v10l340 115h11v-279h424v-51h-424v-381h10q41 89 124.5 145
t196.5 56q151 0 240.5 -96t89.5 -250z" />
    <glyph glyph-name="Imacron" unicode="&#x12a;" horiz-adv-x="739" 
d="M659 1702h-577v92h577v-92zM590 0h-440v10q71 95 71 258v897q0 163 -71 258v11h440v-11q-72 -97 -72 -258v-897q0 -161 72 -258v-10z" />
    <glyph glyph-name="imacron" unicode="&#x12b;" horiz-adv-x="634" 
d="M582 1276h-516v102h516v-102zM520 0h-391v10q57 82 57 232v458q0 153 -73 226v10l340 115h10v-809q0 -150 57 -232v-10z" />
    <glyph glyph-name="Ibreve" unicode="&#x12c;" horiz-adv-x="739" 
d="M369 1626q-117 0 -208.5 61.5t-123.5 184.5h26q103 -103 306 -103q204 0 307 103h26q-32 -124 -123 -185t-210 -61zM590 0h-440v10q71 95 71 258v897q0 163 -71 258v11h440v-11q-72 -97 -72 -258v-897q0 -161 72 -258v-10z" />
    <glyph glyph-name="ibreve" unicode="&#x12d;" horiz-adv-x="634" 
d="M324 1214q-113 0 -195.5 60.5t-112.5 175.5h27q107 -96 281 -96q170 0 280 96h27q-28 -115 -110.5 -175.5t-196.5 -60.5zM520 0h-391v10q57 82 57 232v458q0 153 -73 226v10l340 115h10v-809q0 -150 57 -232v-10z" />
    <glyph glyph-name="Iogonek" unicode="&#x12e;" horiz-adv-x="739" 
d="M590 1434v-11q-72 -97 -72 -258v-897q0 -161 72 -258v-10h-148q-101 -42 -139.5 -95.5t-38.5 -119.5q0 -60 29.5 -94.5t77.5 -34.5q65 0 114 59h27q-34 -81 -89.5 -117t-137.5 -36q-85 0 -138 49t-53 125q0 83 56.5 149.5t158.5 104.5v10h-159v10q71 95 71 258v897
q0 163 -71 258v11h440z" />
    <glyph glyph-name="iogonek" unicode="&#x12f;" horiz-adv-x="634" 
d="M324 1167q-69 0 -116.5 47t-47.5 117q0 69 47.5 116.5t116.5 47.5t116 -47.5t47 -116.5q0 -70 -47 -117t-116 -47zM520 0h-123q-101 -42 -139.5 -95.5t-38.5 -119.5q0 -60 29.5 -94.5t77.5 -34.5q65 0 114 59h27q-34 -81 -89.5 -117t-137.5 -36q-85 0 -138 49t-53 125
q0 83 56.5 149.5t158.5 104.5v10h-135v10q57 82 57 232v458q0 153 -73 226v10l340 115h10v-809q0 -150 57 -232v-10z" />
    <glyph glyph-name="Idotaccent" unicode="&#x130;" horiz-adv-x="739" 
d="M371 1585q-71 0 -118.5 47.5t-47.5 118.5t47.5 118.5t118.5 47.5t118.5 -47.5t47.5 -118.5t-47.5 -118.5t-118.5 -47.5zM590 0h-440v10q71 95 71 258v897q0 163 -71 258v11h440v-11q-72 -97 -72 -258v-897q0 -161 72 -258v-10z" />
    <glyph glyph-name="dotlessi" unicode="&#x131;" horiz-adv-x="634" 
d="M520 0h-391v10q57 82 57 232v458q0 153 -73 226v10l340 115h10v-809q0 -150 57 -232v-10z" />
    <glyph glyph-name="IJ" unicode="&#x132;" horiz-adv-x="1462" 
d="M590 0h-440v10q71 95 71 258v897q0 163 -71 258v11h440v-11q-72 -97 -72 -258v-897q0 -161 72 -258v-10zM725 -410v21q67 18 113.5 57t71.5 98t35.5 126t10.5 153v1120q0 163 -71 258v11h440v-11q-72 -97 -72 -258v-1112q0 -129 -38 -220.5t-110.5 -143.5t-165 -75.5
t-214.5 -23.5z" />
    <glyph glyph-name="ij" unicode="&#x133;" horiz-adv-x="1249" 
d="M324 1167q-69 0 -116.5 47t-47.5 117q0 69 47.5 116.5t116.5 47.5t116 -47.5t47 -116.5q0 -70 -47 -117t-116 -47zM948 1167q-69 0 -116.5 47t-47.5 117q0 69 47.5 116.5t116.5 47.5t116.5 -47.5t47.5 -116.5q0 -70 -47.5 -117t-116.5 -47zM520 0h-391v10q57 82 57 232
v458q0 153 -73 226v10l340 115h10v-809q0 -150 57 -232v-10zM635 -410v21q102 48 139 125t37 215v749q0 152 -74 226v10l340 115h10v-1100q0 -185 -117.5 -273t-334.5 -88z" />
    <glyph glyph-name="Jcircumflex" unicode="&#x134;" horiz-adv-x="722" 
d="M59 1599h-26l295 302h75l295 -302h-26l-301 123h-13zM-14 -410v21q67 18 113.5 57t71.5 98t35.5 126t10.5 153v1120q0 161 -72 258v11h441v-11q-72 -97 -72 -258v-1112q0 -129 -38 -220.5t-110.5 -143.5t-165 -75.5t-214.5 -23.5z" />
    <glyph glyph-name="jcircumflex" unicode="&#x135;" horiz-adv-x="614" 
d="M31 1163h-27l272 332h74l273 -332h-27l-277 150h-12zM0 -410v21q102 48 139 125t37 215v749q0 152 -74 226v10l340 115h11v-1100q0 -185 -118 -273t-335 -88z" />
    <glyph glyph-name="uni0136" unicode="&#x136;" horiz-adv-x="1445" 
d="M584 0h-441v10q72 97 72 258v897q0 161 -72 258v11h441v-11q-72 -97 -72 -258v-897q0 -161 72 -258v-10zM1286 -16q-84 0 -148.5 25t-115 71t-111.5 127l-352 471v10l414 486q131 154 33 249v11h356v-11q-154 -65 -320 -254l-256 -288l488 -658q68 -91 110 -132.5
t82 -53.5v-14q-80 -39 -180 -39zM760 -539l-23 27q41 37 58.5 69t17.5 72v11h-6q-55 0 -92 35.5t-37 86.5q0 53 37.5 90t93.5 37q62 0 101.5 -41t39.5 -124q0 -82 -51.5 -149.5t-138.5 -113.5z" />
    <glyph glyph-name="uni0137" unicode="&#x137;" horiz-adv-x="1177" 
d="M510 0h-391v10q57 82 57 232v934q0 154 -74 225v10l340 115h11v-1284q0 -150 57 -232v-10zM1026 -16q-96 0 -158 35t-120 114l-254 346v10l251 289q135 154 46 236v10h313v-10q-87 -41 -148.5 -87.5t-134.5 -125.5l-123 -133l389 -525q71 -95 105 -106v-14
q-73 -39 -166 -39zM610 -539l-22 27q41 37 58.5 69t17.5 72v11h-7q-55 0 -92 35.5t-37 86.5q0 53 37.5 90t93.5 37q62 0 102 -41t40 -124q0 -81 -51.5 -148.5t-139.5 -114.5z" />
    <glyph glyph-name="Lacute" unicode="&#x139;" horiz-adv-x="1206" 
d="M281 1599h-27l139 302h260v-27zM1174 0h-1031v10q72 97 72 258v897q0 161 -72 258v11h441v-11q-72 -97 -72 -258v-1114h205q104 0 182 23.5t134 73t94 108.5t77 147h21z" />
    <glyph glyph-name="lacute" unicode="&#x13a;" horiz-adv-x="618" 
d="M223 1599h-26l139 302h260v-27zM510 0h-391v10q57 82 57 232v934q0 154 -74 225v10l340 115h11v-1284q0 -150 57 -232v-10z" />
    <glyph glyph-name="uni013B" unicode="&#x13b;" horiz-adv-x="1206" 
d="M1174 0h-1031v10q72 97 72 258v897q0 161 -72 258v11h441v-11q-72 -97 -72 -258v-1114h205q104 0 182 23.5t134 73t94 108.5t77 147h21zM637 -539l-23 27q41 37 58.5 69t17.5 72v11h-6q-55 0 -92 35.5t-37 86.5q0 53 37.5 90t93.5 37q62 0 101.5 -41t39.5 -124
q0 -82 -51.5 -149.5t-138.5 -113.5z" />
    <glyph glyph-name="uni013C" unicode="&#x13c;" horiz-adv-x="618" 
d="M510 0h-391v10q57 82 57 232v934q0 154 -74 225v10l340 115h11v-1284q0 -150 57 -232v-10zM246 -539l-23 27q41 37 58.5 69t17.5 72v11h-6q-55 0 -92 35.5t-37 86.5q0 53 37.5 90t93.5 37q62 0 101.5 -41t39.5 -124q0 -82 -51.5 -149.5t-138.5 -113.5z" />
    <glyph glyph-name="Lcaron" unicode="&#x13d;" horiz-adv-x="1206" 
d="M1174 0h-1031v10q72 97 72 258v897q0 161 -72 258v11h441v-11q-72 -97 -72 -258v-1114h205q104 0 182 23.5t134 73t94 108.5t77 147h21zM725 1106h-27l25 328h215v-27z" />
    <glyph glyph-name="lcaron" unicode="&#x13e;" horiz-adv-x="618" 
d="M510 0h-391v10q57 82 57 232v934q0 154 -74 225v10l340 115h11v-1284q0 -150 57 -232v-10zM592 1198h-27l25 328h215v-27z" />
    <glyph glyph-name="Ldot" unicode="&#x13f;" horiz-adv-x="1206" 
d="M1174 0h-1031v10q72 97 72 258v897q0 161 -72 258v11h441v-11q-72 -97 -72 -258v-1114h205q104 0 182 23.5t134 73t94 108.5t77 147h21zM969 600q-69 0 -114.5 45t-45.5 113q0 69 45.5 114.5t114.5 45.5q68 0 112.5 -45.5t44.5 -114.5q0 -68 -45 -113t-112 -45z" />
    <glyph glyph-name="ldot" unicode="&#x140;" horiz-adv-x="782" 
d="M510 0h-391v10q57 82 57 232v934q0 154 -74 225v10l340 115h11v-1284q0 -150 57 -232v-10zM707 602q-69 0 -114.5 45t-45.5 113q0 69 45.5 114.5t114.5 45.5q68 0 112.5 -45.5t44.5 -114.5q0 -68 -45 -113t-112 -45z" />
    <glyph glyph-name="Lslash" unicode="&#x141;" 
d="M1206 403h21l-51 -403h-1031v10q72 97 72 258v271l-176 -103v62l176 100v567q0 161 -72 258v11h441v-11q-72 -97 -72 -258v-411l387 221v-62l-387 -221v-641h205q104 0 182 23.5t134 73t94 108.5t77 147z" />
    <glyph glyph-name="lslash" unicode="&#x142;" horiz-adv-x="671" 
d="M606 948v-61l-135 -78v-567q0 -150 57 -232v-10h-391v10q58 83 58 232v428l-136 -78v61l136 78v445q0 154 -74 225v10l340 115h10v-656z" />
    <glyph glyph-name="Nacute" unicode="&#x143;" horiz-adv-x="1484" 
d="M680 1599h-27l140 302h260v-27zM389 0h-283v12q111 131 111 256v899q0 125 -111 256v11h365l746 -992v723q0 125 -111 256v13h283v-13q-111 -131 -111 -256v-1165h-76l-923 1212v-944q0 -126 110 -256v-12z" />
    <glyph glyph-name="nacute" unicode="&#x144;" horiz-adv-x="1286" 
d="M635 1163h-27l82 332h228v-27zM520 0h-391v10q57 82 57 232v458q0 153 -73 226v10l340 115h10v-201h10q41 88 125 144.5t197 56.5q150 0 239.5 -96t89.5 -250v-463q0 -149 58 -232v-10h-391v10q57 82 57 232v456q0 84 -51 138.5t-135 54.5q-83 0 -141 -53.5t-58 -139.5
v-456q0 -150 57 -232v-10z" />
    <glyph glyph-name="uni0145" unicode="&#x145;" horiz-adv-x="1484" 
d="M389 0h-283v12q111 131 111 256v899q0 125 -111 256v11h365l746 -992v723q0 125 -111 256v13h283v-13q-111 -131 -111 -256v-1165h-76l-923 1212v-944q0 -126 110 -256v-12zM694 -539l-22 27q41 37 58.5 69t17.5 72v11h-7q-55 0 -92 35.5t-37 86.5q0 53 37.5 90t93.5 37
q62 0 102 -41t40 -124q0 -81 -51.5 -148.5t-139.5 -114.5z" />
    <glyph glyph-name="uni0146" unicode="&#x146;" horiz-adv-x="1286" 
d="M520 0h-391v10q57 82 57 232v458q0 153 -73 226v10l340 115h10v-201h10q41 88 125 144.5t197 56.5q150 0 239.5 -96t89.5 -250v-463q0 -149 58 -232v-10h-391v10q57 82 57 232v456q0 84 -51 138.5t-135 54.5q-83 0 -141 -53.5t-58 -139.5v-456q0 -150 57 -232v-10z
M598 -539l-23 27q41 37 58.5 69t17.5 72v11h-6q-55 0 -92 35.5t-37 86.5q0 53 37.5 90t93.5 37q62 0 101.5 -41t39.5 -124q0 -82 -51.5 -149.5t-138.5 -113.5z" />
    <glyph glyph-name="Ncaron" unicode="&#x147;" horiz-adv-x="1484" 
d="M801 1599h-76l-295 302h27l299 -121h12l301 121h27zM389 0h-283v12q111 131 111 256v899q0 125 -111 256v11h365l746 -992v723q0 125 -111 256v13h283v-13q-111 -131 -111 -256v-1165h-76l-923 1212v-944q0 -126 110 -256v-12z" />
    <glyph glyph-name="ncaron" unicode="&#x148;" horiz-adv-x="1286" 
d="M723 1163h-74l-272 332h26l277 -147h12l277 147h26zM520 0h-391v10q57 82 57 232v458q0 153 -73 226v10l340 115h10v-201h10q41 88 125 144.5t197 56.5q150 0 239.5 -96t89.5 -250v-463q0 -149 58 -232v-10h-391v10q57 82 57 232v456q0 84 -51 138.5t-135 54.5
q-83 0 -141 -53.5t-58 -139.5v-456q0 -150 57 -232v-10z" />
    <glyph glyph-name="Eng" unicode="&#x14a;" horiz-adv-x="1484" 
d="M1106 1421v13h283v-13q-111 -131 -111 -256v-1124q0 -227 -123 -339t-326 -112v21q220 67 220 434v156l-770 1011v-944q0 -126 110 -256v-12h-283v12q111 131 111 256v899q0 125 -111 256v11h365l746 -992v723q0 125 -111 256z" />
    <glyph glyph-name="eng" unicode="&#x14b;" horiz-adv-x="1263" 
d="M670 -410v21q102 48 140 125t38 215v747q0 84 -51 138.5t-135 54.5q-83 0 -141 -53.5t-58 -139.5v-456q0 -150 57 -232v-10h-391v10q57 82 57 232v458q0 153 -73 226v10l340 115h10v-201h10q41 88 125 144.5t197 56.5q150 0 239.5 -96t89.5 -250v-754q0 -185 -118.5 -273
t-335.5 -88z" />
    <glyph glyph-name="Omacron" unicode="&#x14c;" horiz-adv-x="1564" 
d="M1071 1702h-577v92h577v-92zM782 -27q-211 0 -370.5 92.5t-245.5 261.5t-86 390q0 335 191.5 539t510.5 204t511 -204t192 -539t-192 -539.5t-511 -204.5zM782 27q181 0 283 189t102 501t-102 501t-283 189q-180 0 -282.5 -189.5t-102.5 -500.5t102.5 -500.5
t282.5 -189.5z" />
    <glyph glyph-name="omacron" unicode="&#x14d;" horiz-adv-x="1189" 
d="M854 1276h-516v102h516v-102zM596 -27q-228 0 -375 152t-147 387t147 387t375 152q227 0 373.5 -152t146.5 -387t-146.5 -387t-373.5 -152zM596 20q76 0 127 65t73.5 173t22.5 254t-22.5 254t-73.5 173t-127 65q-112 0 -168.5 -134.5t-56.5 -357.5t56.5 -357.5
t168.5 -134.5z" />
    <glyph glyph-name="Obreve" unicode="&#x14e;" horiz-adv-x="1564" 
d="M780 1626q-117 0 -208 61t-123 185h26q103 -103 305 -103q204 0 307 103h27q-32 -124 -123.5 -185t-210.5 -61zM782 -27q-211 0 -370.5 92.5t-245.5 261.5t-86 390q0 335 191.5 539t510.5 204t511 -204t192 -539t-192 -539.5t-511 -204.5zM782 27q181 0 283 189t102 501
t-102 501t-283 189q-180 0 -282.5 -189.5t-102.5 -500.5t102.5 -500.5t282.5 -189.5z" />
    <glyph glyph-name="obreve" unicode="&#x14f;" horiz-adv-x="1189" 
d="M596 1214q-112 0 -194.5 60.5t-112.5 175.5h26q107 -96 281 -96q171 0 281 96h26q-28 -115 -110.5 -175.5t-196.5 -60.5zM596 -27q-228 0 -375 152t-147 387t147 387t375 152q227 0 373.5 -152t146.5 -387t-146.5 -387t-373.5 -152zM596 20q76 0 127 65t73.5 173
t22.5 254t-22.5 254t-73.5 173t-127 65q-112 0 -168.5 -134.5t-56.5 -357.5t56.5 -357.5t168.5 -134.5z" />
    <glyph glyph-name="Ohungarumlaut" unicode="&#x150;" horiz-adv-x="1564" 
d="M567 1599h-26l129 302h235v-27zM887 1599h-27l129 302h238v-27zM782 -27q-211 0 -370.5 92.5t-245.5 261.5t-86 390q0 335 191.5 539t510.5 204t511 -204t192 -539t-192 -539.5t-511 -204.5zM782 27q181 0 283 189t102 501t-102 501t-283 189q-180 0 -282.5 -189.5
t-102.5 -500.5t102.5 -500.5t282.5 -189.5z" />
    <glyph glyph-name="ohungarumlaut" unicode="&#x151;" horiz-adv-x="1189" 
d="M428 1163h-27l82 332h205v-27zM711 1163h-27l82 332h205v-27zM596 -27q-228 0 -375 152t-147 387t147 387t375 152q227 0 373.5 -152t146.5 -387t-146.5 -387t-373.5 -152zM596 20q76 0 127 65t73.5 173t22.5 254t-22.5 254t-73.5 173t-127 65q-112 0 -168.5 -134.5
t-56.5 -357.5t56.5 -357.5t168.5 -134.5z" />
    <glyph glyph-name="OE" unicode="&#x152;" horiz-adv-x="2138" 
d="M2054 391h21l-52 -391h-1069q-91 -27 -198 -27q-202 0 -355.5 92.5t-237 261.5t-83.5 390t83.5 389.5t237 261t355.5 92.5q110 0 198 -26h1024l52 -392h-21q-36 83 -74 140t-94.5 105t-135.5 71.5t-183 23.5h-441q157 -86 246.5 -249.5t95.5 -384.5h101q116 0 182.5 55.5
t95.5 159.5h21v-482h-21q-29 104 -95.5 159.5t-182.5 55.5h-101q-4 -225 -93.5 -392.5t-248.5 -252.5h486q104 0 183 23.5t135.5 71.5t94.5 105t74 140zM397 717q0 -313 94 -501.5t265 -188.5q112 0 192 88t119 242t39 360t-39 360t-119 242t-192 88q-171 0 -265 -188.5
t-94 -501.5z" />
    <glyph glyph-name="oe" unicode="&#x153;" horiz-adv-x="1830" 
d="M1751 346h21q-34 -169 -155.5 -271t-293.5 -102q-108 0 -209.5 42t-169.5 118q-70 -81 -156.5 -120.5t-201.5 -39.5q-222 0 -367 152.5t-145 386.5t145 386.5t367 152.5q223 0 370 -181q71 89 173.5 135t213.5 46q192 0 303 -117.5t111 -294.5h-698q13 -212 122.5 -337.5
t278.5 -125.5q100 0 176 45.5t115 124.5zM586 20q73 0 121.5 65t70 173t21.5 254t-21.5 254t-70 173t-121.5 65q-105 0 -160 -135.5t-55 -356.5t55 -356.5t160 -135.5zM1266 991q-101 0 -155 -81t-54 -216v-8h428q-11 144 -67 224.5t-152 80.5z" />
    <glyph glyph-name="Racute" unicode="&#x154;" horiz-adv-x="1476" 
d="M643 1599h-27l140 302h260v-27zM1264 -16q-57 0 -106.5 14t-85.5 34.5t-68 57t-52 66.5t-41.5 79.5t-32.5 80.5t-28 83q-15 46 -24 71.5t-24.5 63t-30 57.5t-35 41.5t-46 30.5t-55.5 9h-123v-404q0 -161 72 -258v-10h-441v10q72 97 72 258v897q0 161 -72 258v11h586
q109 0 202.5 -20t173.5 -62t126.5 -118t46.5 -179q0 -69 -24 -128t-64 -100t-93.5 -71t-111 -45.5t-117.5 -18.5v-8q64 -2 117.5 -26.5t89.5 -57.5t68.5 -86t51 -95.5t40.5 -103.5q17 -48 28.5 -77.5t29.5 -66.5t34.5 -58t38 -35.5t45.5 -14.5q37 0 62 25l16 -14
q-27 -42 -89 -66t-136 -24zM512 1354v-631h178q132 0 206.5 89t74.5 243q0 153 -75.5 241t-213.5 88q-94 0 -170 -30z" />
    <glyph glyph-name="racute" unicode="&#x155;" horiz-adv-x="849" 
d="M492 1163h-27l82 332h227v-27zM520 0h-391v10q57 82 57 232v458q0 153 -73 226v10l340 115h10v-281h10q34 136 119 208.5t239 72.5v-256h-118q-129 0 -189.5 -54t-60.5 -180v-319q0 -150 57 -232v-10z" />
    <glyph glyph-name="uni0156" unicode="&#x156;" horiz-adv-x="1476" 
d="M1264 -16q-57 0 -106.5 14t-85.5 34.5t-68 57t-52 66.5t-41.5 79.5t-32.5 80.5t-28 83q-15 46 -24 71.5t-24.5 63t-30 57.5t-35 41.5t-46 30.5t-55.5 9h-123v-404q0 -161 72 -258v-10h-441v10q72 97 72 258v897q0 161 -72 258v11h586q109 0 202.5 -20t173.5 -62
t126.5 -118t46.5 -179q0 -69 -24 -128t-64 -100t-93.5 -71t-111 -45.5t-117.5 -18.5v-8q64 -2 117.5 -26.5t89.5 -57.5t68.5 -86t51 -95.5t40.5 -103.5q17 -48 28.5 -77.5t29.5 -66.5t34.5 -58t38 -35.5t45.5 -14.5q37 0 62 25l16 -14q-27 -42 -89 -66t-136 -24zM512 1354
v-631h178q132 0 206.5 89t74.5 243q0 153 -75.5 241t-213.5 88q-94 0 -170 -30zM748 -539l-23 27q41 37 58.5 69t17.5 72v11h-6q-55 0 -92 35.5t-37 86.5q0 53 37.5 90t93.5 37q62 0 101.5 -41t39.5 -124q0 -82 -51.5 -149.5t-138.5 -113.5z" />
    <glyph glyph-name="uni0157" unicode="&#x157;" horiz-adv-x="849" 
d="M520 0h-391v10q57 82 57 232v458q0 153 -73 226v10l340 115h10v-281h10q34 136 119 208.5t239 72.5v-256h-118q-129 0 -189.5 -54t-60.5 -180v-319q0 -150 57 -232v-10zM262 -539l-22 27q41 37 58 69t17 72v11h-6q-55 0 -92 35.5t-37 86.5q0 53 37.5 90t93.5 37
q62 0 102 -41t40 -124q0 -81 -51.5 -148.5t-139.5 -114.5z" />
    <glyph glyph-name="Rcaron" unicode="&#x158;" horiz-adv-x="1476" 
d="M764 1599h-76l-295 302h27l299 -121h12l301 121h27zM1264 -16q-57 0 -106.5 14t-85.5 34.5t-68 57t-52 66.5t-41.5 79.5t-32.5 80.5t-28 83q-15 46 -24 71.5t-24.5 63t-30 57.5t-35 41.5t-46 30.5t-55.5 9h-123v-404q0 -161 72 -258v-10h-441v10q72 97 72 258v897
q0 161 -72 258v11h586q109 0 202.5 -20t173.5 -62t126.5 -118t46.5 -179q0 -69 -24 -128t-64 -100t-93.5 -71t-111 -45.5t-117.5 -18.5v-8q64 -2 117.5 -26.5t89.5 -57.5t68.5 -86t51 -95.5t40.5 -103.5q17 -48 28.5 -77.5t29.5 -66.5t34.5 -58t38 -35.5t45.5 -14.5
q37 0 62 25l16 -14q-27 -42 -89 -66t-136 -24zM512 1354v-631h178q132 0 206.5 89t74.5 243q0 153 -75.5 241t-213.5 88q-94 0 -170 -30z" />
    <glyph glyph-name="rcaron" unicode="&#x159;" horiz-adv-x="849" 
d="M580 1163h-74l-273 332h27l277 -147h12l276 147h27zM520 0h-391v10q57 82 57 232v458q0 153 -73 226v10l340 115h10v-281h10q34 136 119 208.5t239 72.5v-256h-118q-129 0 -189.5 -54t-60.5 -180v-319q0 -150 57 -232v-10z" />
    <glyph glyph-name="Sacute" unicode="&#x15a;" horiz-adv-x="1234" 
d="M563 1599h-26l139 302h260v-27zM614 -27q-139 0 -269 32t-206 71v407h21q67 -204 199 -328t290 -124q126 0 199.5 71.5t73.5 180.5q0 49 -19 89.5t-47.5 68.5t-76.5 54t-91 42t-106 36t-106.5 35.5t-96 39t-87 47t-70 57.5t-55.5 73.5t-33 91t-13 113.5q0 186 141 308
t369 122q119 0 234.5 -27t185.5 -59v-379h-21q-71 190 -182 299t-256 109q-110 0 -183 -64t-73 -168q0 -45 18 -82.5t46.5 -64.5t78.5 -53t97.5 -44t121.5 -42q41 -13 67 -22t64 -24t63.5 -28t58.5 -31.5t55 -38t46.5 -44.5t40 -54t29 -63t19.5 -75t6 -87
q0 -197 -143.5 -321t-389.5 -124z" />
    <glyph glyph-name="sacute" unicode="&#x15b;" horiz-adv-x="980" 
d="M453 1163h-27l82 332h227v-27zM477 -27q-204 0 -360 76v305h20q52 -151 159.5 -240t213.5 -89q82 0 133 49t51 125q0 74 -54.5 114.5t-178.5 71.5q-81 20 -140 45t-111 63.5t-79 97t-27 134.5q0 147 111.5 236.5t284.5 89.5q149 0 325 -76v-287h-20q-46 134 -143.5 222.5
t-200.5 88.5q-75 0 -120.5 -42.5t-45.5 -110.5q0 -70 55.5 -109.5t177.5 -72.5q67 -18 117.5 -37.5t98.5 -49t79 -66t49.5 -88.5t18.5 -116q0 -87 -35.5 -153.5t-96 -104.5t-131.5 -57t-151 -19z" />
    <glyph glyph-name="Scircumflex" unicode="&#x15c;" horiz-adv-x="1234" 
d="M340 1599h-27l295 302h76l295 -302h-27l-301 123h-12zM614 -27q-139 0 -269 32t-206 71v407h21q67 -204 199 -328t290 -124q126 0 199.5 71.5t73.5 180.5q0 49 -19 89.5t-47.5 68.5t-76.5 54t-91 42t-106 36t-106.5 35.5t-96 39t-87 47t-70 57.5t-55.5 73.5t-33 91
t-13 113.5q0 186 141 308t369 122q119 0 234.5 -27t185.5 -59v-379h-21q-71 190 -182 299t-256 109q-110 0 -183 -64t-73 -168q0 -45 18 -82.5t46.5 -64.5t78.5 -53t97.5 -44t121.5 -42q41 -13 67 -22t64 -24t63.5 -28t58.5 -31.5t55 -38t46.5 -44.5t40 -54t29 -63t19.5 -75
t6 -87q0 -197 -143.5 -321t-389.5 -124z" />
    <glyph glyph-name="scircumflex" unicode="&#x15d;" horiz-adv-x="980" 
d="M221 1163h-26l272 332h74l272 -332h-27l-276 150h-12zM477 -27q-204 0 -360 76v305h20q52 -151 159.5 -240t213.5 -89q82 0 133 49t51 125q0 74 -54.5 114.5t-178.5 71.5q-81 20 -140 45t-111 63.5t-79 97t-27 134.5q0 147 111.5 236.5t284.5 89.5q149 0 325 -76v-287
h-20q-46 134 -143.5 222.5t-200.5 88.5q-75 0 -120.5 -42.5t-45.5 -110.5q0 -70 55.5 -109.5t177.5 -72.5q67 -18 117.5 -37.5t98.5 -49t79 -66t49.5 -88.5t18.5 -116q0 -87 -35.5 -153.5t-96 -104.5t-131.5 -57t-151 -19z" />
    <glyph glyph-name="Scedilla" unicode="&#x15e;" horiz-adv-x="1234" 
d="M1147 418q0 -194 -139 -317.5t-379 -127.5l-19 -32q108 -13 163.5 -69t55.5 -130q0 -77 -60.5 -128.5t-156.5 -51.5q-85 0 -142 34.5t-81 94.5h27q65 -62 141 -62q52 0 80.5 25t28.5 67q0 104 -183 109l82 145q-126 5 -241 35.5t-185 65.5v407h21q67 -204 199 -328
t290 -124q126 0 199.5 71.5t73.5 180.5q0 49 -19 89.5t-47.5 68.5t-76.5 54t-91 42t-106 36t-106.5 35.5t-96 39t-87 47t-70 57.5t-55.5 73.5t-33 91t-13 113.5q0 186 141 308t369 122q119 0 234.5 -27t185.5 -59v-379h-21q-71 190 -182 299t-256 109q-110 0 -183 -64
t-73 -168q0 -45 18 -82.5t46.5 -64.5t78.5 -53t97.5 -44t121.5 -42q41 -13 67 -22t64 -24t63.5 -28t58.5 -31.5t55 -38t46.5 -44.5t40 -54t29 -63t19.5 -75t6 -87z" />
    <glyph glyph-name="scedilla" unicode="&#x15f;" horiz-adv-x="980" 
d="M891 307q0 -69 -22.5 -125t-60 -93.5t-89 -63.5t-107.5 -38t-118 -14l-19 -32q108 -13 163.5 -69t55.5 -130q0 -77 -60.5 -128.5t-156.5 -51.5q-85 0 -142 34.5t-81 94.5h27q65 -62 141 -62q52 0 80 25t28 67q0 104 -182 109l82 145q-173 7 -313 74v305h20
q52 -151 159.5 -240t213.5 -89q82 0 133 49t51 125q0 74 -54.5 114.5t-178.5 71.5q-81 20 -140 45t-111 63.5t-79 97t-27 134.5q0 147 111.5 236.5t284.5 89.5q149 0 325 -76v-287h-20q-46 134 -143.5 222.5t-200.5 88.5q-75 0 -120.5 -42.5t-45.5 -110.5q0 -70 55.5 -109.5
t177.5 -72.5q67 -18 117.5 -37.5t98.5 -49t79 -66t49.5 -88.5t18.5 -116z" />
    <glyph glyph-name="Scaron" unicode="&#x160;" horiz-adv-x="1234" 
d="M684 1599h-76l-295 302h27l299 -121h12l301 121h27zM614 -27q-139 0 -269 32t-206 71v407h21q67 -204 199 -328t290 -124q126 0 199.5 71.5t73.5 180.5q0 49 -19 89.5t-47.5 68.5t-76.5 54t-91 42t-106 36t-106.5 35.5t-96 39t-87 47t-70 57.5t-55.5 73.5t-33 91
t-13 113.5q0 186 141 308t369 122q119 0 234.5 -27t185.5 -59v-379h-21q-71 190 -182 299t-256 109q-110 0 -183 -64t-73 -168q0 -45 18 -82.5t46.5 -64.5t78.5 -53t97.5 -44t121.5 -42q41 -13 67 -22t64 -24t63.5 -28t58.5 -31.5t55 -38t46.5 -44.5t40 -54t29 -63t19.5 -75
t6 -87q0 -197 -143.5 -321t-389.5 -124z" />
    <glyph glyph-name="scaron" unicode="&#x161;" horiz-adv-x="980" 
d="M541 1163h-74l-272 332h26l277 -147h12l276 147h27zM477 -27q-204 0 -360 76v305h20q52 -151 159.5 -240t213.5 -89q82 0 133 49t51 125q0 74 -54.5 114.5t-178.5 71.5q-81 20 -140 45t-111 63.5t-79 97t-27 134.5q0 147 111.5 236.5t284.5 89.5q149 0 325 -76v-287h-20
q-46 134 -143.5 222.5t-200.5 88.5q-75 0 -120.5 -42.5t-45.5 -110.5q0 -70 55.5 -109.5t177.5 -72.5q67 -18 117.5 -37.5t98.5 -49t79 -66t49.5 -88.5t18.5 -116q0 -87 -35.5 -153.5t-96 -104.5t-131.5 -57t-151 -19z" />
    <glyph glyph-name="uni0162" unicode="&#x162;" horiz-adv-x="1370" 
d="M45 1434h1282l49 -410h-20q-73 171 -180 264.5t-267 93.5h-75v-1114q0 -163 71 -258v-10h-219l-35 -59q108 -13 163.5 -69t55.5 -130q0 -77 -60.5 -128.5t-156.5 -51.5q-85 0 -142 34.5t-81 94.5h27q65 -62 141 -62q52 0 80.5 25t28.5 67q0 104 -183 109l97 170h-156v10
q72 97 72 258v1114h-76q-158 0 -265 -93.5t-182 -264.5h-20z" />
    <glyph glyph-name="uni0163" unicode="&#x163;" horiz-adv-x="755" 
d="M477 -27q-23 0 -33 2l-20 -34q108 -13 163.5 -69t55.5 -130q0 -77 -60.5 -128.5t-156.5 -51.5q-85 0 -142 34.5t-81 94.5h26q65 -62 142 -62q52 0 80 25t28 67q0 104 -182 109l88 156q-99 27 -160 106t-61 195v540q0 108 -92 144v10q195 74 358 262h10v-219h297l-24 -74
h-273v-663q0 -92 49 -141.5t123 -49.5q45 0 78 15.5t47 35.5l21 -10q-32 -72 -108 -118t-173 -46z" />
    <glyph glyph-name="Tcaron" unicode="&#x164;" horiz-adv-x="1370" 
d="M723 1599h-76l-295 302h27l299 -121h12l301 121h27zM905 0h-440v10q72 97 72 258v1114h-76q-158 0 -265 -93.5t-182 -264.5h-20l51 410h1282l49 -410h-20q-73 171 -180 264.5t-267 93.5h-75v-1114q0 -163 71 -258v-10z" />
    <glyph glyph-name="tcaron" unicode="&#x165;" horiz-adv-x="755" 
d="M580 1106h-27l25 328h215v-27zM477 -27q-133 0 -223 85t-90 229v540q0 108 -92 144v10q195 74 358 262h10v-219h297l-24 -74h-273v-663q0 -92 49 -141.5t123 -49.5q45 0 78 15.5t47 35.5l21 -10q-32 -72 -108 -118t-173 -46z" />
    <glyph glyph-name="Tbar" unicode="&#x166;" horiz-adv-x="1370" 
d="M45 1434h1282l49 -410h-20q-73 171 -180 264.5t-267 93.5h-75v-628h311v-52h-311v-434q0 -163 71 -258v-10h-440v10q72 97 72 258v434h-312v52h312v628h-76q-158 0 -265 -93.5t-182 -264.5h-20z" />
    <glyph glyph-name="tbar" unicode="&#x167;" horiz-adv-x="755" 
d="M737 147l21 -10q-32 -72 -108 -118t-173 -46q-133 0 -223 85t-90 229v258h-92v51h92v231q0 108 -92 144v10q195 74 358 262h10v-219h297l-24 -74h-273v-354h226v-51h-226v-258q0 -92 49 -141.5t123 -49.5q45 0 78 15.5t47 35.5z" />
    <glyph glyph-name="Umacron" unicode="&#x16a;" horiz-adv-x="1460" 
d="M1075 1702h-577v92h577v-92zM756 -27q-267 0 -419.5 127.5t-152.5 356.5v708q0 163 -71 258v11h440v-11q-72 -97 -72 -258v-708q0 -189 99.5 -290t271.5 -101t271.5 102t99.5 289v708q0 125 -111 256v13h283v-13q-111 -131 -111 -256v-708q0 -232 -136 -358t-392 -126z
" />
    <glyph glyph-name="umacron" unicode="&#x16b;" horiz-adv-x="1267" 
d="M889 1276h-516v102h516v-102zM487 -27q-145 0 -234 96.5t-89 249.5v381q0 151 -72 226v10l338 115h10v-725q0 -84 50 -138.5t131 -54.5q82 0 140 53t58 140v374q0 152 -71 226v10l337 115h11v-775q0 -154 73 -221v-10l-340 -72h-10v201h-10q-41 -88 -125 -144.5
t-197 -56.5z" />
    <glyph glyph-name="Ubreve" unicode="&#x16c;" horiz-adv-x="1460" 
d="M784 1626q-117 0 -208 61t-123 185h26q103 -103 305 -103q205 0 308 103h26q-32 -124 -123.5 -185t-210.5 -61zM756 -27q-267 0 -419.5 127.5t-152.5 356.5v708q0 163 -71 258v11h440v-11q-72 -97 -72 -258v-708q0 -189 99.5 -290t271.5 -101t271.5 102t99.5 289v708
q0 125 -111 256v13h283v-13q-111 -131 -111 -256v-708q0 -232 -136 -358t-392 -126z" />
    <glyph glyph-name="ubreve" unicode="&#x16d;" horiz-adv-x="1267" 
d="M631 1214q-112 0 -194.5 60.5t-112.5 175.5h26q107 -96 281 -96q170 0 280 96h27q-28 -115 -110.5 -175.5t-196.5 -60.5zM487 -27q-145 0 -234 96.5t-89 249.5v381q0 151 -72 226v10l338 115h10v-725q0 -84 50 -138.5t131 -54.5q82 0 140 53t58 140v374q0 152 -71 226v10
l337 115h11v-775q0 -154 73 -221v-10l-340 -72h-10v201h-10q-41 -88 -125 -144.5t-197 -56.5z" />
    <glyph glyph-name="Uring" unicode="&#x16e;" horiz-adv-x="1460" 
d="M786 1540q-100 0 -162.5 60t-62.5 151q0 92 62.5 151.5t162.5 59.5q99 0 161.5 -59.5t62.5 -151.5q0 -90 -62.5 -150.5t-161.5 -60.5zM786 1614q63 0 102.5 38.5t39.5 98.5q0 62 -39.5 100.5t-102.5 38.5t-102 -38.5t-39 -100.5q0 -60 39 -98.5t102 -38.5zM756 -27
q-267 0 -419.5 127.5t-152.5 356.5v708q0 163 -71 258v11h440v-11q-72 -97 -72 -258v-708q0 -189 99.5 -290t271.5 -101t271.5 102t99.5 289v708q0 125 -111 256v13h283v-13q-111 -131 -111 -256v-708q0 -232 -136 -358t-392 -126z" />
    <glyph glyph-name="uring" unicode="&#x16f;" horiz-adv-x="1267" 
d="M631 1139q-93 0 -152 55.5t-59 142.5q0 88 59 145.5t152 57.5q92 0 150.5 -57.5t58.5 -145.5q0 -87 -58.5 -142.5t-150.5 -55.5zM631 1210q55 0 91 36t36 91q0 59 -35.5 94t-91.5 35q-57 0 -92 -35.5t-35 -93.5q0 -56 35 -91.5t92 -35.5zM487 -27q-145 0 -234 96.5
t-89 249.5v381q0 151 -72 226v10l338 115h10v-725q0 -84 50 -138.5t131 -54.5q82 0 140 53t58 140v374q0 152 -71 226v10l337 115h11v-775q0 -154 73 -221v-10l-340 -72h-10v201h-10q-41 -88 -125 -144.5t-197 -56.5z" />
    <glyph glyph-name="Uhungarumlaut" unicode="&#x170;" horiz-adv-x="1460" 
d="M571 1599h-26l129 302h235v-27zM891 1599h-27l129 302h238v-27zM756 -27q-267 0 -419.5 127.5t-152.5 356.5v708q0 163 -71 258v11h440v-11q-72 -97 -72 -258v-708q0 -189 99.5 -290t271.5 -101t271.5 102t99.5 289v708q0 125 -111 256v13h283v-13q-111 -131 -111 -256
v-708q0 -232 -136 -358t-392 -126z" />
    <glyph glyph-name="uhungarumlaut" unicode="&#x171;" horiz-adv-x="1267" 
d="M463 1163h-27l82 332h205v-27zM745 1163h-26l82 332h205v-27zM487 -27q-145 0 -234 96.5t-89 249.5v381q0 151 -72 226v10l338 115h10v-725q0 -84 50 -138.5t131 -54.5q82 0 140 53t58 140v374q0 152 -71 226v10l337 115h11v-775q0 -154 73 -221v-10l-340 -72h-10v201
h-10q-41 -88 -125 -144.5t-197 -56.5z" />
    <glyph glyph-name="Uogonek" unicode="&#x172;" horiz-adv-x="1460" 
d="M1112 1421v13h283v-13q-111 -127 -111 -268v-696q0 -177 -78.5 -292.5t-230.5 -162.5q-197 -61 -197 -227q0 -55 28.5 -87t78.5 -32q68 0 119 59h26q-62 -153 -223 -153q-91 0 -145 49t-54 127q0 71 50 132.5t137 94.5v8h-19q-284 0 -438 127.5t-154 356.5v708
q0 163 -71 258v11h442v-11q-74 -99 -74 -258v-708q0 -189 99.5 -290t271.5 -101t271.5 102t99.5 289v696q0 141 -111 268z" />
    <glyph glyph-name="uogonek" unicode="&#x173;" horiz-adv-x="1267" 
d="M797 -438q-91 0 -145 49t-54 127q0 82 57.5 144.5t163.5 103.5v188h-10q-41 -88 -125 -144.5t-197 -56.5q-145 0 -234 96.5t-89 249.5v381q0 151 -72 226v10l338 115h10v-725q0 -84 50 -138.5t131 -54.5q82 0 140 53t58 140v374q0 152 -71 226v10l337 115h11v-775
q0 -154 73 -221v-10l-94 -20q-152 -34 -229.5 -102.5t-77.5 -149.5q0 -54 28.5 -85.5t77.5 -31.5q68 0 119 59h27q-62 -153 -223 -153z" />
    <glyph glyph-name="Wcircumflex" unicode="&#x174;" horiz-adv-x="2074" 
d="M754 1599h-27l295 302h76l295 -302h-27l-301 123h-12zM731 0h-168l-409 1161q-57 163 -146 262v11h502v-11q-95 -119 -43 -264l307 -870l223 641l-84 231q-33 93 -64.5 153.5t-76.5 108.5v11h502v-11q-100 -121 -49 -264l307 -870l301 858q61 173 -49 276v11h303v-11
q-139 -118 -189 -264l-407 -1159h-168l-295 838z" />
    <glyph glyph-name="wcircumflex" unicode="&#x175;" horiz-adv-x="1626" 
d="M821 1313h-12l-277 -150h-26l272 332h74l272 -332h-26zM1407 1014v10h242v-10q-92 -80 -150 -232l-303 -782h-123l-260 655l-254 -655h-121l-309 782q-62 160 -131 232v10h430v-10q-30 -38 -33.5 -95t25.5 -137l196 -501l168 446l-20 51q-68 176 -131 236v10h448v-10
q-34 -36 -42.5 -93.5t18.5 -138.5l194 -501l189 489q20 54 20 104t-14.5 84t-38.5 56z" />
    <glyph glyph-name="Ycircumflex" unicode="&#x176;" horiz-adv-x="1323" 
d="M406 1599h-27l295 302h76l294 -302h-26l-301 123h-12zM895 0h-440v10q71 95 71 258v248l-321 637q-80 159 -197 270v11h522v-11q-35 -48 -38.5 -112t36.5 -154l258 -520l252 502q42 91 38.5 163t-46.5 121v11h305v-11q-138 -98 -217 -254l-295 -581v-320q0 -161 72 -258
v-10z" />
    <glyph glyph-name="ycircumflex" unicode="&#x177;" horiz-adv-x="1075" 
d="M315 1163h-26l272 332h74l272 -332h-26l-277 150h-12zM59 -422v229h103q145 0 233 38t140 132l-379 814q-64 137 -150 223v10h461v-10q-68 -87 -4 -232l211 -477l194 463q25 59 29 110t-7.5 82.5t-33.5 53.5v10h242v-10q-107 -93 -166 -230l-361 -843q-22 -51 -39 -85.5
t-42.5 -75.5t-52 -68.5t-64.5 -55t-82 -43t-103 -25.5t-129 -10z" />
    <glyph glyph-name="Ydieresis" unicode="&#x178;" horiz-adv-x="1323" 
d="M485 1616q-59 0 -97 38t-38 97t38 97t97 38t97.5 -38.5t38.5 -96.5t-38.5 -96.5t-97.5 -38.5zM940 1616q-58 0 -96.5 38t-38.5 97t38.5 97t96.5 38t96.5 -38t38.5 -97t-38.5 -97t-96.5 -38zM895 0h-440v10q71 95 71 258v248l-321 637q-80 159 -197 270v11h522v-11
q-35 -48 -38.5 -112t36.5 -154l258 -520l252 502q42 91 38.5 163t-46.5 121v11h305v-11q-138 -98 -217 -254l-295 -581v-320q0 -161 72 -258v-10z" />
    <glyph glyph-name="Zacute" unicode="&#x179;" horiz-adv-x="1308" 
d="M616 1599h-26l139 302h260v-27zM1165 0h-1075v43l780 1339h-227q-139 0 -239 -44.5t-159.5 -120t-105.5 -193.5h-20l49 410h1051v-43l-781 -1340h254q105 0 186 24.5t140.5 73t101 111.5t76.5 150h21z" />
    <glyph glyph-name="zacute" unicode="&#x17a;" horiz-adv-x="1044" 
d="M516 1163h-27l82 332h228v-27zM928 0h-862v27l585 950h-149q-134 0 -226.5 -73.5t-142.5 -201.5h-20l41 322h821v-27l-582 -950h180q263 0 375 275h21z" />
    <glyph glyph-name="Zdotaccent" unicode="&#x17b;" horiz-adv-x="1308" 
d="M700 1585q-70 0 -117.5 47.5t-47.5 118.5t47.5 118.5t117.5 47.5t118 -47.5t48 -118.5t-48 -118.5t-118 -47.5zM1165 0h-1075v43l780 1339h-227q-139 0 -239 -44.5t-159.5 -120t-105.5 -193.5h-20l49 410h1051v-43l-781 -1340h254q105 0 186 24.5t140.5 73t101 111.5
t76.5 150h21z" />
    <glyph glyph-name="zdotaccent" unicode="&#x17c;" horiz-adv-x="1044" 
d="M567 1167q-69 0 -116.5 47t-47.5 117q0 69 47.5 116.5t116.5 47.5t116.5 -47.5t47.5 -116.5q0 -70 -47.5 -117t-116.5 -47zM928 0h-862v27l585 950h-149q-134 0 -226.5 -73.5t-142.5 -201.5h-20l41 322h821v-27l-582 -950h180q263 0 375 275h21z" />
    <glyph glyph-name="Zcaron" unicode="&#x17d;" horiz-adv-x="1308" 
d="M737 1599h-75l-295 302h26l299 -121h13l301 121h26zM1165 0h-1075v43l780 1339h-227q-139 0 -239 -44.5t-159.5 -120t-105.5 -193.5h-20l49 410h1051v-43l-781 -1340h254q105 0 186 24.5t140.5 73t101 111.5t76.5 150h21z" />
    <glyph glyph-name="zcaron" unicode="&#x17e;" horiz-adv-x="1044" 
d="M604 1163h-74l-272 332h27l276 -147h12l277 147h27zM928 0h-862v27l585 950h-149q-134 0 -226.5 -73.5t-142.5 -201.5h-20l41 322h821v-27l-582 -950h180q263 0 375 275h21z" />
    <glyph glyph-name="uni018F" unicode="&#x18f;" horiz-adv-x="1435" 
d="M680 1460q147 0 273 -55t214.5 -151t138.5 -230.5t50 -290.5q0 -167 -51 -309.5t-140.5 -241t-214 -154t-268.5 -55.5q-274 0 -445 171t-171 436h1021v14q0 184 -69 333.5t-195.5 235.5t-287.5 86q-280 0 -431 -221h-20q53 198 212.5 315t383.5 117zM725 47
q156 0 252 127t108 354h-720q0 -218 106.5 -349.5t253.5 -131.5z" />
    <glyph glyph-name="florin" unicode="&#x192;" horiz-adv-x="1048" 
d="M887 1460q104 0 190 -26l-49 -177h-10q-21 60 -53.5 103t-75.5 43q-56 0 -89 -62t-59 -184l-30 -149h241l-10 -52h-242l-163 -784q-48 -235 -154.5 -350t-284.5 -115q-119 0 -196 25l26 164h11q29 -66 57.5 -97.5t64.5 -31.5q23 0 42 12.5t32 31t24 48t17.5 54.5t13.5 60
l207 983h-155l10 48q47 0 84 15.5t66.5 49.5t47.5 62.5t44 78.5q21 40 42.5 72t56 67t74 58t96.5 38t124 15z" />
    <glyph glyph-name="uni01F4" unicode="&#x1f4;" horiz-adv-x="1456" 
d="M739 1599h-26l139 302h260v-27zM795 -27q-218 0 -382 94.5t-248.5 258.5t-84.5 374q0 223 99 396.5t274.5 268.5t398.5 95q124 0 237.5 -28.5t182.5 -63.5v-393h-21q-68 194 -194.5 309t-276.5 115q-182 0 -297.5 -149.5t-115.5 -420.5q0 -339 157.5 -550t395.5 -211
q88 0 131 22v348q0 159 -105 258v11h457v-11q-72 -97 -72 -258v-288q-100 -81 -242 -129t-294 -48z" />
    <glyph glyph-name="uni01F5" unicode="&#x1f5;" horiz-adv-x="1126" 
d="M788 1495v-27l-282 -305h-27l82 332h227zM1114 1155v-182q-87 0 -138.5 -9t-90.5 -32q96 -93 96 -227q0 -155 -122 -251t-312 -96q-156 0 -273 66q-32 -37 -32 -76q0 -19 5.5 -34t19 -26t26.5 -19t37.5 -13t43 -8.5t52 -5.5t54.5 -2.5t61 -1.5q76 -2 134.5 -6.5
t120.5 -15.5t105.5 -31t79.5 -49.5t54 -74t18 -102.5q0 -111 -79 -200.5t-211.5 -139t-289.5 -49.5q-199 0 -301 74t-102 202q0 130 110 220q-76 61 -76 161q0 126 136 222q-131 94 -131 256q0 155 122.5 250.5t313.5 95.5t313 -95q71 199 256 199zM545 406q82 0 127 78.5
t45 220.5q0 141 -45 220t-127 79q-80 0 -126 -79.5t-46 -219.5q0 -141 46 -220t126 -79zM244 25q-5 2 -14.5 7t-14.5 7q-16 -31 -16 -80q0 -120 130.5 -208.5t311.5 -88.5q127 0 209 48t82 126q0 75 -69.5 105t-260.5 34q-136 3 -220 13.5t-138 36.5z" />
    <glyph glyph-name="uni0218" unicode="&#x218;" horiz-adv-x="1234" 
d="M614 -27q-139 0 -269 32t-206 71v407h21q67 -204 199 -328t290 -124q126 0 199.5 71.5t73.5 180.5q0 49 -19 89.5t-47.5 68.5t-76.5 54t-91 42t-106 36t-106.5 35.5t-96 39t-87 47t-70 57.5t-55.5 73.5t-33 91t-13 113.5q0 186 141 308t369 122q119 0 234.5 -27
t185.5 -59v-379h-21q-71 190 -182 299t-256 109q-110 0 -183 -64t-73 -168q0 -45 18 -82.5t46.5 -64.5t78.5 -53t97.5 -44t121.5 -42q41 -13 67 -22t64 -24t63.5 -28t58.5 -31.5t55 -38t46.5 -44.5t40 -54t29 -63t19.5 -75t6 -87q0 -197 -143.5 -321t-389.5 -124zM584 -539
l-23 27q41 37 58.5 69t17.5 72v11h-6q-55 0 -92 35.5t-37 86.5q0 53 37.5 90t93.5 37q62 0 101.5 -41t39.5 -124q0 -82 -51.5 -149.5t-138.5 -113.5z" />
    <glyph glyph-name="uni0219" unicode="&#x219;" horiz-adv-x="980" 
d="M477 -27q-204 0 -360 76v305h20q52 -151 159.5 -240t213.5 -89q82 0 133 49t51 125q0 74 -54.5 114.5t-178.5 71.5q-81 20 -140 45t-111 63.5t-79 97t-27 134.5q0 147 111.5 236.5t284.5 89.5q149 0 325 -76v-287h-20q-46 134 -143.5 222.5t-200.5 88.5
q-75 0 -120.5 -42.5t-45.5 -110.5q0 -70 55.5 -109.5t177.5 -72.5q67 -18 117.5 -37.5t98.5 -49t79 -66t49.5 -88.5t18.5 -116q0 -87 -35.5 -153.5t-96 -104.5t-131.5 -57t-151 -19zM449 -539l-23 27q41 37 58.5 69t17.5 72v11h-6q-55 0 -92 35.5t-37 86.5q0 53 37.5 90
t93.5 37q62 0 101.5 -41t39.5 -124q0 -82 -51.5 -149.5t-138.5 -113.5z" />
    <glyph glyph-name="uni021A" unicode="&#x21a;" horiz-adv-x="1370" 
d="M905 0h-440v10q72 97 72 258v1114h-76q-158 0 -265 -93.5t-182 -264.5h-20l51 410h1282l49 -410h-20q-73 171 -180 264.5t-267 93.5h-75v-1114q0 -163 71 -258v-10zM625 -539l-23 27q41 37 58.5 69t17.5 72v11h-6q-55 0 -92 35.5t-37 86.5q0 53 37.5 90t93.5 37
q62 0 101.5 -41t39.5 -124q0 -82 -51.5 -149.5t-138.5 -113.5z" />
    <glyph glyph-name="uni021B" unicode="&#x21b;" horiz-adv-x="755" 
d="M477 -27q-133 0 -223 85t-90 229v540q0 108 -92 144v10q195 74 358 262h10v-219h297l-24 -74h-273v-663q0 -92 49 -141.5t123 -49.5q45 0 78 15.5t47 35.5l21 -10q-32 -72 -108 -118t-173 -46zM397 -539l-22 27q41 37 58.5 69t17.5 72v11h-7q-55 0 -92 35.5t-37 86.5
q0 53 37.5 90t93.5 37q62 0 102 -41t40 -124q0 -81 -51.5 -148.5t-139.5 -114.5z" />
    <glyph glyph-name="uni0232" unicode="&#x232;" horiz-adv-x="1323" 
d="M1001 1702h-577v92h577v-92zM895 0h-440v10q71 95 71 258v248l-321 637q-80 159 -197 270v11h522v-11q-35 -48 -38.5 -112t36.5 -154l258 -520l252 502q42 91 38.5 163t-46.5 121v11h305v-11q-138 -98 -217 -254l-295 -581v-320q0 -161 72 -258v-10z" />
    <glyph glyph-name="uni0233" unicode="&#x233;" horiz-adv-x="1075" 
d="M856 1276h-516v102h516v-102zM59 -422v229h103q145 0 233 38t140 132l-379 814q-64 137 -150 223v10h461v-10q-68 -87 -4 -232l211 -477l194 463q25 59 29 110t-7.5 82.5t-33.5 53.5v10h242v-10q-107 -93 -166 -230l-361 -843q-22 -51 -39 -85.5t-42.5 -75.5t-52 -68.5
t-64.5 -55t-82 -43t-103 -25.5t-129 -10z" />
    <glyph glyph-name="uni0237" unicode="&#x237;" horiz-adv-x="614" 
d="M0 -410v21q102 48 139 125t37 215v749q0 152 -74 226v10l340 115h11v-1100q0 -185 -118 -273t-335 -88z" />
    <glyph glyph-name="uni0244" unicode="&#x244;" horiz-adv-x="1460" 
d="M1286 815h156v-51h-156v-307q0 -232 -136 -358t-392 -126q-267 0 -419.5 127.5t-152.5 356.5v307h-176v51h176v350q0 163 -71 258v11h440v-11q-72 -97 -72 -258v-350h742v350q0 125 -111 256v13h283v-13q-111 -131 -111 -256v-350zM1225 457v307h-742v-307
q0 -189 99.5 -290t271.5 -101t271.5 102t99.5 289z" />
    <glyph glyph-name="uni0259" unicode="&#x259;" horiz-adv-x="1069" 
d="M508 1051q101 0 188.5 -34.5t152.5 -98.5t102.5 -162t37.5 -219q0 -261 -145 -412.5t-367 -151.5q-191 0 -301 119t-110 303h698q-7 112 -41 201.5t-87.5 146t-121 86t-143.5 29.5q-96 0 -174 -46.5t-127 -133.5h-21q37 167 164 270t295 103zM557 33q97 0 153 72t56 225
v18h-428q7 -151 64.5 -233t154.5 -82z" />
    <glyph glyph-name="uni0289" unicode="&#x289;" horiz-adv-x="1267" 
d="M1233 590v-51h-135v-263q0 -154 73 -221v-10l-340 -72h-10v201h-10q-41 -88 -125 -144.5t-197 -56.5q-145 0 -234 96.5t-89 249.5v220h-135v51h135v110q0 151 -72 226v10l338 115h10v-461h379v110q0 152 -71 226v10l337 115h11v-461h135zM821 326v213h-379v-213
q0 -84 50 -138.5t131 -54.5q82 0 140 53t58 140z" />
    <glyph glyph-name="uni02BC" unicode="&#x2bc;" horiz-adv-x="403" 
d="M147 1063l-22 27q76 68 76 137v10h-6q-58 0 -96 36.5t-38 90.5q0 56 38.5 93.5t97.5 37.5q65 0 105 -42t40 -128q0 -81 -53 -148t-142 -114z" />
    <glyph glyph-name="circumflex" unicode="&#x2c6;" horiz-adv-x="741" 
d="M88 1163h-27l273 332h74l272 -332h-27l-276 150h-12z" />
    <glyph glyph-name="caron" unicode="&#x2c7;" horiz-adv-x="741" 
d="M408 1163h-74l-273 332h27l277 -147h12l276 147h27z" />
    <glyph glyph-name="breve" unicode="&#x2d8;" horiz-adv-x="737" 
d="M369 1214q-113 0 -195.5 60.5t-112.5 175.5h27q107 -96 281 -96q170 0 280 96h27q-28 -115 -110.5 -175.5t-196.5 -60.5z" />
    <glyph glyph-name="dotaccent" unicode="&#x2d9;" horiz-adv-x="450" 
d="M225 1167q-69 0 -116.5 47t-47.5 117q0 69 47.5 116.5t116.5 47.5t116.5 -47.5t47.5 -116.5q0 -70 -47.5 -117t-116.5 -47z" />
    <glyph glyph-name="ring" unicode="&#x2da;" horiz-adv-x="542" 
d="M272 1139q-93 0 -152 55.5t-59 142.5q0 88 59 145.5t152 57.5q92 0 150.5 -57.5t58.5 -145.5q0 -87 -58.5 -142.5t-150.5 -55.5zM272 1210q56 0 91.5 36t35.5 91q0 59 -35.5 94t-91.5 35q-57 0 -92 -35.5t-35 -93.5q0 -56 35 -91.5t92 -35.5z" />
    <glyph glyph-name="ogonek" unicode="&#x2db;" horiz-adv-x="544" 
d="M457 -285h26q-62 -153 -223 -153q-91 0 -145 49t-54 127q0 86 70.5 152t194.5 100v30h151v-20q-246 -80 -246 -227q0 -54 29 -85.5t78 -31.5q68 0 119 59z" />
    <glyph glyph-name="tilde" unicode="&#x2dc;" horiz-adv-x="759" 
d="M86 1231l-25 12q39 105 88.5 152t116.5 47q60 0 146 -43q42 -22 64.5 -29.5t53.5 -7.5q38 0 70 16.5t74 63.5l24 -12q-40 -104 -89 -151.5t-115 -47.5q-60 0 -146 43q-42 21 -65 29t-54 8q-38 0 -69.5 -16.5t-73.5 -63.5z" />
    <glyph glyph-name="hungarumlaut" unicode="&#x2dd;" horiz-adv-x="692" 
d="M88 1163h-27l82 332h205v-27zM371 1163h-27l82 332h205v-27z" />
    <glyph glyph-name="gravecomb" unicode="&#x300;" horiz-adv-x="0" 
d="M-61 1163h-27l-283 305v27h228z" />
    <glyph glyph-name="acutecomb" unicode="&#x301;" horiz-adv-x="0" 
d="M-344 1163h-27l82 332h228v-27z" />
    <glyph glyph-name="uni0302" unicode="&#x302;" horiz-adv-x="0" 
d="M-653 1163h-27l272 332h74l273 -332h-27l-277 150h-12z" />
    <glyph glyph-name="tildecomb" unicode="&#x303;" horiz-adv-x="0" 
d="M-674 1231l-24 12q39 105 88 152t116 47q60 0 146 -43q42 -21 65 -29t54 -8q38 0 69.5 16.5t73.5 63.5l25 -12q-40 -104 -89.5 -151.5t-115.5 -47.5q-60 0 -146 43q-42 22 -64.5 29.5t-53.5 7.5q-38 0 -70 -16.5t-74 -63.5z" />
    <glyph glyph-name="uni0304" unicode="&#x304;" horiz-adv-x="0" 
d="M-61 1276h-517v102h517v-102z" />
    <glyph glyph-name="uni0306" unicode="&#x306;" horiz-adv-x="0" 
d="M-369 1214q-112 0 -194.5 60.5t-112.5 175.5h27q107 -96 280 -96q171 0 281 96h27q-28 -115 -111 -175.5t-197 -60.5z" />
    <glyph glyph-name="uni0307" unicode="&#x307;" horiz-adv-x="0" 
d="M-225 1167q-69 0 -116.5 47t-47.5 117q0 69 47.5 116.5t116.5 47.5t116.5 -47.5t47.5 -116.5q0 -70 -47.5 -117t-116.5 -47z" />
    <glyph glyph-name="uni0308" unicode="&#x308;" horiz-adv-x="0" 
d="M-612 1198q-58 0 -95.5 37t-37.5 96t37.5 96t95.5 37t95.5 -37t37.5 -96t-37.5 -96t-95.5 -37zM-195 1198q-59 0 -96 37t-37 96t37 96t96 37t96.5 -37.5t37.5 -95.5t-37.5 -95.5t-96.5 -37.5z" />
    <glyph glyph-name="uni030A" unicode="&#x30a;" horiz-adv-x="0" 
d="M-270 1139q-93 0 -152 55.5t-59 142.5q0 88 59 145.5t152 57.5q92 0 150.5 -57.5t58.5 -145.5q0 -87 -58.5 -142.5t-150.5 -55.5zM-270 1210q56 0 91.5 36t35.5 91q0 59 -35.5 94t-91.5 35q-57 0 -92 -35.5t-35 -93.5q0 -56 35 -91.5t92 -35.5z" />
    <glyph glyph-name="uni030B" unicode="&#x30b;" horiz-adv-x="0" 
d="M-604 1163h-27l82 332h205v-27zM-322 1163h-26l82 332h205v-27z" />
    <glyph glyph-name="uni030C" unicode="&#x30c;" horiz-adv-x="0" 
d="M-334 1163h-74l-272 332h27l276 -147h12l277 147h27z" />
    <glyph glyph-name="uni0312" unicode="&#x312;" horiz-adv-x="0" 
d="M-197 1147q-65 0 -105 42t-40 128q0 81 53 148t142 114l22 -27q-76 -68 -76 -137v-10h6q58 0 96 -36.5t38 -90.5q0 -56 -38.5 -93.5t-97.5 -37.5z" />
    <glyph glyph-name="uni0326" unicode="&#x326;" horiz-adv-x="0" 
d="M-252 -539l-22 27q41 37 58 69t17 72v11h-6q-55 0 -92 35.5t-37 86.5q0 53 37.5 90t93.5 37q62 0 102 -41t40 -124q0 -81 -51.5 -148.5t-139.5 -114.5z" />
    <glyph glyph-name="uni0327" unicode="&#x327;" horiz-adv-x="0" 
d="M-279 -438q-85 0 -142 34.5t-81 94.5h27q65 -62 141 -62q52 0 80.5 25t28.5 67q0 104 -183 109l105 184l57 -14l-35 -59q108 -13 164 -69t56 -130q0 -77 -61 -128.5t-157 -51.5z" />
    <glyph glyph-name="uni0328" unicode="&#x328;" horiz-adv-x="0" 
d="M-88 -285h27q-62 -153 -224 -153q-91 0 -144.5 49t-53.5 127q0 86 70 152t194 100v30h151v-20q-245 -79 -245 -227q0 -54 28.5 -85.5t77.5 -31.5q68 0 119 59z" />
    <glyph glyph-name="uni0401" unicode="&#x401;" horiz-adv-x="1308" 
d="M455 1616q-59 0 -97.5 38.5t-38.5 96.5t38.5 96.5t97.5 38.5t97 -38t38 -97t-38 -97t-97 -38zM909 1616q-59 0 -97 38t-38 97t38 97t97 38t97 -38t38 -97t-38 -97t-97 -38zM1194 0h-1051v10q72 97 72 258v897q0 161 -72 258v11h1006l51 -392h-20q-28 65 -57 113.5
t-70.5 93t-91 72.5t-117.5 44.5t-152 16.5h-180v-634h182q116 0 183 55.5t96 159.5h20v-482h-20q-29 104 -96 159.5t-183 55.5h-182v-645h225q84 0 152 16.5t117.5 44.5t91 72.5t70.5 93t57 113.5h20z" />
    <glyph glyph-name="uni0402" unicode="&#x402;" horiz-adv-x="1662" 
d="M1145 905q215 0 334.5 -138.5t119.5 -434.5q0 -359 -156.5 -539.5t-488.5 -202.5v31q172 29 255 194.5t83 487.5q0 109 -14.5 193.5t-40 140.5t-64 91.5t-83.5 51t-101 15.5q-116 0 -217 -56v-471q0 -161 72 -258v-10h-441v10q72 97 72 258v1114h-14q-159 0 -266 -91.5
t-181 -254.5h-20l49 398h1180l51 -398h-21q-76 164 -182.5 255t-263.5 91h-35v-589q165 112 373 112z" />
    <glyph glyph-name="uni0403" unicode="&#x403;" horiz-adv-x="1185" 
d="M582 1599h-27l139 302h260v-27zM584 0h-441v10q72 97 72 258v897q0 161 -72 258v11h994l51 -392h-21q-36 78 -76 135.5t-97 106t-136 73.5t-178 25h-168v-1114q0 -161 72 -258v-10z" />
    <glyph glyph-name="uni0404" unicode="&#x404;" horiz-adv-x="1372" 
d="M1317 475h20q-35 -220 -189 -361t-386 -141q-198 0 -354 94t-242 259.5t-86 373.5q0 163 57 304.5t156.5 241.5t239.5 157t301 57q129 0 245 -28t187 -64v-383h-21q-59 177 -188 295.5t-295 118.5q-187 0 -300.5 -149.5t-113.5 -409.5q0 -52 6 -105q47 87 95.5 120.5
t107.5 33.5q65 0 168 -62q91 -55 154 -55q81 0 145 82l18 -12q-60 -118 -112.5 -162.5t-122.5 -44.5q-39 0 -75 14t-93 47q-94 56 -156 56q-73 0 -123 -64q40 -222 185 -360t348 -138q144 0 251.5 73t172.5 212z" />
    <glyph glyph-name="uni0405" unicode="&#x405;" horiz-adv-x="1234" 
d="M614 -27q-139 0 -269 32t-206 71v407h21q67 -204 199 -328t290 -124q126 0 199.5 71.5t73.5 180.5q0 49 -19 89.5t-47.5 68.5t-76.5 54t-91 42t-106 36t-106.5 35.5t-96 39t-87 47t-70 57.5t-55.5 73.5t-33 91t-13 113.5q0 186 141 308t369 122q119 0 234.5 -27
t185.5 -59v-379h-21q-71 190 -182 299t-256 109q-110 0 -183 -64t-73 -168q0 -45 18 -82.5t46.5 -64.5t78.5 -53t97.5 -44t121.5 -42q41 -13 67 -22t64 -24t63.5 -28t58.5 -31.5t55 -38t46.5 -44.5t40 -54t29 -63t19.5 -75t6 -87q0 -197 -143.5 -321t-389.5 -124z" />
    <glyph glyph-name="uni0406" unicode="&#x406;" horiz-adv-x="739" 
d="M590 0h-440v10q71 95 71 258v897q0 163 -71 258v11h440v-11q-72 -97 -72 -258v-897q0 -161 72 -258v-10z" />
    <glyph glyph-name="uni0407" unicode="&#x407;" horiz-adv-x="739" 
d="M164 1616q-58 0 -96.5 38t-38.5 97t38.5 97t96.5 38t96.5 -38t38.5 -97t-38.5 -97t-96.5 -38zM578 1616q-59 0 -97.5 38.5t-38.5 96.5t38.5 96.5t97.5 38.5q58 0 96.5 -38t38.5 -97t-38.5 -97t-96.5 -38zM590 0h-440v10q71 95 71 258v897q0 163 -71 258v11h440v-11
q-72 -97 -72 -258v-897q0 -161 72 -258v-10z" />
    <glyph glyph-name="uni0408" unicode="&#x408;" horiz-adv-x="722" 
d="M-14 -410v21q67 18 113.5 57t71.5 98t35.5 126t10.5 153v1120q0 161 -72 258v11h441v-11q-72 -97 -72 -258v-1112q0 -129 -38 -220.5t-110.5 -143.5t-165 -75.5t-214.5 -23.5z" />
    <glyph glyph-name="uni0409" unicode="&#x409;" horiz-adv-x="2013" 
d="M51 -16v299q84 0 150 25t111 73t76 108.5t48 140.5t24 160.5t7 176.5q0 163 -45.5 279t-124.5 177v11h975v-11q-72 -97 -72 -258v-334q110 25 223 25q81 0 156.5 -14.5t145 -47t121 -81.5t82 -122.5t30.5 -164.5q0 -97 -32.5 -172.5t-85 -122.5t-126 -77t-149.5 -42
t-162 -12h-572v10q72 97 72 258v1114h-377v-276q0 -139 -5.5 -255t-19.5 -233.5t-37 -209.5t-59.5 -173.5t-85.5 -135t-117 -84.5t-151 -31zM1360 49q90 0 156.5 53.5t98.5 137.5t32 186q0 103 -31.5 187.5t-95 137t-146.5 52.5t-174 -31v-692q85 -31 160 -31z" />
    <glyph glyph-name="uni040A" unicode="&#x40a;" horiz-adv-x="2162" 
d="M584 0h-441v10q72 97 72 258v897q0 161 -72 258v11h441v-11q-72 -97 -72 -258v-342h541v342q0 161 -72 258v11h440v-11q-71 -95 -71 -258v-334q108 25 223 25q103 0 195 -24t169.5 -73t123.5 -134.5t46 -198.5q0 -97 -32.5 -172.5t-85 -122.5t-126 -77t-149.5 -42
t-162 -12h-571v10q72 97 72 258v504h-541v-504q0 -161 72 -258v-10zM1509 49q90 0 156.5 53.5t98.5 137.5t32 186q0 103 -31.5 187.5t-94.5 137t-146 52.5t-174 -31v-692q85 -31 159 -31z" />
    <glyph glyph-name="uni040B" unicode="&#x40b;" horiz-adv-x="1724" 
d="M1589 553v-285q0 -161 72 -258v-10h-440v10q71 95 71 258v285q0 242 -260 242q-150 0 -260 -56v-471q0 -161 72 -258v-10h-441v10q72 97 72 258v1114h-14q-159 0 -266 -91.5t-181 -254.5h-20l49 398h1180l51 -398h-21q-76 164 -182.5 255t-263.5 91h-35v-589
q176 112 412 112q405 0 405 -352z" />
    <glyph glyph-name="uni040C" unicode="&#x40c;" horiz-adv-x="1431" 
d="M668 1599h-27l139 302h260v-27zM1243 -16q-52 0 -98.5 13.5t-81 33.5t-68.5 56.5t-56.5 68t-49.5 84.5t-43 89t-41 97q-21 51 -33 78t-32.5 68t-37.5 63t-39.5 45t-48.5 33t-55 10h-47v-455q0 -161 72 -258v-10h-441v10q72 97 72 258v897q0 161 -72 258v11h441v-11
q-72 -97 -72 -258v-395h20q33 0 59.5 12t55.5 45l277 326q47 55 65 110t11 93t-29 67v11h362v-11q-189 -100 -321 -254l-355 -409q53 -1 101 -10.5t86.5 -24t75 -40t63 -48.5t54 -58.5t45.5 -62.5t39.5 -68.5t33.5 -67t31 -67.5q23 -51 36.5 -80t35 -66t39 -56.5t40.5 -33.5
t47 -14q35 0 60 25l16 -14q-62 -90 -217 -90z" />
    <glyph glyph-name="uni040E" unicode="&#x40e;" horiz-adv-x="1325" 
d="M756 1589q-191 0 -281 58.5t-90 148.5q0 52 33.5 82.5t97.5 30.5q79 0 115 -33q-29 -45 -29 -109q0 -70 35 -101.5t119 -31.5q83 0 118 31.5t35 101.5q0 69 -30 109q36 33 116 33q63 0 97 -30.5t34 -82.5q0 -90 -89.5 -148.5t-280.5 -58.5zM199 -72v246h100
q62 0 99.5 1.5t85 8.5t79 20.5t62.5 38t53 60.5l-442 856q-85 163 -197 264v11h514v-11q-72 -103 10 -268l271 -545l245 533q40 97 30.5 165.5t-58.5 114.5v11h303v-11q-115 -85 -195 -256l-383 -800q-41 -85 -74.5 -143.5t-73 -111.5t-80 -85t-93 -55.5t-114.5 -33.5
t-142 -10z" />
    <glyph glyph-name="uni040F" unicode="&#x40f;" horiz-adv-x="1628" 
d="M831 -412h-30q-24 157 -49 239t-78 173h-531v10q72 97 72 258v897q0 161 -72 258v11h441v-11q-72 -97 -72 -258v-1114h604v1114q0 161 -72 258v11h441v-11q-72 -97 -72 -258v-897q0 -161 72 -258v-10h-529q-54 -92 -78.5 -174t-46.5 -238z" />
    <glyph glyph-name="uni0410" unicode="&#x410;" horiz-adv-x="1419" 
d="M291 0h-303v10q116 99 180 256l461 1168h168l456 -1162q35 -87 69.5 -145.5t88.5 -116.5v-10h-508v10q26 31 40 69.5t13.5 90t-22.5 104.5l-82 205h-537l-75 -190q-32 -92 -17 -160.5t68 -118.5v-10zM584 1171l-250 -641h500z" />
    <glyph glyph-name="uni0411" unicode="&#x411;" horiz-adv-x="1388" 
d="M725 0h-582v10q72 97 72 258v897q0 161 -72 258v11h1018l51 -392h-20q-36 78 -76 135.5t-97 106t-136 73.5t-178 25h-193v-557q108 25 231 25q109 0 208 -25t182 -74.5t132.5 -134.5t49.5 -196q0 -95 -34 -169.5t-90 -120.5t-134 -76t-159 -42t-173 -12zM680 53
q108 0 183 53.5t108 135t33 182.5q0 76 -19.5 142.5t-57.5 118.5t-101 82t-144 30q-79 0 -170 -31v-682q85 -31 168 -31z" />
    <glyph glyph-name="uni0412" unicode="&#x412;" horiz-adv-x="1396" 
d="M752 0h-609v10q72 97 72 258v897q0 161 -72 258v11h609q80 0 151.5 -11t137 -36.5t112 -64t74.5 -97t28 -131.5q0 -71 -28 -129t-75 -96t-101.5 -61.5t-114.5 -33.5v-8q73 -9 138.5 -36.5t119 -72.5t85.5 -113.5t32 -150.5q0 -107 -48 -186t-130 -122.5t-177 -64
t-204 -20.5zM512 1356v-563h150q134 0 210 82t76 215q0 129 -76 211.5t-208 82.5q-76 0 -152 -28zM678 49q144 0 232.5 93t88.5 251q0 164 -89.5 256t-241.5 92h-156v-655q67 -37 166 -37z" />
    <glyph glyph-name="uni0413" unicode="&#x413;" horiz-adv-x="1185" 
d="M584 0h-441v10q72 97 72 258v897q0 161 -72 258v11h994l51 -392h-21q-36 78 -76 135.5t-97 106t-136 73.5t-178 25h-168v-1114q0 -161 72 -258v-10z" />
    <glyph glyph-name="uni0414" unicode="&#x414;" horiz-adv-x="1409" 
d="M18 -412h-30v463h10q73 0 139.5 69t113.5 176.5t81.5 236.5t51.5 250.5t17 217.5q0 295 -163 422v11h1011v-11q-71 -95 -71 -258v-1114h174v-463h-31q-13 84 -46 157.5t-84 131t-125.5 90.5t-162.5 33h-467q-88 0 -162.5 -33t-125.5 -90.5t-84 -131t-46 -157.5zM188 51
h693v1331h-408q2 -33 2 -122q0 -190 -17 -356t-42.5 -286t-65.5 -230.5t-76.5 -184t-85.5 -152.5z" />
    <glyph glyph-name="uni0415" unicode="&#x415;" horiz-adv-x="1308" 
d="M1194 0h-1051v10q72 97 72 258v897q0 161 -72 258v11h1006l51 -392h-20q-28 65 -57 113.5t-70.5 93t-91 72.5t-117.5 44.5t-152 16.5h-180v-634h182q116 0 183 55.5t96 159.5h20v-482h-20q-29 104 -96 159.5t-183 55.5h-182v-645h225q84 0 152 16.5t117.5 44.5t91 72.5
t70.5 93t57 113.5h20z" />
    <glyph glyph-name="uni0416" unicode="&#x416;" horiz-adv-x="2035" 
d="M172 -16q-80 0 -125.5 22.5t-75.5 63.5l17 18q25 -25 59 -25q56 0 95.5 62.5t82.5 187.5q15 43 24.5 69t27.5 68t33 69t39 63t48.5 59t58 48.5t70.5 40t84.5 24t100.5 10.5l-287 403q-62 87 -133.5 144.5t-175.5 111.5v11h374v-11q-26 -26 -37 -63t1 -93t53 -116
l219 -311q46 -66 119 -66h33v391q0 161 -72 258v11h426v-11q-72 -97 -72 -258v-391h33q73 0 119 66l219 311q41 60 52.5 116t0.5 93t-37 63v11h375v-11q-104 -54 -175.5 -111.5t-133.5 -144.5l-289 -403q53 -1 100.5 -10.5t85 -24t71.5 -40t58 -48.5t48 -59.5t39 -63t33 -69
t27.5 -68t24.5 -68.5q43 -124 83 -187t96 -63q34 0 59 25l16 -18q-30 -42 -75 -64t-125 -22q-54 0 -100.5 13t-81.5 33t-66.5 55.5t-53.5 68t-45 84t-38 91t-35 99.5q-20 61 -33 96t-35 79.5t-43 68t-52 40.5t-67 17h-55v-461q0 -161 72 -258v-10h-426v10q72 97 72 258v461
h-56q-36 0 -67 -16.5t-52 -41t-42.5 -68t-35 -80t-32.5 -95.5q-19 -58 -34 -99.5t-37.5 -91t-45 -84t-54 -68.5t-67 -54.5t-82 -33.5t-100.5 -13z" />
    <glyph glyph-name="uni0417" unicode="&#x417;" horiz-adv-x="1257" 
d="M608 -27q-214 0 -363 105t-202 334h20q67 -152 185 -226.5t266 -74.5t239 84.5t91 230.5q0 157 -102 235t-275 78h-76v52h76q170 0 262 88t92 237q0 124 -73 207.5t-195 83.5q-272 0 -395 -420h-21v377q187 96 445 96q243 0 388.5 -87.5t145.5 -252.5q0 -89 -49 -166.5
t-124 -124t-159 -59.5v-8q97 -12 179.5 -58t137 -130.5t54.5 -190.5q0 -191 -147.5 -300.5t-399.5 -109.5z" />
    <glyph glyph-name="uni0418" unicode="&#x418;" horiz-adv-x="1630" 
d="M584 0h-441v10q72 97 72 258v897q0 161 -72 258v11h441v-11q-72 -97 -72 -258v-796l606 796q0 163 -71 258v11h440v-11q-72 -97 -72 -258v-897q0 -161 72 -258v-10h-440v10q71 95 71 258v797l-606 -797q0 -161 72 -258v-10z" />
    <glyph glyph-name="uni0419" unicode="&#x419;" horiz-adv-x="1630" 
d="M815 1589q-191 0 -281 58.5t-90 148.5q0 52 33.5 82.5t97.5 30.5q79 0 115 -33q-28 -43 -28 -109q0 -70 35 -101.5t118 -31.5q84 0 119 31.5t35 101.5q0 67 -31 109q36 33 117 33q63 0 97 -30.5t34 -82.5q0 -90 -90 -148.5t-281 -58.5zM584 0h-441v10q72 97 72 258v897
q0 161 -72 258v11h441v-11q-72 -97 -72 -258v-796l606 796q0 163 -71 258v11h440v-11q-72 -97 -72 -258v-897q0 -161 72 -258v-10h-440v10q71 95 71 258v797l-606 -797q0 -161 72 -258v-10z" />
    <glyph glyph-name="uni041A" unicode="&#x41a;" horiz-adv-x="1431" 
d="M1243 -16q-52 0 -98.5 13.5t-81 33.5t-68.5 56.5t-56.5 68t-49.5 84.5t-43 89t-41 97q-21 51 -33 78t-32.5 68t-37.5 63t-39.5 45t-48.5 33t-55 10h-47v-455q0 -161 72 -258v-10h-441v10q72 97 72 258v897q0 161 -72 258v11h441v-11q-72 -97 -72 -258v-395h20
q33 0 59.5 12t55.5 45l277 326q47 55 65 110t11 93t-29 67v11h362v-11q-189 -100 -321 -254l-355 -409q53 -1 101 -10.5t86.5 -24t75 -40t63 -48.5t54 -58.5t45.5 -62.5t39.5 -68.5t33.5 -67t31 -67.5q23 -51 36.5 -80t35 -66t39 -56.5t40.5 -33.5t47 -14q35 0 60 25l16 -14
q-62 -90 -217 -90z" />
    <glyph glyph-name="uni041B" unicode="&#x41b;" horiz-adv-x="1456" 
d="M51 -16v299q84 0 150 25t111 73t76 108.5t48 140.5t24 160.5t7 176.5q0 163 -45.5 279t-124.5 177v11h1016v-11q-72 -97 -72 -258v-897q0 -161 72 -258v-10h-441v10q72 97 72 258v1114h-418v-276q0 -139 -5.5 -255t-19.5 -233.5t-37 -209.5t-59.5 -173.5t-85.5 -135
t-117 -84.5t-151 -31z" />
    <glyph glyph-name="uni041C" unicode="&#x41c;" horiz-adv-x="1912" 
d="M389 0h-283v12q111 131 111 256v899q0 125 -111 256v11h396l463 -1057l458 1057h346v-11q-71 -95 -71 -258v-897q0 -163 71 -258v-10h-440v10q72 97 72 258v963l-539 -1231h-43l-540 1223v-955q0 -126 110 -256v-12z" />
    <glyph glyph-name="uni041D" unicode="&#x41d;" horiz-adv-x="1626" 
d="M584 0h-441v10q72 97 72 258v897q0 161 -72 258v11h441v-11q-72 -97 -72 -258v-401h602v401q0 161 -72 258v11h441v-11q-72 -97 -72 -258v-897q0 -161 72 -258v-10h-441v10q72 97 72 258v445h-602v-445q0 -161 72 -258v-10z" />
    <glyph glyph-name="uni041E" unicode="&#x41e;" horiz-adv-x="1564" 
d="M782 -27q-211 0 -370.5 92.5t-245.5 261.5t-86 390q0 335 191.5 539t510.5 204t511 -204t192 -539t-192 -539.5t-511 -204.5zM782 27q181 0 283 189t102 501t-102 501t-283 189q-180 0 -282.5 -189.5t-102.5 -500.5t102.5 -500.5t282.5 -189.5z" />
    <glyph glyph-name="uni041F" unicode="&#x41f;" horiz-adv-x="1597" 
d="M584 0h-441v10q72 97 72 258v897q0 161 -72 258v11h1311v-11q-72 -97 -72 -258v-897q0 -161 72 -258v-10h-440v10q71 95 71 258v1114h-573v-1114q0 -161 72 -258v-10z" />
    <glyph glyph-name="uni0420" unicode="&#x420;" horiz-adv-x="1329" 
d="M584 0h-441v10q72 97 72 258v897q0 161 -72 258v11h582q89 0 167 -12t153 -42t128.5 -76t86 -120.5t32.5 -169.5q0 -89 -30.5 -162t-82 -122t-121 -82.5t-144 -48.5t-154.5 -15q-104 0 -187 34v33q59 -14 123 -14q71 0 127 30t91 82.5t53 120t18 144.5q0 73 -18.5 138.5
t-53.5 117.5t-92.5 83t-130.5 31q-96 0 -178 -30v-1086q0 -161 72 -258v-10z" />
    <glyph glyph-name="uni0421" unicode="&#x421;" horiz-adv-x="1372" 
d="M762 -27q-198 0 -354 94t-242 259.5t-86 373.5q0 163 57 304.5t156.5 241.5t239.5 157t301 57q129 0 245 -28t187 -64v-383h-21q-59 177 -188 295.5t-295 118.5q-187 0 -300.5 -149.5t-113.5 -409.5q0 -184 69 -332t194 -233t282 -85q144 0 251.5 73t172.5 212h20
q-35 -220 -189 -361t-386 -141z" />
    <glyph glyph-name="uni0422" unicode="&#x422;" horiz-adv-x="1370" 
d="M905 0h-440v10q72 97 72 258v1114h-76q-158 0 -265 -93.5t-182 -264.5h-20l51 410h1282l49 -410h-20q-73 171 -180 264.5t-267 93.5h-75v-1114q0 -163 71 -258v-10z" />
    <glyph glyph-name="uni0423" unicode="&#x423;" horiz-adv-x="1325" 
d="M199 -72v246h100q62 0 99.5 1.5t85 8.5t79 20.5t62.5 38t53 60.5l-442 856q-85 163 -197 264v11h514v-11q-72 -103 10 -268l271 -545l245 533q40 97 30.5 165.5t-58.5 114.5v11h303v-11q-115 -85 -195 -256l-383 -800q-41 -85 -74.5 -143.5t-73 -111.5t-80 -85t-93 -55.5
t-114.5 -33.5t-142 -10z" />
    <glyph glyph-name="uni0424" unicode="&#x424;" horiz-adv-x="1785" 
d="M1731 727q0 -244 -181.5 -388t-478.5 -144h-35q1 -61 21.5 -123t50.5 -99v-10h-430v10q30 37 50.5 99t21.5 123h-37q-296 0 -477 144t-181 388t181 388.5t477 144.5h37q0 99 -72 200v10h430v-10q-72 -101 -72 -200h35q297 0 478.5 -144.5t181.5 -388.5zM373 727
q0 -233 99 -359t263 -126h15v970h-15q-164 0 -263 -126t-99 -359zM1036 1212v-970h15q163 0 262.5 126t99.5 359t-99.5 359t-262.5 126h-15z" />
    <glyph glyph-name="uni0425" unicode="&#x425;" horiz-adv-x="1390" 
d="M315 0h-303v10q77 51 140 112.5t124 151.5l277 412l-291 475q-92 147 -221 262v11h530v-11q-65 -111 31 -270l180 -295l209 313q35 53 47.5 102t5 85t-29.5 65v11h301v-11q-76 -50 -137.5 -109t-120.5 -145l-244 -360l338 -537q93 -150 217 -262v-10h-528v10
q67 114 -31 271l-223 354l-238 -356q-39 -58 -53.5 -110.5t-8 -90.5t28.5 -68v-10z" />
    <glyph glyph-name="uni0426" unicode="&#x426;" horiz-adv-x="1595" 
d="M1538 -412h-31q-26 175 -132 293.5t-263 118.5h-969v10q72 97 72 258v897q0 161 -72 258v11h441v-11q-72 -97 -72 -258v-1114h555v1114q0 161 -72 258v11h441v-11q-72 -97 -72 -258v-1114h174v-463z" />
    <glyph glyph-name="uni0427" unicode="&#x427;" horiz-adv-x="1480" 
d="M1337 0h-440v10q72 97 72 258v350q-176 -112 -420 -112q-201 0 -308.5 83.5t-107.5 268.5v307q0 161 -72 258v11h441v-11q-72 -97 -72 -258v-307q0 -116 63.5 -179t206.5 -63q159 0 269 56v493q0 161 -72 258v11h440v-11q-71 -95 -71 -258v-897q0 -163 71 -258v-10z" />
    <glyph glyph-name="uni0428" unicode="&#x428;" horiz-adv-x="2207" 
d="M2064 0h-1921v10q72 97 72 258v897q0 161 -72 258v11h441v-11q-72 -97 -72 -258v-1114h449v1114q0 161 -72 258v11h430v-11q-72 -97 -72 -258v-1114h449v1114q0 161 -72 258v11h440v-11q-71 -95 -71 -258v-897q0 -163 71 -258v-10z" />
    <glyph glyph-name="uni0429" unicode="&#x429;" horiz-adv-x="2224" 
d="M2167 -412h-31q-13 84 -46 157.5t-84 131t-125.5 90.5t-162.5 33h-1575v10q72 97 72 258v897q0 161 -72 258v11h441v-11q-72 -97 -72 -258v-1114h449v1114q0 161 -72 258v11h430v-11q-72 -97 -72 -258v-1114h449v1114q0 161 -72 258v11h440v-11q-71 -95 -71 -258v-1114
h174v-463z" />
    <glyph glyph-name="uni042A" unicode="&#x42a;" horiz-adv-x="1570" 
d="M967 856q86 0 163.5 -14.5t149 -47t123 -81.5t82.5 -122.5t31 -164.5q0 -81 -22 -147t-63 -112t-93.5 -79t-118.5 -52t-132.5 -27.5t-140.5 -8.5h-575v10q71 83 71 258v1121q-91 -3 -162.5 -29.5t-123.5 -76t-87.5 -106t-70.5 -135.5h-21l48 392h786v-11
q-72 -97 -72 -258v-334q108 25 228 25zM903 49q98 0 167.5 53.5t101.5 137t32 186.5q0 161 -75.5 269t-210.5 108q-88 0 -179 -31v-692q85 -31 164 -31z" />
    <glyph glyph-name="uni042B" unicode="&#x42b;" horiz-adv-x="1964" 
d="M709 0h-566v10q72 97 72 258v897q0 161 -72 258v11h441v-11q-72 -97 -72 -258v-334q110 25 217 25q86 0 163.5 -14.5t147.5 -47t120.5 -81.5t80 -122.5t29.5 -164.5q0 -98 -31.5 -173t-83 -122t-125.5 -77.5t-152 -42t-169 -11.5zM1821 0h-441v10q72 97 72 258v897
q0 161 -72 258v11h441v-11q-72 -97 -72 -258v-897q0 -161 72 -258v-10zM666 49q96 0 163.5 53.5t98 137t30.5 186.5q0 161 -73 269t-205 108q-77 0 -168 -31v-692q85 -31 154 -31z" />
    <glyph glyph-name="uni042C" unicode="&#x42c;" horiz-adv-x="1345" 
d="M719 0h-576v10q72 97 72 258v897q0 161 -72 258v11h441v-11q-72 -97 -72 -258v-334q110 25 227 25q86 0 164.5 -14.5t150 -47t123.5 -81.5t82.5 -122.5t30.5 -164.5q0 -97 -32.5 -172.5t-85.5 -122.5t-128.5 -77t-154.5 -42t-170 -12zM676 49q98 0 168 53.5t102.5 137
t32.5 186.5q0 160 -77 268.5t-212 108.5q-87 0 -178 -31v-692q85 -31 164 -31z" />
    <glyph glyph-name="uni042D" unicode="&#x42d;" horiz-adv-x="1349" 
d="M563 1460q327 0 517 -201t190 -548q0 -160 -45 -295t-127.5 -233.5t-207.5 -154t-278 -55.5q-213 0 -367.5 110.5t-205.5 319.5h20q140 -292 451 -292q221 0 331.5 167.5t110.5 473.5v18q-44 -84 -91.5 -115.5t-106.5 -31.5q-65 0 -166 61q-94 57 -154 57q-80 0 -145 -84
l-19 15q60 116 113 160.5t123 44.5q38 0 72.5 -14t93.5 -48q93 -55 155 -55q69 0 123 61q-12 274 -121 430t-278 156q-100 0 -189.5 -56t-148.5 -141.5t-92 -189.5h-21v348q212 92 463 92z" />
    <glyph glyph-name="uni042E" unicode="&#x42e;" horiz-adv-x="2113" 
d="M1372 1460q300 0 481 -204t181 -539t-181 -539.5t-481 -204.5q-297 0 -476.5 199t-184.5 528h-199v-432q0 -161 72 -258v-10h-441v10q72 97 72 258v897q0 161 -72 258v11h441v-11q-72 -97 -72 -258v-413h199q11 322 190 515t471 193zM1372 27q108 0 186 87t118 242
t40 361t-40 361t-118 242t-186 87q-109 0 -187 -87t-117.5 -241.5t-39.5 -361.5t39.5 -361.5t117.5 -241.5t187 -87z" />
    <glyph glyph-name="uni042F" unicode="&#x42f;" horiz-adv-x="1458" 
d="M195 -16q-157 0 -218 84l17 16q27 -27 65 -27q27 0 51 13.5t41.5 32.5t37 53.5t32.5 63t31 73.5q23 55 40 92t42.5 83t53 75.5t63.5 57t81 41.5t99 15v7q-83 3 -159.5 29t-138.5 72.5t-99 118.5t-37 160q0 78 26.5 142.5t72.5 110t109 76.5t136 46t153 15h621v-11
q-72 -97 -72 -258v-897q0 -161 72 -258v-10h-441v10q72 97 72 258v389h-100q-36 0 -67.5 -16t-53 -38t-44.5 -64t-36 -72.5t-35 -85.5q-16 -42 -25.5 -64t-27 -61.5t-31 -62t-35 -55t-42 -51.5t-48.5 -41t-58 -34t-68 -20t-80 -8zM788 709h158v647q-61 28 -153 28
q-139 0 -214 -96t-75 -244q0 -149 76.5 -242t207.5 -93z" />
    <glyph glyph-name="uni0430" unicode="&#x430;" horiz-adv-x="1077" 
d="M1040 82l11 -10q-25 -45 -79.5 -72t-121.5 -27q-85 0 -137.5 40t-63.5 110l-2 8h-6q-88 -158 -289 -158q-125 0 -195.5 60t-70.5 162q0 86 49 153t131 106.5t179.5 60t203.5 20.5v127q0 115 -69.5 185.5t-190.5 70.5q-89 0 -157 -41t-107 -115h-21q35 134 146.5 211.5
t263.5 77.5q193 0 302.5 -107.5t109.5 -281.5v-515q0 -81 63 -81q39 0 51 16zM502 106q63 0 105 43t42 103v235q-126 -3 -201 -63t-75 -164q0 -79 37 -116.5t92 -37.5z" />
    <glyph glyph-name="uni0431" unicode="&#x431;" horiz-adv-x="1179" 
d="M612 -27q-121 0 -214 38.5t-149 99.5t-91.5 147t-48.5 170t-13 180q0 142 22.5 257.5t58.5 196t91.5 142t112 98.5t130.5 62.5t135 36.5t138 18q120 11 184.5 32t84.5 77h20q0 -86 -22 -149.5t-58.5 -103t-95.5 -65t-122.5 -37t-149.5 -16.5q-111 -6 -188.5 -23.5
t-136.5 -52.5t-87.5 -93.5t-28.5 -143.5q0 -45 11 -101h10q44 101 155.5 164.5t260.5 63.5q222 0 360.5 -134t138.5 -364t-140.5 -365t-367.5 -135zM612 20q97 0 154 121t57 332q0 210 -57 331.5t-154 121.5t-154 -121.5t-57 -331.5q0 -211 57 -332t154 -121z" />
    <glyph glyph-name="uni0432" unicode="&#x432;" horiz-adv-x="1175" 
d="M690 0h-561v10q57 82 57 232v540q0 150 -57 232v10h539q83 0 149 -13.5t118 -42t80.5 -78t28.5 -116.5q0 -104 -74 -163t-167 -68v-6q48 -3 95 -19.5t91 -46.5t71 -81t27 -116q0 -75 -32.5 -130.5t-90 -85.5t-125.5 -44t-149 -14zM463 958v-395h110q88 0 136.5 55.5
t48.5 149.5q0 95 -45.5 152t-132.5 57q-58 0 -117 -19zM578 47q95 0 151.5 63t56.5 177q0 99 -56 164t-157 65h-110v-450q59 -19 115 -19z" />
    <glyph glyph-name="uni0433" unicode="&#x433;" horiz-adv-x="964" 
d="M520 0h-391v10q57 82 57 232v540q0 150 -57 232v10h799l28 -334h-20q-38 125 -132.5 206t-217.5 81h-123v-735q0 -150 57 -232v-10z" />
    <glyph glyph-name="uni0434" unicode="&#x434;" horiz-adv-x="1126" 
d="M23 -330h-21v377h10q70 2 129 72t94 172t54.5 206.5t19.5 186.5q0 113 -33.5 188t-95.5 142v10h811v-10q-57 -82 -57 -232v-735h141v-377h-20q-26 136 -126.5 233t-242.5 97h-297q-142 0 -241 -97t-125 -233zM172 47h485v930h-290v-137q0 -289 -50.5 -468.5
t-144.5 -324.5z" />
    <glyph glyph-name="uni0435" unicode="&#x435;" horiz-adv-x="1077" 
d="M997 346h21q-36 -169 -157 -271t-294 -102q-137 0 -246 58.5t-175 177t-66 278.5q0 125 41 232t111 179t163 112.5t195 40.5q95 0 174.5 -32t131 -86.5t80 -125t28.5 -148.5h-701q9 -229 122.5 -356t279.5 -127q100 0 176.5 45.5t115.5 124.5zM512 991q-92 0 -149 -73
t-60 -211h428q-12 131 -68.5 207.5t-150.5 76.5z" />
    <glyph glyph-name="uni0436" unicode="&#x436;" horiz-adv-x="1605" 
d="M188 -16q-152 0 -213 102l17 10q35 -35 69 -35q36 0 58 37t47 113q13 38 21.5 62t27 62.5t36.5 63.5t48.5 55t65 47.5t83 30t105.5 13.5l-182 237q-56 73 -134 134.5t-157 97.5v10h315v-10q-66 -96 37 -230l158 -209q20 -26 55 -26h25v233q0 149 -58 232v10h381v-10
q-57 -82 -57 -232v-233h25q35 0 55 26l158 209q102 133 36 230v10h316v-10q-79 -36 -157 -97.5t-134 -134.5l-182 -237q57 -1 105.5 -13.5t83 -30t65 -47.5t48.5 -55t36.5 -63.5t27 -62.5t21.5 -62t21 -59t21 -45.5t28 -35t34 -10.5q35 0 70 35l16 -10q-61 -102 -213 -102
q-35 0 -66 6.5t-55 16t-46 27t-37 33.5t-29.5 41.5t-23.5 44.5t-19.5 49.5t-16 49.5t-14.5 51q-14 51 -24.5 81.5t-27 63t-38 47.5t-49.5 15h-35v-268q0 -150 57 -232v-10h-381v10q58 83 58 232v268h-35q-28 0 -49.5 -15t-38 -47.5t-27 -63t-24.5 -81.5q-11 -41 -18.5 -65.5
t-22.5 -62.5t-29.5 -61t-38 -50.5t-51 -43t-65.5 -26t-83 -10.5z" />
    <glyph glyph-name="uni0437" unicode="&#x437;" horiz-adv-x="1005" 
d="M498 -27q-165 0 -285 77t-170 243h20q55 -102 140.5 -151.5t177.5 -49.5q109 0 172 59.5t63 157.5q0 101 -64.5 160t-182.5 59h-45v47h45q108 0 165.5 57t57.5 163q0 97 -47.5 153t-130.5 56q-102 0 -177 -86t-112 -230h-21v287q149 76 359 76q196 0 306 -68t110 -190
q0 -97 -69.5 -155.5t-180.5 -82.5v-6q58 -10 106.5 -29t91 -50.5t67 -81t24.5 -112.5q0 -140 -111.5 -221.5t-308.5 -81.5z" />
    <glyph glyph-name="uni0438" unicode="&#x438;" horiz-adv-x="1308" 
d="M520 0h-391v10q57 82 57 232v540q0 150 -57 232v10h391v-10q-57 -82 -57 -232v-487l383 528q0 44 -15 97t-43 94v10h392v-10q-58 -83 -58 -232v-540q0 -149 58 -232v-10h-392v10q58 83 58 232v487l-383 -528q0 -45 14.5 -98t42.5 -93v-10z" />
    <glyph glyph-name="uni0439" unicode="&#x439;" horiz-adv-x="1308" 
d="M653 1163q-164 0 -243.5 56t-79.5 145q0 45 30.5 73.5t83.5 28.5q73 0 105 -32q-29 -50 -29 -103q0 -65 31.5 -95t101.5 -30t101.5 30t31.5 95q0 55 -28 103q32 32 104 32q53 0 84 -28.5t31 -73.5q0 -89 -78 -145t-246 -56zM520 0h-391v10q57 82 57 232v540
q0 150 -57 232v10h391v-10q-57 -82 -57 -232v-487l383 528q0 44 -15 97t-43 94v10h392v-10q-58 -83 -58 -232v-540q0 -149 58 -232v-10h-392v10q58 83 58 232v487l-383 -528q0 -45 14.5 -98t42.5 -93v-10z" />
    <glyph glyph-name="uni043A" unicode="&#x43a;" horiz-adv-x="1185" 
d="M999 -16q-46 0 -85 10.5t-68 26.5t-55 43t-42.5 51t-34 61.5t-27 63t-23.5 65.5q-36 105 -70.5 155t-93.5 50h-37v-268q0 -150 57 -232v-10h-391v10q57 82 57 232v540q0 150 -57 232v10h391v-10q-57 -82 -57 -232v-233h26q44 0 72 31l189 213q111 126 49 221v10h307v-10
q-147 -65 -287 -217l-227 -252q56 -1 104.5 -13.5t84 -29.5t68 -46.5t52.5 -53.5t42.5 -62t33 -60.5t27.5 -60.5q34 -76 60 -113.5t58 -37.5q39 0 72 36l16 -10q-55 -110 -211 -110z" />
    <glyph glyph-name="uni043B" unicode="&#x43b;" horiz-adv-x="1163" 
d="M39 -16v249q78 0 135.5 22.5t92 60t55.5 95.5t28.5 118.5t7.5 138.5q0 124 -34 201.5t-97 144.5v10h807v-10q-57 -82 -57 -232v-540q0 -150 57 -232v-10h-391v10q57 82 57 232v735h-290v-219q0 -99 -3.5 -177t-13.5 -161t-26.5 -145t-44.5 -119t-66.5 -93t-93.5 -57.5
t-123 -21.5z" />
    <glyph glyph-name="uni043C" unicode="&#x43c;" horiz-adv-x="1509" 
d="M319 0h-221v10q84 102 84 232v540q0 130 -84 232v10h336l330 -690l319 690h297v-10q-57 -82 -57 -232v-540q0 -150 57 -232v-10h-391v10q58 83 58 232v583l-385 -825h-33l-393 817v-575q0 -131 83 -232v-10z" />
    <glyph glyph-name="uni043D" unicode="&#x43d;" horiz-adv-x="1304" 
d="M520 0h-391v10q57 82 57 232v540q0 150 -57 232v10h391v-10q-57 -82 -57 -232v-233h379v233q0 149 -58 232v10h392v-10q-58 -83 -58 -232v-540q0 -149 58 -232v-10h-392v10q58 83 58 232v260h-379v-260q0 -150 57 -232v-10z" />
    <glyph glyph-name="uni043E" unicode="&#x43e;" horiz-adv-x="1189" 
d="M596 -27q-228 0 -375 152t-147 387t147 387t375 152q227 0 373.5 -152t146.5 -387t-146.5 -387t-373.5 -152zM596 20q76 0 127 65t73.5 173t22.5 254t-22.5 254t-73.5 173t-127 65q-112 0 -168.5 -134.5t-56.5 -357.5t56.5 -357.5t168.5 -134.5z" />
    <glyph glyph-name="uni043F" unicode="&#x43f;" horiz-adv-x="1294" 
d="M520 0h-391v10q57 82 57 232v540q0 150 -57 232v10h1036v-10q-57 -82 -57 -232v-540q0 -150 57 -232v-10h-391v10q57 82 57 232v735h-368v-735q0 -150 57 -232v-10z" />
    <glyph glyph-name="uni0440" unicode="&#x440;" horiz-adv-x="1265" 
d="M510 -410h-391v11q57 82 57 231v868q0 152 -74 226v10l340 115h11v-185h10q48 87 128 136t179 49q189 0 302.5 -136.5t113.5 -363.5q0 -169 -67.5 -302.5t-178.5 -204.5t-242 -71q-152 0 -245 76v-217q0 -149 57 -231v-11zM657 33q111 0 173.5 121.5t62.5 337.5
q0 193 -66.5 304t-177.5 111q-79 0 -133 -48t-63 -124v-493q10 -83 64 -146t140 -63z" />
    <glyph glyph-name="uni0441" unicode="&#x441;" horiz-adv-x="1040" 
d="M561 -27q-99 0 -186.5 34.5t-153 98t-103.5 161t-38 216.5q0 120 45 226t120.5 180.5t179.5 118t218 43.5q74 0 156.5 -19t148.5 -53v-307h-20q-52 143 -148 233t-213 90q-112 0 -188 -87t-76 -255q0 -204 114.5 -340.5t284.5 -136.5q90 0 164 44t105 126h20
q-26 -169 -145 -271t-285 -102z" />
    <glyph glyph-name="uni0442" unicode="&#x442;" horiz-adv-x="1058" 
d="M725 0h-391v10q57 82 57 232v735h-47q-107 0 -185 -78t-120 -207h-21l35 332h953l34 -332h-20q-42 129 -120 207t-185 78h-47v-735q0 -150 57 -232v-10z" />
    <glyph glyph-name="uni0443" unicode="&#x443;" horiz-adv-x="1075" 
d="M59 -422v229h103q145 0 233 38t140 132l-379 814q-64 137 -150 223v10h461v-10q-68 -87 -4 -232l211 -477l194 463q25 59 29 110t-7.5 82.5t-33.5 53.5v10h242v-10q-107 -93 -166 -230l-361 -843q-22 -51 -39 -85.5t-42.5 -75.5t-52 -68.5t-64.5 -55t-82 -43t-103 -25.5
t-129 -10z" />
    <glyph glyph-name="uni0444" unicode="&#x444;" horiz-adv-x="1540" 
d="M963 -410h-385v11q57 82 57 231v168q-267 0 -418 139.5t-151 372.5t151 372.5t418 139.5v156q0 84 -18.5 136t-55.5 89v10l334 111h10v-502q266 0 418 -139.5t152 -372.5t-152 -372.5t-418 -139.5v-168q0 -148 58 -231v-11zM635 47v930q-126 0 -202.5 -130t-76.5 -335
t76.5 -335t202.5 -130zM905 977v-930q126 0 202.5 130t76.5 335q0 206 -76.5 335.5t-202.5 129.5z" />
    <glyph glyph-name="uni0445" unicode="&#x445;" horiz-adv-x="1079" 
d="M266 0h-248v10q128 80 224 215l170 238l-205 321q-100 155 -191 230v10h471v-10q-52 -86 41 -232l99 -159l112 159q101 142 49 232v10h248v-10q-117 -73 -223 -215l-158 -215l217 -344q44 -69 96.5 -133t94.5 -97v-10h-471v10q50 82 -41 232l-113 182l-125 -182
q-99 -142 -47 -232v-10z" />
    <glyph glyph-name="uni0446" unicode="&#x446;" horiz-adv-x="1300" 
d="M1249 -330h-26q-26 136 -126 233t-241 97h-727v10q57 82 57 232v540q0 150 -57 232v10h391v-10q-57 -82 -57 -232v-735h368v735q0 150 -57 232v10h391v-10q-57 -82 -57 -232v-735h141v-377z" />
    <glyph glyph-name="uni0447" unicode="&#x447;" horiz-adv-x="1200" 
d="M1071 0h-391v10q57 82 57 232v196q-132 -82 -313 -82q-320 0 -320 287v139q0 150 -57 232v10h391v-10q-57 -82 -57 -232v-168q0 -161 188 -161q88 0 168 32v297q0 150 -57 232v10h391v-10q-57 -82 -57 -232v-540q0 -150 57 -232v-10z" />
    <glyph glyph-name="uni0448" unicode="&#x448;" horiz-adv-x="1802" 
d="M1673 0h-1544v10q57 82 57 232v540q0 150 -57 232v10h391v-10q-57 -82 -57 -232v-735h303v735q0 150 -57 232v10h385v-10q-58 -83 -58 -232v-735h303v735q0 150 -57 232v10h391v-10q-57 -82 -57 -232v-540q0 -150 57 -232v-10z" />
    <glyph glyph-name="uni0449" unicode="&#x449;" horiz-adv-x="1808" 
d="M1757 -330h-26q-26 136 -126 233t-241 97h-1235v10q57 82 57 232v540q0 150 -57 232v10h391v-10q-57 -82 -57 -232v-735h303v735q0 150 -57 232v10h385v-10q-58 -83 -58 -232v-735h303v735q0 150 -57 232v10h391v-10q-57 -82 -57 -232v-735h141v-377z" />
    <glyph glyph-name="uni044A" unicode="&#x44a;" horiz-adv-x="1275" 
d="M821 0h-542v10q57 82 57 232v735h-21q-96 0 -187 -78t-124 -192h-20l34 317h652v-10q-58 -83 -58 -232v-182q99 21 199 21q84 0 157.5 -19.5t131.5 -57t91.5 -99t33.5 -138.5t-32 -137t-88 -96.5t-128 -55t-156 -18.5zM719 47q100 0 154.5 68.5t54.5 191.5q0 118 -54 189
t-151 71q-60 0 -111 -14v-487q55 -19 107 -19z" />
    <glyph glyph-name="uni044B" unicode="&#x44b;" horiz-adv-x="1665" 
d="M659 0h-530v10q57 82 57 232v540q0 150 -57 232v10h391v-10q-57 -82 -57 -232v-182q95 21 186 21q112 0 203.5 -33t150 -106t58.5 -175q0 -77 -32 -137t-88 -96.5t-127.5 -55t-154.5 -18.5zM1536 0h-391v10q57 82 57 232v540q0 150 -57 232v10h391v-10q-57 -82 -57 -232
v-540q0 -150 57 -232v-10zM563 47q98 0 149.5 68.5t51.5 191.5q0 120 -50.5 190t-150.5 70q-49 0 -100 -14v-487q52 -19 100 -19z" />
    <glyph glyph-name="uni044C" unicode="&#x44c;" horiz-adv-x="1126" 
d="M670 0h-541v10q57 82 57 232v540q0 150 -57 232v10h391v-10q-57 -82 -57 -232v-182q86 21 196 21q114 0 206 -33t151 -106t59 -175q0 -103 -56 -173.5t-145.5 -102t-203.5 -31.5zM569 47q100 0 154.5 68.5t54.5 191.5q0 118 -55 189t-154 71q-52 0 -106 -14v-487
q51 -19 106 -19z" />
    <glyph glyph-name="uni044D" unicode="&#x44d;" horiz-adv-x="1085" 
d="M446 1051q258 0 412 -142t154 -389q0 -249 -141 -398t-384 -149q-168 0 -283.5 84t-154.5 242h21q106 -199 331 -199q150 0 234 114t84 327v24q-37 -72 -72.5 -101.5t-85.5 -29.5q-51 0 -115 43q-66 43 -114 43q-54 0 -99 -59l-18 12q50 93 88.5 128.5t91.5 35.5
q52 0 119 -45q65 -43 113 -43q28 0 48.5 13t41.5 48q-13 181 -90 287.5t-191 106.5q-109 0 -191 -91t-124 -235h-21v301q141 72 346 72z" />
    <glyph glyph-name="uni044E" unicode="&#x44e;" horiz-adv-x="1718" 
d="M1126 1051q226 0 372.5 -152t146.5 -387t-146.5 -387t-372.5 -152q-220 0 -365 146t-153 373h-145v-250q0 -150 57 -232v-10h-391v10q57 82 57 232v540q0 150 -57 232v10h391v-10q-57 -82 -57 -232v-243h145q9 224 154.5 368t363.5 144zM1126 20q74 0 124.5 65t74 173.5
t23.5 253.5t-23.5 253.5t-74 173.5t-124.5 65t-124.5 -65t-73.5 -173.5t-23 -253.5t23 -253.5t73.5 -173.5t124.5 -65z" />
    <glyph glyph-name="uni044F" unicode="&#x44f;" horiz-adv-x="1210" 
d="M211 -16q-159 0 -215 100l14 10q31 -31 70 -31t66.5 41t54.5 119q87 249 280 254v8q-39 3 -79 13t-84.5 30.5t-78.5 49t-56.5 73.5t-22.5 99q0 70 32 124t87 86t122.5 48t143.5 16h536v-10q-57 -82 -57 -232v-540q0 -150 57 -232v-10h-391v10q58 83 58 232v221h-68
q-54 0 -93 -51.5t-77 -165.5q-41 -127 -111 -194.5t-188 -67.5zM649 508h99v450q-44 19 -97 19q-91 0 -145.5 -60t-54.5 -174q0 -109 52.5 -172t145.5 -63z" />
    <glyph glyph-name="uni0451" unicode="&#x451;" horiz-adv-x="1077" 
d="M365 1198q-59 0 -96.5 37.5t-37.5 95.5t37.5 95.5t96.5 37.5t96 -37t37 -96t-37 -96t-96 -37zM782 1198q-58 0 -95.5 37t-37.5 96t37.5 96t95.5 37t95.5 -37t37.5 -96t-37.5 -96t-95.5 -37zM997 346h21q-36 -169 -157 -271t-294 -102q-137 0 -246 58.5t-175 177
t-66 278.5q0 125 41 232t111 179t163 112.5t195 40.5q95 0 174.5 -32t131 -86.5t80 -125t28.5 -148.5h-701q9 -229 122.5 -356t279.5 -127q100 0 176.5 45.5t115.5 124.5zM512 991q-92 0 -149 -73t-60 -211h428q-12 131 -68.5 207.5t-150.5 76.5z" />
    <glyph glyph-name="uni0452" unicode="&#x452;" horiz-adv-x="1253" 
d="M784 1016q151 0 240.5 -96t89.5 -250v-576q0 -225 -148 -364.5t-393 -139.5v21q265 51 265 444v609q0 84 -51.5 138t-135.5 54q-83 0 -140.5 -53t-57.5 -139v-422q0 -150 57 -232v-10h-391v10q57 82 57 232v934v20h-135v51h131q-11 98 -70 154v10l340 115h11v-279h424
v-51h-424v-381h10q41 89 124.5 145t196.5 56z" />
    <glyph glyph-name="uni0453" unicode="&#x453;" horiz-adv-x="964" 
d="M485 1163h-26l82 332h227v-27zM520 0h-391v10q57 82 57 232v540q0 150 -57 232v10h799l28 -334h-20q-38 125 -132.5 206t-217.5 81h-123v-735q0 -150 57 -232v-10z" />
    <glyph glyph-name="uni0454" unicode="&#x454;" horiz-adv-x="1034" 
d="M965 346h20q-26 -169 -145 -271t-285 -102q-99 0 -186.5 34.5t-153 98t-103.5 161t-38 216.5q0 120 45 226t120.5 180.5t179.5 118t218 43.5q74 0 156.5 -19t148.5 -53v-307h-20q-52 143 -148 233t-213 90q-113 0 -189.5 -87t-76.5 -255q0 -65 12 -123q33 63 69 90t83 27
q48 0 112 -43q66 -43 115 -43q30 0 51.5 13.5t48.5 46.5l17 -13q-50 -93 -88 -127.5t-90 -34.5q-57 0 -121 43q-65 43 -113 43q-45 0 -76 -38q40 -143 143.5 -230.5t237.5 -87.5q90 0 164 44t105 126z" />
    <glyph glyph-name="uni0455" unicode="&#x455;" horiz-adv-x="980" 
d="M477 -27q-204 0 -360 76v305h20q52 -151 159.5 -240t213.5 -89q82 0 133 49t51 125q0 74 -54.5 114.5t-178.5 71.5q-81 20 -140 45t-111 63.5t-79 97t-27 134.5q0 147 111.5 236.5t284.5 89.5q149 0 325 -76v-287h-20q-46 134 -143.5 222.5t-200.5 88.5
q-75 0 -120.5 -42.5t-45.5 -110.5q0 -70 55.5 -109.5t177.5 -72.5q67 -18 117.5 -37.5t98.5 -49t79 -66t49.5 -88.5t18.5 -116q0 -87 -35.5 -153.5t-96 -104.5t-131.5 -57t-151 -19z" />
    <glyph glyph-name="uni0456" unicode="&#x456;" horiz-adv-x="634" 
d="M324 1167q-69 0 -116.5 47t-47.5 117q0 69 47.5 116.5t116.5 47.5t116 -47.5t47 -116.5q0 -70 -47 -117t-116 -47zM520 0h-391v10q57 82 57 232v458q0 153 -73 226v10l340 115h10v-809q0 -150 57 -232v-10z" />
    <glyph glyph-name="uni0457" unicode="&#x457;" horiz-adv-x="634" 
d="M129 1198q-59 0 -96 37t-37 96t37 96t96 37t96 -37t37 -96t-37 -96t-96 -37zM518 1198q-58 0 -95.5 37t-37.5 96t37.5 96t95.5 37t95.5 -37t37.5 -96t-37.5 -96t-95.5 -37zM520 0h-391v10q57 82 57 232v458q0 153 -73 226v10l340 115h10v-809q0 -150 57 -232v-10z" />
    <glyph glyph-name="uni0458" unicode="&#x458;" horiz-adv-x="614" 
d="M313 1167q-69 0 -116 47t-47 117q0 69 47 116.5t116 47.5t116.5 -47.5t47.5 -116.5q0 -70 -47.5 -117t-116.5 -47zM0 -410v21q102 48 139 125t37 215v749q0 152 -74 226v10l340 115h11v-1100q0 -185 -118 -273t-335 -88z" />
    <glyph glyph-name="uni0459" unicode="&#x459;" horiz-adv-x="1603" 
d="M39 -16v249q78 0 135.5 22.5t92 60t55.5 95.5t28.5 118.5t7.5 138.5q0 124 -34 201.5t-97 144.5v10h791v-10q-57 -82 -57 -232v-182q86 21 192 21t194.5 -33t146.5 -106t58 -175q0 -77 -31.5 -137.5t-86.5 -96.5t-123.5 -54.5t-147.5 -18.5h-536v10q57 82 57 232v735
h-274v-219q0 -99 -3.5 -177t-13.5 -161t-26.5 -145t-44.5 -119t-66.5 -93t-93.5 -57.5t-123 -21.5zM1063 47q89 0 140.5 69.5t51.5 190.5q0 117 -52 188.5t-140 71.5q-48 0 -102 -14v-487q51 -19 102 -19z" />
    <glyph glyph-name="uni045A" unicode="&#x45a;" horiz-adv-x="1740" 
d="M520 0h-391v10q57 82 57 232v540q0 150 -57 232v10h391v-10q-57 -82 -57 -232v-190h358v190q0 150 -57 232v10h391v-10q-57 -82 -57 -232v-182q86 21 192 21q79 0 149.5 -19.5t127 -57t90 -99t33.5 -138.5t-32 -137.5t-86.5 -96.5t-123.5 -54.5t-148 -18.5h-536v10
q57 82 57 232v303h-358v-303q0 -150 57 -232v-10zM1200 47q89 0 141 69.5t52 190.5q0 117 -52.5 188.5t-140.5 71.5q-48 0 -102 -14v-487q51 -19 102 -19z" />
    <glyph glyph-name="uni045B" unicode="&#x45b;" horiz-adv-x="1275" 
d="M1114 670v-428q0 -150 57 -232v-10h-391v10q58 83 58 232v422q0 84 -51.5 138t-135.5 54q-83 0 -140.5 -53t-57.5 -139v-422q0 -150 57 -232v-10h-391v10q57 82 57 232v934v20h-135v51h131q-11 98 -70 154v10l340 115h11v-279h424v-51h-424v-381h10q41 89 124.5 145
t196.5 56q151 0 240.5 -96t89.5 -250z" />
    <glyph glyph-name="uni045C" unicode="&#x45c;" horiz-adv-x="1185" 
d="M586 1163h-27l82 332h227v-27zM999 -16q-46 0 -85 10.5t-68 26.5t-55 43t-42.5 51t-34 61.5t-27 63t-23.5 65.5q-36 105 -70.5 155t-93.5 50h-37v-268q0 -150 57 -232v-10h-391v10q57 82 57 232v540q0 150 -57 232v10h391v-10q-57 -82 -57 -232v-233h26q44 0 72 31
l189 213q111 126 49 221v10h307v-10q-147 -65 -287 -217l-227 -252q56 -1 104.5 -13.5t84 -29.5t68 -46.5t52.5 -53.5t42.5 -62t33 -60.5t27.5 -60.5q34 -76 60 -113.5t58 -37.5q39 0 72 36l16 -10q-55 -110 -211 -110z" />
    <glyph glyph-name="uni045E" unicode="&#x45e;" horiz-adv-x="1075" 
d="M598 1163q-164 0 -244 56.5t-80 144.5q0 45 31 73.5t84 28.5q73 0 105 -32q-29 -50 -29 -103q0 -65 31.5 -95t101.5 -30t101.5 30t31.5 95q0 53 -29 103q32 32 105 32q53 0 84 -28.5t31 -73.5q0 -89 -78 -145t-246 -56zM59 -422v229h103q145 0 233 38t140 132l-379 814
q-64 137 -150 223v10h461v-10q-68 -87 -4 -232l211 -477l194 463q25 59 29 110t-7.5 82.5t-33.5 53.5v10h242v-10q-107 -93 -166 -230l-361 -843q-22 -51 -39 -85.5t-42.5 -75.5t-52 -68.5t-64.5 -55t-82 -43t-103 -25.5t-129 -10z" />
    <glyph glyph-name="uni045F" unicode="&#x45f;" horiz-adv-x="1314" 
d="M668 -330h-21q-12 112 -33 187.5t-59 142.5h-426v10q57 82 57 232v540q0 150 -57 232v10h391v-10q-57 -82 -57 -232v-735h389v735q0 150 -57 232v10h391v-10q-58 -83 -58 -232v-540q0 -149 58 -232v-10h-426q-38 -67 -59 -142.5t-33 -187.5z" />
    <glyph glyph-name="uni0490" unicode="&#x490;" horiz-adv-x="1150" 
d="M584 0h-441v10q72 97 72 258v897q0 161 -72 258v11h519q215 0 315 71t151 256h21v-379h-637v-1114q0 -161 72 -258v-10z" />
    <glyph glyph-name="uni0491" unicode="&#x491;" horiz-adv-x="919" 
d="M520 0h-391v10q57 82 57 232v540q0 150 -57 232v10h418q149 0 236.5 71.5t121.5 215.5h21v-334h-463v-735q0 -150 57 -232v-10z" />
    <glyph glyph-name="Wgrave" unicode="&#x1e80;" horiz-adv-x="2074" 
d="M1171 1599h-26l-373 275v27h260zM731 0h-168l-409 1161q-57 163 -146 262v11h502v-11q-95 -119 -43 -264l307 -870l223 641l-84 231q-33 93 -64.5 153.5t-76.5 108.5v11h502v-11q-100 -121 -49 -264l307 -870l301 858q61 173 -49 276v11h303v-11q-139 -118 -189 -264
l-407 -1159h-168l-295 838z" />
    <glyph glyph-name="wgrave" unicode="&#x1e81;" horiz-adv-x="1626" 
d="M813 1495l82 -332h-27l-282 305v27h227zM1407 1014v10h242v-10q-92 -80 -150 -232l-303 -782h-123l-260 655l-254 -655h-121l-309 782q-62 160 -131 232v10h430v-10q-30 -38 -33.5 -95t25.5 -137l196 -501l168 446l-20 51q-68 176 -131 236v10h448v-10
q-34 -36 -42.5 -93.5t18.5 -138.5l194 -501l189 489q20 54 20 104t-14.5 84t-38.5 56z" />
    <glyph glyph-name="Wacute" unicode="&#x1e82;" horiz-adv-x="2074" 
d="M977 1599h-27l140 302h260v-27zM731 0h-168l-409 1161q-57 163 -146 262v11h502v-11q-95 -119 -43 -264l307 -870l223 641l-84 231q-33 93 -64.5 153.5t-76.5 108.5v11h502v-11q-100 -121 -49 -264l307 -870l301 858q61 173 -49 276v11h303v-11q-139 -118 -189 -264
l-407 -1159h-168l-295 838z" />
    <glyph glyph-name="wacute" unicode="&#x1e83;" horiz-adv-x="1626" 
d="M1047 1495v-27l-283 -305h-27l82 332h228zM1407 1014v10h242v-10q-92 -80 -150 -232l-303 -782h-123l-260 655l-254 -655h-121l-309 782q-62 160 -131 232v10h430v-10q-30 -38 -33.5 -95t25.5 -137l196 -501l168 446l-20 51q-68 176 -131 236v10h448v-10
q-34 -36 -42.5 -93.5t18.5 -138.5l194 -501l189 489q20 54 20 104t-14.5 84t-38.5 56z" />
    <glyph glyph-name="Wdieresis" unicode="&#x1e84;" horiz-adv-x="2074" 
d="M834 1616q-59 0 -97.5 38.5t-38.5 96.5t38.5 96.5t97.5 38.5q58 0 96.5 -38t38.5 -97t-38.5 -97t-96.5 -38zM1288 1616q-58 0 -96.5 38t-38.5 97t38.5 97t96.5 38t96.5 -38t38.5 -97t-38.5 -97t-96.5 -38zM731 0h-168l-409 1161q-57 163 -146 262v11h502v-11
q-95 -119 -43 -264l307 -870l223 641l-84 231q-33 93 -64.5 153.5t-76.5 108.5v11h502v-11q-100 -121 -49 -264l307 -870l301 858q61 173 -49 276v11h303v-11q-139 -118 -189 -264l-407 -1159h-168l-295 838z" />
    <glyph glyph-name="wdieresis" unicode="&#x1e85;" horiz-adv-x="1626" 
d="M606 1198q-58 0 -95.5 37t-37.5 96t37.5 96t95.5 37t95.5 -37t37.5 -96t-37.5 -96t-95.5 -37zM1024 1198q-58 0 -95.5 37t-37.5 96t37.5 96t95.5 37t95.5 -37t37.5 -96t-37.5 -96t-95.5 -37zM1407 1014v10h242v-10q-92 -80 -150 -232l-303 -782h-123l-260 655l-254 -655
h-121l-309 782q-62 160 -131 232v10h430v-10q-30 -38 -33.5 -95t25.5 -137l196 -501l168 446l-20 51q-68 176 -131 236v10h448v-10q-34 -36 -42.5 -93.5t18.5 -138.5l194 -501l189 489q20 54 20 104t-14.5 84t-38.5 56z" />
    <glyph glyph-name="uni1E9E" unicode="&#x1e9e;" horiz-adv-x="1488" 
d="M909 -16q-138 0 -260 36v285h21q43 -123 109 -193.5t143 -70.5q92 0 148 89t56 257q0 184 -101 282.5t-292 98.5h-31v76l281 483q-82 70 -192 70q-151 0 -235.5 -107t-84.5 -332v-690q0 -161 72 -258v-10h-441v10q72 97 72 258v652q0 250 155 392t445 142q291 0 508 -111
l-303 -512q71 0 137.5 -16.5t124.5 -50t101 -81.5t67.5 -115t24.5 -146q0 -92 -34.5 -171.5t-99.5 -139t-165.5 -93.5t-225.5 -34z" />
    <glyph glyph-name="Ygrave" unicode="&#x1ef2;" horiz-adv-x="1323" 
d="M823 1599h-26l-373 275v27h260zM895 0h-440v10q71 95 71 258v248l-321 637q-80 159 -197 270v11h522v-11q-35 -48 -38.5 -112t36.5 -154l258 -520l252 502q42 91 38.5 163t-46.5 121v11h305v-11q-138 -98 -217 -254l-295 -581v-320q0 -161 72 -258v-10z" />
    <glyph glyph-name="ygrave" unicode="&#x1ef3;" horiz-adv-x="1075" 
d="M678 1163h-27l-282 305v27h227zM59 -422v229h103q145 0 233 38t140 132l-379 814q-64 137 -150 223v10h461v-10q-68 -87 -4 -232l211 -477l194 463q25 59 29 110t-7.5 82.5t-33.5 53.5v10h242v-10q-107 -93 -166 -230l-361 -843q-22 -51 -39 -85.5t-42.5 -75.5t-52 -68.5
t-64.5 -55t-82 -43t-103 -25.5t-129 -10z" />
    <glyph glyph-name="endash" unicode="&#x2013;" horiz-adv-x="921" 
d="M844 479h-766v86h766v-86z" />
    <glyph glyph-name="emdash" unicode="&#x2014;" horiz-adv-x="1492" 
d="M1415 479h-1337v86h1337v-86z" />
    <glyph glyph-name="quoteleft" unicode="&#x2018;" horiz-adv-x="425" 
d="M211 1221h8q70 0 114 -42t44 -110q0 -65 -45.5 -108t-116.5 -43q-73 0 -119.5 50t-46.5 148q0 221 238 344l22 -26q-98 -86 -98 -205v-8z" />
    <glyph glyph-name="quoteright" unicode="&#x2019;" horiz-adv-x="425" 
d="M211 1460q73 0 119.5 -50t46.5 -148q0 -221 -238 -344l-22 26q98 86 98 205v8h-8q-70 0 -114 42t-44 110q0 65 45.5 108t116.5 43z" />
    <glyph glyph-name="quotesinglbase" unicode="&#x201a;" horiz-adv-x="425" 
d="M211 283q73 0 119.5 -50.5t46.5 -148.5q0 -221 -238 -344l-22 27q98 86 98 204v9h-8q-70 0 -114 41.5t-44 109.5q0 65 45.5 108.5t116.5 43.5z" />
    <glyph glyph-name="quotedblleft" unicode="&#x201c;" horiz-adv-x="831" 
d="M211 1221h8q70 0 114 -42t44 -110q0 -65 -45.5 -108t-116.5 -43q-73 0 -119.5 50t-46.5 148q0 221 238 344l22 -26q-98 -86 -98 -205v-8zM616 1221h9q70 0 113.5 -42t43.5 -110q0 -65 -45 -108t-116 -43q-73 0 -119.5 50t-46.5 148q0 221 237 344l23 -26
q-99 -87 -99 -205v-8z" />
    <glyph glyph-name="quotedblright" unicode="&#x201d;" horiz-adv-x="831" 
d="M211 1460q73 0 119.5 -50t46.5 -148q0 -221 -238 -344l-22 26q98 86 98 205v8h-8q-70 0 -114 42t-44 110q0 65 45.5 108t116.5 43zM616 1460q73 0 119.5 -50t46.5 -148q0 -221 -237 -344l-23 26q99 87 99 205v8h-9q-70 0 -113.5 42t-43.5 110q0 65 45 108t116 43z" />
    <glyph glyph-name="quotedblbase" unicode="&#x201e;" horiz-adv-x="831" 
d="M211 283q73 0 119.5 -50.5t46.5 -148.5q0 -221 -238 -344l-22 27q98 86 98 204v9h-8q-70 0 -114 41.5t-44 109.5q0 65 45.5 108.5t116.5 43.5zM616 283q73 0 119.5 -50.5t46.5 -148.5q0 -221 -237 -344l-23 27q99 87 99 204v9h-9q-70 0 -113.5 41.5t-43.5 109.5
q0 65 45 108.5t116 43.5z" />
    <glyph glyph-name="dagger" unicode="&#x2020;" horiz-adv-x="1028" 
d="M522 0h-16l-86 778l69 250q-217 -70 -290 -70q-43 0 -70 27t-27 68t27 67.5t70 26.5q73 0 290 -70q-69 221 -69 285q0 44 26 71t68 27t68 -27t26 -71q0 -64 -69 -285q217 70 290 70q43 0 70 -26.5t27 -67.5t-27 -68t-70 -27q-73 0 -290 70l69 -250z" />
    <glyph glyph-name="daggerdbl" unicode="&#x2021;" horiz-adv-x="1110" 
d="M555 -27q-41 0 -67.5 27.5t-26.5 71.5q0 63 69 284q-214 -69 -290 -69q-43 0 -70 26.5t-27 67.5t27 67.5t70 26.5q76 0 290 -69l-69 311l69 311q-217 -70 -290 -70q-43 0 -70 27t-27 68t27 67.5t70 26.5q73 0 290 -70q-69 221 -69 285q0 44 26 71t68 27t68 -27t26 -71
q0 -64 -69 -285q217 70 290 70q43 0 70 -26.5t27 -67.5t-27 -68t-70 -27q-73 0 -290 70l69 -311l-69 -311q214 69 290 69q43 0 70 -26.5t27 -67.5t-27 -67.5t-70 -26.5q-76 0 -290 69q69 -221 69 -284q0 -44 -26.5 -71.5t-67.5 -27.5z" />
    <glyph glyph-name="bullet" unicode="&#x2022;" horiz-adv-x="565" 
d="M283 336q-82 0 -135.5 53t-53.5 135t53.5 135.5t135.5 53.5t135 -53.5t53 -135.5t-53 -135t-135 -53z" />
    <glyph glyph-name="ellipsis" unicode="&#x2026;" horiz-adv-x="1533" 
d="M248 -20q-69 0 -114.5 44.5t-45.5 112.5q0 69 45.5 114.5t114.5 45.5q68 0 113 -45.5t45 -114.5q0 -67 -45 -112t-113 -45zM768 -20q-69 0 -114.5 44.5t-45.5 112.5q0 69 45.5 114.5t114.5 45.5q68 0 113 -45.5t45 -114.5q0 -67 -45 -112t-113 -45zM1288 -20
q-69 0 -114.5 44.5t-45.5 112.5q0 69 45.5 114.5t114.5 45.5q68 0 113 -45.5t45 -114.5q0 -67 -45 -112t-113 -45z" />
    <glyph glyph-name="perthousand" unicode="&#x2030;" horiz-adv-x="2400" 
d="M401 788q-148 0 -248 89.5t-100 246.5t100 246.5t248 89.5q147 0 247 -90t100 -246t-100 -246t-247 -90zM426 0h-96l858 1434h96zM401 825q67 0 110.5 77t43.5 222t-43.5 222t-110.5 77q-68 0 -111.5 -76.5t-43.5 -222.5t43.5 -222.5t111.5 -76.5zM1214 -27
q-147 0 -247.5 90t-100.5 246t100.5 246t247.5 90t247 -90t100 -246t-100 -246t-247 -90zM2013 -27q-146 0 -246 89.5t-100 246.5t100 246.5t246 89.5q147 0 247.5 -90t100.5 -246t-100.5 -246t-247.5 -90zM1214 10q67 0 110.5 77t43.5 222t-43.5 222t-110.5 77
q-68 0 -111.5 -76.5t-43.5 -222.5t43.5 -222.5t111.5 -76.5zM2013 10q68 0 112 76.5t44 222.5t-44 222.5t-112 76.5q-67 0 -110 -76.5t-43 -222.5t43 -222.5t110 -76.5z" />
    <glyph glyph-name="guilsinglleft" unicode="&#x2039;" horiz-adv-x="593" 
d="M496 147h-45l-381 377v23l381 377h45l-179 -383v-11z" />
    <glyph glyph-name="guilsinglright" unicode="&#x203a;" horiz-adv-x="593" 
d="M143 147h-45l178 383v11l-178 383h45l381 -377v-23z" />
    <glyph glyph-name="fraction" unicode="&#x2044;" horiz-adv-x="192" 
d="M-289 0h-88l858 1434h88z" />
    <glyph glyph-name="uni2070" unicode="&#x2070;" horiz-adv-x="737" 
d="M369 946q-140 0 -235 109.5t-95 287.5q0 175 95 284.5t235 109.5q141 0 235 -109.5t94 -284.5q0 -178 -94 -287.5t-235 -109.5zM369 983q63 0 99 94t36 266q0 169 -36 263t-99 94q-65 0 -100.5 -93.5t-35.5 -263.5q0 -173 35.5 -266.5t100.5 -93.5z" />
    <glyph glyph-name="uni2074" unicode="&#x2074;" horiz-adv-x="638" 
d="M526 963h-247v10q38 55 38 117v53h-297v98l369 479h98v-448h127l-45 -129h-82v-53q0 -61 39 -117v-10zM317 1559l-219 -287h219v287z" />
    <glyph glyph-name="uni2075" unicode="&#x2075;" horiz-adv-x="614" 
d="M268 946q-182 0 -248 148h21q65 -68 160 -68q71 0 112 41t41 107q0 93 -80.5 145t-212.5 67l142 334h356l-47 -116h-311l-33 -78q173 -26 277 -111.5t104 -220.5q0 -111 -77 -179.5t-204 -68.5z" />
    <glyph glyph-name="uni2076" unicode="&#x2076;" horiz-adv-x="659" 
d="M350 946q-143 0 -227 82.5t-84 235.5q0 85 27.5 161.5t81.5 140.5t143.5 106.5t204.5 53.5v-20q-136 -43 -199.5 -152.5t-63.5 -306.5q0 -264 111 -264q47 0 78 54t31 159q0 113 -32.5 166t-86.5 53q-36 0 -62 -16v26q40 27 95 27q121 0 197.5 -66.5t76.5 -181.5
t-81.5 -186.5t-209.5 -71.5z" />
    <glyph glyph-name="uni2077" unicode="&#x2077;" horiz-adv-x="555" 
d="M338 963h-225l340 622h-328q-82 0 -117 -72h-20l67 207h482v-28z" />
    <glyph glyph-name="uni2078" unicode="&#x2078;" horiz-adv-x="677" 
d="M436 1411q108 -56 158.5 -116.5t50.5 -133.5q0 -98 -81 -156.5t-230 -58.5q-139 0 -214 54.5t-75 136.5q0 68 42.5 114.5t115.5 71.5q-127 81 -127 205q0 93 72 151t198 58q121 0 189.5 -47t68.5 -119q0 -111 -168 -160zM354 1700q-48 0 -78 -31t-30 -82q0 -48 36 -84.5
t124 -77.5q57 57 57 142q0 64 -30 98.5t-79 34.5zM338 983q56 0 90.5 32.5t34.5 84.5q0 47 -39 88.5t-143 91.5q-7 3 -41 20q-45 -52 -45 -141q0 -85 40 -130.5t103 -45.5z" />
    <glyph glyph-name="uni2079" unicode="&#x2079;" horiz-adv-x="659" 
d="M164 956v21q136 43 199 152.5t63 306.5q0 264 -111 264q-47 0 -77.5 -54t-30.5 -159q0 -113 32.5 -166t86.5 -53q34 0 61 14v-25q-39 -26 -94 -26q-121 0 -198 66.5t-77 181.5t81.5 186.5t209.5 71.5q143 0 227.5 -82.5t84.5 -235.5q0 -85 -27.5 -161.5t-81.5 -140.5
t-143.5 -107t-204.5 -54z" />
    <glyph glyph-name="uni2080" unicode="&#x2080;" horiz-adv-x="737" 
d="M369 -303q-140 0 -235 109.5t-95 287.5q0 175 95 284t235 109q141 0 235 -109t94 -284q0 -178 -94 -287.5t-235 -109.5zM369 -266q63 0 99 94t36 266q0 169 -36 263t-99 94q-65 0 -100.5 -93.5t-35.5 -263.5q0 -173 35.5 -266.5t100.5 -93.5z" />
    <glyph glyph-name="uni2081" unicode="&#x2081;" horiz-adv-x="444" 
d="M354 -287h-248v11q39 56 39 137v409q0 68 -53 68q-17 0 -53 -16v34l256 115h20v-610q0 -81 39 -137v-11z" />
    <glyph glyph-name="uni2082" unicode="&#x2082;" horiz-adv-x="616" 
d="M489 -287h-475v11l181 176q85 82 124 152t39 143q0 74 -41 118.5t-106 44.5q-57 0 -92.5 -26.5t-63.5 -79.5h-20q16 108 82.5 171.5t181.5 63.5q112 0 172.5 -56t60.5 -142q0 -63 -42 -132.5t-134 -162.5l-127 -131h199q90 0 117 69h20z" />
    <glyph glyph-name="uni2083" unicode="&#x2083;" horiz-adv-x="583" 
d="M279 -303q-208 0 -271 168h21q60 -82 166 -82q74 0 118.5 43t44.5 111q0 72 -45 115.5t-125 43.5q-22 0 -45 -2v21q176 36 176 155q0 48 -32 78.5t-86 30.5q-96 0 -152 -100h-20q51 208 252 208q94 0 152.5 -47.5t58.5 -120.5q0 -56 -33 -103t-88 -69q77 -22 124.5 -80
t47.5 -147q0 -94 -72.5 -158.5t-191.5 -64.5z" />
    <glyph glyph-name="uni2084" unicode="&#x2084;" horiz-adv-x="638" 
d="M526 -287h-247v11q38 55 38 116v54h-297v98l369 479h98v-448h127l-45 -129h-82v-54q0 -60 39 -116v-11zM317 309l-219 -286h219v286z" />
    <glyph glyph-name="uni2085" unicode="&#x2085;" horiz-adv-x="614" 
d="M268 -303q-183 0 -248 147h21q64 -67 160 -67q71 0 112 40.5t41 106.5q0 93 -81 145.5t-212 67.5l142 334h356l-47 -117h-311l-33 -78q173 -26 277 -111t104 -220q0 -111 -77 -179.5t-204 -68.5z" />
    <glyph glyph-name="uni2086" unicode="&#x2086;" horiz-adv-x="659" 
d="M350 -303q-143 0 -227 82t-84 235q0 85 27.5 161.5t81.5 140.5t143.5 107t204.5 54v-20q-136 -43 -199.5 -152.5t-63.5 -306.5q0 -264 111 -264q47 0 78 54t31 159q0 113 -32.5 166t-86.5 53q-36 0 -62 -16v26q40 27 95 27q121 0 197.5 -66.5t76.5 -181.5t-81.5 -186.5
t-209.5 -71.5z" />
    <glyph glyph-name="uni2087" unicode="&#x2087;" horiz-adv-x="555" 
d="M338 -287h-225l340 623h-328q-82 0 -117 -72h-20l67 207h482v-29z" />
    <glyph glyph-name="uni2088" unicode="&#x2088;" horiz-adv-x="677" 
d="M436 162q108 -56 158.5 -116.5t50.5 -133.5q0 -98 -81 -156.5t-230 -58.5q-139 0 -214 54t-75 136q0 68 42.5 115.5t115.5 71.5q-127 81 -127 205q0 93 72 150.5t198 57.5q121 0 189.5 -46.5t68.5 -118.5q0 -111 -168 -160zM354 451q-48 0 -78 -31t-30 -82
q0 -48 36 -84.5t124 -77.5q57 57 57 141q0 64 -30 99t-79 35zM338 -266q57 0 91 32.5t34 83.5q0 47 -39.5 89t-142.5 92q-7 3 -41 20q-45 -52 -45 -141q0 -85 40 -130.5t103 -45.5z" />
    <glyph glyph-name="uni2089" unicode="&#x2089;" horiz-adv-x="659" 
d="M164 -293v21q136 43 199 152t63 306q0 265 -111 265q-47 0 -77.5 -54t-30.5 -159q0 -113 32.5 -166.5t86.5 -53.5q32 0 61 15v-25q-39 -26 -94 -26q-121 0 -198 66t-77 181t81.5 186.5t209.5 71.5q143 0 227.5 -82t84.5 -235q0 -85 -27.5 -161.5t-81.5 -140.5
t-143.5 -107t-204.5 -54z" />
    <glyph glyph-name="uni20A9" unicode="&#x20a9;" horiz-adv-x="1984" 
d="M1921 1434v-11q-72 -53 -117 -116t-71 -148l-62 -201h240l-21 -51h-235l-62 -196h318l-21 -52h-311l-205 -659h-168l-233 756l-236 -756h-168l-202 659h-289l22 52h250l-61 196h-211l22 51h174l-63 203q-49 155 -148 262v11h502v-11q-87 -109 -41 -264l62 -201h323
l-63 203q-54 167 -139 262v11h501v-11q-92 -115 -47 -264l62 -201h385l57 189q54 179 -47 276v11h303zM659 711h238l45 145l-16 51h-326zM1296 711h238l59 196h-356zM883 659h-207l102 -340zM1313 659l102 -340l103 340h-205z" />
    <glyph glyph-name="Euro" unicode="&#x20ac;" horiz-adv-x="1386" 
d="M1331 475h21q-35 -220 -183.5 -361t-367.5 -141q-264 0 -443.5 179t-205.5 462h-154l20 52h129v34q0 46 7 111h-125l20 51h113q51 269 250 433.5t479 164.5q101 0 210.5 -28.5t178.5 -63.5v-383h-20q-58 176 -180.5 295t-270.5 119q-175 0 -292.5 -145t-123.5 -392h449
l-21 -51h-428q2 -59 17 -145h401l-20 -52h-369q54 -198 189 -317t307 -119q279 0 413 297z" />
    <glyph glyph-name="uni20B4" unicode="&#x20b4;" horiz-adv-x="1333" 
d="M1044 836h185l-23 -52h-1071l21 52h460q51 37 90 72.5t77 81t58.5 98t20.5 106.5q0 99 -60.5 154t-158.5 55q-247 0 -391 -383h-21v354q72 32 191 59t242 27q247 0 374 -95.5t127 -254.5q0 -156 -121 -274zM317 598h-182l21 51h1073l-23 -51h-458q-51 -37 -90 -72.5
t-77 -81t-58.5 -98t-20.5 -106.5q0 -99 60.5 -154t158.5 -55q132 0 225 96.5t166 286.5h21v-355q-72 -32 -191 -59t-244 -27q-246 0 -372.5 96t-126.5 255q0 156 118 274z" />
    <glyph glyph-name="uni20B8" unicode="&#x20b8;" horiz-adv-x="1374" 
d="M1319 1382h-1264v52h1264v-52zM907 0h-440v10q72 97 72 258v938h-68q-158 0 -264.5 -93t-181.5 -263h-21l51 407h1264l51 -407h-20q-75 170 -182 263t-265 93h-67v-938q0 -163 71 -258v-10z" />
    <glyph glyph-name="uni20B9" unicode="&#x20b9;" horiz-adv-x="1220" 
d="M967 1112h233l-20 -51h-209v-6q0 -69 -24 -128t-64 -100t-93.5 -71t-111 -45.5t-117.5 -18.5v-8q53 -2 98 -17.5t80.5 -45t62 -61t51 -78t39.5 -81.5t34 -86q19 -50 30 -78t30 -66t35 -58t38.5 -35t46.5 -15q34 0 59 25l17 -14q-27 -42 -88.5 -66t-135.5 -24
q-46 0 -86.5 8.5t-72 21.5t-61 36.5t-50 44t-41 54.5t-33.5 58t-28.5 64.5t-23.5 63.5t-21 64q-18 56 -28.5 85.5t-30.5 71.5t-39.5 63t-49 37t-65.5 16h-238v51h272q148 0 225 86.5t77 245.5v6h-590l20 51h568q-14 124 -90 197t-218 73h-272l22 52h1104l-20 -52h-428v-10
q185 -89 207 -260z" />
    <glyph glyph-name="uni20BA" unicode="&#x20ba;" horiz-adv-x="1247" 
d="M948 410v75h287q0 -244 -123.5 -364.5t-374.5 -120.5h-538v10q71 95 71 258v301l-217 -84v56l217 84v161l-217 -84v54l217 84v325q0 163 -71 258v11h440v-11q-72 -97 -72 -258v-211l394 154v-55l-394 -152v-162l394 152v-53l-394 -154v-631h90q138 0 214.5 88.5
t76.5 268.5z" />
    <glyph glyph-name="uni20BD" unicode="&#x20bd;" horiz-adv-x="1355" 
d="M758 610h-217v-129h458l-20 -51h-438v-162q0 -163 71 -258v-10h-440v10q72 97 72 258v162h-181l21 51h160v129h-181l21 52h160v503q0 161 -72 258v11h582q87 0 165 -12t152.5 -41.5t128.5 -75t86.5 -117.5t32.5 -164q0 -89 -32 -160t-85 -117.5t-126 -78t-152 -45
t-166 -13.5zM541 1354v-692h157q156 0 235 102.5t79 263.5q0 68 -18.5 130t-54.5 113.5t-96.5 82t-137.5 30.5q-85 0 -164 -30z" />
    <glyph glyph-name="uni20BF" unicode="&#x20bf;" horiz-adv-x="1396" 
d="M1311 393q0 -98 -41 -173t-112.5 -120t-156.5 -68.5t-184 -29.5v-207h-61v205h-4h-152v-205h-61v205h-396v10q72 97 72 258v897q0 161 -72 258v11h396v194h61v-194h152h4v194h61v-196q91 -5 167 -26.5t138.5 -60.5t97.5 -103t35 -148q0 -71 -28 -129t-75 -96
t-101.5 -61.5t-114.5 -33.5v-8q73 -9 138.5 -36.5t119 -72.5t85.5 -113.5t32 -150.5zM512 1356v-563h150q134 0 210 82t76 215q0 129 -76 211.5t-208 82.5q-76 0 -152 -28zM678 49q144 0 232.5 93t88.5 251q0 164 -89.5 256t-241.5 92h-156v-655q67 -37 166 -37z" />
    <glyph glyph-name="uni2113" unicode="&#x2113;" horiz-adv-x="845" 
d="M537 68q49 0 89 22.5t74 81.5h21q-32 -103 -96.5 -151t-171.5 -48q-128 0 -199.5 74.5t-71.5 216.5v232q-57 -18 -145 -35v31q80 30 145 65v578q0 165 74.5 245t210.5 80q134 0 207.5 -78t73.5 -227q0 -169 -97.5 -325t-281.5 -255v-282q0 -115 45.5 -170t122.5 -55z
M369 1137v-453q58 53 97.5 112t58.5 120t26.5 114t7.5 115q0 268 -92 268q-35 0 -55 -21.5t-31.5 -83t-11.5 -171.5z" />
    <glyph glyph-name="uni2116" unicode="&#x2116;" horiz-adv-x="2271" 
d="M1835 788q-147 0 -247.5 90t-100.5 246t100.5 246t247.5 90t247.5 -90t100.5 -246t-100.5 -246t-247.5 -90zM389 0h-283v12q111 131 111 256v899q0 125 -111 256v11h365l746 -992v723q0 125 -111 256v13h283v-13q-111 -131 -111 -256v-1165h-76l-923 1212v-944
q0 -126 110 -256v-12zM1835 829q68 0 111 76t43 219t-43 219t-111 76t-111 -76t-43 -219t43 -219t111 -76zM2169 580h-668v65h668v-65z" />
    <glyph glyph-name="uni2117" unicode="&#x2117;" horiz-adv-x="1716" 
d="M858 -27q-164 0 -309.5 58t-249.5 157.5t-164.5 237t-60.5 291.5t60.5 291.5t164.5 236.5t249.5 157t309.5 58t309.5 -58t249.5 -157t164.5 -236.5t60.5 -291.5t-60.5 -291.5t-164.5 -237t-249.5 -157.5t-309.5 -58zM858 31q142 0 261.5 54.5t199.5 148t124 218t44 265.5
t-44 265.5t-124 218t-199.5 148t-261.5 54.5q-188 0 -333 -93.5t-220.5 -249t-75.5 -343.5t75.5 -343.5t220.5 -249t333 -93.5zM797 287h-269v6q43 55 43 151v525q0 93 -43 151v6h363q74 0 135.5 -14.5t112.5 -46t79.5 -86.5t28.5 -129q0 -92 -47 -156t-116 -91.5
t-150 -27.5q-64 0 -125 21v29q39 -9 78 -9q78 0 126 67t48 167q0 104 -52 169.5t-147 65.5q-61 0 -110 -18v-623q0 -97 45 -151v-6z" />
    <glyph glyph-name="trademark" unicode="&#x2122;" horiz-adv-x="1368" 
d="M440 909h-223v11q35 45 35 114v355h-31q-56 0 -90 -26.5t-55 -84.5h-17l23 156h491l25 -156h-16q-39 111 -146 111h-30v-355q0 -71 34 -114v-11zM764 909h-117v11q37 43 37 114v275q0 71 -37 114v11h174l152 -314l149 314h164v-11q-35 -45 -35 -114v-275q0 -69 35 -114
v-11h-225v11q35 45 35 114v246l-174 -371h-13l-180 363v-238q0 -69 35 -114v-11z" />
    <glyph glyph-name="estimated" unicode="&#x212e;" horiz-adv-x="1677" 
d="M868 -41q-166 0 -311.5 58t-247.5 156.5t-160.5 234.5t-58.5 288q0 202 99 371.5t273.5 268t385.5 98.5q159 0 299.5 -57.5t241 -157t159 -238t58.5 -295.5h-1180q-29 0 -29 -31v-413q0 -66 77 -121t184 -83t210 -28q94 0 183 26.5t149.5 63.5t108.5 79t71 69.5t27 38.5
h117q-10 -17 -36 -47.5t-86 -81.5t-131.5 -93.5t-179.5 -74t-223 -31.5zM426 737h844q28 0 28 31v389q0 52 -47 96.5t-117.5 71.5t-146 42t-139.5 15q-66 0 -142 -15t-146 -42t-116.5 -71.5t-46.5 -96.5v-389q0 -31 29 -31z" />
    <glyph glyph-name="arrowleft" unicode="&#x2190;" horiz-adv-x="1933" 
d="M813 281h-20q-38 71 -100 132t-126.5 102t-139 73.5t-131.5 49.5t-110 28v20q53 10 110 26.5t131.5 49t139 73t126.5 102t100 132.5h20q-46 -247 -207 -367h195q281 0 514 27.5t344 61.5q14 -58 14 -117t-14 -117q-113 35 -346 63.5t-512 28.5h-195q162 -125 207 -368z
" />
    <glyph glyph-name="arrowup" unicode="&#x2191;" horiz-adv-x="1933" 
d="M967 -27q-55 0 -117 15q34 112 62 345t28 513v194q-119 -160 -367 -206v20q71 38 132 99.5t102 126.5t73 139t49 131.5t27 109.5h21q14 -69 39.5 -143.5t69.5 -165t116 -170.5t160 -127v-20q-245 45 -369 206v-194q0 -280 28 -513t62 -345q-58 -15 -116 -15z" />
    <glyph glyph-name="arrowright" unicode="&#x2192;" horiz-adv-x="1933" 
d="M1141 281h-21q45 243 207 368h-194q-279 0 -512.5 -28.5t-346.5 -63.5q-14 58 -14 117t14 117q111 -34 344.5 -61.5t514.5 -27.5h194q-161 120 -207 367h21q38 -71 99.5 -132.5t126.5 -102t139 -72.5t131 -49t110 -27v-20q-53 -11 -110 -28t-131 -49.5t-139 -73.5
t-126.5 -102t-99.5 -132z" />
    <glyph glyph-name="arrowdown" unicode="&#x2193;" horiz-adv-x="1933" 
d="M977 -27h-21q-10 52 -27 109.5t-49 132t-73 139t-102 126.5t-132 100v20q247 -46 367 -207v195q0 280 -28 513t-62 345q58 14 117 14q62 0 116 -14q-34 -112 -62 -345t-28 -513v-195q125 162 369 207v-20q-71 -38 -132.5 -100t-102 -126.5t-73 -139t-49.5 -131.5
t-28 -110z" />
    <glyph glyph-name="uni2196" unicode="&#x2196;" horiz-adv-x="1933" 
d="M1393 113q-58 108 -202 292t-341 379l-137 136q25 -204 -113 -406l-14 14q19 65 22 136t-8.5 137.5t-30 129.5t-45 119.5t-50.5 99.5t-48 79l14 14q37 -24 79.5 -47.5t100 -50t120 -45t129 -30t137.5 -8.5t135 23l14 -14q-200 -138 -403 -113l135 -137
q195 -198 380.5 -342.5t291.5 -199.5q-23 -42 -74 -93q-50 -50 -92 -73z" />
    <glyph glyph-name="uni2197" unicode="&#x2197;" horiz-adv-x="1933" 
d="M541 113q-38 23 -92 73q-46 46 -72 93q106 55 291.5 199.5t380.5 342.5l135 137q-204 -25 -406 113l15 14q65 -20 136 -23t137.5 8.5t129 30t119.5 45t99.5 50t78.5 47.5l14 -14q-30 -44 -58.5 -96.5t-58 -128t-46.5 -150.5t-17 -162t23 -164l-15 -14q-45 66 -72.5 130.5
t-35 111.5t-10 92t3.5 72l-136 -136q-198 -198 -343 -382.5t-201 -288.5z" />
    <glyph glyph-name="uni2198" unicode="&#x2198;" horiz-adv-x="1933" 
d="M1507 127l-14 -14q-44 30 -96.5 58.5t-128 58t-150 46.5t-161.5 17t-164 -23l-15 15q203 139 406 114l-135 138q-194 197 -378.5 340t-293.5 202q25 45 72 92q51 48 92 72q55 -100 201 -284.5t343 -385.5l136 -137q-21 211 114 406l15 -15q-23 -77 -23 -164t17 -161
t46.5 -149.5t58 -128t58.5 -97.5z" />
    <glyph glyph-name="uni2199" unicode="&#x2199;" horiz-adv-x="1933" 
d="M440 113l-14 14q25 37 48.5 79.5t50 99.5t45 119.5t30 128.5t8.5 137t-22 136l14 15q138 -200 113 -406l137 137q196 196 341 380.5t202 289.5q45 -25 92 -72q52 -52 74 -92q-109 -59 -293.5 -202t-378.5 -340l-135 -138q202 25 403 -114l-14 -15q-76 23 -163 23
t-161.5 -17t-150 -46.5t-128.5 -58t-98 -58.5z" />
    <glyph glyph-name="minus" unicode="&#x2212;" 
d="M1014 682h-817v72h817v-72z" />
    <glyph glyph-name="approxequal" unicode="&#x2248;" 
d="M795 766q-89 0 -222 63q-42 21 -65.5 31t-64 20.5t-78.5 10.5q-105 0 -201 -96l-27 16q54 94 119 143.5t158 49.5q39 0 81 -10.5t66.5 -21t71.5 -32.5q124 -61 211 -61q106 0 200 94l27 -17q-54 -94 -118 -142t-158 -48zM795 430q-87 0 -222 64q-41 20 -65.5 30.5
t-64.5 20.5t-78 10q-104 0 -201 -94l-27 16q54 93 119 142t158 49q39 0 81 -10.5t66.5 -21t71.5 -32.5q124 -61 211 -61q107 0 200 96l27 -16q-54 -95 -118 -144t-158 -49z" />
    <glyph glyph-name="notequal" unicode="&#x2260;" 
d="M1014 913v-71h-320l-100 -248h420v-72h-449l-90 -221h-78l90 221h-290v72h319l100 248h-419v71h450l88 220h76l-88 -220h291z" />
    <glyph glyph-name="lessequal" unicode="&#x2264;" 
d="M946 543v-86l-737 334v49l737 331v-86l-604 -270zM946 291h-737v71h737v-71z" />
    <glyph glyph-name="greaterequal" unicode="&#x2265;" 
d="M999 791l-737 -334v86l602 272l-602 270v86l737 -331v-49zM999 291h-737v71h737v-71z" />
    <glyph glyph-name="lozenge" unicode="&#x25ca;" horiz-adv-x="1093" 
d="M590 0h-84l-445 717l445 717h84l442 -717zM158 717l379 -621h20l381 621l-381 620h-20z" />
    <glyph glyph-name="uni261A" unicode="&#x261a;" horiz-adv-x="2002" 
d="M803 1071l-268 -123q-14 5 -28 20t-20 33q-21 -65 -98 -65h-196q-44 0 -78.5 28.5t-34.5 63.5q0 43 43 43h680zM1860 944q41 -189 41 -344q0 -159 -41 -344q-7 -31 -37 -31h-248q-11 0 -23 19.5t-22 60.5t-10 90v72l-62 -39q-48 -31 -129 -31h-258l33 29q64 58 80 90
q39 -39 139 -39q-42 31 -62 61t-22 48q171 0 221 100q-79 -27 -166 -27q-97 0 -156.5 42t-109.5 133q36 11 62 33.5t34 43.5q-48 -28 -159 -28h-39q-132 0 -166 65q-27 -79 -88 -112q-45 -25 -99 -25q-31 0 -53 14q36 7 84.5 32.5t48.5 55.5q0 18 -18 41l215 93
q60 24 115 24q29 0 77.5 -10t90.5 -29l399 -168q7 58 15.5 84.5t27.5 26.5h248q30 0 37 -31zM621 913q0 -12 -48 -34.5t-65 -22.5q-14 0 -14 14q0 19 24 31l86 39q17 -17 17 -27zM1579 268h70q34 161 34 332t-34 332h-70q39 -170 39 -332t-39 -332zM838 684h-172
q-31 0 -58 23t-28 65h4q54 0 110 21q118 47 191 47h8q64 0 96.5 -23.5t32.5 -58.5q0 -11 -6.5 -19t-13 -11.5t-19.5 -8.5l-22 51q-9 21 -33 21q-9 0 -49 -17q-50 -20 -50 -57q0 -18 9 -33zM922 756q8 0 12 -11l16 -36l-73 -25l-11 14q-6 9 -6 19q0 17 31 28q27 11 31 11z
M907 532h-174q-39 0 -66.5 30.5t-27.5 78.5v4q16 -4 27 -4h184q31 0 49 6l80 25q38 10 59 10q29 0 48.5 -17.5t19.5 -41.5q0 -14 -11.5 -24.5t-45.5 -23.5l-21 41q-10 23 -31 23q-11 0 -51 -16q-49 -20 -49 -58q0 -20 10 -33zM993 604q7 0 11 -8l14 -33l-74 -26
q-12 16 -12 28q0 17 29 29q25 10 32 10zM958 440q0 -27 21 -43h-174q-28 0 -50 20.5t-22 53.5q0 8 2 18h156q24 0 59 13l74 28q28 11 47 11q18 0 29.5 -8t11.5 -23q0 -18 -20 -35l-25 27q-8 8 -23 8q-17 0 -40 -14q-46 -29 -46 -56zM1057 473l14 -16l-57 -51q-23 23 -23 36
q0 11 23 29q15 12 24 12q11 0 19 -10z" />
    <glyph glyph-name="uni261B" unicode="&#x261b;" horiz-adv-x="2002" 
d="M1350 913q0 -30 48.5 -55.5t84.5 -32.5q-22 -14 -53 -14q-54 0 -99 25q-61 33 -88 112q-34 -65 -166 -65h-39q-111 0 -159 28q8 -21 34 -43.5t62 -33.5q-50 -91 -109.5 -133t-156.5 -42q-87 0 -166 27q50 -100 221 -100q-2 -18 -22 -48t-62 -61q100 0 139 39
q16 -32 80 -90l33 -29h-258q-81 0 -129 31l-62 39v-72q0 -49 -10 -90t-22 -60.5t-23 -19.5h-248q-30 0 -37 31q-41 185 -41 344q0 155 41 344q7 31 37 31h248q19 0 27.5 -26.5t15.5 -84.5l399 168q42 19 90.5 29t77.5 10q55 0 115 -24l215 -93q-18 -23 -18 -41zM1200 1071
h680q43 0 43 -43q0 -35 -34.5 -63.5t-78.5 -28.5h-196q-77 0 -98 65q-6 -18 -20 -33t-28 -20zM1399 940l86 -39q24 -12 24 -31q0 -14 -14 -14q-17 0 -65 22.5t-48 34.5q0 10 17 27zM354 268h70q-39 170 -39 332t39 332h-70q-35 -166 -35 -332t35 -332zM1309 793
q55 -21 110 -21h4q-1 -42 -28 -65t-58 -23h-172q9 15 9 33q0 37 -50 57q-40 17 -49 17q-24 0 -33 -21l-22 -51q-13 5 -19.5 8.5t-13 11.5t-6.5 19q0 35 32.5 58.5t96.5 23.5h8q73 0 191 -47zM1137 698l-11 -14l-73 25l16 36q4 11 12 11q3 0 31 -11q31 -11 31 -28
q0 -10 -6 -19zM1153 641h184q11 0 27 4v-4q0 -48 -27.5 -78.5t-66.5 -30.5h-174q10 13 10 33q0 38 -49 58q-40 16 -51 16q-21 0 -31 -23l-21 -41q-34 13 -45.5 23.5t-11.5 24.5q0 24 19.5 41.5t48.5 17.5q21 0 59 -10l80 -25q18 -6 49 -6zM1071 565q0 -12 -12 -28l-74 26
l14 33q4 8 11 8t32 -10q29 -12 29 -29zM1112 489h156q2 -10 2 -18q0 -33 -22 -53.5t-50 -20.5h-174q20 16 20 43q0 28 -45 56q-23 14 -41 14q-14 0 -22 -8l-25 -27q-20 17 -20 35q0 15 11.5 23t29.5 8q20 0 47 -11l74 -28q35 -13 59 -13zM989 471q23 -18 23 -29
q0 -13 -23 -36l-57 51l14 16q8 10 19 10q9 0 24 -12z" />
    <glyph glyph-name="uni261C" unicode="&#x261c;" horiz-adv-x="2002" 
d="M1864 944q41 -189 41 -344q0 -159 -41 -344q-7 -31 -37 -31h-248q-11 0 -23 20t-22.5 63t-13.5 98l-35 -23q-62 -39 -152 -39h-516q-59 0 -95 36t-36 91q0 15 2 25q-40 12 -64 50.5t-24 94.5q0 15 2 21q-61 36 -61 108v6q-42 9 -64 34t-22 58q0 13 6 25h-264
q-65 0 -110.5 40.5t-45.5 94.5q0 38 25 62t63 24h795q133 0 221 -39l393 -166q6 25 18.5 45.5t22.5 20.5h248q30 0 37 -31zM393 936q78 0 99 65q6 -18 19.5 -33t27.5 -20l268 123h-680q-43 0 -43 -43q0 -35 34.5 -63.5t78.5 -28.5q77 0 98 65q21 -65 98 -65zM1577 557
q2 14 2 43q0 125 -25 256l-417 176q-42 19 -90.5 29t-77.5 10q-55 0 -115 -24l-215 -93q18 -23 18 -41q0 -30 -48.5 -55.5t-84.5 -32.5q22 -14 54 -14q53 0 98 25q61 33 88 112q34 -65 166 -65h39q111 0 159 28q-8 -21 -34 -43.5t-62 -33.5q50 -91 109.5 -133t156.5 -42
q87 0 166 27q-50 -100 -221 -100q2 -18 22 -48t62 -61q-98 0 -139 29q-3 -22 -16 -38t-52 -52l-33 -29h246q57 0 129 37l45 22q-74 11 -108 29q54 8 94 26t84 56zM498 870q0 -14 14 -14q17 0 65 22.5t48 34.5q0 10 -17 27l-86 -39q-24 -12 -24 -31zM1583 268h70
q35 166 35 332t-35 332h-70q39 -170 39 -332t-39 -332zM584 772q3 -42 29.5 -65t56.5 -23q77 0 98 66q7 -23 28 -44.5t46 -21.5q-8 13 -8 33q0 37 49 57q40 17 49 17q24 0 33 -21l22 -51q13 5 19.5 8.5t13 11.5t6.5 19q0 35 -32.5 58.5t-96.5 23.5h-8q-73 0 -191 -47
q-56 -21 -110 -21h-4zM881 684l73 25l-16 36q-4 11 -12 11q-4 0 -31 -11q-31 -11 -31 -28q0 -10 6 -19zM643 645v-4q0 -48 27.5 -78.5t66.5 -30.5q44 0 67.5 20.5t31.5 45.5q18 -55 75 -63q-10 13 -10 30q0 38 49 58q40 16 51 16q21 0 31 -23l21 -41q34 13 45.5 23.5
t11.5 24.5q0 24 -19.5 41.5t-48.5 17.5q-21 0 -59 -10l-80 -25q-18 -6 -49 -6h-184q-11 0 -27 4zM948 537l74 26l-14 33q-4 8 -11 8t-32 -10q-29 -12 -29 -29q0 -12 12 -28zM905 453q17 -53 84 -66q-24 19 -24 39q0 15 9.5 28t35.5 33q24 19 39 19q10 0 24 -14l31 -31
q35 22 35 47q0 33 -52 33q-18 0 -47 -11l-96 -36q-12 -5 -37 -5h-176q-2 -10 -2 -18q0 -39 26.5 -61.5t61.5 -22.5q37 0 58.5 20.5t29.5 45.5zM1028 393l49 45l-22 23q-8 8 -13 8q-7 0 -22 -12q-23 -18 -23 -33q0 -18 31 -31z" />
    </font>
</defs>
</svg>
