<svg width="47" height="44" viewBox="0 0 47 44" fill="none" xmlns="http://www.w3.org/2000/svg">
<path d="M22.9133 0.437696L18.1883 11.8799C18.1708 11.955 18.1366 12.0259 18.0879 12.0881C18.0391 12.1504 17.9769 12.2026 17.9052 12.2414C17.8334 12.2803 17.7537 12.3049 17.6711 12.3138C17.5886 12.3227 17.5049 12.3157 17.4254 12.2931L5.31292 8.86606C5.19735 8.83317 5.07373 8.83321 4.95819 8.86619C4.84266 8.89917 4.74055 8.96355 4.66521 9.05093C4.58987 9.1383 4.54479 9.24463 4.53585 9.35603C4.52691 9.46743 4.55452 9.57873 4.61508 9.67542L10.9763 19.9003C11.0515 20.0212 11.0747 20.1639 11.0411 20.2998C11.0075 20.4358 10.9197 20.555 10.7952 20.6339L0.26099 27.3023C0.161617 27.3652 0.0850296 27.4542 0.0411797 27.5578C-0.00267029 27.6615 -0.0117455 27.7749 0.0151253 27.8833C0.0419998 27.9918 0.10358 28.0903 0.19186 28.166C0.28014 28.2417 0.391033 28.2911 0.510124 28.3078L13.1307 30.0808C13.2803 30.1021 13.4157 30.1746 13.5101 30.2838C13.6045 30.393 13.651 30.5311 13.6403 30.6705L12.7061 42.4318C12.6973 42.5428 12.7249 42.6536 12.7852 42.7499C12.8456 42.8463 12.9359 42.9236 13.0445 42.9718C13.1531 43.0201 13.2749 43.037 13.394 43.0204C13.5131 43.0039 13.6241 42.9546 13.7125 42.8789L23.0874 34.8755C23.1985 34.781 23.344 34.7285 23.495 34.7285C23.6461 34.7285 23.7916 34.781 23.9027 34.8755L33.279 42.8789C33.3674 42.9546 33.4784 43.0039 33.5975 43.0204C33.7166 43.037 33.8384 43.0201 33.947 42.9718C34.0556 42.9236 34.1459 42.8463 34.2063 42.7499C34.2666 42.6536 34.2942 42.5428 34.2854 42.4318L33.3568 30.6705C33.3462 30.5313 33.3925 30.3934 33.4866 30.2842C33.5807 30.175 33.7157 30.1024 33.865 30.0808L46.4899 28.2999C46.609 28.2832 46.7199 28.2338 46.8081 28.1581C46.8964 28.0824 46.958 27.984 46.9849 27.8755C47.0117 27.767 47.0027 27.6536 46.9588 27.55C46.915 27.4464 46.8384 27.3573 46.739 27.2944L36.2048 20.626C36.0803 20.5472 35.9925 20.4279 35.9589 20.292C35.9253 20.156 35.9485 20.0134 36.0237 19.8925L42.3849 9.67542C42.4445 9.57878 42.4714 9.46783 42.462 9.35694C42.4526 9.24605 42.4074 9.14031 42.3322 9.05341C42.2571 8.96651 42.1554 8.90245 42.0404 8.86952C41.9253 8.83658 41.8023 8.83629 41.6871 8.86867L29.5746 12.2905C29.4951 12.313 29.4114 12.3201 29.3289 12.3112C29.2463 12.3023 29.1666 12.2776 29.0948 12.2388C29.0231 12.2 28.9609 12.1478 28.9121 12.0855C28.8634 12.0233 28.8292 11.9524 28.8117 11.8773L24.0867 0.437696C24.0578 0.313771 23.9838 0.202733 23.8771 0.123088C23.7703 0.0434426 23.6372 0 23.5 0C23.3628 0 23.2297 0.0434426 23.1229 0.123088C23.0162 0.202733 22.9422 0.313771 22.9133 0.437696Z" fill="#9EB7AE"/>
</svg>
