<svg width="47" height="44" viewBox="0 0 47 44" fill="none" xmlns="http://www.w3.org/2000/svg">
<path d="M22.9133 0.437697L18.1883 11.88C18.1708 11.955 18.1366 12.026 18.0879 12.0882C18.0391 12.1504 17.9769 12.2026 17.9052 12.2415C17.8334 12.2803 17.7537 12.305 17.6711 12.3139C17.5886 12.3227 17.5049 12.3157 17.4254 12.2931L5.31292 8.86608C5.19735 8.83319 5.07373 8.83324 4.95819 8.86622C4.84266 8.89919 4.74055 8.96357 4.66521 9.05095C4.58987 9.13833 4.54479 9.24465 4.53585 9.35606C4.52691 9.46746 4.55452 9.57876 4.61508 9.67545L10.9763 19.9004C11.0515 20.0213 11.0747 20.1639 11.0411 20.2999C11.0075 20.4358 10.9197 20.5551 10.7952 20.6339L0.26099 27.3024C0.161617 27.3652 0.0850296 27.4543 0.0411797 27.5579C-0.00267029 27.6615 -0.0117455 27.775 0.0151253 27.8834C0.0419998 27.9919 0.10358 28.0904 0.19186 28.1661C0.28014 28.2418 0.391033 28.2912 0.510124 28.3079L13.1307 30.0809C13.2803 30.1022 13.4157 30.1747 13.5101 30.2839C13.6045 30.3931 13.651 30.5312 13.6403 30.6706L12.7061 42.4319C12.6973 42.5429 12.7249 42.6537 12.7852 42.7501C12.8456 42.8464 12.9359 42.9237 13.0445 42.9719C13.1531 43.0202 13.2749 43.0371 13.394 43.0206C13.5131 43.004 13.6241 42.9547 13.7125 42.8791L23.0874 34.8756C23.1985 34.7811 23.344 34.7286 23.495 34.7286C23.6461 34.7286 23.7916 34.7811 23.9027 34.8756L33.279 42.8791C33.3674 42.9547 33.4784 43.004 33.5975 43.0206C33.7166 43.0371 33.8384 43.0202 33.947 42.9719C34.0556 42.9237 34.1459 42.8464 34.2063 42.7501C34.2666 42.6537 34.2942 42.5429 34.2854 42.4319L33.3568 30.6706C33.3462 30.5313 33.3925 30.3935 33.4866 30.2843C33.5807 30.1751 33.7157 30.1025 33.865 30.0809L46.4899 28.3C46.609 28.2833 46.7199 28.2339 46.8081 28.1582C46.8964 28.0825 46.958 27.984 46.9849 27.8756C47.0117 27.7671 47.0027 27.6537 46.9588 27.5501C46.915 27.4464 46.8384 27.3574 46.739 27.2945L36.2048 20.6261C36.0803 20.5473 35.9925 20.428 35.9589 20.292C35.9253 20.1561 35.9485 20.0135 36.0237 19.8925L42.3849 9.67545C42.4445 9.57881 42.4714 9.46786 42.462 9.35697C42.4526 9.24607 42.4074 9.14034 42.3322 9.05344C42.2571 8.96654 42.1554 8.90248 42.0404 8.86954C41.9253 8.83661 41.8023 8.83631 41.6871 8.8687L29.5746 12.2905C29.4951 12.3131 29.4114 12.3201 29.3289 12.3112C29.2463 12.3023 29.1666 12.2777 29.0948 12.2388C29.0231 12.2 28.9609 12.1478 28.9121 12.0856C28.8634 12.0233 28.8292 11.9524 28.8117 11.8773L24.0867 0.437697C24.0578 0.313772 23.9838 0.202734 23.8771 0.123088C23.7703 0.0434428 23.6372 0 23.5 0C23.3628 0 23.2297 0.0434428 23.1229 0.123088C23.0162 0.202734 22.9422 0.313772 22.9133 0.437697Z" fill="#CC5337"/>
</svg>
