<svg width="47" height="44" viewBox="0 0 47 44" fill="none" xmlns="http://www.w3.org/2000/svg">
<path d="M22.9133 0.437693L18.1883 11.8799C18.1708 11.9549 18.1366 12.0258 18.0879 12.0881C18.0391 12.1503 17.9769 12.2025 17.9052 12.2413C17.8334 12.2802 17.7537 12.3048 17.6711 12.3137C17.5886 12.3226 17.5049 12.3156 17.4254 12.293L5.31292 8.86601C5.19735 8.83312 5.07373 8.83317 4.95819 8.86614C4.84266 8.89912 4.74055 8.9635 4.66521 9.05087C4.58987 9.13825 4.54479 9.24458 4.53585 9.35598C4.52691 9.46737 4.55452 9.57868 4.61508 9.67537L10.9763 19.9002C11.0515 20.0211 11.0747 20.1638 11.0411 20.2997C11.0075 20.4357 10.9197 20.5549 10.7952 20.6337L0.26099 27.3021C0.161617 27.365 0.0850296 27.4541 0.0411797 27.5577C-0.00267029 27.6613 -0.0117455 27.7747 0.0151253 27.8832C0.0419998 27.9916 0.10358 28.0901 0.19186 28.1658C0.28014 28.2415 0.391033 28.2909 0.510124 28.3076L13.1307 30.0806C13.2803 30.1019 13.4157 30.1744 13.5101 30.2836C13.6045 30.3929 13.651 30.5309 13.6403 30.6703L12.7061 42.4315C12.6973 42.5425 12.7249 42.6534 12.7852 42.7497C12.8456 42.846 12.9359 42.9233 13.0445 42.9716C13.1531 43.0198 13.2749 43.0368 13.394 43.0202C13.5131 43.0036 13.6241 42.9543 13.7125 42.8787L23.0874 34.8753C23.1985 34.7808 23.344 34.7283 23.495 34.7283C23.6461 34.7283 23.7916 34.7808 23.9027 34.8753L33.279 42.8787C33.3674 42.9543 33.4784 43.0036 33.5975 43.0202C33.7166 43.0368 33.8384 43.0198 33.947 42.9716C34.0556 42.9233 34.1459 42.846 34.2063 42.7497C34.2666 42.6534 34.2942 42.5425 34.2854 42.4315L33.3568 30.6703C33.3462 30.5311 33.3925 30.3932 33.4866 30.284C33.5807 30.1748 33.7157 30.1022 33.865 30.0806L46.4899 28.2998C46.609 28.2831 46.7199 28.2337 46.8081 28.158C46.8964 28.0823 46.958 27.9838 46.9849 27.8753C47.0117 27.7669 47.0027 27.6535 46.9588 27.5498C46.915 27.4462 46.8384 27.3572 46.739 27.2943L36.2048 20.6259C36.0803 20.5471 35.9925 20.4278 35.9589 20.2919C35.9253 20.1559 35.9485 20.0133 36.0237 19.8924L42.3849 9.67537C42.4445 9.57872 42.4714 9.46778 42.462 9.35689C42.4526 9.24599 42.4074 9.14026 42.3322 9.05336C42.2571 8.96646 42.1554 8.9024 42.0404 8.86947C41.9253 8.83653 41.8023 8.83624 41.6871 8.86862L29.5746 12.2904C29.4951 12.313 29.4114 12.32 29.3289 12.3111C29.2463 12.3022 29.1666 12.2776 29.0948 12.2387C29.0231 12.1999 28.9609 12.1477 28.9121 12.0855C28.8634 12.0232 28.8292 11.9523 28.8117 11.8772L24.0867 0.437693C24.0578 0.313769 23.9838 0.202732 23.8771 0.123087C23.7703 0.0434424 23.6372 0 23.5 0C23.3628 0 23.2297 0.0434424 23.1229 0.123087C23.0162 0.202732 22.9422 0.313769 22.9133 0.437693Z" fill="#EF9F8F"/>
</svg>
