<?xml version="1.0" standalone="no"?>
<!DOCTYPE svg PUBLIC "-//W3C//DTD SVG 1.1//EN" "http://www.w3.org/Graphics/SVG/1.1/DTD/svg11.dtd" >
<svg xmlns="http://www.w3.org/2000/svg" xmlns:xlink="http://www.w3.org/1999/xlink" version="1.1">
<metadata>
Created by FontForge 20200427 at Fri May 13 05:16:57 2016
 By www
Copyright (c)2016, Radnika designed by Alfredo Marco Pradil (ammpradil@gmail.com). Radnika is a trademark of Alfredo Marco Pradil.
</metadata>
<defs>
<font id="Radnika-Bold" horiz-adv-x="0" >
  <font-face 
    font-family="Radnika"
    font-weight="700"
    font-stretch="normal"
    units-per-em="1000"
    panose-1="0 0 8 0 0 0 0 0 0 0"
    ascent="800"
    descent="-200"
    x-height="512"
    cap-height="690"
    bbox="-642 -244 1084 1045"
    underline-thickness="40"
    underline-position="-100"
    unicode-range="U+0020-FB02"
  />
<missing-glyph horiz-adv-x="421" 
d="M11 488h400v-488h-400v488zM361 50v388h-300v-388h300z" />
    <glyph glyph-name="arrowleft" unicode="&#x3c;&#x2d;" horiz-adv-x="1084" 
d="M1069 248h-749l205 -110v-122l-525 296l525 291v-122l-204 -109h748v-124z" />
    <glyph glyph-name="arrowright" unicode="&#x2d;&#x3e;" horiz-adv-x="1084" 
d="M559 138l206 110h-749v124h749l-206 109v122l525 -291l-525 -296v122z" />
    <glyph glyph-name="fi" unicode="fi" horiz-adv-x="622" 
d="M557 0h-147v417h-155v-417h-147v417h-92v95h93v43q0 61 41 98t111 37h81v-106h-49q-38 0 -38 -39v-33h302v-512zM558 690v-113h-148v113h148z" />
    <glyph glyph-name="fl" unicode="fl" horiz-adv-x="643" 
d="M108 417h-92v95h93v43q0 61 41 98t111 37h97v-106h-65q-38 0 -38 -39v-33h103v-95h-103v-417h-147v417zM431 690h146v-690h-146v690z" />
    <glyph glyph-name="f_f" unicode="ff" horiz-adv-x="666" 
d="M555 552v-40h103v-95h-103v-417h-146v417h-154v-417h-146v417h-93v95h95v35q0 65 41.5 104t120.5 39h85v-105h-77q-26 0 -26 -33v-40h156v35q0 65 41.5 104t120.5 39h85v-105h-77q-26 0 -26 -33z" />
    <glyph glyph-name="f_f_i" unicode="ffi" horiz-adv-x="909" 
d="M448.5 651q41.5 39 120.5 39h85v-105h-77q-26 0 -26 -33v-40h103v-95h-103v-417h-146v417h-150v-417h-146v417h-93v95h95v35q0 65 41.5 104t120.5 39h85v-105h-77q-26 0 -26 -33v-40h152v35q0 65 41.5 104zM845 690v-113h-148v113h148zM697 512h147v-512h-147v512z" />
    <glyph glyph-name="f_f_l" unicode="ffl" horiz-adv-x="908" 
d="M446.5 651q41.5 39 120.5 39h85v-105h-77q-26 0 -26 -33v-40h103v-95h-103v-417h-146v417h-148v-417h-146v417h-93v95h95v35q0 65 41.5 104t120.5 39h85v-105h-77q-26 0 -26 -33v-40h150v35q0 65 41.5 104zM842 690v-690h-146v690h146z" />
    <glyph glyph-name=".notdef" horiz-adv-x="421" 
d="M11 488h400v-488h-400v488zM361 50v388h-300v-388h300z" />
    <glyph glyph-name=".null" 
 />
    <glyph glyph-name="nonmarkingreturn" horiz-adv-x="333" 
 />
    <glyph glyph-name="space" unicode=" " horiz-adv-x="229" 
 />
    <glyph glyph-name="exclam" unicode="!" horiz-adv-x="292" 
d="M78 690h137l-14 -469h-109zM72 148h149v-148h-149v148z" />
    <glyph glyph-name="quotedbl" unicode="&#x22;" horiz-adv-x="412" 
d="M53 690h119v-282h-119v282zM235 690h123v-282h-123v282z" />
    <glyph glyph-name="numbersign" unicode="#" horiz-adv-x="648" 
d="M136 198h-101v94h121l23 115h-105v92h124l40 191h98l-39 -184h117l39 184h97l-38 -189h101v-94h-120l-23 -115h105v-92h-124l-41 -200h-99l41 194h-117l-40 -194h-99zM371 292l23 115h-117l-23 -115h117z" />
    <glyph glyph-name="dollar" unicode="$" horiz-adv-x="573" 
d="M483 56.5q-64 -59.5 -168 -64.5v-72h-40v73q-81 6 -146.5 48.5t-109.5 119.5l108 83q30 -53 67.5 -83.5t80.5 -37.5v177l-16 5q-63 20 -104.5 40.5t-70.5 59.5t-29 100q0 88 60.5 139t159.5 56v70h40v-71q59 -4 111 -28.5t98 -75.5l-86 -93q-53 64 -123 76v-139l10 -3
q67 -22 112.5 -44.5t77.5 -66t32 -112.5q0 -97 -64 -156.5zM221.5 484.5q17.5 -15.5 53.5 -30.5v126q-33 -2 -52 -17t-19 -39t17.5 -39.5zM376.5 146.5q22.5 21.5 22.5 54.5q0 31 -21 50.5t-63 34.5v-164q39 3 61.5 24.5z" />
    <glyph glyph-name="percent" unicode="%" horiz-adv-x="779" 
d="M521 721h127l-396 -739h-127zM103 392.5q-33 27.5 -47 65.5t-14 73q0 38 13.5 76.5t46 66t85.5 27.5q49 0 82.5 -25.5t49 -64.5t15.5 -80q0 -40 -15.5 -78.5t-47.5 -63t-81 -24.5q-54 0 -87 27.5zM216 487q12 18 12 45q0 30 -12 48t-29 18q-18 0 -29.5 -18t-11.5 -49
q0 -28 11.5 -45t30.5 -17q16 0 28 18zM507 20.5q-33 27.5 -47 66t-14 75.5q0 38 13.5 78t46 68t85.5 28q49 0 82.5 -26.5t49 -66.5t15.5 -81t-15.5 -79.5t-48 -64t-80.5 -25.5q-54 0 -87 27.5zM620.5 114.5q11.5 19.5 11.5 48.5q0 31 -12 49.5t-29 18.5t-29 -19t-12 -50
q0 -30 12 -48.5t31 -18.5q16 0 27.5 19.5z" />
    <glyph glyph-name="ampersand" unicode="&#x26;" horiz-adv-x="703" 
d="M719 0h-188l-66 68q-73 -81 -195 -81q-65 0 -119.5 22.5t-88 67t-33.5 107.5q0 73 45 122.5t116 66.5q-89 61 -89 152q0 59 29.5 98t76.5 57.5t99 18.5q54 0 100 -19t74.5 -58t28.5 -96q0 -53 -30 -93.5t-106 -85.5l95 -95l130 182l99 -73l-143 -195zM260 564
q-19 -19 -19 -47q0 -23 13 -43.5t40 -46.5q46 25 63 45.5t17 45.5q0 27 -18.5 46t-47.5 19t-48 -19zM377 159l-124 129q-75 -29 -75 -94q0 -42 29 -66t69 -24q57 0 101 55z" />
    <glyph glyph-name="quotesingle" unicode="'" horiz-adv-x="225" 
d="M53 704h119v-282h-119v282z" />
    <glyph glyph-name="parenleft" unicode="(" horiz-adv-x="324" 
d="M77 13.5q-44 117.5 -44 270.5q0 287 145 446h119q-77 -87 -109.5 -188t-32.5 -256q0 -109 15.5 -186.5t45.5 -137.5t80 -124h-114q-61 58 -105 175.5z" />
    <glyph glyph-name="parenright" unicode=")" horiz-adv-x="325" 
d="M40 -162q50 64 80 124t45.5 137.5t15.5 186.5q0 155 -32.5 256t-109.5 188h119q145 -159 145 -446q0 -153 -44 -270.5t-105 -175.5h-114z" />
    <glyph glyph-name="asterisk" unicode="*" horiz-adv-x="356" 
d="M56 426l80 93l-115 18l25 84l105 -46l-13 115h84l-16 -115l107 46l22 -84l-112 -18l79 -93l-66 -52l-57 107l-56 -107z" />
    <glyph glyph-name="plus" unicode="+" horiz-adv-x="672" 
d="M281 250h-223v110h223v198h109v-198h223v-110h-223v-198h-109v198z" />
    <glyph glyph-name="comma" unicode="," horiz-adv-x="275" 
d="M221 158v-158h-1l-87 -150h-75l50 150h-64v158h177z" />
    <glyph glyph-name="hyphen" unicode="-" horiz-adv-x="357" 
d="M27 313h304v-120h-304v120z" />
    <glyph glyph-name="period" unicode="." horiz-adv-x="270" 
d="M46 158h177v-158h-177v158z" />
    <glyph glyph-name="slash" unicode="/" horiz-adv-x="524" 
d="M353 689h131l-312 -765h-132z" />
    <glyph glyph-name="zero" unicode="0" horiz-adv-x="591" 
d="M146.5 38q-61.5 48 -91 128t-29.5 179t29 179.5t88.5 128.5t147.5 48t150 -46.5t93 -127.5t31 -183q0 -101 -30.5 -181t-90.5 -126.5t-146 -46.5q-90 0 -151.5 48zM382.5 185.5q27.5 62.5 27.5 160.5t-28.5 159t-90.5 61q-61 0 -88.5 -61t-27.5 -160t28.5 -160.5
t91.5 -61.5q60 0 87.5 62.5z" />
    <glyph glyph-name="one" unicode="1" horiz-adv-x="455" 
d="M199 554l-157 -101v139l161 98h145v-690h-149v554z" />
    <glyph glyph-name="two" unicode="2" horiz-adv-x="601" 
d="M554 127v-127h-498v108q0 66 28.5 110.5t69 70t105.5 54.5q49 23 75 38t44 37.5t18 53.5q0 45 -24.5 72t-65.5 27q-48 0 -75 -35t-27 -98l-147 18q5 111 70 177t180 66q73 0 127 -27.5t83 -77t29 -113.5q0 -69 -29.5 -114.5t-71.5 -72t-107 -55.5q-65 -30 -96 -53
t-34 -59h346z" />
    <glyph glyph-name="three" unicode="3" horiz-adv-x="558" 
d="M154 17q-58 27 -93 81t-35 132l144 7q0 -54 31 -85.5t81 -31.5q44 0 74.5 25t30.5 69t-29.5 66.5t-79.5 22.5h-32v119h32q36 0 55.5 19t19.5 52q0 35 -23 55.5t-60 20.5q-41 0 -65.5 -26t-25.5 -68l-142 8q0 68 30.5 117t83 74.5t116.5 25.5q61 0 114 -23.5t85 -68
t32 -103.5q0 -52 -25 -86.5t-64 -47.5v-4q52 -10 87 -50.5t36 -109.5q0 -68 -35 -117t-93 -74.5t-124 -25.5q-68 0 -126 27z" />
    <glyph glyph-name="four" unicode="4" horiz-adv-x="579" 
d="M537 271v-121h-82v-150h-147v150h-281v119l278 421h150v-419h82zM308 520l-162 -249h162v249z" />
    <glyph glyph-name="five" unicode="5" horiz-adv-x="589" 
d="M450.5 445q49.5 -29 77.5 -81t28 -119q0 -73 -34.5 -131.5t-95 -91t-133.5 -32.5q-92 0 -163.5 55t-97.5 143l141 42q15 -46 46.5 -73.5t72.5 -27.5q49 0 79.5 32.5t30.5 83.5q0 50 -32 81.5t-81 31.5q-31 0 -57.5 -15.5t-42.5 -41.5l-141 32l66 357h411v-127h-309
l-26 -142l4 -1q28 25 66.5 39.5t78.5 14.5q62 0 111.5 -29z" />
    <glyph glyph-name="six" unicode="6" horiz-adv-x="561" 
d="M153.5 26q-59.5 36 -93.5 108.5t-34 179.5q0 150 58.5 268t218.5 118q159 0 228 -140l-110 -60q-21 42 -49 61t-69 19q-71 0 -105.5 -56.5t-34.5 -137.5q53 65 150 65q63 0 113.5 -26.5t79.5 -77t29 -118.5q0 -70 -32.5 -124.5t-89 -84.5t-124.5 -30q-76 0 -135.5 36z
M366.5 148.5q30.5 30.5 30.5 77.5t-30 77.5t-77 30.5q-46 0 -74.5 -30t-28.5 -77t29 -78t74 -31q46 0 76.5 30.5z" />
    <glyph glyph-name="seven" unicode="7" horiz-adv-x="480" 
d="M159.5 300.5q51.5 148.5 161.5 258.5v3h-293v128h436v-142q-83 -77 -126 -164t-58 -175.5t-19 -208.5h-160q7 152 58.5 300.5z" />
    <glyph glyph-name="eight" unicode="8" horiz-adv-x="575" 
d="M152.5 15q-59.5 25 -93 71t-33.5 108q0 64 37 113.5t101 63.5v3q-45 14 -74 53.5t-29 88.5q0 52 29 94t80.5 66t116.5 24q66 0 117.5 -24t80.5 -66t29 -94q0 -49 -29 -89t-74 -53v-3q64 -15 101 -64t37 -113q0 -62 -33.5 -108t-92.5 -71t-135 -25t-135.5 25zM351.5 444.5
q25.5 24.5 25.5 60.5t-25.5 60t-63.5 24t-63.5 -24t-25.5 -60t25.5 -60.5t63.5 -24.5t63.5 24.5zM368 141q32 29 32 74q0 44 -32 72t-81 28t-81 -28t-32 -72q0 -45 32 -74t81 -29t81 29z" />
    <glyph glyph-name="nine" unicode="9" horiz-adv-x="561" 
d="M407.5 664q59.5 -36 93.5 -108.5t34 -179.5q0 -150 -58.5 -268t-218.5 -118q-159 0 -228 140l110 60q21 -42 49 -61t69 -19q71 0 105.5 56.5t34.5 137.5q-53 -65 -150 -65q-63 0 -113.5 26.5t-79.5 77t-29 118.5q0 70 32.5 124.5t89 84.5t124.5 30q76 0 135.5 -36z
M194.5 541.5q-30.5 -30.5 -30.5 -77.5t30 -77.5t77 -30.5q46 0 74.5 30t28.5 77t-29 78t-74 31q-46 0 -76.5 -30.5z" />
    <glyph glyph-name="colon" unicode=":" horiz-adv-x="267" 
d="M45 158h177v-158h-177v158zM46 508h177v-158h-177v158z" />
    <glyph glyph-name="semicolon" unicode=";" horiz-adv-x="279" 
d="M244 158v-158h-1l-87 -150h-75l50 150h-64v158h177zM60 508h177v-158h-177v158z" />
    <glyph glyph-name="less" unicode="&#x3c;" horiz-adv-x="649" 
d="M42 329l534 275v-131l-289 -144l289 -143v-132z" />
    <glyph glyph-name="equal" unicode="=" horiz-adv-x="541" 
d="M58 500h424v-121h-424v121zM58 277h424v-121h-424v121z" />
    <glyph glyph-name="greater" unicode="&#x3e;" horiz-adv-x="671" 
d="M88 186l289 143l-289 144v131l534 -275l-534 -275v132z" />
    <glyph glyph-name="question" unicode="?" horiz-adv-x="472" 
d="M174 268q0 44 12 72.5t28.5 44t43.5 32.5q32 21 46.5 38.5t14.5 52.5q0 34 -22 54t-59 20q-46 0 -69 -30.5t-23 -86.5h-121q1 104 53 169.5t152 65.5q88 0 148 -47.5t60 -142.5q0 -44 -11.5 -71.5t-27.5 -42.5t-43 -32q-32 -19 -48 -39t-16 -58v-48h-118v49zM161 148h144
v-148h-144v148z" />
    <glyph glyph-name="at" unicode="@" horiz-adv-x="958" 
d="M699.5 640q100.5 -59 159 -159.5t58.5 -217.5q0 -75 -24.5 -145.5t-75 -116.5t-125.5 -46q-61 0 -97.5 34.5t-33.5 104.5q-28 -43 -66 -62t-78 -19q-79 0 -121 60.5t-42 150.5q0 77 31 146t83 111t112 42q44 0 81 -22t44 -65l14 66h93q-46 45 -105.5 69.5t-125.5 24.5
q-90 0 -164.5 -44t-118 -123t-43.5 -177q0 -90 38 -163t110.5 -115.5t173.5 -42.5q38 0 81 10l29 -96q-51 -15 -108 -15q-120 0 -217 51t-153 146t-56 221q0 128 56.5 231t154 161.5t215.5 58.5q120 0 220.5 -59zM758.5 88q26.5 25 41.5 69t15 98q0 69 -24 129.5t-68 106.5
q-17 -83 -45 -213q-14 -62 -21.5 -101.5t-7.5 -58.5q0 -55 49 -55q34 0 60.5 25zM513 152.5q31 31.5 46 78t15 89.5q0 99 -79 99q-43 0 -74.5 -28t-48 -72t-16.5 -92q0 -106 81 -106q45 0 76 31.5z" />
    <glyph glyph-name="A" unicode="A" horiz-adv-x="677" 
d="M467 154h-255l-49 -154h-164l240 690h198l241 -690h-163zM429 275l-87 279h-4l-88 -279h179z" />
    <glyph glyph-name="B" unicode="B" horiz-adv-x="661" 
d="M73 690h303q106 0 164 -49.5t58 -138.5q0 -51 -26.5 -87.5t-66.5 -51.5v-4q57 -10 92 -53t35 -109q0 -93 -60 -145t-168 -52h-331v690zM374 411q36 0 60.5 22t24.5 57t-22 54.5t-60 19.5h-152v-153h149zM389 134q47 0 71 22.5t24 61.5q0 36 -26 57.5t-69 21.5h-164v-163
h164z" />
    <glyph glyph-name="C" unicode="C" horiz-adv-x="654" 
d="M165 38.5q-70 48.5 -103 129t-33 177.5t33 177.5t103 129.5t177 49q108 0 181.5 -52t108.5 -154l-141 -54q-13 63 -53 95.5t-97 32.5q-76 0 -120.5 -58.5t-44.5 -161.5q0 -70 20.5 -121t57.5 -78.5t85 -27.5q55 0 95 34t59 97l140 -56q-34 -102 -108.5 -154.5
t-183.5 -52.5q-106 0 -176 48.5z" />
    <glyph glyph-name="D" unicode="D" horiz-adv-x="680" 
d="M73 690h212q179 0 272.5 -91t93.5 -255q0 -166 -94 -255t-273 -89h-211v690zM272 134q229 0 229 212q0 103 -54.5 156.5t-163.5 53.5h-58v-422h47z" />
    <glyph glyph-name="E" unicode="E" horiz-adv-x="586" 
d="M73 690h468v-128h-316v-152h286v-128h-286v-153h316v-129h-468v690z" />
    <glyph glyph-name="F" unicode="F" horiz-adv-x="574" 
d="M73 690h482v-128h-330v-152h287v-128h-287v-282h-152v690z" />
    <glyph glyph-name="G" unicode="G" horiz-adv-x="726" 
d="M667 386v-386h-122l-5 87q-31 -46 -87 -71.5t-121 -25.5q-94 0 -163 48t-104.5 129.5t-35.5 180.5t39 179t115 127t183 47q110 0 186.5 -54.5t104.5 -141.5l-128 -50q-20 58 -62.5 88.5t-104.5 30.5q-93 0 -138 -64t-45 -163q0 -100 45 -162.5t138 -62.5q51 0 88.5 20
t56.5 52.5t19 70.5h-148v121h289z" />
    <glyph glyph-name="H" unicode="H" horiz-adv-x="724" 
d="M73 689h152v-276h274v276h152v-689h-152v278h-274v-278h-152v689z" />
    <glyph glyph-name="I" unicode="I" horiz-adv-x="298" 
d="M73 690h152v-690h-152v690z" />
    <glyph glyph-name="J" unicode="J" horiz-adv-x="385" 
d="M89 129q48 0 70 26t22 88v446h151v-482q0 -100 -57 -158.5t-164 -58.5q-65 0 -99 10v139q47 -10 77 -10z" />
    <glyph glyph-name="K" unicode="K" horiz-adv-x="708" 
d="M317 287l-92 -99v-188h-152v689h152v-315l272 315h192l-273 -295l290 -394h-190z" />
    <glyph glyph-name="L" unicode="L" horiz-adv-x="526" 
d="M73 690h152v-562h295v-128h-447v690z" />
    <glyph glyph-name="M" unicode="M" horiz-adv-x="933" 
d="M73 689h220l172 -511l172 511h222v-689h-151v511h-6l-169 -511h-136l-168 511h-6v-511h-150v689z" />
    <glyph glyph-name="N" unicode="N" horiz-adv-x="757" 
d="M73 690h160l295 -469h5v469h151v-690h-162l-292 467h-5v-467h-152v690z" />
    <glyph glyph-name="O" unicode="O" horiz-adv-x="721" 
d="M184 33.5q-74 43.5 -114.5 123.5t-40.5 188t40.5 188t114.5 123.5t174 43.5q101 0 176.5 -43.5t116.5 -123.5t41 -188t-41 -188t-116.5 -123.5t-176.5 -43.5q-100 0 -174 43.5zM485 181.5q47 60.5 47 163.5t-47 163.5t-127 60.5q-77 0 -122.5 -60.5t-45.5 -163.5
t45.5 -163.5t122.5 -60.5q80 0 127 60.5z" />
    <glyph glyph-name="P" unicode="P" horiz-adv-x="648" 
d="M73 690h319q111 0 174 -62.5t63 -167.5q0 -104 -62.5 -163.5t-174.5 -59.5h-168v-237h-151v690zM368 367q58 0 84.5 24.5t26.5 72.5t-27 72t-84 24h-144v-193h144z" />
    <glyph glyph-name="Q" unicode="Q" horiz-adv-x="723" 
d="M612 -64l-90 91q-71 -37 -164 -37q-100 0 -174 43.5t-114.5 123.5t-40.5 188t40.5 188t114.5 123.5t174 43.5q101 0 176.5 -43.5t116.5 -123.5t41 -188q0 -75 -20 -137.5t-59 -108.5l81 -80zM419 132l-85 86l79 80l89 -89q30 54 30 136q0 103 -47 163.5t-127 60.5
q-77 0 -122.5 -60.5t-45.5 -163.5t45.5 -163.5t122.5 -60.5q31 0 61 11z" />
    <glyph glyph-name="R" unicode="R" horiz-adv-x="675" 
d="M73 690h332q66 0 118.5 -24.5t82 -70.5t29.5 -109q0 -67 -33 -114t-94 -72l163 -301h-169l-136 279h-143v-279h-150v691zM396 396q46 1 69 23.5t23 60.5q0 39 -24.5 61t-72.5 22h-167v-167h172z" />
    <glyph glyph-name="S" unicode="S" horiz-adv-x="573" 
d="M139 35q-73 43 -120 126l108 83q34 -61 78.5 -92t95.5 -31q45 0 71.5 22t26.5 58q0 28 -17 46t-45 30t-78 28q-63 20 -104.5 40.5t-70.5 59.5t-29 100q0 92 65.5 143.5t170.5 51.5q67 0 124.5 -24.5t108.5 -80.5l-86 -93q-63 78 -153 78q-37 0 -59 -14.5t-22 -41.5
q0 -31 28 -48.5t93 -39.5q67 -22 112.5 -44.5t77.5 -66t32 -112.5q0 -66 -31 -116.5t-87 -77.5t-128 -27q-89 0 -162 43z" />
    <glyph glyph-name="T" unicode="T" horiz-adv-x="578" 
d="M213 562h-206v128h564v-128h-207v-562h-151v562z" />
    <glyph glyph-name="U" unicode="U" horiz-adv-x="694" 
d="M138.5 61q-69.5 71 -69.5 200v429h152v-434q0 -61 32.5 -94.5t91.5 -33.5q61 0 94.5 33.5t33.5 94.5v434h152v-424q0 -132 -70.5 -204t-209.5 -72q-137 0 -206.5 71z" />
    <glyph glyph-name="V" unicode="V" horiz-adv-x="682" 
d="M2 690h162l173 -554h4l176 554h163l-239 -690h-198z" />
    <glyph glyph-name="W" unicode="W" horiz-adv-x="958" 
d="M5 690h157l102 -561h6l123 561h173l122 -561h6l102 561h157l-143 -690h-217l-115 524l-113 -524h-217z" />
    <glyph glyph-name="X" unicode="X" horiz-adv-x="677" 
d="M230 345l-231 345h187l154 -242l152 242h186l-232 -345l233 -345h-186l-154 238l-154 -238h-187z" />
    <glyph glyph-name="Y" unicode="Y" horiz-adv-x="686" 
d="M268 269l-270 421h171l177 -283l170 283h171l-270 -421v-269h-149v269z" />
    <glyph glyph-name="Z" unicode="Z" horiz-adv-x="602" 
d="M585 583l-355 -455h355v-128h-568v99l366 463h-344v128h546v-107z" />
    <glyph glyph-name="bracketleft" unicode="[" horiz-adv-x="292" 
d="M65 730h216v-121h-93v-646h93v-123h-216v890z" />
    <glyph glyph-name="backslash" unicode="\" horiz-adv-x="524" 
d="M40 689h132l312 -765h-131z" />
    <glyph glyph-name="bracketright" unicode="]" horiz-adv-x="292" 
d="M10 -37h93v646h-93v121h217v-890h-217v123z" />
    <glyph glyph-name="asciicircum" unicode="^" horiz-adv-x="460" 
d="M230 690l227 -441h-143l-84 209l-84 -209h-143z" />
    <glyph glyph-name="underscore" unicode="_" horiz-adv-x="427" 
d="M-3 0h434v-109h-434v109z" />
    <glyph glyph-name="grave" unicode="`" horiz-adv-x="193" 
d="M-35 666h148l111 -119h-104z" />
    <glyph glyph-name="a" unicode="a" horiz-adv-x="541" 
d="M428 479q63 -43 63 -130v-349h-129v57q-34 -33 -79 -50.5t-86 -17.5q-76 0 -121 38t-45 104q0 93 96 141q34 16 74 28t128 35q11 2 33 8q-1 38 -24 54.5t-74 16.5q-45 0 -75.5 -15t-57.5 -49l-90 69q37 50 90.5 76.5t131.5 26.5q102 0 165 -43zM304.5 113
q32.5 15 57.5 44v90q-38 -11 -75.5 -22.5t-57.5 -21.5q-45 -21 -45 -57q0 -23 15 -35.5t38 -12.5q35 0 67.5 15z" />
    <glyph glyph-name="b" unicode="b" horiz-adv-x="623" 
d="M488.5 488.5q49.5 -33.5 75.5 -93.5t26 -139t-26.5 -139.5t-76.5 -94t-118 -33.5q-54 0 -96.5 22.5t-63.5 58.5h-1v-70h-144v690h147v-245q23 34 65.5 55.5t94.5 21.5q68 0 117.5 -33.5zM442 257q0 70 -30.5 106t-88.5 36q-52 0 -83.5 -38t-31.5 -104q0 -69 31 -107.5
t84 -38.5q119 0 119 146z" />
    <glyph glyph-name="c" unicode="c" horiz-adv-x="536" 
d="M148.5 25q-57.5 36 -86.5 96.5t-29 133.5q0 75 29 135.5t86 96t138 35.5q90 0 146.5 -40t86.5 -115l-121 -47q-11 42 -38.5 64.5t-69.5 22.5q-55 0 -84.5 -43t-29.5 -110q0 -66 29.5 -107.5t84.5 -41.5q42 0 69.5 22.5t39.5 63.5l116 -42q-26 -80 -82.5 -120t-145.5 -40
q-81 0 -138.5 36z" />
    <glyph glyph-name="d" unicode="d" horiz-adv-x="623" 
d="M559 690v-690h-144v70h-1q-21 -36 -63.5 -58.5t-96.5 -22.5q-68 0 -118 33.5t-76.5 94t-26.5 139.5t26 139t75.5 93.5t117.5 33.5q52 0 94.5 -21.5t65.5 -55.5v245h147zM384 149.5q31 38.5 31 107.5q0 66 -31.5 104t-83.5 38q-58 0 -88.5 -36t-30.5 -106q0 -146 119 -146
q53 0 84 38.5z" />
    <glyph glyph-name="e" unicode="e" horiz-adv-x="553" 
d="M513 222h-332q4 -57 33.5 -86t82.5 -29q40 0 68.5 11.5t54.5 44.5l93 -68q-48 -56 -99.5 -80.5t-118.5 -24.5q-75 0 -134.5 31t-93.5 90t-34 141q0 80 31 141.5t87.5 95t129.5 33.5q69 0 122.5 -30t84 -85t30.5 -126q0 -39 -5 -59zM210 386q-25 -25 -29 -70h193
q-2 42 -25.5 68.5t-68.5 26.5t-70 -25z" />
    <glyph glyph-name="f" unicode="f" horiz-adv-x="371" 
d="M109 417h-93v95h95v35q0 65 41.5 104t120.5 39h85v-105h-77q-26 0 -26 -33v-40h103v-95h-103v-417h-146v417z" />
    <glyph glyph-name="g" unicode="g" horiz-adv-x="621" 
d="M557 512v-480q0 -116 -72.5 -168t-174.5 -52q-83 0 -148 21t-112 73l67 88q33 -40 79.5 -57t91.5 -17q54 0 88.5 26.5t34.5 78.5v61q-18 -30 -58.5 -50t-94.5 -20q-66 0 -117 30.5t-79.5 88t-28.5 135.5q0 79 29 136t79.5 86.5t114.5 29.5q51 0 92.5 -20t62.5 -52v62h146
zM386.5 166.5q30.5 36.5 30.5 96.5q0 61 -31 101t-88 40q-56 0 -86.5 -38t-30.5 -99t31 -99t88 -38q56 0 86.5 36.5z" />
    <glyph glyph-name="h" unicode="h" horiz-adv-x="606" 
d="M64 690h147v-242h3q25 35 66.5 54.5t91.5 19.5q83 0 129.5 -51t46.5 -132v-339h-146v313q0 43 -22 67.5t-63 24.5q-48 0 -77 -29t-29 -73v-303h-147v690z" />
    <glyph glyph-name="i" unicode="i" horiz-adv-x="276" 
d="M64 690h148v-113h-148v113zM64 512h147v-512h-147v512z" />
    <glyph glyph-name="j" unicode="j" horiz-adv-x="278" 
d="M63 690h151v-113h-151v113zM-26 -63q46 0 69 23t23 59v493h146v-488q0 -103 -58 -152.5t-180 -49.5v115z" />
    <glyph glyph-name="k" unicode="k" horiz-adv-x="581" 
d="M282 221l-71 -70v-151h-147v690h147v-371l191 193h177l-203 -199l219 -313h-169z" />
    <glyph glyph-name="l" unicode="l" horiz-adv-x="278" 
d="M66 690h146v-690h-146v690z" />
    <glyph glyph-name="m" unicode="m" horiz-adv-x="872" 
d="M64 512h144v-70h3q22 37 57.5 58.5t84.5 21.5q94 0 135 -87h5q28 44 63 65.5t88 21.5q81 0 125 -50t44 -138v-334h-147v314q0 82 -74 82q-40 0 -60.5 -27t-20.5 -73v-296h-147v314q0 41 -17.5 61.5t-54.5 20.5q-41 0 -61 -27t-20 -73v-296h-147v512z" />
    <glyph glyph-name="n" unicode="n" horiz-adv-x="606" 
d="M64 512h145v-64h5q24 33 64 53.5t93 20.5q80 0 128.5 -50.5t48.5 -132.5v-339h-146v313q0 45 -23 67.5t-64 22.5q-46 0 -75 -27.5t-29 -72.5v-303h-147v512z" />
    <glyph glyph-name="o" unicode="o" horiz-adv-x="587" 
d="M159.5 19.5q-59.5 30.5 -93 90.5t-33.5 144q0 86 33.5 146t92.5 91t135 31t134.5 -31t92 -91t33.5 -146q0 -84 -33.5 -144t-92.5 -90.5t-134 -30.5t-134.5 30.5zM380 143.5q32 35.5 32 110.5q0 77 -32 113.5t-86 36.5q-53 0 -84.5 -36.5t-31.5 -113.5q0 -75 31.5 -110.5
t84.5 -35.5q54 0 86 35.5z" />
    <glyph glyph-name="p" unicode="p" horiz-adv-x="623" 
d="M486.5 488.5q49.5 -33.5 76.5 -93.5t27 -139t-27.5 -139.5t-77.5 -94t-115 -33.5q-58 0 -102.5 26t-59.5 66v-259h-144v690h146v-73q19 37 63 60t99 23q65 0 114.5 -33.5zM410.5 147q31.5 37 31.5 111q0 69 -32 106t-87 37q-53 0 -85 -38.5t-32 -104.5q0 -70 32 -109
t85 -39q56 0 87.5 37z" />
    <glyph glyph-name="q" unicode="q" horiz-adv-x="623" 
d="M559 512v-690h-144v259q-15 -40 -59.5 -66t-102.5 -26q-65 0 -115 33.5t-77.5 94t-27.5 139.5t27 139t76.5 93.5t114.5 33.5q55 0 99 -23t63 -60v73h146zM385 149q32 39 32 109q0 66 -32 104.5t-85 38.5q-55 0 -87 -37t-32 -106q0 -74 31.5 -111t87.5 -37q53 0 85 39z
" />
    <glyph glyph-name="r" unicode="r" horiz-adv-x="393" 
d="M64 512h142v-79h3q18 41 49 64t67 23q39 0 58 -8v-121q-9 1 -26 1q-19 0 -27 -2q-55 -8 -87 -50t-32 -115v-225h-147v512z" />
    <glyph glyph-name="s" unicode="s" horiz-adv-x="499" 
d="M132.5 12q-62.5 23 -108.5 64l66 91q31 -31 71.5 -50t88.5 -19q36 0 58 12.5t22 37.5q0 24 -23.5 34.5t-83.5 24.5q-55 14 -90.5 29t-60 45.5t-24.5 81.5q0 80 57 119.5t150 39.5q120 0 202 -74l-59 -89q-26 23 -54.5 37t-70.5 20q-18 2 -25 2q-31 0 -49 -11t-18 -30
t25.5 -30t78.5 -24l26 -7q75 -20 117 -54t42 -105q0 -78 -55.5 -123t-157.5 -45q-62 0 -124.5 23z" />
    <glyph glyph-name="t" unicode="t" horiz-adv-x="358" 
d="M112.5 34q-31.5 34 -31.5 96v287h-71v95h71v178h146v-178h106v-95h-106v-251q0 -28 10.5 -40t34.5 -12h61v-114h-131q-58 0 -89.5 34z" />
    <glyph glyph-name="u" unicode="u" horiz-adv-x="613" 
d="M549 0h-144v64h-8q-24 -37 -64.5 -56.5t-90.5 -19.5q-84 0 -130.5 52t-46.5 134v338h147v-301q0 -43 24 -67.5t66 -24.5q48 0 74.5 28.5t26.5 72.5v292h146v-512z" />
    <glyph glyph-name="v" unicode="v" horiz-adv-x="546" 
d="M544 512l-185 -512h-172l-185 512h158l113 -387l114 387h157z" />
    <glyph glyph-name="w" unicode="w" horiz-adv-x="818" 
d="M817 512l-135 -512h-191l-84 326l-81 -328h-192l-133 514h156l81 -391l104 391h132l104 -393l83 393h156z" />
    <glyph glyph-name="x" unicode="x" horiz-adv-x="565" 
d="M179 258l-177 254h178l102 -161l102 161h178l-179 -254l179 -258h-178l-102 165l-102 -165h-178z" />
    <glyph glyph-name="y" unicode="y" horiz-adv-x="514" 
d="M41 -63q63 0 95.5 20.5t46.5 55.5l-187 499h156l103 -356h7l104 356h157l-198 -522q-27 -70 -60.5 -106t-85 -49t-138.5 -13v115z" />
    <glyph glyph-name="z" unicode="z" horiz-adv-x="501" 
d="M470 403l-249 -287h247v-116h-437v103l261 294h-259v115h437v-109z" />
    <glyph glyph-name="braceleft" unicode="{" horiz-adv-x="340" 
d="M159.5 -149.5q-27.5 18.5 -43.5 44.5q-9 16 -14 36.5t-5 63.5v176q0 16 -12.5 24t-28.5 13.5t-23 8.5v99q5 2 26.5 10t29.5 20.5t8 33.5v209q0 72 33.5 109.5t101.5 37.5h25q13 0 22 -1t15 -2q14 -2 20 -2v-118q-23 10 -48 10q-15 0 -16 -6q-11 -3 -16 -10.5t-5 -27.5
v-209q0 -28 -8.5 -48.5t-19.5 -36.5t-13 -20q16 -17 28.5 -42.5t12.5 -49.5v-171q0 -52 29 -51q8 -5 19 -5q12 0 37 9v-121q-9 1 -33 -1l-25 -1h-35q-34 0 -61.5 18.5z" />
    <glyph glyph-name="bar" unicode="|" horiz-adv-x="260" 
d="M77 750h107v-826h-107v826z" />
    <glyph glyph-name="braceright" unicode="}" horiz-adv-x="333" 
d="M59 -167q-24 2 -33 1v121q28 -11 42 -11q11 0 15 6q15 3 21.5 13.5t6.5 38.5v171q0 24 12.5 49.5t28.5 42.5q-2 4 -13.5 21.5t-19.5 37.5t-8 46v209q0 18 -4.5 28t-16.5 11q-6 5 -20 5q-19 0 -44 -10v118q6 0 20 2q6 1 15 2t22 1h25q68 0 101.5 -37.5t33.5 -109.5v-209
q0 -21 7 -32t17 -15.5t40 -16.5v-99q-7 -3 -25.5 -9t-28.5 -15t-10 -22v-176q0 -43 -4.5 -64t-13.5 -36q-17 -26 -45 -44.5t-61 -18.5h-35z" />
    <glyph glyph-name="asciitilde" unicode="~" horiz-adv-x="451" 
d="M259 190.5q-22 12.5 -50 37.5q-18 17 -31 25.5t-28 8.5q-21 0 -29 -17.5t-6 -53.5h-69q-3 64 24.5 102t78.5 38q40 0 64.5 -13.5t50.5 -38.5q17 -16 27.5 -23t24.5 -7q23 0 32 18.5t8 60.5h73q2 -70 -29 -110t-87 -40q-32 0 -54 12.5z" />
    <glyph glyph-name="exclamdown" unicode="&#xa1;" horiz-adv-x="292" 
d="M72 512h149v-148h-149v148zM92 291h109l14 -480h-137z" />
    <glyph glyph-name="cent" unicode="&#xa2;" horiz-adv-x="536" 
d="M359.5 127.5q27.5 22.5 39.5 63.5l116 -42q-24 -71 -69 -110t-116 -47v-92h-107v96q-91 20 -140.5 91t-49.5 168q0 98 49.5 169.5t140.5 91.5v70h107v-67q136 -17 189 -152l-121 -47q-11 42 -38.5 64.5t-69.5 22.5q-55 0 -84.5 -43t-29.5 -110q0 -66 29.5 -107.5
t84.5 -41.5q42 0 69.5 22.5z" />
    <glyph glyph-name="sterling" unicode="&#xa3;" horiz-adv-x="580" 
d="M37 120q0 -3 33.5 11.5t60 42t26.5 69.5q0 24 -9 46h-109v114h83q-7 22 -12 42.5t-5 55.5q0 101 58.5 153.5t149.5 52.5q86 0 138.5 -44t76.5 -110l-108 -40q-19 44 -43 62t-65 18q-45 0 -67 -21.5t-22 -77.5q0 -26 4.5 -46.5t12.5 -44.5h180v-114h-153q3 -19 3 -43
q0 -55 -11.5 -84t-26 -39.5t-14.5 -7.5h355v-115h-536v120z" />
    <glyph glyph-name="currency" unicode="&#xa4;" horiz-adv-x="687" 
d="M44 109l99 98q-14 23 -19 46.5t-5 53.5q0 58 24 97l-107 92l114 105l81 -96q51 28 106 29q56 -1 108 -29l79 97l114 -106l-107 -92q25 -38 25 -97q0 -30 -5.5 -53.5t-19.5 -46.5l98 -98l-115 -105l-72 105q-45 -28 -105 -29q-56 1 -104 29l-74 -105zM403.5 234
q23.5 26 23.5 73t-23.5 73t-66.5 28q-42 -2 -65.5 -28t-23.5 -73t23.5 -73t65.5 -28q43 2 66.5 28z" />
    <glyph glyph-name="yen" unicode="&#xa5;" horiz-adv-x="682" 
d="M281 67h-146v95h146v83h-146v98h94l-231 347h148l194 -318l196 318h148l-231 -349h94v-96h-146v-83h146v-95h-146v-83h-120v83z" />
    <glyph glyph-name="brokenbar" unicode="&#xa6;" horiz-adv-x="278" 
d="M77 690h124v-315h-124v315zM77 217h124v-293h-124v293z" />
    <glyph glyph-name="section" unicode="&#xa7;" horiz-adv-x="556" 
d="M147.5 29.5q-59.5 38.5 -84.5 112.5l130 29q9 -32 31 -48.5t64 -16.5q87 0 87 47q0 23 -24.5 32.5t-78.5 19.5q-57 10 -95.5 22.5t-66 42.5t-27.5 84q0 31 9 53.5t27 46.5q-35 41 -35 91q0 49 28.5 84t74.5 53t98 18q72 0 119 -29.5t74 -94.5l-107 -43q-10 28 -33 43
t-57 15q-39 0 -58.5 -15t-19.5 -41q0 -21 23.5 -30t75.5 -18q59 -9 97.5 -21t67 -43.5t28.5 -87.5q0 -55 -32 -97q32 -41 32 -92q0 -53 -31 -87.5t-79 -51t-99 -16.5q-79 0 -138.5 38.5zM366.5 306.5q8.5 12.5 8.5 28.5q0 21 -12 33t-32 18t-62 15l-35 8q-14 -8 -22.5 -22
t-8.5 -28q0 -26 34 -40.5t106 -28.5q15 4 23.5 16.5z" />
    <glyph glyph-name="dieresis" unicode="&#xa8;" horiz-adv-x="326" 
d="M14 666h109v-114h-109v114zM203 666h109v-114h-109v114z" />
    <glyph glyph-name="copyright" unicode="&#xa9;" horiz-adv-x="812" 
d="M218 20q-87 51 -138 138t-51 188t51 188t138 138t188 51q102 0 188.5 -51t137.5 -138t51 -188t-51 -188t-137.5 -138t-188.5 -51q-101 0 -188 51zM564 73q73 43 116 115.5t43 157.5t-43 157.5t-116 115.5t-158 43t-157.5 -43t-115.5 -115.5t-43 -157.5t43 -157.5
t115.5 -115.5t157.5 -43t158 43zM291.5 148q-49.5 31 -74.5 83.5t-25 115.5q0 65 25 117t74 83t119 31q149 0 201 -134l-104 -41q-9 37 -33 56.5t-60 19.5q-48 0 -73.5 -37t-25.5 -96q0 -56 25.5 -92t73.5 -36q36 0 60 19.5t34 54.5l100 -36q-23 -70 -71.5 -104.5
t-125.5 -34.5q-70 0 -119.5 31z" />
    <glyph glyph-name="ordfeminine" unicode="&#xaa;" horiz-adv-x="365" 
d="M291.5 688.5q42.5 -29.5 42.5 -89.5v-238h-88v39q-23 -23 -54 -35t-58 -12q-52 0 -83 26t-31 71q0 63 66 97q26 13 58 22t102 26q-1 26 -16.5 37.5t-50.5 11.5q-30 0 -51 -10t-40 -34l-61 47q26 34 62 52.5t90 18.5q70 0 112.5 -29.5zM246 468v61q-58 -15 -91 -29
q-30 -14 -30 -39q0 -16 9.5 -24.5t25.5 -8.5q52 0 86 40z" />
    <glyph glyph-name="guillemotleft" unicode="&#xab;" horiz-adv-x="553" 
d="M42 249l226 183v-119l-86 -64l86 -63v-118zM285 249l227 183v-119l-86 -64l86 -63v-118z" />
    <glyph glyph-name="logicalnot" unicode="&#xac;" horiz-adv-x="599" 
d="M399 261h-341v128h482v-287h-141v159z" />
    <glyph glyph-name="registered" unicode="&#xae;" horiz-adv-x="632" 
d="M186.5 207.5q-59.5 35.5 -94 96t-34.5 132.5t34.5 132.5t94 96t129.5 35.5t129.5 -35.5t94.5 -96t35 -132.5t-35 -132.5t-94.5 -96t-129.5 -35.5t-129.5 35.5zM418 257q47 28 75 75.5t28 103.5t-28 103.5t-75 76t-102 28.5t-102.5 -28.5t-75 -76t-27.5 -103.5
t27.5 -103.5t75 -75.5t102.5 -28t102 28zM226 569h105q45 0 69.5 -22t24.5 -61q0 -52 -48 -76l69 -105h-77l-54 95h-21v-95h-68v264zM331 459q30 0 30 27t-30 27h-40v-54h40z" />
    <glyph glyph-name="macron" unicode="&#xaf;" horiz-adv-x="316" 
d="M20 650h281v-75h-281v75z" />
    <glyph glyph-name="degree" unicode="&#xb0;" horiz-adv-x="391" 
d="M76 419q-47 46 -47 118q0 71 47 117t120 46q48 0 86 -21t59 -58t21 -84q0 -72 -46.5 -118t-119.5 -46t-120 46zM245.5 488q19.5 19 19.5 49q0 29 -19.5 47.5t-49.5 18.5q-31 0 -50.5 -18.5t-19.5 -47.5q0 -30 19.5 -49t50.5 -19q30 0 49.5 19z" />
    <glyph glyph-name="plusminus" unicode="&#xb1;" horiz-adv-x="672" 
d="M281 250h-223v110h223v198h109v-198h223v-110h-223v-198h-109v198zM59 0h554v-109h-554v109z" />
    <glyph glyph-name="acute" unicode="&#xb4;" horiz-adv-x="193" 
d="M80 666h148l-158 -119h-101z" />
    <glyph glyph-name="uni00B5" unicode="&#xb5;" horiz-adv-x="518" 
d="M61 488h130v-282q0 -45 16.5 -70t57.5 -25q30 0 57.5 15t44 39.5t16.5 52.5v270h130v-488h-130v56q-25 -31 -58 -49t-68 -18t-69 8l-8 -127h-119v618z" />
    <glyph glyph-name="paragraph" unicode="&#xb6;" horiz-adv-x="585" 
d="M258 304q-58 0 -108.5 23.5t-81.5 67t-31 102.5t31 102.5t81.5 67t108.5 23.5h86v-830h-86v444zM432 690h87v-830h-87v830z" />
    <glyph glyph-name="periodcentered" unicode="&#xb7;" horiz-adv-x="250" 
d="M69 328.5q-23 22.5 -23 54.5q0 35 23 57.5t58 22.5q31 0 53.5 -22.5t22.5 -57.5q0 -32 -22 -54.5t-54 -22.5q-35 0 -58 22.5z" />
    <glyph glyph-name="cedilla" unicode="&#xb8;" horiz-adv-x="178" 
d="M28 -224.5q-31 19.5 -44 50.5l68 32q4 -14 14 -22.5t26 -8.5t25.5 9.5t9.5 25.5q0 27 -31 35l-78 22l47 81h97l-39 -56q38 -9 60.5 -30t22.5 -59q0 -47 -31.5 -73t-75.5 -26q-40 0 -71 19.5z" />
    <glyph glyph-name="ordmasculine" unicode="&#xba;" horiz-adv-x="400" 
d="M107.5 372.5q-41.5 23.5 -64.5 64t-23 89.5q0 48 23 88.5t64.5 64t95.5 23.5q51 0 92 -23.5t63.5 -64t22.5 -88.5t-22.5 -88.5t-63.5 -64.5t-92 -24q-54 0 -95.5 23.5zM266 456q21 26 21 68t-21 68t-63 26q-46 0 -67.5 -26t-21.5 -68q0 -43 21.5 -68.5t67.5 -25.5
q42 0 63 26z" />
    <glyph glyph-name="guillemotright" unicode="&#xbb;" horiz-adv-x="561" 
d="M48 186l86 63l-86 64v119l227 -183l-227 -181v118zM292 186l86 63l-86 64v119l226 -183l-226 -181v118z" />
    <glyph glyph-name="questiondown" unicode="&#xbf;" horiz-adv-x="483" 
d="M331 364h-144v148h144v-148zM318 244q0 -44 -12 -72.5t-28.5 -44t-43.5 -32.5q-32 -21 -46.5 -38.5t-14.5 -52.5q0 -34 22 -54t59 -20q46 0 69 30.5t23 86.5h121q-1 -104 -53 -169.5t-152 -65.5q-88 0 -148 47.5t-60 142.5q0 44 11.5 71.5t27.5 42.5t43 32q32 19 48 39
t16 58v48h118v-49z" />
    <glyph glyph-name="Agrave" unicode="&#xc0;" horiz-adv-x="677" 
d="M467 154h-255l-49 -154h-164l240 690h198l241 -690h-163zM429 275l-87 279h-4l-88 -279h179zM132 867h148l111 -119h-104z" />
    <glyph glyph-name="Aacute" unicode="&#xc1;" horiz-adv-x="677" 
d="M467 154h-255l-49 -154h-164l240 690h198l241 -690h-163zM429 275l-87 279h-4l-88 -279h179zM400 867h148l-158 -119h-101z" />
    <glyph glyph-name="Acircumflex" unicode="&#xc2;" horiz-adv-x="677" 
d="M467 154h-255l-49 -154h-164l240 690h198l241 -690h-163zM429 275l-87 279h-4l-88 -279h179zM299 867h79l120 -128h-110l-50 64l-49 -64h-109z" />
    <glyph glyph-name="Atilde" unicode="&#xc3;" horiz-adv-x="677" 
d="M467 154h-255l-49 -154h-164l240 690h198l241 -690h-163zM429 275l-87 279h-4l-88 -279h179zM369 743.5q-20 9.5 -42 26.5q-16 12 -27.5 18t-24.5 6q-35 0 -36 -58h-86q0 133 107 133q30 0 49 -8.5t42 -25.5q17 -13 27.5 -18.5t25.5 -5.5q38 0 38 56h82q0 -67 -28 -100
t-78 -33q-29 0 -49 9.5z" />
    <glyph glyph-name="Adieresis" unicode="&#xc4;" horiz-adv-x="677" 
d="M467 154h-255l-49 -154h-164l240 690h198l241 -690h-163zM429 275l-87 279h-4l-88 -279h179zM189 867h109v-114h-109v114zM378 867h109v-114h-109v114z" />
    <glyph glyph-name="Aring" unicode="&#xc5;" horiz-adv-x="677" 
d="M467 154h-255l-49 -154h-164l240 690q-11 24 -11 49q0 45 32 77.5t78 32.5t78 -32t32 -78q0 -25 -11 -49l241 -690h-163zM299 708q11 -14 29 -18h21q18 4 28.5 17.5t10.5 33.5q0 21 -13.5 34.5t-36.5 13.5q-22 0 -36 -13.5t-14 -34.5q0 -19 11 -33zM429 275l-87 279h-4
l-88 -279h179z" />
    <glyph glyph-name="AE" unicode="&#xc6;" horiz-adv-x="923" 
d="M512 555v-142h322v-135h-322v-144h365v-134h-502v144h-174l-56 -144h-146l282 690h596v-135h-365zM375 265v313h-5l-122 -313h127z" />
    <glyph glyph-name="Ccedilla" unicode="&#xc7;" horiz-adv-x="654" 
d="M543 56.5q-61 -51.5 -150 -63.5l-34 -49q38 -9 60.5 -30t22.5 -59q0 -47 -31.5 -73t-75.5 -26q-40 0 -71 19.5t-44 50.5l68 32q4 -14 14 -22.5t26 -8.5t25.5 9.5t9.5 25.5q0 27 -31 35l-78 22l43 73q-91 11 -151 61t-88.5 126t-28.5 166q0 97 33 177.5t103 129.5t177 49
q108 0 181.5 -52t108.5 -154l-141 -54q-13 63 -53 95.5t-97 32.5q-76 0 -120.5 -58.5t-44.5 -161.5q0 -70 20.5 -121t57.5 -78.5t85 -27.5q55 0 95 34t59 97l140 -56q-29 -89 -90 -140.5z" />
    <glyph glyph-name="Egrave" unicode="&#xc8;" horiz-adv-x="586" 
d="M73 690h468v-128h-316v-152h286v-128h-286v-153h316v-129h-468v690zM101 867h148l111 -119h-104z" />
    <glyph glyph-name="Eacute" unicode="&#xc9;" horiz-adv-x="586" 
d="M73 690h468v-128h-316v-152h286v-128h-286v-153h316v-129h-468v690zM369 867h148l-158 -119h-101z" />
    <glyph glyph-name="Ecircumflex" unicode="&#xca;" horiz-adv-x="586" 
d="M73 690h468v-128h-316v-152h286v-128h-286v-153h316v-129h-468v690zM268 867h79l120 -128h-110l-50 64l-49 -64h-109z" />
    <glyph glyph-name="Edieresis" unicode="&#xcb;" horiz-adv-x="586" 
d="M73 690h468v-128h-316v-152h286v-128h-286v-153h316v-129h-468v690zM158 867h109v-114h-109v114zM347 867h109v-114h-109v114z" />
    <glyph glyph-name="Igrave" unicode="&#xcc;" horiz-adv-x="298" 
d="M73 690h152v-690h-152v690zM-60 867h148l111 -119h-104z" />
    <glyph glyph-name="Iacute" unicode="&#xcd;" horiz-adv-x="298" 
d="M73 690h152v-690h-152v690zM208 867h148l-158 -119h-101z" />
    <glyph glyph-name="Icircumflex" unicode="&#xce;" horiz-adv-x="298" 
d="M73 690h152v-690h-152v690zM107 867h79l120 -128h-110l-50 64l-49 -64h-109z" />
    <glyph glyph-name="Idieresis" unicode="&#xcf;" horiz-adv-x="298" 
d="M73 690h152v-690h-152v690zM-3 867h109v-114h-109v114zM186 867h109v-114h-109v114z" />
    <glyph glyph-name="Eth" unicode="&#xd0;" horiz-adv-x="676" 
d="M66 300h-62v96h62v294h205q179 0 276 -90.5t97 -259.5q0 -162 -98 -251t-276 -89h-204v300zM258 126q252 0 252 219q0 112 -57.5 166t-183.5 54h-70v-169h176v-96h-176v-174h59z" />
    <glyph glyph-name="Ntilde" unicode="&#xd1;" horiz-adv-x="757" 
d="M73 690h160l295 -469h5v469h151v-690h-162l-292 467h-5v-467h-152v690zM407 743.5q-20 9.5 -42 26.5q-16 12 -27.5 18t-24.5 6q-35 0 -36 -58h-86q0 133 107 133q30 0 49 -8.5t42 -25.5q17 -13 27.5 -18.5t25.5 -5.5q38 0 38 56h82q0 -67 -28 -100t-78 -33q-29 0 -49 9.5
z" />
    <glyph glyph-name="Ograve" unicode="&#xd2;" horiz-adv-x="721" 
d="M184 33.5q-74 43.5 -114.5 123.5t-40.5 188t40.5 188t114.5 123.5t174 43.5q101 0 176.5 -43.5t116.5 -123.5t41 -188t-41 -188t-116.5 -123.5t-176.5 -43.5q-100 0 -174 43.5zM485 181.5q47 60.5 47 163.5t-47 163.5t-127 60.5q-77 0 -122.5 -60.5t-45.5 -163.5
t45.5 -163.5t122.5 -60.5q80 0 127 60.5zM151 867h148l111 -119h-104z" />
    <glyph glyph-name="Oacute" unicode="&#xd3;" horiz-adv-x="721" 
d="M184 33.5q-74 43.5 -114.5 123.5t-40.5 188t40.5 188t114.5 123.5t174 43.5q101 0 176.5 -43.5t116.5 -123.5t41 -188t-41 -188t-116.5 -123.5t-176.5 -43.5q-100 0 -174 43.5zM485 181.5q47 60.5 47 163.5t-47 163.5t-127 60.5q-77 0 -122.5 -60.5t-45.5 -163.5
t45.5 -163.5t122.5 -60.5q80 0 127 60.5zM419 867h148l-158 -119h-101z" />
    <glyph glyph-name="Ocircumflex" unicode="&#xd4;" horiz-adv-x="721" 
d="M184 33.5q-74 43.5 -114.5 123.5t-40.5 188t40.5 188t114.5 123.5t174 43.5q101 0 176.5 -43.5t116.5 -123.5t41 -188t-41 -188t-116.5 -123.5t-176.5 -43.5q-100 0 -174 43.5zM485 181.5q47 60.5 47 163.5t-47 163.5t-127 60.5q-77 0 -122.5 -60.5t-45.5 -163.5
t45.5 -163.5t122.5 -60.5q80 0 127 60.5zM318 867h79l120 -128h-110l-50 64l-49 -64h-109z" />
    <glyph glyph-name="Otilde" unicode="&#xd5;" horiz-adv-x="721" 
d="M184 33.5q-74 43.5 -114.5 123.5t-40.5 188t40.5 188t114.5 123.5t174 43.5q101 0 176.5 -43.5t116.5 -123.5t41 -188t-41 -188t-116.5 -123.5t-176.5 -43.5q-100 0 -174 43.5zM485 181.5q47 60.5 47 163.5t-47 163.5t-127 60.5q-77 0 -122.5 -60.5t-45.5 -163.5
t45.5 -163.5t122.5 -60.5q80 0 127 60.5zM388 743.5q-20 9.5 -42 26.5q-16 12 -27.5 18t-24.5 6q-35 0 -36 -58h-86q0 133 107 133q30 0 49 -8.5t42 -25.5q17 -13 27.5 -18.5t25.5 -5.5q38 0 38 56h82q0 -67 -28 -100t-78 -33q-29 0 -49 9.5z" />
    <glyph glyph-name="Odieresis" unicode="&#xd6;" horiz-adv-x="721" 
d="M184 33.5q-74 43.5 -114.5 123.5t-40.5 188t40.5 188t114.5 123.5t174 43.5q101 0 176.5 -43.5t116.5 -123.5t41 -188t-41 -188t-116.5 -123.5t-176.5 -43.5q-100 0 -174 43.5zM485 181.5q47 60.5 47 163.5t-47 163.5t-127 60.5q-77 0 -122.5 -60.5t-45.5 -163.5
t45.5 -163.5t122.5 -60.5q80 0 127 60.5zM208 867h109v-114h-109v114zM397 867h109v-114h-109v114z" />
    <glyph glyph-name="multiply" unicode="&#xd7;" horiz-adv-x="491" 
d="M28 166l140 140l-143 142l78 76l142 -141l141 141l76 -80l-139 -139l143 -143l-77 -76l-143 142l-142 -142z" />
    <glyph glyph-name="Oslash" unicode="&#xd8;" horiz-adv-x="721" 
d="M692 345q0 -108 -41 -188t-116.5 -123.5t-176.5 -43.5q-131 0 -216 73l-49 -49l-67 64l56 56q-53 89 -53 211q0 108 40.5 188t114.5 123.5t174 43.5q130 0 218 -72l47 47l66 -64l-52 -53q55 -88 55 -213zM201 253l270 270q-44 46 -113 46q-77 0 -122.5 -60.5
t-45.5 -163.5q0 -48 11 -92zM485 181.5q47 60.5 47 163.5q0 49 -13 96l-272 -273q44 -47 111 -47q80 0 127 60.5z" />
    <glyph glyph-name="Ugrave" unicode="&#xd9;" horiz-adv-x="694" 
d="M138.5 61q-69.5 71 -69.5 200v429h152v-434q0 -61 32.5 -94.5t91.5 -33.5q61 0 94.5 33.5t33.5 94.5v434h152v-424q0 -132 -70.5 -204t-209.5 -72q-137 0 -206.5 71zM141 867h148l111 -119h-104z" />
    <glyph glyph-name="Uacute" unicode="&#xda;" horiz-adv-x="694" 
d="M138.5 61q-69.5 71 -69.5 200v429h152v-434q0 -61 32.5 -94.5t91.5 -33.5q61 0 94.5 33.5t33.5 94.5v434h152v-424q0 -132 -70.5 -204t-209.5 -72q-137 0 -206.5 71zM409 867h148l-158 -119h-101z" />
    <glyph glyph-name="Ucircumflex" unicode="&#xdb;" horiz-adv-x="694" 
d="M138.5 61q-69.5 71 -69.5 200v429h152v-434q0 -61 32.5 -94.5t91.5 -33.5q61 0 94.5 33.5t33.5 94.5v434h152v-424q0 -132 -70.5 -204t-209.5 -72q-137 0 -206.5 71zM308 867h79l120 -128h-110l-50 64l-49 -64h-109z" />
    <glyph glyph-name="Udieresis" unicode="&#xdc;" horiz-adv-x="694" 
d="M138.5 61q-69.5 71 -69.5 200v429h152v-434q0 -61 32.5 -94.5t91.5 -33.5q61 0 94.5 33.5t33.5 94.5v434h152v-424q0 -132 -70.5 -204t-209.5 -72q-137 0 -206.5 71zM198 867h109v-114h-109v114zM387 867h109v-114h-109v114z" />
    <glyph glyph-name="Yacute" unicode="&#xdd;" horiz-adv-x="686" 
d="M268 269l-270 421h171l177 -283l170 283h171l-270 -421v-269h-149v269zM404 867h148l-158 -119h-101z" />
    <glyph glyph-name="Thorn" unicode="&#xde;" horiz-adv-x="608" 
d="M73 690h132v-70h146q106 0 172 -55t66 -166q0 -112 -65.5 -163.5t-172.5 -51.5h-146v-184h-132v690zM344 310q56 0 84.5 23t28.5 67q0 43 -29 67t-84 24h-139v-181h139z" />
    <glyph glyph-name="germandbls" unicode="&#xdf;" horiz-adv-x="576" 
d="M274 2v141q38 -24 78 -24q29 0 44 13t15 38q0 24 -16 41.5t-48 39.5q-40 28 -61.5 53t-21.5 66q0 32 15.5 52t44.5 41q25 19 36.5 32.5t11.5 33.5q0 27 -22 44.5t-58 17.5q-47 0 -70 -28.5t-23 -75.5v-487h-138v487q0 67 30.5 115t82 73t112.5 25q54 0 105 -18.5
t84.5 -56.5t33.5 -94q0 -43 -18.5 -68t-52.5 -51q-19 -14 -28 -23t-9 -21q0 -15 12 -28t38 -31q31 -23 49.5 -41.5t33 -47.5t14.5 -68q0 -76 -53.5 -118.5t-139.5 -42.5q-35 0 -81 11z" />
    <glyph glyph-name="agrave" unicode="&#xe0;" horiz-adv-x="541" 
d="M428 479q63 -43 63 -130v-349h-129v57q-34 -33 -79 -50.5t-86 -17.5q-76 0 -121 38t-45 104q0 93 96 141q34 16 74 28t128 35q11 2 33 8q-1 38 -24 54.5t-74 16.5q-45 0 -75.5 -15t-57.5 -49l-90 69q37 50 90.5 76.5t131.5 26.5q102 0 165 -43zM304.5 113
q32.5 15 57.5 44v90q-38 -11 -75.5 -22.5t-57.5 -21.5q-45 -21 -45 -57q0 -23 15 -35.5t38 -12.5q35 0 67.5 15zM53 690h148l111 -119h-104z" />
    <glyph glyph-name="aacute" unicode="&#xe1;" horiz-adv-x="541" 
d="M428 479q63 -43 63 -130v-349h-129v57q-34 -33 -79 -50.5t-86 -17.5q-76 0 -121 38t-45 104q0 93 96 141q34 16 74 28t128 35q11 2 33 8q-1 38 -24 54.5t-74 16.5q-45 0 -75.5 -15t-57.5 -49l-90 69q37 50 90.5 76.5t131.5 26.5q102 0 165 -43zM304.5 113
q32.5 15 57.5 44v90q-38 -11 -75.5 -22.5t-57.5 -21.5q-45 -21 -45 -57q0 -23 15 -35.5t38 -12.5q35 0 67.5 15zM321 690h148l-158 -119h-101z" />
    <glyph glyph-name="acircumflex" unicode="&#xe2;" horiz-adv-x="541" 
d="M428 479q63 -43 63 -130v-349h-129v57q-34 -33 -79 -50.5t-86 -17.5q-76 0 -121 38t-45 104q0 93 96 141q34 16 74 28t128 35q11 2 33 8q-1 38 -24 54.5t-74 16.5q-45 0 -75.5 -15t-57.5 -49l-90 69q37 50 90.5 76.5t131.5 26.5q102 0 165 -43zM304.5 113
q32.5 15 57.5 44v90q-38 -11 -75.5 -22.5t-57.5 -21.5q-45 -21 -45 -57q0 -23 15 -35.5t38 -12.5q35 0 67.5 15zM220 690h79l120 -128h-110l-50 64l-49 -64h-109z" />
    <glyph glyph-name="atilde" unicode="&#xe3;" horiz-adv-x="541" 
d="M428 479q63 -43 63 -130v-349h-129v57q-34 -33 -79 -50.5t-86 -17.5q-76 0 -121 38t-45 104q0 93 96 141q34 16 74 28t128 35q11 2 33 8q-1 38 -24 54.5t-74 16.5q-45 0 -75.5 -15t-57.5 -49l-90 69q37 50 90.5 76.5t131.5 26.5q102 0 165 -43zM304.5 113
q32.5 15 57.5 44v90q-38 -11 -75.5 -22.5t-57.5 -21.5q-45 -21 -45 -57q0 -23 15 -35.5t38 -12.5q35 0 67.5 15zM290 566.5q-20 9.5 -42 26.5q-16 12 -27.5 18t-24.5 6q-35 0 -36 -58h-86q0 133 107 133q30 0 49 -8.5t42 -25.5q17 -13 27.5 -18.5t25.5 -5.5q38 0 38 56h82
q0 -67 -28 -100t-78 -33q-29 0 -49 9.5z" />
    <glyph glyph-name="adieresis" unicode="&#xe4;" horiz-adv-x="541" 
d="M428 479q63 -43 63 -130v-349h-129v57q-34 -33 -79 -50.5t-86 -17.5q-76 0 -121 38t-45 104q0 93 96 141q34 16 74 28t128 35q11 2 33 8q-1 38 -24 54.5t-74 16.5q-45 0 -75.5 -15t-57.5 -49l-90 69q37 50 90.5 76.5t131.5 26.5q102 0 165 -43zM304.5 113
q32.5 15 57.5 44v90q-38 -11 -75.5 -22.5t-57.5 -21.5q-45 -21 -45 -57q0 -23 15 -35.5t38 -12.5q35 0 67.5 15zM110 690h109v-114h-109v114zM299 690h109v-114h-109v114z" />
    <glyph glyph-name="aring" unicode="&#xe5;" horiz-adv-x="541" 
d="M428 479q63 -43 63 -130v-349h-129v57q-34 -33 -79 -50.5t-86 -17.5q-76 0 -121 38t-45 104q0 93 96 141q34 16 74 28t128 35q11 2 33 8q-1 38 -24 54.5t-74 16.5q-45 0 -75.5 -15t-57.5 -49l-90 69q37 50 90.5 76.5t131.5 26.5q102 0 165 -43zM304.5 113
q32.5 15 57.5 44v90q-38 -11 -75.5 -22.5t-57.5 -21.5q-45 -21 -45 -57q0 -23 15 -35.5t38 -12.5q35 0 67.5 15zM180.5 591q-31.5 32 -31.5 78q0 45 32 77.5t78 32.5t78 -32t32 -78t-32 -78t-78 -32q-47 0 -78.5 32zM295 633.5q14 14.5 14 37.5q0 21 -13.5 34.5t-36.5 13.5
q-22 0 -36 -13.5t-14 -34.5q0 -22 14.5 -37t35.5 -15q22 0 36 14.5z" />
    <glyph glyph-name="ae" unicode="&#xe6;" horiz-adv-x="877" 
d="M498 222v-6q5 -54 34.5 -81.5t81.5 -27.5q40 0 68.5 11.5t54.5 44.5l93 -68q-48 -56 -99.5 -80.5t-118.5 -24.5t-122.5 25t-89.5 72q-75 -98 -199 -98q-77 0 -123.5 38.5t-46.5 105.5q0 46 25.5 81t73.5 58q73 36 229 61q2 9 8 27q-7 24 -31 36t-58 12q-91 0 -152 -70
l-92 72q38 50 99.5 80.5t138.5 30.5q51 0 95.5 -12.5t75.5 -38.5q63 52 155 52q69 0 122.5 -30t84 -85t30.5 -126q0 -39 -5 -59h-332zM528 386.5q-25 -24.5 -30 -68.5v-2h193q-2 42 -25.5 68.5t-68.5 26.5q-44 0 -69 -24.5zM316.5 115q31.5 16 45.5 50q-10 34 -12 77
q-91 -19 -132 -43q-33 -19 -33 -51q0 -22 16 -35.5t48 -13.5q36 0 67.5 16z" />
    <glyph glyph-name="ccedilla" unicode="&#xe7;" horiz-adv-x="536" 
d="M359.5 127.5q27.5 22.5 39.5 63.5l116 -42q-42 -129 -162 -154l-36 -51q38 -9 60.5 -30t22.5 -59q0 -47 -31.5 -73t-75.5 -26q-40 0 -71 19.5t-44 50.5l68 32q4 -14 14 -22.5t26 -8.5t25.5 9.5t9.5 25.5q0 27 -31 35l-78 22l42 72q-71 7 -121 44t-75 94.5t-25 125.5
q0 75 29 135.5t86 96t138 35.5q90 0 146.5 -40t86.5 -115l-121 -47q-11 42 -38.5 64.5t-69.5 22.5q-55 0 -84.5 -43t-29.5 -110q0 -66 29.5 -107.5t84.5 -41.5q42 0 69.5 22.5z" />
    <glyph glyph-name="egrave" unicode="&#xe8;" horiz-adv-x="553" 
d="M513 222h-332q4 -57 33.5 -86t82.5 -29q40 0 68.5 11.5t54.5 44.5l93 -68q-48 -56 -99.5 -80.5t-118.5 -24.5q-75 0 -134.5 31t-93.5 90t-34 141q0 80 31 141.5t87.5 95t129.5 33.5q69 0 122.5 -30t84 -85t30.5 -126q0 -39 -5 -59zM210 386q-25 -25 -29 -70h193
q-2 42 -25.5 68.5t-68.5 26.5t-70 -25zM71 690h148l111 -119h-104z" />
    <glyph glyph-name="eacute" unicode="&#xe9;" horiz-adv-x="553" 
d="M513 222h-332q4 -57 33.5 -86t82.5 -29q40 0 68.5 11.5t54.5 44.5l93 -68q-48 -56 -99.5 -80.5t-118.5 -24.5q-75 0 -134.5 31t-93.5 90t-34 141q0 80 31 141.5t87.5 95t129.5 33.5q69 0 122.5 -30t84 -85t30.5 -126q0 -39 -5 -59zM210 386q-25 -25 -29 -70h193
q-2 42 -25.5 68.5t-68.5 26.5t-70 -25zM339 690h148l-158 -119h-101z" />
    <glyph glyph-name="ecircumflex" unicode="&#xea;" horiz-adv-x="553" 
d="M513 222h-332q4 -57 33.5 -86t82.5 -29q40 0 68.5 11.5t54.5 44.5l93 -68q-48 -56 -99.5 -80.5t-118.5 -24.5q-75 0 -134.5 31t-93.5 90t-34 141q0 80 31 141.5t87.5 95t129.5 33.5q69 0 122.5 -30t84 -85t30.5 -126q0 -39 -5 -59zM210 386q-25 -25 -29 -70h193
q-2 42 -25.5 68.5t-68.5 26.5t-70 -25zM238 690h79l120 -128h-110l-50 64l-49 -64h-109z" />
    <glyph glyph-name="edieresis" unicode="&#xeb;" horiz-adv-x="553" 
d="M513 222h-332q4 -57 33.5 -86t82.5 -29q40 0 68.5 11.5t54.5 44.5l93 -68q-48 -56 -99.5 -80.5t-118.5 -24.5q-75 0 -134.5 31t-93.5 90t-34 141q0 80 31 141.5t87.5 95t129.5 33.5q69 0 122.5 -30t84 -85t30.5 -126q0 -39 -5 -59zM210 386q-25 -25 -29 -70h193
q-2 42 -25.5 68.5t-68.5 26.5t-70 -25zM128 690h109v-114h-109v114zM317 690h109v-114h-109v114z" />
    <glyph glyph-name="igrave" unicode="&#xec;" horiz-adv-x="278" 
d="M66 512h146v-512h-146v512zM-68 690h148l111 -119h-104z" />
    <glyph glyph-name="iacute" unicode="&#xed;" horiz-adv-x="278" 
d="M66 512h146v-512h-146v512zM200 690h148l-158 -119h-101z" />
    <glyph glyph-name="icircumflex" unicode="&#xee;" horiz-adv-x="278" 
d="M66 512h146v-512h-146v512zM99 690h79l120 -128h-110l-50 64l-49 -64h-109z" />
    <glyph glyph-name="idieresis" unicode="&#xef;" horiz-adv-x="278" 
d="M66 512h146v-512h-146v512zM-11 690h109v-114h-109v114zM178 690h109v-114h-109v114z" />
    <glyph glyph-name="eth" unicode="&#xf0;" horiz-adv-x="569" 
d="M484 505q55 -106 55 -253q0 -69 -30.5 -128.5t-88.5 -95.5t-136 -36q-79 0 -136.5 36t-87.5 95t-30 129q0 69 29 128.5t84 95.5t128 36q40 0 74 -14.5t51 -37.5q-41 85 -136 136l-38 -57l-52 33l34 51l-68 24l54 93q33 -11 72 -31l43 64l51 -31l-41 -61q114 -70 169 -176
zM360 151q27 39 27 101t-27 101t-76 39t-76.5 -39t-27.5 -101t27.5 -101t76.5 -39t76 39z" />
    <glyph glyph-name="ntilde" unicode="&#xf1;" horiz-adv-x="606" 
d="M64 512h145v-64h5q24 33 64 53.5t93 20.5q80 0 128.5 -50.5t48.5 -132.5v-339h-146v313q0 45 -23 67.5t-64 22.5q-46 0 -75 -27.5t-29 -72.5v-303h-147v512zM333 568.5q-20 9.5 -42 26.5q-16 12 -27.5 18t-24.5 6q-35 0 -36 -58h-86q0 133 107 133q30 0 49 -8.5t42 -25.5
q17 -13 27.5 -18.5t25.5 -5.5q38 0 38 56h82q0 -67 -28 -100t-78 -33q-29 0 -49 9.5z" />
    <glyph glyph-name="ograve" unicode="&#xf2;" horiz-adv-x="587" 
d="M159.5 19.5q-59.5 30.5 -93 90.5t-33.5 144q0 86 33.5 146t92.5 91t135 31t134.5 -31t92 -91t33.5 -146q0 -84 -33.5 -144t-92.5 -90.5t-134 -30.5t-134.5 30.5zM380 143.5q32 35.5 32 110.5q0 77 -32 113.5t-86 36.5q-53 0 -84.5 -36.5t-31.5 -113.5q0 -75 31.5 -110.5
t84.5 -35.5q54 0 86 35.5zM87 690h148l111 -119h-104z" />
    <glyph glyph-name="oacute" unicode="&#xf3;" horiz-adv-x="587" 
d="M159.5 19.5q-59.5 30.5 -93 90.5t-33.5 144q0 86 33.5 146t92.5 91t135 31t134.5 -31t92 -91t33.5 -146q0 -84 -33.5 -144t-92.5 -90.5t-134 -30.5t-134.5 30.5zM380 143.5q32 35.5 32 110.5q0 77 -32 113.5t-86 36.5q-53 0 -84.5 -36.5t-31.5 -113.5q0 -75 31.5 -110.5
t84.5 -35.5q54 0 86 35.5zM355 690h148l-158 -119h-101z" />
    <glyph glyph-name="ocircumflex" unicode="&#xf4;" horiz-adv-x="587" 
d="M159.5 19.5q-59.5 30.5 -93 90.5t-33.5 144q0 86 33.5 146t92.5 91t135 31t134.5 -31t92 -91t33.5 -146q0 -84 -33.5 -144t-92.5 -90.5t-134 -30.5t-134.5 30.5zM380 143.5q32 35.5 32 110.5q0 77 -32 113.5t-86 36.5q-53 0 -84.5 -36.5t-31.5 -113.5q0 -75 31.5 -110.5
t84.5 -35.5q54 0 86 35.5zM254 690h79l120 -128h-110l-50 64l-49 -64h-109z" />
    <glyph glyph-name="otilde" unicode="&#xf5;" horiz-adv-x="587" 
d="M159.5 19.5q-59.5 30.5 -93 90.5t-33.5 144q0 86 33.5 146t92.5 91t135 31t134.5 -31t92 -91t33.5 -146q0 -84 -33.5 -144t-92.5 -90.5t-134 -30.5t-134.5 30.5zM380 143.5q32 35.5 32 110.5q0 77 -32 113.5t-86 36.5q-53 0 -84.5 -36.5t-31.5 -113.5q0 -75 31.5 -110.5
t84.5 -35.5q54 0 86 35.5zM324 566.5q-20 9.5 -42 26.5q-16 12 -27.5 18t-24.5 6q-35 0 -36 -58h-86q0 133 107 133q30 0 49 -8.5t42 -25.5q17 -13 27.5 -18.5t25.5 -5.5q38 0 38 56h82q0 -67 -28 -100t-78 -33q-29 0 -49 9.5z" />
    <glyph glyph-name="odieresis" unicode="&#xf6;" horiz-adv-x="587" 
d="M159.5 19.5q-59.5 30.5 -93 90.5t-33.5 144q0 86 33.5 146t92.5 91t135 31t134.5 -31t92 -91t33.5 -146q0 -84 -33.5 -144t-92.5 -90.5t-134 -30.5t-134.5 30.5zM380 143.5q32 35.5 32 110.5q0 77 -32 113.5t-86 36.5q-53 0 -84.5 -36.5t-31.5 -113.5q0 -75 31.5 -110.5
t84.5 -35.5q54 0 86 35.5zM144 690h109v-114h-109v114zM333 690h109v-114h-109v114z" />
    <glyph glyph-name="divide" unicode="&#xf7;" horiz-adv-x="818" 
d="M334 658h150v-149h-150v149zM51 403h716v-110h-716v110zM334 180h150v-148h-150v148z" />
    <glyph glyph-name="oslash" unicode="&#xf8;" horiz-adv-x="587" 
d="M554 254q0 -84 -33.5 -144t-92.5 -90.5t-134 -30.5q-99 0 -168 52l-19 -19l-48 45l21 21q-47 67 -47 166q0 86 33.5 146t92.5 91t135 31q99 0 168 -52l19 19l47 -45l-21 -21q47 -67 47 -169zM185 193l185 185q-29 26 -76 26q-53 0 -84.5 -36.5t-31.5 -113.5q0 -37 7 -61z
M380 143.5q32 35.5 32 110.5q0 36 -8 66l-185 -186q27 -26 75 -26q54 0 86 35.5z" />
    <glyph glyph-name="ugrave" unicode="&#xf9;" horiz-adv-x="613" 
d="M549 0h-144v64h-8q-24 -37 -64.5 -56.5t-90.5 -19.5q-84 0 -130.5 52t-46.5 134v338h147v-301q0 -43 24 -67.5t66 -24.5q48 0 74.5 28.5t26.5 72.5v292h146v-512zM100 690h148l111 -119h-104z" />
    <glyph glyph-name="uacute" unicode="&#xfa;" horiz-adv-x="613" 
d="M549 0h-144v64h-8q-24 -37 -64.5 -56.5t-90.5 -19.5q-84 0 -130.5 52t-46.5 134v338h147v-301q0 -43 24 -67.5t66 -24.5q48 0 74.5 28.5t26.5 72.5v292h146v-512zM368 690h148l-158 -119h-101z" />
    <glyph glyph-name="ucircumflex" unicode="&#xfb;" horiz-adv-x="613" 
d="M549 0h-144v64h-8q-24 -37 -64.5 -56.5t-90.5 -19.5q-84 0 -130.5 52t-46.5 134v338h147v-301q0 -43 24 -67.5t66 -24.5q48 0 74.5 28.5t26.5 72.5v292h146v-512zM267 690h79l120 -128h-110l-50 64l-49 -64h-109z" />
    <glyph glyph-name="udieresis" unicode="&#xfc;" horiz-adv-x="613" 
d="M549 0h-144v64h-8q-24 -37 -64.5 -56.5t-90.5 -19.5q-84 0 -130.5 52t-46.5 134v338h147v-301q0 -43 24 -67.5t66 -24.5q48 0 74.5 28.5t26.5 72.5v292h146v-512zM157 690h109v-114h-109v114zM346 690h109v-114h-109v114z" />
    <glyph glyph-name="yacute" unicode="&#xfd;" horiz-adv-x="514" 
d="M41 -63q63 0 95.5 20.5t46.5 55.5l-187 499h156l103 -356h7l104 356h157l-198 -522q-27 -70 -60.5 -106t-85 -49t-138.5 -13v115zM321 690h148l-158 -119h-101z" />
    <glyph glyph-name="thorn" unicode="&#xfe;" horiz-adv-x="606" 
d="M64 690h149v-260h3q30 36 66 52t82 16q64 0 111 -32.5t72.5 -90t25.5 -131.5t-25.5 -131.5t-72.5 -90t-111 -32.5q-47 0 -83 14t-65 52h-5v-234h-147v868zM406.5 147.5q30.5 36.5 30.5 101.5q0 68 -30.5 105.5t-85.5 37.5q-53 0 -83 -39.5t-30 -103.5q0 -62 30 -100
t83 -38q55 0 85.5 36.5z" />
    <glyph glyph-name="ydieresis" unicode="&#xff;" horiz-adv-x="514" 
d="M41 -63q63 0 95.5 20.5t46.5 55.5l-187 499h156l103 -356h7l104 356h157l-198 -522q-27 -70 -60.5 -106t-85 -49t-138.5 -13v115zM110 690h109v-114h-109v114zM299 690h109v-114h-109v114z" />
    <glyph glyph-name="Amacron" unicode="&#x100;" horiz-adv-x="677" 
d="M467 154h-255l-49 -154h-164l240 690h198l241 -690h-163zM429 275l-87 279h-4l-88 -279h179zM200 851h281v-75h-281v75z" />
    <glyph glyph-name="amacron" unicode="&#x101;" horiz-adv-x="541" 
d="M428 479q63 -43 63 -130v-349h-129v57q-34 -33 -79 -50.5t-86 -17.5q-76 0 -121 38t-45 104q0 93 96 141q34 16 74 28t128 35q11 2 33 8q-1 38 -24 54.5t-74 16.5q-45 0 -75.5 -15t-57.5 -49l-90 69q37 50 90.5 76.5t131.5 26.5q102 0 165 -43zM304.5 113
q32.5 15 57.5 44v90q-38 -11 -75.5 -22.5t-57.5 -21.5q-45 -21 -45 -57q0 -23 15 -35.5t38 -12.5q35 0 67.5 15zM121 674h281v-75h-281v75z" />
    <glyph glyph-name="Abreve" unicode="&#x102;" horiz-adv-x="677" 
d="M467 154h-255l-49 -154h-164l240 690h198l241 -690h-163zM429 275l-87 279h-4l-88 -279h179zM224.5 768q-39.5 34 -39.5 98h90q0 -29 18 -42.5t46 -13.5q65 0 65 56h93q0 -67 -41 -99.5t-117 -32.5q-75 0 -114.5 34z" />
    <glyph glyph-name="abreve" unicode="&#x103;" horiz-adv-x="541" 
d="M428 479q63 -43 63 -130v-349h-129v57q-34 -33 -79 -50.5t-86 -17.5q-76 0 -121 38t-45 104q0 93 96 141q34 16 74 28t128 35q11 2 33 8q-1 38 -24 54.5t-74 16.5q-45 0 -75.5 -15t-57.5 -49l-90 69q37 50 90.5 76.5t131.5 26.5q102 0 165 -43zM304.5 113
q32.5 15 57.5 44v90q-38 -11 -75.5 -22.5t-57.5 -21.5q-45 -21 -45 -57q0 -23 15 -35.5t38 -12.5q35 0 67.5 15zM145.5 591q-39.5 34 -39.5 98h90q0 -29 18 -42.5t46 -13.5q65 0 65 56h93q0 -67 -41 -99.5t-117 -32.5q-75 0 -114.5 34z" />
    <glyph glyph-name="Aogonek" unicode="&#x104;" horiz-adv-x="677" 
d="M729 -170q-40 -61 -112 -61q-47 0 -81 26t-34 80q0 72 78 125h-65l-48 154h-255l-49 -154h-164l240 690h198l241 -690l-27 -24q-36 -32 -51 -50.5t-15 -38.5q0 -16 8 -24.5t20 -8.5q7 0 10 1q23 4 36 25zM429 275l-87 279h-4l-88 -279h179z" />
    <glyph glyph-name="aogonek" unicode="&#x105;" horiz-adv-x="541" 
d="M542 -170q-40 -61 -112 -61q-47 0 -81 26t-34 80q0 72 78 125h-31v57q-34 -33 -79 -50.5t-86 -17.5q-76 0 -121 38t-45 104q0 93 96 141q34 16 74 28t128 35q11 2 33 8q-1 38 -24 54.5t-74 16.5q-45 0 -75.5 -15t-57.5 -49l-90 69q37 50 90.5 76.5t131.5 26.5
q102 0 165 -43t63 -130v-349l-27 -24q-36 -32 -51 -50.5t-15 -38.5q0 -16 8 -24.5t20 -8.5q7 0 10 1q23 4 36 25zM304.5 113q32.5 15 57.5 44v90q-38 -11 -75.5 -22.5t-57.5 -21.5q-45 -21 -45 -57q0 -23 15 -35.5t38 -12.5q35 0 67.5 15z" />
    <glyph glyph-name="Cacute" unicode="&#x106;" horiz-adv-x="654" 
d="M165 38.5q-70 48.5 -103 129t-33 177.5t33 177.5t103 129.5t177 49q108 0 181.5 -52t108.5 -154l-141 -54q-13 63 -53 95.5t-97 32.5q-76 0 -120.5 -58.5t-44.5 -161.5q0 -70 20.5 -121t57.5 -78.5t85 -27.5q55 0 95 34t59 97l140 -56q-34 -102 -108.5 -154.5
t-183.5 -52.5q-106 0 -176 48.5zM395 867h148l-158 -119h-101z" />
    <glyph glyph-name="cacute" unicode="&#x107;" horiz-adv-x="536" 
d="M148.5 25q-57.5 36 -86.5 96.5t-29 133.5q0 75 29 135.5t86 96t138 35.5q90 0 146.5 -40t86.5 -115l-121 -47q-11 42 -38.5 64.5t-69.5 22.5q-55 0 -84.5 -43t-29.5 -110q0 -66 29.5 -107.5t84.5 -41.5q42 0 69.5 22.5t39.5 63.5l116 -42q-26 -80 -82.5 -120t-145.5 -40
q-81 0 -138.5 36zM336 690h148l-158 -119h-101z" />
    <glyph glyph-name="Cdotaccent" unicode="&#x10a;" horiz-adv-x="654" 
d="M165 38.5q-70 48.5 -103 129t-33 177.5t33 177.5t103 129.5t177 49q108 0 181.5 -52t108.5 -154l-141 -54q-13 63 -53 95.5t-97 32.5q-76 0 -120.5 -58.5t-44.5 -161.5q0 -70 20.5 -121t57.5 -78.5t85 -27.5q55 0 95 34t59 97l140 -56q-34 -102 -108.5 -154.5
t-183.5 -52.5q-106 0 -176 48.5zM279 867h108v-113h-108v113z" />
    <glyph glyph-name="cdotaccent" unicode="&#x10b;" horiz-adv-x="536" 
d="M148.5 25q-57.5 36 -86.5 96.5t-29 133.5q0 75 29 135.5t86 96t138 35.5q90 0 146.5 -40t86.5 -115l-121 -47q-11 42 -38.5 64.5t-69.5 22.5q-55 0 -84.5 -43t-29.5 -110q0 -66 29.5 -107.5t84.5 -41.5q42 0 69.5 22.5t39.5 63.5l116 -42q-26 -80 -82.5 -120t-145.5 -40
q-81 0 -138.5 36zM220 690h108v-113h-108v113z" />
    <glyph glyph-name="Ccaron" unicode="&#x10c;" horiz-adv-x="654" 
d="M165 38.5q-70 48.5 -103 129t-33 177.5t33 177.5t103 129.5t177 49q108 0 181.5 -52t108.5 -154l-141 -54q-13 63 -53 95.5t-97 32.5q-76 0 -120.5 -58.5t-44.5 -161.5q0 -70 20.5 -121t57.5 -78.5t85 -27.5q55 0 95 34t59 97l140 -56q-34 -102 -108.5 -154.5
t-183.5 -52.5q-106 0 -176 48.5zM174 867h110l49 -61l50 61h110l-120 -126h-79z" />
    <glyph glyph-name="ccaron" unicode="&#x10d;" horiz-adv-x="536" 
d="M148.5 25q-57.5 36 -86.5 96.5t-29 133.5q0 75 29 135.5t86 96t138 35.5q90 0 146.5 -40t86.5 -115l-121 -47q-11 42 -38.5 64.5t-69.5 22.5q-55 0 -84.5 -43t-29.5 -110q0 -66 29.5 -107.5t84.5 -41.5q42 0 69.5 22.5t39.5 63.5l116 -42q-26 -80 -82.5 -120t-145.5 -40
q-81 0 -138.5 36zM115 690h110l49 -61l50 61h110l-120 -126h-79z" />
    <glyph glyph-name="Dcaron" unicode="&#x10e;" horiz-adv-x="680" 
d="M73 690h212q179 0 272.5 -91t93.5 -255q0 -166 -94 -255t-273 -89h-211v690zM272 134q229 0 229 212q0 103 -54.5 156.5t-163.5 53.5h-58v-422h47zM136 867h110l49 -61l50 61h110l-120 -126h-79z" />
    <glyph glyph-name="dcaron" unicode="&#x10f;" horiz-adv-x="699" 
d="M761 691v-136l-75 -129h-65l43 129h-55v136h152zM412 690h147v-690h-144v70h-1q-21 -36 -63.5 -58.5t-96.5 -22.5q-68 0 -118 33.5t-76.5 94t-26.5 139.5t26 139t75.5 93.5t117.5 33.5q52 0 94.5 -21.5t65.5 -55.5v245zM384 149.5q31 38.5 31 107.5q0 66 -31.5 104
t-83.5 38q-58 0 -88.5 -36t-30.5 -106q0 -146 119 -146q53 0 84 38.5z" />
    <glyph glyph-name="Dcroat" unicode="&#x110;" horiz-adv-x="676" 
d="M66 300h-62v96h62v294h205q179 0 276 -90.5t97 -259.5q0 -162 -98 -251t-276 -89h-204v300zM258 126q252 0 252 219q0 112 -57.5 166t-183.5 54h-70v-169h176v-96h-176v-174h59z" />
    <glyph glyph-name="dcroat" unicode="&#x111;" horiz-adv-x="623" 
d="M623 589h-64v-589h-144v70h-1q-21 -36 -63.5 -58.5t-96.5 -22.5q-68 0 -118 33.5t-76.5 94t-26.5 139.5t26 139t75.5 93.5t117.5 33.5q52 0 94.5 -21.5t65.5 -55.5v144h-113v67h113v34h147v-34h64v-67zM384 149.5q31 38.5 31 107.5q0 66 -31.5 104t-83.5 38
q-58 0 -88.5 -36t-30.5 -106q0 -146 119 -146q53 0 84 38.5z" />
    <glyph glyph-name="Emacron" unicode="&#x112;" horiz-adv-x="586" 
d="M73 690h468v-128h-316v-152h286v-128h-286v-153h316v-129h-468v690zM169 851h281v-75h-281v75z" />
    <glyph glyph-name="emacron" unicode="&#x113;" horiz-adv-x="553" 
d="M513 222h-332q4 -57 33.5 -86t82.5 -29q40 0 68.5 11.5t54.5 44.5l93 -68q-48 -56 -99.5 -80.5t-118.5 -24.5q-75 0 -134.5 31t-93.5 90t-34 141q0 80 31 141.5t87.5 95t129.5 33.5q69 0 122.5 -30t84 -85t30.5 -126q0 -39 -5 -59zM210 386q-25 -25 -29 -70h193
q-2 42 -25.5 68.5t-68.5 26.5t-70 -25zM139 674h281v-75h-281v75z" />
    <glyph glyph-name="Edotaccent" unicode="&#x116;" horiz-adv-x="586" 
d="M73 690h468v-128h-316v-152h286v-128h-286v-153h316v-129h-468v690zM253 867h108v-113h-108v113z" />
    <glyph glyph-name="edotaccent" unicode="&#x117;" horiz-adv-x="553" 
d="M513 222h-332q4 -57 33.5 -86t82.5 -29q40 0 68.5 11.5t54.5 44.5l93 -68q-48 -56 -99.5 -80.5t-118.5 -24.5q-75 0 -134.5 31t-93.5 90t-34 141q0 80 31 141.5t87.5 95t129.5 33.5q69 0 122.5 -30t84 -85t30.5 -126q0 -39 -5 -59zM210 386q-25 -25 -29 -70h193
q-2 42 -25.5 68.5t-68.5 26.5t-70 -25zM223 690h108v-113h-108v113z" />
    <glyph glyph-name="Eogonek" unicode="&#x118;" horiz-adv-x="586" 
d="M592 -170q-40 -61 -112 -61q-47 0 -81 26t-34 80q0 72 78 125h-370v690h468v-128h-316v-152h286v-128h-286v-153h316v-129l-27 -24q-36 -32 -51 -50.5t-15 -38.5q0 -16 8 -24.5t20 -8.5q7 0 10 1q23 4 36 25z" />
    <glyph glyph-name="eogonek" unicode="&#x119;" horiz-adv-x="553" 
d="M534 -107q-40 -61 -112 -61q-47 0 -81 26t-34 80q0 28 11 53q-7 -1 -23 -1q-75 0 -134.5 31t-93.5 90t-34 141q0 80 31 141.5t87.5 95t129.5 33.5q69 0 122.5 -30t84 -85t30.5 -126q0 -39 -5 -59h-332q4 -57 33.5 -86t82.5 -29q40 0 68.5 11.5t54.5 44.5l93 -68
q-13 -16 -31 -32h1l-27 -24q-36 -32 -51 -50.5t-15 -38.5q0 -16 8 -24.5t20 -8.5q7 0 10 1q23 4 36 25zM210 386q-25 -25 -29 -70h193q-2 42 -25.5 68.5t-68.5 26.5t-70 -25z" />
    <glyph glyph-name="Ecaron" unicode="&#x11a;" horiz-adv-x="586" 
d="M73 690h468v-128h-316v-152h286v-128h-286v-153h316v-129h-468v690zM148 867h110l49 -61l50 61h110l-120 -126h-79z" />
    <glyph glyph-name="ecaron" unicode="&#x11b;" horiz-adv-x="553" 
d="M513 222h-332q4 -57 33.5 -86t82.5 -29q40 0 68.5 11.5t54.5 44.5l93 -68q-48 -56 -99.5 -80.5t-118.5 -24.5q-75 0 -134.5 31t-93.5 90t-34 141q0 80 31 141.5t87.5 95t129.5 33.5q69 0 122.5 -30t84 -85t30.5 -126q0 -39 -5 -59zM210 386q-25 -25 -29 -70h193
q-2 42 -25.5 68.5t-68.5 26.5t-70 -25zM118 690h110l49 -61l50 61h110l-120 -126h-79z" />
    <glyph glyph-name="Gbreve" unicode="&#x11e;" horiz-adv-x="726" 
d="M667 386v-386h-122l-5 87q-31 -46 -87 -71.5t-121 -25.5q-94 0 -163 48t-104.5 129.5t-35.5 180.5t39 179t115 127t183 47q110 0 186.5 -54.5t104.5 -141.5l-128 -50q-20 58 -62.5 88.5t-104.5 30.5q-93 0 -138 -64t-45 -163q0 -100 45 -162.5t138 -62.5q51 0 88.5 20
t56.5 52.5t19 70.5h-148v121h289zM241.5 768q-39.5 34 -39.5 98h90q0 -29 18 -42.5t46 -13.5q65 0 65 56h93q0 -67 -41 -99.5t-117 -32.5q-75 0 -114.5 34z" />
    <glyph glyph-name="gbreve" unicode="&#x11f;" horiz-adv-x="621" 
d="M557 512v-480q0 -116 -72.5 -168t-174.5 -52q-83 0 -148 21t-112 73l67 88q33 -40 79.5 -57t91.5 -17q54 0 88.5 26.5t34.5 78.5v61q-18 -30 -58.5 -50t-94.5 -20q-66 0 -117 30.5t-79.5 88t-28.5 135.5q0 79 29 136t79.5 86.5t114.5 29.5q51 0 92.5 -20t62.5 -52v62h146
zM386.5 166.5q30.5 36.5 30.5 96.5q0 61 -31 101t-88 40q-56 0 -86.5 -38t-30.5 -99t31 -99t88 -38q56 0 86.5 36.5zM181.5 591q-39.5 34 -39.5 98h90q0 -29 18 -42.5t46 -13.5q65 0 65 56h93q0 -67 -41 -99.5t-117 -32.5q-75 0 -114.5 34z" />
    <glyph glyph-name="Gdotaccent" unicode="&#x120;" horiz-adv-x="726" 
d="M667 386v-386h-122l-5 87q-31 -46 -87 -71.5t-121 -25.5q-94 0 -163 48t-104.5 129.5t-35.5 180.5t39 179t115 127t183 47q110 0 186.5 -54.5t104.5 -141.5l-128 -50q-20 58 -62.5 88.5t-104.5 30.5q-93 0 -138 -64t-45 -163q0 -100 45 -162.5t138 -62.5q51 0 88.5 20
t56.5 52.5t19 70.5h-148v121h289zM301 867h108v-113h-108v113z" />
    <glyph glyph-name="gdotaccent" unicode="&#x121;" horiz-adv-x="621" 
d="M557 512v-480q0 -116 -72.5 -168t-174.5 -52q-83 0 -148 21t-112 73l67 88q33 -40 79.5 -57t91.5 -17q54 0 88.5 26.5t34.5 78.5v61q-18 -30 -58.5 -50t-94.5 -20q-66 0 -117 30.5t-79.5 88t-28.5 135.5q0 79 29 136t79.5 86.5t114.5 29.5q51 0 92.5 -20t62.5 -52v62h146
zM386.5 166.5q30.5 36.5 30.5 96.5q0 61 -31 101t-88 40q-56 0 -86.5 -38t-30.5 -99t31 -99t88 -38q56 0 86.5 36.5zM241 690h108v-113h-108v113z" />
    <glyph glyph-name="Gcommaaccent" unicode="&#x122;" horiz-adv-x="726" 
d="M667 386v-386h-122l-5 87q-31 -46 -87 -71.5t-121 -25.5q-94 0 -163 48t-104.5 129.5t-35.5 180.5t39 179t115 127t183 47q110 0 186.5 -54.5t104.5 -141.5l-128 -50q-20 58 -62.5 88.5t-104.5 30.5q-93 0 -138 -64t-45 -163q0 -100 45 -162.5t138 -62.5q51 0 88.5 20
t56.5 52.5t19 70.5h-148v121h289zM279 -65h141l-129 -148h-80z" />
    <glyph glyph-name="gcommaaccent" unicode="&#x123;" horiz-adv-x="619" 
d="M360 558h-141l129 132h80zM557 512v-480q0 -116 -72.5 -168t-174.5 -52q-83 0 -148 21t-112 73l67 88q33 -40 79.5 -57t91.5 -17q54 0 88.5 26.5t34.5 78.5v61q-18 -30 -58.5 -50t-94.5 -20q-66 0 -117 30.5t-79.5 88t-28.5 135.5q0 79 29 136t79.5 86.5t114.5 29.5
q51 0 92.5 -20t62.5 -52v62h146zM386.5 166.5q30.5 36.5 30.5 96.5q0 61 -31 101t-88 40q-56 0 -86.5 -38t-30.5 -99t31 -99t88 -38q56 0 86.5 36.5z" />
    <glyph glyph-name="Hbar" unicode="&#x126;" horiz-adv-x="724" 
d="M700 501h-49v-501h-152v278h-274v-278h-152v501h-50v86h50v102h152v-102h274v102h152v-102h49v-86zM499 501h-274v-88h274v88z" />
    <glyph glyph-name="hbar" unicode="&#x127;" horiz-adv-x="606" 
d="M501.5 471q46.5 -51 46.5 -132v-339h-146v313q0 43 -22 67.5t-63 24.5q-48 0 -77 -29t-29 -73v-303h-147v566h-66v67h66v57h147v-57h111v-67h-111v-118h3q25 35 66.5 54.5t91.5 19.5q83 0 129.5 -51z" />
    <glyph glyph-name="Itilde" unicode="&#x128;" horiz-adv-x="298" 
d="M73 690h152v-690h-152v690zM177 743.5q-20 9.5 -42 26.5q-16 12 -27.5 18t-24.5 6q-35 0 -36 -58h-86q0 133 107 133q30 0 49 -8.5t42 -25.5q17 -13 27.5 -18.5t25.5 -5.5q38 0 38 56h82q0 -67 -28 -100t-78 -33q-29 0 -49 9.5z" />
    <glyph glyph-name="itilde" unicode="&#x129;" horiz-adv-x="278" 
d="M66 512h146v-512h-146v512zM169 566.5q-20 9.5 -42 26.5q-16 12 -27.5 18t-24.5 6q-35 0 -36 -58h-86q0 133 107 133q30 0 49 -8.5t42 -25.5q17 -13 27.5 -18.5t25.5 -5.5q38 0 38 56h82q0 -67 -28 -100t-78 -33q-29 0 -49 9.5z" />
    <glyph glyph-name="Imacron" unicode="&#x12a;" horiz-adv-x="298" 
d="M73 690h152v-690h-152v690zM8 851h281v-75h-281v75z" />
    <glyph glyph-name="imacron" unicode="&#x12b;" horiz-adv-x="278" 
d="M66 512h146v-512h-146v512zM0 674h281v-75h-281v75z" />
    <glyph glyph-name="Iogonek" unicode="&#x12e;" horiz-adv-x="298" 
d="M276 -170q-40 -61 -112 -61q-47 0 -81 26t-34 80q0 72 78 125h-54v690h152v-690l-27 -24q-36 -32 -51 -50.5t-15 -38.5q0 -16 8 -24.5t20 -8.5q7 0 10 1q23 4 36 25z" />
    <glyph glyph-name="iogonek" unicode="&#x12f;" horiz-adv-x="276" 
d="M212 577h-148v113h148v-113zM257 -170q-40 -61 -112 -61q-47 0 -81 26t-34 80q0 72 78 125h-44v512h147v-512h-5l-27 -24q-36 -32 -51 -50.5t-15 -38.5q0 -16 8 -24.5t20 -8.5q7 0 10 1q23 4 36 25z" />
    <glyph glyph-name="Idotaccent" unicode="&#x130;" horiz-adv-x="298" 
d="M73 690h152v-690h-152v690zM92 867h108v-113h-108v113z" />
    <glyph glyph-name="dotlessi" unicode="&#x131;" horiz-adv-x="278" 
d="M66 512h146v-512h-146v512z" />
    <glyph glyph-name="Kcommaaccent" unicode="&#x136;" horiz-adv-x="708" 
d="M317 287l-92 -99v-188h-152v689h152v-315l272 315h192l-273 -295l290 -394h-190zM291 -65h141l-129 -148h-80z" />
    <glyph glyph-name="kcommaaccent" unicode="&#x137;" horiz-adv-x="581" 
d="M282 221l-71 -70v-151h-147v690h147v-371l191 193h177l-203 -199l219 -313h-169zM236 -65h141l-129 -148h-80z" />
    <glyph glyph-name="kgreenlandic" unicode="&#x138;" horiz-adv-x="579" 
d="M277 217l-68 -66v-151h-147v512h147v-191l185 191h183l-203 -199l219 -313h-176z" />
    <glyph glyph-name="Lacute" unicode="&#x139;" horiz-adv-x="526" 
d="M73 690h152v-562h295v-128h-447v690zM206 868h148l-158 -119h-101z" />
    <glyph glyph-name="lacute" unicode="&#x13a;" horiz-adv-x="278" 
d="M66 690h146v-690h-146v690zM200 868h148l-158 -119h-101z" />
    <glyph glyph-name="Lcommaaccent" unicode="&#x13b;" horiz-adv-x="526" 
d="M73 690h152v-562h295v-128h-447v690zM230 -65h141l-129 -148h-80z" />
    <glyph glyph-name="lcommaaccent" unicode="&#x13c;" horiz-adv-x="278" 
d="M66 690h146v-690h-146v690zM68 -65h141l-129 -148h-80z" />
    <glyph glyph-name="Lcaron" unicode="&#x13d;" horiz-adv-x="526" 
d="M225 128h295v-128h-447v690h152v-562zM522 690v-143l-79 -136h-68l45 136h-58v143h160z" />
    <glyph glyph-name="lcaron" unicode="&#x13e;" horiz-adv-x="375" 
d="M66 690h146v-690h-146v690zM430 690v-143l-79 -136h-68l45 136h-58v143h160z" />
    <glyph glyph-name="Lslash" unicode="&#x141;" horiz-adv-x="526" 
d="M520 128v-128h-447v194l-76 -58v112l76 59v383h152v-264l99 77v-119l-99 -75v-181h295z" />
    <glyph glyph-name="lslash" unicode="&#x142;" horiz-adv-x="278" 
d="M315 424l-103 -78v-346h-146v236l-92 -70v117l92 72v335h146v-221l103 80v-125z" />
    <glyph glyph-name="Nacute" unicode="&#x143;" horiz-adv-x="757" 
d="M73 690h160l295 -469h5v469h151v-690h-162l-292 467h-5v-467h-152v690zM438 867h148l-158 -119h-101z" />
    <glyph glyph-name="nacute" unicode="&#x144;" horiz-adv-x="606" 
d="M64 512h145v-64h5q24 33 64 53.5t93 20.5q80 0 128.5 -50.5t48.5 -132.5v-339h-146v313q0 45 -23 67.5t-64 22.5q-46 0 -75 -27.5t-29 -72.5v-303h-147v512zM364 692h148l-158 -119h-101z" />
    <glyph glyph-name="Ncommaaccent" unicode="&#x145;" horiz-adv-x="757" 
d="M73 690h160l295 -469h5v469h151v-690h-162l-292 467h-5v-467h-152v690zM306 -65h141l-129 -148h-80z" />
    <glyph glyph-name="ncommaaccent" unicode="&#x146;" horiz-adv-x="606" 
d="M64 512h145v-64h5q24 33 64 53.5t93 20.5q80 0 128.5 -50.5t48.5 -132.5v-339h-146v313q0 45 -23 67.5t-64 22.5q-46 0 -75 -27.5t-29 -72.5v-303h-147v512zM235 -65h141l-129 -148h-80z" />
    <glyph glyph-name="Ncaron" unicode="&#x147;" horiz-adv-x="757" 
d="M73 690h160l295 -469h5v469h151v-690h-162l-292 467h-5v-467h-152v690zM217 867h110l49 -61l50 61h110l-120 -126h-79z" />
    <glyph glyph-name="ncaron" unicode="&#x148;" horiz-adv-x="606" 
d="M64 512h145v-64h5q24 33 64 53.5t93 20.5q80 0 128.5 -50.5t48.5 -132.5v-339h-146v313q0 45 -23 67.5t-64 22.5q-46 0 -75 -27.5t-29 -72.5v-303h-147v512zM143 692h110l49 -61l50 61h110l-120 -126h-79z" />
    <glyph glyph-name="Eng" unicode="&#x14a;" horiz-adv-x="757" 
d="M684 690v-690q0 -75 -41 -108t-133 -33h-56v72h29q54 0 54 69h-15l-292 467h-5v-467h-152v690h160l295 -469h5v469h151z" />
    <glyph glyph-name="eng" unicode="&#x14b;" horiz-adv-x="613" 
d="M64 488h135v-78h8q26 46 67.5 66t88.5 20q63 0 105 -29.5t61 -75.5t19 -98v-276q0 -40 -9.5 -73t-48 -59t-117.5 -26h-69v95h45q32 0 44 17.5t12 41.5v255q0 44 -23.5 73.5t-67.5 29.5q-46 0 -76.5 -31.5t-30.5 -78.5v-261h-143v488z" />
    <glyph glyph-name="Omacron" unicode="&#x14c;" horiz-adv-x="721" 
d="M184 33.5q-74 43.5 -114.5 123.5t-40.5 188t40.5 188t114.5 123.5t174 43.5q101 0 176.5 -43.5t116.5 -123.5t41 -188t-41 -188t-116.5 -123.5t-176.5 -43.5q-100 0 -174 43.5zM485 181.5q47 60.5 47 163.5t-47 163.5t-127 60.5q-77 0 -122.5 -60.5t-45.5 -163.5
t45.5 -163.5t122.5 -60.5q80 0 127 60.5zM219 851h281v-75h-281v75z" />
    <glyph glyph-name="omacron" unicode="&#x14d;" horiz-adv-x="587" 
d="M159.5 19.5q-59.5 30.5 -93 90.5t-33.5 144q0 86 33.5 146t92.5 91t135 31t134.5 -31t92 -91t33.5 -146q0 -84 -33.5 -144t-92.5 -90.5t-134 -30.5t-134.5 30.5zM380 143.5q32 35.5 32 110.5q0 77 -32 113.5t-86 36.5q-53 0 -84.5 -36.5t-31.5 -113.5q0 -75 31.5 -110.5
t84.5 -35.5q54 0 86 35.5zM155 674h281v-75h-281v75z" />
    <glyph glyph-name="Ohungarumlaut" unicode="&#x150;" horiz-adv-x="721" 
d="M184 33.5q-74 43.5 -114.5 123.5t-40.5 188t40.5 188t114.5 123.5t174 43.5q101 0 176.5 -43.5t116.5 -123.5t41 -188t-41 -188t-116.5 -123.5t-176.5 -43.5q-100 0 -174 43.5zM485 181.5q47 60.5 47 163.5t-47 163.5t-127 60.5q-77 0 -122.5 -60.5t-45.5 -163.5
t45.5 -163.5t122.5 -60.5q80 0 127 60.5zM301 867h119l-116 -114h-104zM487 867h137l-135 -114h-102z" />
    <glyph glyph-name="ohungarumlaut" unicode="&#x151;" horiz-adv-x="587" 
d="M159.5 19.5q-59.5 30.5 -93 90.5t-33.5 144q0 86 33.5 146t92.5 91t135 31t134.5 -31t92 -91t33.5 -146q0 -84 -33.5 -144t-92.5 -90.5t-134 -30.5t-134.5 30.5zM380 143.5q32 35.5 32 110.5q0 77 -32 113.5t-86 36.5q-53 0 -84.5 -36.5t-31.5 -113.5q0 -75 31.5 -110.5
t84.5 -35.5q54 0 86 35.5zM237 690h119l-116 -114h-104zM423 690h137l-135 -114h-102z" />
    <glyph glyph-name="OE" unicode="&#x152;" horiz-adv-x="1078" 
d="M737 562v-152h268v-128h-268v-153h296v-129h-439v78q-44 -43 -104 -65.5t-132 -22.5q-100 0 -174 43.5t-114.5 123.5t-40.5 188t40.5 188t114.5 123.5t174 43.5q72 0 132 -22.5t104 -65.5v78h439v-128h-296zM485 181.5q47 60.5 47 163.5t-47 163.5t-127 60.5
q-77 0 -122.5 -60.5t-45.5 -163.5t45.5 -163.5t122.5 -60.5q80 0 127 60.5z" />
    <glyph glyph-name="oe" unicode="&#x153;" horiz-adv-x="947" 
d="M899 222h-332q4 -57 33.5 -86t82.5 -29q40 0 68.5 11.5t54.5 44.5l93 -68q-48 -56 -99.5 -80.5t-118.5 -24.5q-59 0 -108.5 19t-84.5 55q-35 -37 -85 -56t-109 -19q-75 0 -134.5 30.5t-93 90.5t-33.5 144q0 86 33.5 146t92.5 91t135 31q59 0 108.5 -19t84.5 -56
q32 36 78.5 55.5t101.5 19.5q69 0 122.5 -30t84 -85t30.5 -126q0 -39 -5 -59zM596 386q-25 -25 -29 -70h193q-2 42 -25.5 68.5t-68.5 26.5t-70 -25zM380 143.5q32 35.5 32 110.5q0 77 -32 113.5t-86 36.5q-53 0 -84.5 -36.5t-31.5 -113.5q0 -75 31.5 -110.5t84.5 -35.5
q54 0 86 35.5z" />
    <glyph glyph-name="Racute" unicode="&#x154;" horiz-adv-x="675" 
d="M73 690h332q66 0 118.5 -24.5t82 -70.5t29.5 -109q0 -67 -33 -114t-94 -72l163 -301h-169l-136 279h-143v-279h-150v691zM396 396q46 1 69 23.5t23 60.5q0 39 -24.5 61t-72.5 22h-167v-167h172zM378 867h148l-158 -119h-101z" />
    <glyph glyph-name="racute" unicode="&#x155;" horiz-adv-x="393" 
d="M64 512h142v-79h3q18 41 49 64t67 23q39 0 58 -8v-121q-9 1 -26 1q-19 0 -27 -2q-55 -8 -87 -50t-32 -115v-225h-147v512zM285 690h148l-158 -119h-101z" />
    <glyph glyph-name="Rcommaaccent" unicode="&#x156;" horiz-adv-x="675" 
d="M73 690h332q66 0 118.5 -24.5t82 -70.5t29.5 -109q0 -67 -33 -114t-94 -72l163 -301h-169l-136 279h-143v-279h-150v691zM396 396q46 1 69 23.5t23 60.5q0 39 -24.5 61t-72.5 22h-167v-167h172zM258 -65h141l-129 -148h-80z" />
    <glyph glyph-name="rcommaaccent" unicode="&#x157;" horiz-adv-x="393" 
d="M64 512h142v-79h3q18 41 49 64t67 23q39 0 58 -8v-121q-9 1 -26 1q-19 0 -27 -2q-55 -8 -87 -50t-32 -115v-225h-147v512zM67 -65h141l-129 -148h-80z" />
    <glyph glyph-name="Rcaron" unicode="&#x158;" horiz-adv-x="675" 
d="M73 690h332q66 0 118.5 -24.5t82 -70.5t29.5 -109q0 -67 -33 -114t-94 -72l163 -301h-169l-136 279h-143v-279h-150v691zM396 396q46 1 69 23.5t23 60.5q0 39 -24.5 61t-72.5 22h-167v-167h172zM157 867h110l49 -61l50 61h110l-120 -126h-79z" />
    <glyph glyph-name="rcaron" unicode="&#x159;" horiz-adv-x="393" 
d="M64 512h142v-79h3q18 41 49 64t67 23q39 0 58 -8v-121q-9 1 -26 1q-19 0 -27 -2q-55 -8 -87 -50t-32 -115v-225h-147v512zM64 690h110l49 -61l50 61h110l-120 -126h-79z" />
    <glyph glyph-name="Sacute" unicode="&#x15a;" horiz-adv-x="573" 
d="M139 35q-73 43 -120 126l108 83q34 -61 78.5 -92t95.5 -31q45 0 71.5 22t26.5 58q0 28 -17 46t-45 30t-78 28q-63 20 -104.5 40.5t-70.5 59.5t-29 100q0 92 65.5 143.5t170.5 51.5q67 0 124.5 -24.5t108.5 -80.5l-86 -93q-63 78 -153 78q-37 0 -59 -14.5t-22 -41.5
q0 -31 28 -48.5t93 -39.5q67 -22 112.5 -44.5t77.5 -66t32 -112.5q0 -66 -31 -116.5t-87 -77.5t-128 -27q-89 0 -162 43zM342 867h148l-158 -119h-101z" />
    <glyph glyph-name="sacute" unicode="&#x15b;" horiz-adv-x="499" 
d="M132.5 12q-62.5 23 -108.5 64l66 91q31 -31 71.5 -50t88.5 -19q36 0 58 12.5t22 37.5q0 24 -23.5 34.5t-83.5 24.5q-55 14 -90.5 29t-60 45.5t-24.5 81.5q0 80 57 119.5t150 39.5q120 0 202 -74l-59 -89q-26 23 -54.5 37t-70.5 20q-18 2 -25 2q-31 0 -49 -11t-18 -30
t25.5 -30t78.5 -24l26 -7q75 -20 117 -54t42 -105q0 -78 -55.5 -123t-157.5 -45q-62 0 -124.5 23zM307 690h148l-158 -119h-101z" />
    <glyph glyph-name="Scedilla" unicode="&#x15e;" horiz-adv-x="573" 
d="M486.5 60q-60.5 -59 -159.5 -67l-33 -48q38 -9 60.5 -30t22.5 -59q0 -47 -31.5 -73t-75.5 -26q-40 0 -71 19.5t-44 50.5l68 32q4 -14 14 -22.5t26 -8.5t25.5 9.5t9.5 25.5q0 27 -31 35l-78 22l46 78q-67 14 -122 55t-94 108l108 83q34 -61 78.5 -92t95.5 -31
q45 0 71.5 22t26.5 58q0 28 -17 46t-45 30t-78 28q-63 20 -104.5 40.5t-70.5 59.5t-29 100q0 92 65.5 143.5t170.5 51.5q67 0 124.5 -24.5t108.5 -80.5l-86 -93q-63 78 -153 78q-37 0 -59 -14.5t-22 -41.5q0 -31 28 -48.5t93 -39.5q67 -22 112.5 -44.5t77.5 -66t32 -112.5
q0 -94 -60.5 -153z" />
    <glyph glyph-name="scedilla" unicode="&#x15f;" horiz-adv-x="499" 
d="M429 47q-41 -43 -118 -54l-34 -49q38 -9 60.5 -30t22.5 -59q0 -47 -31.5 -73t-75.5 -26q-40 0 -71 19.5t-44 50.5l68 32q4 -14 14 -22.5t26 -8.5t25.5 9.5t9.5 25.5q0 27 -31 35l-78 22l42 73q-52 7 -102.5 28.5t-87.5 55.5l66 91q31 -31 71.5 -50t88.5 -19q36 0 58 12.5
t22 37.5q0 24 -23.5 34.5t-83.5 24.5q-55 14 -90.5 29t-60 45.5t-24.5 81.5q0 80 57 119.5t150 39.5q120 0 202 -74l-59 -89q-26 23 -54.5 37t-70.5 20q-18 2 -25 2q-31 0 -49 -11t-18 -30t25.5 -30t78.5 -24l26 -7q75 -20 117 -54t42 -105q0 -67 -41 -110z" />
    <glyph glyph-name="Scaron" unicode="&#x160;" horiz-adv-x="573" 
d="M139 35q-73 43 -120 126l108 83q34 -61 78.5 -92t95.5 -31q45 0 71.5 22t26.5 58q0 28 -17 46t-45 30t-78 28q-63 20 -104.5 40.5t-70.5 59.5t-29 100q0 92 65.5 143.5t170.5 51.5q67 0 124.5 -24.5t108.5 -80.5l-86 -93q-63 78 -153 78q-37 0 -59 -14.5t-22 -41.5
q0 -31 28 -48.5t93 -39.5q67 -22 112.5 -44.5t77.5 -66t32 -112.5q0 -66 -31 -116.5t-87 -77.5t-128 -27q-89 0 -162 43zM121 867h110l49 -61l50 61h110l-120 -126h-79z" />
    <glyph glyph-name="scaron" unicode="&#x161;" horiz-adv-x="499" 
d="M132.5 12q-62.5 23 -108.5 64l66 91q31 -31 71.5 -50t88.5 -19q36 0 58 12.5t22 37.5q0 24 -23.5 34.5t-83.5 24.5q-55 14 -90.5 29t-60 45.5t-24.5 81.5q0 80 57 119.5t150 39.5q120 0 202 -74l-59 -89q-26 23 -54.5 37t-70.5 20q-18 2 -25 2q-31 0 -49 -11t-18 -30
t25.5 -30t78.5 -24l26 -7q75 -20 117 -54t42 -105q0 -78 -55.5 -123t-157.5 -45q-62 0 -124.5 23zM86 690h110l49 -61l50 61h110l-120 -126h-79z" />
    <glyph glyph-name="uni0162" unicode="&#x162;" horiz-adv-x="578" 
d="M213 562h-206v128h564v-128h-207v-562h-151v562zM202 -224.5q-31 19.5 -44 50.5l68 32q4 -14 14 -22.5t26 -8.5t25.5 9.5t9.5 25.5q0 27 -31 35l-78 22l47 81h97l-39 -56q38 -9 60.5 -30t22.5 -59q0 -47 -31.5 -73t-75.5 -26q-40 0 -71 19.5z" />
    <glyph glyph-name="uni0163" unicode="&#x163;" horiz-adv-x="358" 
d="M112.5 34q-31.5 34 -31.5 96v287h-71v95h71v178h146v-178h106v-95h-106v-251q0 -28 10.5 -40t34.5 -12h61v-114h-131q-58 0 -89.5 34zM141 -224.5q-31 19.5 -44 50.5l68 32q4 -14 14 -22.5t26 -8.5t25.5 9.5t9.5 25.5q0 27 -31 35l-78 22l47 81h97l-39 -56
q38 -9 60.5 -30t22.5 -59q0 -47 -31.5 -73t-75.5 -26q-40 0 -71 19.5z" />
    <glyph glyph-name="Tcaron" unicode="&#x164;" horiz-adv-x="578" 
d="M213 562h-206v128h564v-128h-207v-562h-151v562zM126 867h110l49 -61l50 61h110l-120 -126h-79z" />
    <glyph glyph-name="tcaron" unicode="&#x165;" horiz-adv-x="429" 
d="M448 840v-143l-79 -136h-68l45 136h-58v143h160zM227 512h106v-95h-106v-251q0 -28 10.5 -40t34.5 -12h61v-114h-131q-58 0 -89.5 34t-31.5 96v287h-71v95h71v178h146v-178z" />
    <glyph glyph-name="Tbar" unicode="&#x166;" horiz-adv-x="578" 
d="M364 562v-184h84v-67h-84v-311h-151v311h-89v67h89v184h-206v128h564v-128h-207z" />
    <glyph glyph-name="tbar" unicode="&#x167;" horiz-adv-x="358" 
d="M227 417v-128h83v-67h-83v-56q0 -28 10.5 -40t34.5 -12h61v-114h-131q-58 0 -89.5 34t-31.5 96v92h-81v67h81v128h-71v95h71v178h146v-178h106v-95h-106z" />
    <glyph glyph-name="Utilde" unicode="&#x168;" horiz-adv-x="694" 
d="M138.5 61q-69.5 71 -69.5 200v429h152v-434q0 -61 32.5 -94.5t91.5 -33.5q61 0 94.5 33.5t33.5 94.5v434h152v-424q0 -132 -70.5 -204t-209.5 -72q-137 0 -206.5 71zM378 743.5q-20 9.5 -42 26.5q-16 12 -27.5 18t-24.5 6q-35 0 -36 -58h-86q0 133 107 133q30 0 49 -8.5
t42 -25.5q17 -13 27.5 -18.5t25.5 -5.5q38 0 38 56h82q0 -67 -28 -100t-78 -33q-29 0 -49 9.5z" />
    <glyph glyph-name="utilde" unicode="&#x169;" horiz-adv-x="613" 
d="M549 0h-144v64h-8q-24 -37 -64.5 -56.5t-90.5 -19.5q-84 0 -130.5 52t-46.5 134v338h147v-301q0 -43 24 -67.5t66 -24.5q48 0 74.5 28.5t26.5 72.5v292h146v-512zM337 566.5q-20 9.5 -42 26.5q-16 12 -27.5 18t-24.5 6q-35 0 -36 -58h-86q0 133 107 133q30 0 49 -8.5
t42 -25.5q17 -13 27.5 -18.5t25.5 -5.5q38 0 38 56h82q0 -67 -28 -100t-78 -33q-29 0 -49 9.5z" />
    <glyph glyph-name="Umacron" unicode="&#x16a;" horiz-adv-x="694" 
d="M138.5 61q-69.5 71 -69.5 200v429h152v-434q0 -61 32.5 -94.5t91.5 -33.5q61 0 94.5 33.5t33.5 94.5v434h152v-424q0 -132 -70.5 -204t-209.5 -72q-137 0 -206.5 71zM209 851h281v-75h-281v75z" />
    <glyph glyph-name="umacron" unicode="&#x16b;" horiz-adv-x="613" 
d="M549 0h-144v64h-8q-24 -37 -64.5 -56.5t-90.5 -19.5q-84 0 -130.5 52t-46.5 134v338h147v-301q0 -43 24 -67.5t66 -24.5q48 0 74.5 28.5t26.5 72.5v292h146v-512zM168 674h281v-75h-281v75z" />
    <glyph glyph-name="Uring" unicode="&#x16e;" horiz-adv-x="694" 
d="M138.5 61q-69.5 71 -69.5 200v429h152v-434q0 -61 32.5 -94.5t91.5 -33.5q61 0 94.5 33.5t33.5 94.5v434h152v-424q0 -132 -70.5 -204t-209.5 -72q-137 0 -206.5 71zM268.5 768q-31.5 32 -31.5 78q0 45 32 77.5t78 32.5t78 -32t32 -78t-32 -78t-78 -32q-47 0 -78.5 32z
M383 810.5q14 14.5 14 37.5q0 21 -13.5 34.5t-36.5 13.5q-22 0 -36 -13.5t-14 -34.5q0 -22 14.5 -37t35.5 -15q22 0 36 14.5z" />
    <glyph glyph-name="uring" unicode="&#x16f;" horiz-adv-x="613" 
d="M549 0h-144v64h-8q-24 -37 -64.5 -56.5t-90.5 -19.5q-84 0 -130.5 52t-46.5 134v338h147v-301q0 -43 24 -67.5t66 -24.5q48 0 74.5 28.5t26.5 72.5v292h146v-512zM227.5 591q-31.5 32 -31.5 78q0 45 32 77.5t78 32.5t78 -32t32 -78t-32 -78t-78 -32q-47 0 -78.5 32z
M342 633.5q14 14.5 14 37.5q0 21 -13.5 34.5t-36.5 13.5q-22 0 -36 -13.5t-14 -34.5q0 -22 14.5 -37t35.5 -15q22 0 36 14.5z" />
    <glyph glyph-name="Uhungarumlaut" unicode="&#x170;" horiz-adv-x="694" 
d="M138.5 61q-69.5 71 -69.5 200v429h152v-434q0 -61 32.5 -94.5t91.5 -33.5q61 0 94.5 33.5t33.5 94.5v434h152v-424q0 -132 -70.5 -204t-209.5 -72q-137 0 -206.5 71zM291 867h119l-116 -114h-104zM477 867h137l-135 -114h-102z" />
    <glyph glyph-name="uhungarumlaut" unicode="&#x171;" horiz-adv-x="613" 
d="M549 0h-144v64h-8q-24 -37 -64.5 -56.5t-90.5 -19.5q-84 0 -130.5 52t-46.5 134v338h147v-301q0 -43 24 -67.5t66 -24.5q48 0 74.5 28.5t26.5 72.5v292h146v-512zM250 690h119l-116 -114h-104zM436 690h137l-135 -114h-102z" />
    <glyph glyph-name="Uogonek" unicode="&#x172;" horiz-adv-x="694" 
d="M515 26q-36 -31 -51.5 -49.5t-15.5 -39.5q0 -16 8 -24.5t20 -8.5q7 0 10 1q23 4 36 25l70 -50q-40 -61 -112 -61q-47 0 -81 26t-34 80q0 34 19 67q-26 -2 -39 -2q-137 0 -206.5 71t-69.5 200v429h152v-434q0 -61 32.5 -94.5t91.5 -33.5q61 0 94.5 33.5t33.5 94.5v434h152
v-424q0 -151 -90 -222z" />
    <glyph glyph-name="uogonek" unicode="&#x173;" horiz-adv-x="613" 
d="M603 -170q-40 -61 -112 -61q-47 0 -81 26t-34 80q0 72 78 125h-49v64h-8q-24 -37 -64.5 -56.5t-90.5 -19.5q-84 0 -130.5 52t-46.5 134v338h147v-301q0 -43 24 -67.5t66 -24.5q48 0 74.5 28.5t26.5 72.5v292h146v-512h3l-27 -24q-36 -32 -51 -50.5t-15 -38.5
q0 -16 8 -24.5t20 -8.5q7 0 10 1q23 4 36 25z" />
    <glyph glyph-name="Wcircumflex" unicode="&#x174;" horiz-adv-x="958" 
d="M5 690h157l102 -561h6l123 561h173l122 -561h6l102 561h157l-143 -690h-217l-115 524l-113 -524h-217zM438 868h79l120 -128h-110l-50 64l-49 -64h-109z" />
    <glyph glyph-name="wcircumflex" unicode="&#x175;" horiz-adv-x="818" 
d="M817 512l-135 -512h-191l-84 326l-81 -328h-192l-133 514h156l81 -391l104 391h132l104 -393l83 393h156zM370 690h79l120 -128h-110l-50 64l-49 -64h-109z" />
    <glyph glyph-name="Ycircumflex" unicode="&#x176;" horiz-adv-x="686" 
d="M268 269l-270 421h171l177 -283l170 283h171l-270 -421v-269h-149v269zM303 867h79l120 -128h-110l-50 64l-49 -64h-109z" />
    <glyph glyph-name="ycircumflex" unicode="&#x177;" horiz-adv-x="514" 
d="M41 -63q63 0 95.5 20.5t46.5 55.5l-187 499h156l103 -356h7l104 356h157l-198 -522q-27 -70 -60.5 -106t-85 -49t-138.5 -13v115zM220 690h79l120 -128h-110l-50 64l-49 -64h-109z" />
    <glyph glyph-name="Ydieresis" unicode="&#x178;" horiz-adv-x="686" 
d="M268 269l-270 421h171l177 -283l170 283h171l-270 -421v-269h-149v269zM193 867h109v-114h-109v114zM382 867h109v-114h-109v114z" />
    <glyph glyph-name="Zacute" unicode="&#x179;" horiz-adv-x="602" 
d="M585 583l-355 -455h355v-128h-568v99l366 463h-344v128h546v-107zM358 867h148l-158 -119h-101z" />
    <glyph glyph-name="zacute" unicode="&#x17a;" horiz-adv-x="501" 
d="M470 403l-249 -287h247v-116h-437v103l261 294h-259v115h437v-109zM309 690h148l-158 -119h-101z" />
    <glyph glyph-name="Zdotaccent" unicode="&#x17b;" horiz-adv-x="602" 
d="M585 583l-355 -455h355v-128h-568v99l366 463h-344v128h546v-107zM242 867h108v-113h-108v113z" />
    <glyph glyph-name="zdotaccent" unicode="&#x17c;" horiz-adv-x="501" 
d="M470 403l-249 -287h247v-116h-437v103l261 294h-259v115h437v-109zM193 690h108v-113h-108v113z" />
    <glyph glyph-name="Zcaron" unicode="&#x17d;" horiz-adv-x="602" 
d="M585 583l-355 -455h355v-128h-568v99l366 463h-344v128h546v-107zM137 867h110l49 -61l50 61h110l-120 -126h-79z" />
    <glyph glyph-name="zcaron" unicode="&#x17e;" horiz-adv-x="501" 
d="M470 403l-249 -287h247v-116h-437v103l261 294h-259v115h437v-109zM88 690h110l49 -61l50 61h110l-120 -126h-79z" />
    <glyph glyph-name="florin" unicode="&#x192;" horiz-adv-x="494" 
d="M17 -104q69 0 103 10t48 37t14 82v345h-87v118h87v51q0 47 20.5 85.5t56.5 60.5t80 22q39 0 69 -14t68 -47l-80 -93q-21 23 -30.5 29t-26.5 6q-14 0 -26 -12t-12 -37v-51h149v-118h-149v-345q0 -119 -71 -183.5t-213 -64.5v119z" />
    <glyph glyph-name="uni01CD" unicode="&#x1cd;" horiz-adv-x="677" 
d="M467 154h-255l-49 -154h-164l240 690h198l241 -690h-163zM429 275l-87 279h-4l-88 -279h179zM179 867h110l49 -61l50 61h110l-120 -126h-79z" />
    <glyph glyph-name="uni01CE" unicode="&#x1ce;" horiz-adv-x="541" 
d="M428 479q63 -43 63 -130v-349h-129v57q-34 -33 -79 -50.5t-86 -17.5q-76 0 -121 38t-45 104q0 93 96 141q34 16 74 28t128 35q11 2 33 8q-1 38 -24 54.5t-74 16.5q-45 0 -75.5 -15t-57.5 -49l-90 69q37 50 90.5 76.5t131.5 26.5q102 0 165 -43zM304.5 113
q32.5 15 57.5 44v90q-38 -11 -75.5 -22.5t-57.5 -21.5q-45 -21 -45 -57q0 -23 15 -35.5t38 -12.5q35 0 67.5 15zM100 690h110l49 -61l50 61h110l-120 -126h-79z" />
    <glyph glyph-name="uni01CF" unicode="&#x1cf;" horiz-adv-x="298" 
d="M73 690h152v-690h-152v690zM-13 867h110l49 -61l50 61h110l-120 -126h-79z" />
    <glyph glyph-name="uni01D0" unicode="&#x1d0;" horiz-adv-x="278" 
d="M66 512h146v-512h-146v512zM-21 690h110l49 -61l50 61h110l-120 -126h-79z" />
    <glyph glyph-name="uni01D1" unicode="&#x1d1;" horiz-adv-x="721" 
d="M184 33.5q-74 43.5 -114.5 123.5t-40.5 188t40.5 188t114.5 123.5t174 43.5q101 0 176.5 -43.5t116.5 -123.5t41 -188t-41 -188t-116.5 -123.5t-176.5 -43.5q-100 0 -174 43.5zM485 181.5q47 60.5 47 163.5t-47 163.5t-127 60.5q-77 0 -122.5 -60.5t-45.5 -163.5
t45.5 -163.5t122.5 -60.5q80 0 127 60.5zM198 867h110l49 -61l50 61h110l-120 -126h-79z" />
    <glyph glyph-name="uni01D2" unicode="&#x1d2;" horiz-adv-x="587" 
d="M159.5 19.5q-59.5 30.5 -93 90.5t-33.5 144q0 86 33.5 146t92.5 91t135 31t134.5 -31t92 -91t33.5 -146q0 -84 -33.5 -144t-92.5 -90.5t-134 -30.5t-134.5 30.5zM380 143.5q32 35.5 32 110.5q0 77 -32 113.5t-86 36.5q-53 0 -84.5 -36.5t-31.5 -113.5q0 -75 31.5 -110.5
t84.5 -35.5q54 0 86 35.5zM134 690h110l49 -61l50 61h110l-120 -126h-79z" />
    <glyph glyph-name="uni01D3" unicode="&#x1d3;" horiz-adv-x="694" 
d="M138.5 61q-69.5 71 -69.5 200v429h152v-434q0 -61 32.5 -94.5t91.5 -33.5q61 0 94.5 33.5t33.5 94.5v434h152v-424q0 -132 -70.5 -204t-209.5 -72q-137 0 -206.5 71zM188 867h110l49 -61l50 61h110l-120 -126h-79z" />
    <glyph glyph-name="uni01D4" unicode="&#x1d4;" horiz-adv-x="613" 
d="M549 0h-144v64h-8q-24 -37 -64.5 -56.5t-90.5 -19.5q-84 0 -130.5 52t-46.5 134v338h147v-301q0 -43 24 -67.5t66 -24.5q48 0 74.5 28.5t26.5 72.5v292h146v-512zM147 690h110l49 -61l50 61h110l-120 -126h-79z" />
    <glyph glyph-name="uni01D5" unicode="&#x1d5;" horiz-adv-x="694" 
d="M138.5 61q-69.5 71 -69.5 200v429h152v-434q0 -61 32.5 -94.5t91.5 -33.5q61 0 94.5 33.5t33.5 94.5v434h152v-424q0 -132 -70.5 -204t-209.5 -72q-137 0 -206.5 71zM198 867h109v-114h-109v114zM387 867h109v-114h-109v114zM209 1029h281v-75h-281v75z" />
    <glyph glyph-name="uni01D6" unicode="&#x1d6;" horiz-adv-x="613" 
d="M549 0h-144v64h-8q-24 -37 -64.5 -56.5t-90.5 -19.5q-84 0 -130.5 52t-46.5 134v338h147v-301q0 -43 24 -67.5t66 -24.5q48 0 74.5 28.5t26.5 72.5v292h146v-512zM157 690h109v-114h-109v114zM346 690h109v-114h-109v114zM168 852h281v-75h-281v75z" />
    <glyph glyph-name="uni01D7" unicode="&#x1d7;" horiz-adv-x="694" 
d="M138.5 61q-69.5 71 -69.5 200v429h152v-434q0 -61 32.5 -94.5t91.5 -33.5q61 0 94.5 33.5t33.5 94.5v434h152v-424q0 -132 -70.5 -204t-209.5 -72q-137 0 -206.5 71zM198 867h109v-114h-109v114zM387 867h109v-114h-109v114zM409 1045h148l-158 -119h-101z" />
    <glyph glyph-name="uni01D8" unicode="&#x1d8;" horiz-adv-x="613" 
d="M549 0h-144v64h-8q-24 -37 -64.5 -56.5t-90.5 -19.5q-84 0 -130.5 52t-46.5 134v338h147v-301q0 -43 24 -67.5t66 -24.5q48 0 74.5 28.5t26.5 72.5v292h146v-512zM157 690h109v-114h-109v114zM346 690h109v-114h-109v114zM368 868h148l-158 -119h-101z" />
    <glyph glyph-name="uni01D9" unicode="&#x1d9;" horiz-adv-x="694" 
d="M138.5 61q-69.5 71 -69.5 200v429h152v-434q0 -61 32.5 -94.5t91.5 -33.5q61 0 94.5 33.5t33.5 94.5v434h152v-424q0 -132 -70.5 -204t-209.5 -72q-137 0 -206.5 71zM198 867h109v-114h-109v114zM387 867h109v-114h-109v114zM188 1045h110l49 -61l50 61h110l-120 -126
h-79z" />
    <glyph glyph-name="uni01DA" unicode="&#x1da;" horiz-adv-x="613" 
d="M549 0h-144v64h-8q-24 -37 -64.5 -56.5t-90.5 -19.5q-84 0 -130.5 52t-46.5 134v338h147v-301q0 -43 24 -67.5t66 -24.5q48 0 74.5 28.5t26.5 72.5v292h146v-512zM157 690h109v-114h-109v114zM346 690h109v-114h-109v114zM147 868h110l49 -61l50 61h110l-120 -126h-79z
" />
    <glyph glyph-name="uni01DB" unicode="&#x1db;" horiz-adv-x="694" 
d="M138.5 61q-69.5 71 -69.5 200v429h152v-434q0 -61 32.5 -94.5t91.5 -33.5q61 0 94.5 33.5t33.5 94.5v434h152v-424q0 -132 -70.5 -204t-209.5 -72q-137 0 -206.5 71zM198 867h109v-114h-109v114zM387 867h109v-114h-109v114zM141 1045h148l111 -119h-104z" />
    <glyph glyph-name="uni01DC" unicode="&#x1dc;" horiz-adv-x="613" 
d="M549 0h-144v64h-8q-24 -37 -64.5 -56.5t-90.5 -19.5q-84 0 -130.5 52t-46.5 134v338h147v-301q0 -43 24 -67.5t66 -24.5q48 0 74.5 28.5t26.5 72.5v292h146v-512zM157 690h109v-114h-109v114zM346 690h109v-114h-109v114zM100 868h148l111 -119h-104z" />
    <glyph glyph-name="Oslashacute" unicode="&#x1fe;" horiz-adv-x="721" 
d="M692 345q0 -108 -41 -188t-116.5 -123.5t-176.5 -43.5q-131 0 -216 73l-49 -49l-67 64l56 56q-53 89 -53 211q0 108 40.5 188t114.5 123.5t174 43.5q130 0 218 -72l47 47l66 -64l-52 -53q55 -88 55 -213zM201 253l270 270q-44 46 -113 46q-77 0 -122.5 -60.5
t-45.5 -163.5q0 -48 11 -92zM485 181.5q47 60.5 47 163.5q0 49 -13 96l-272 -273q44 -47 111 -47q80 0 127 60.5zM419 867h148l-158 -119h-101z" />
    <glyph glyph-name="oslashacute" unicode="&#x1ff;" horiz-adv-x="587" 
d="M554 254q0 -84 -33.5 -144t-92.5 -90.5t-134 -30.5q-99 0 -168 52l-19 -19l-48 45l21 21q-47 67 -47 166q0 86 33.5 146t92.5 91t135 31q99 0 168 -52l19 19l47 -45l-21 -21q47 -67 47 -169zM185 193l185 185q-29 26 -76 26q-53 0 -84.5 -36.5t-31.5 -113.5q0 -37 7 -61z
M380 143.5q32 35.5 32 110.5q0 36 -8 66l-185 -186q27 -26 75 -26q54 0 86 35.5zM355 690h148l-158 -119h-101z" />
    <glyph glyph-name="Scommaaccent" unicode="&#x218;" horiz-adv-x="573" 
d="M139 35q-73 43 -120 126l108 83q34 -61 78.5 -92t95.5 -31q45 0 71.5 22t26.5 58q0 28 -17 46t-45 30t-78 28q-63 20 -104.5 40.5t-70.5 59.5t-29 100q0 92 65.5 143.5t170.5 51.5q67 0 124.5 -24.5t108.5 -80.5l-86 -93q-63 78 -153 78q-37 0 -59 -14.5t-22 -41.5
q0 -31 28 -48.5t93 -39.5q67 -22 112.5 -44.5t77.5 -66t32 -112.5q0 -66 -31 -116.5t-87 -77.5t-128 -27q-89 0 -162 43zM212 -64h141l-129 -148h-80z" />
    <glyph glyph-name="scommaaccent" unicode="&#x219;" horiz-adv-x="499" 
d="M132.5 12q-62.5 23 -108.5 64l66 91q31 -31 71.5 -50t88.5 -19q36 0 58 12.5t22 37.5q0 24 -23.5 34.5t-83.5 24.5q-55 14 -90.5 29t-60 45.5t-24.5 81.5q0 80 57 119.5t150 39.5q120 0 202 -74l-59 -89q-26 23 -54.5 37t-70.5 20q-18 2 -25 2q-31 0 -49 -11t-18 -30
t25.5 -30t78.5 -24l26 -7q75 -20 117 -54t42 -105q0 -78 -55.5 -123t-157.5 -45q-62 0 -124.5 23zM195 -65h141l-129 -148h-80z" />
    <glyph glyph-name="uni021A" unicode="&#x21a;" horiz-adv-x="578" 
d="M213 562h-206v128h564v-128h-207v-562h-151v562zM215 -65h141l-129 -148h-80z" />
    <glyph glyph-name="uni021B" unicode="&#x21b;" horiz-adv-x="358" 
d="M112.5 34q-31.5 34 -31.5 96v287h-71v95h71v178h146v-178h106v-95h-106v-251q0 -28 10.5 -40t34.5 -12h61v-114h-131q-58 0 -89.5 34zM154 -65h141l-129 -148h-80z" />
    <glyph glyph-name="uni0237" unicode="&#x237;" horiz-adv-x="275" 
d="M-26 -178v115h41q23 0 36 13t13 36v526h146v-523q0 -75 -41 -121t-122 -46h-73z" />
    <glyph glyph-name="circumflex" unicode="&#x2c6;" horiz-adv-x="315" 
d="M118 660h79l120 -128h-110l-50 64l-49 -64h-109z" />
    <glyph glyph-name="caron" unicode="&#x2c7;" horiz-adv-x="315" 
d="M-2 666h110l49 -61l50 61h110l-120 -126h-79z" />
    <glyph glyph-name="breve" unicode="&#x2d8;" horiz-adv-x="291" 
d="M30.5 567q-39.5 34 -39.5 98h90q0 -29 18 -42.5t46 -13.5q65 0 65 56h93q0 -67 -41 -99.5t-117 -32.5q-75 0 -114.5 34z" />
    <glyph glyph-name="dotaccent" unicode="&#x2d9;" horiz-adv-x="136" 
d="M13 666h108v-113h-108v113z" />
    <glyph glyph-name="ring" unicode="&#x2da;" horiz-adv-x="188" 
d="M15.5 567q-31.5 32 -31.5 78q0 45 32 77.5t78 32.5t78 -32t32 -78t-31.5 -78t-78.5 -32t-78.5 32zM130 609.5q14 14.5 14 37.5q0 21 -13.5 34.5t-36.5 13.5q-22 0 -36 -13.5t-14 -34.5q0 -22 14.5 -37t35.5 -15q22 0 36 14.5z" />
    <glyph glyph-name="ogonek" unicode="&#x2db;" horiz-adv-x="215" 
d="M46 -205q-34 26 -34 80q0 49 27 79.5t64 53.5l85 -8l-27 -24q-36 -32 -51 -50.5t-15 -38.5q0 -16 8 -24.5t20 -8.5q7 0 10 1q23 4 36 25l70 -50q-40 -61 -112 -61q-47 0 -81 26z" />
    <glyph glyph-name="tilde" unicode="&#x2dc;" horiz-adv-x="341" 
d="M202 534.5q-20 9.5 -42 26.5q-16 12 -27.5 18t-24.5 6q-35 0 -36 -58h-86q0 133 107 133q30 0 49 -8.5t42 -25.5q17 -13 27.5 -18.5t25.5 -5.5q38 0 38 56h82q0 -67 -28 -100t-78 -33q-29 0 -49 9.5z" />
    <glyph glyph-name="hungarumlaut" unicode="&#x2dd;" horiz-adv-x="358" 
d="M74 666h119l-116 -114h-104zM260 666h137l-135 -114h-102z" />
    <glyph glyph-name="gravecomb" unicode="&#x300;" 
d="M-228 666h148l111 -119h-104z" />
    <glyph glyph-name="acutecomb" unicode="&#x301;" 
d="M-113 666h148l-158 -119h-101z" />
    <glyph glyph-name="uni0302" unicode="&#x302;" 
d="M-197 660h79l120 -128h-110l-50 64l-49 -64h-109z" />
    <glyph glyph-name="tildecomb" unicode="&#x303;" 
d="M-139 534.5q-20 9.5 -42 26.5q-16 12 -27.5 18t-24.5 6q-35 0 -36 -58h-86q0 133 107 133q30 0 49 -8.5t42 -25.5q17 -13 27.5 -18.5t25.5 -5.5q38 0 38 56h82q0 -67 -28 -100t-78 -33q-29 0 -49 9.5z" />
    <glyph glyph-name="uni0304" unicode="&#x304;" 
d="M-296 650h281v-75h-281v75z" />
    <glyph glyph-name="uni0306" unicode="&#x306;" 
d="M-260.5 567q-39.5 34 -39.5 98h90q0 -29 18 -42.5t46 -13.5q65 0 65 56h93q0 -67 -41 -99.5t-117 -32.5q-75 0 -114.5 34z" />
    <glyph glyph-name="uni0307" unicode="&#x307;" 
d="M-123 666h108v-113h-108v113z" />
    <glyph glyph-name="uni0308" unicode="&#x308;" 
d="M-312 666h109v-114h-109v114zM-123 666h109v-114h-109v114z" />
    <glyph glyph-name="uni030A" unicode="&#x30a;" 
d="M-172.5 567q-31.5 32 -31.5 78q0 45 32 77.5t78 32.5t78 -32t32 -78t-32 -78t-78 -32q-47 0 -78.5 32zM-58 609.5q14 14.5 14 37.5q0 21 -13.5 34.5t-36.5 13.5q-22 0 -36 -13.5t-14 -34.5q0 -22 14.5 -37t35.5 -15q22 0 36 14.5z" />
    <glyph glyph-name="uni030B" unicode="&#x30b;" 
d="M-284 666h119l-116 -114h-104zM-98 666h137l-135 -114h-102z" />
    <glyph glyph-name="uni030C" unicode="&#x30c;" 
d="M-317 666h110l49 -61l50 61h110l-120 -126h-79z" />
    <glyph glyph-name="uni0312" unicode="&#x312;" 
d="M122 558h-141l129 132h80z" />
    <glyph glyph-name="uni0326" unicode="&#x326;" 
d="M-159 -65h141l-129 -148h-80z" />
    <glyph glyph-name="uni0327" unicode="&#x327;" 
d="M-150 -224.5q-31 19.5 -44 50.5l68 32q4 -14 14 -22.5t26 -8.5t25.5 9.5t9.5 25.5q0 27 -31 35l-78 22l47 81h97l-39 -56q38 -9 60.5 -30t22.5 -59q0 -47 -31.5 -73t-75.5 -26q-40 0 -71 19.5z" />
    <glyph glyph-name="uni0328" unicode="&#x328;" 
d="M-169 -205q-34 26 -34 80q0 49 27 79.5t64 53.5l85 -8l-27 -24q-36 -32 -51 -50.5t-15 -38.5q0 -16 8 -24.5t20 -8.5q7 0 10 1q23 4 36 25l70 -50q-40 -61 -112 -61q-47 0 -81 26z" />
    <glyph glyph-name="uni0335" unicode="&#x335;" 
d="M-247 318h324v-67h-324v67z" />
    <glyph glyph-name="uni0336" unicode="&#x336;" 
d="M-633 321h677v-86h-677v86z" />
    <glyph glyph-name="uni0337" unicode="&#x337;" 
d="M-457 225l438 341v-160l-438 -331v150z" />
    <glyph glyph-name="uni0338" unicode="&#x338;" 
d="M-642 77l597 597l66 -64l-596 -597z" />
    <glyph glyph-name="pi" unicode="&#x3c0;" horiz-adv-x="589" 
d="M375 7.5q-28 17.5 -43 44.5t-15 56v261h-92v-369h-119v369h-40v119h410v-119h-40v-242q0 -13 5.5 -20.5t15.5 -6.5q12 3 21 11l47 -96q-49 -25 -84 -25q-38 0 -66 17.5z" />
    <glyph glyph-name="Wgrave" unicode="&#x1e80;" horiz-adv-x="958" 
d="M5 690h157l102 -561h6l123 561h173l122 -561h6l102 561h157l-143 -690h-217l-115 524l-113 -524h-217zM271 868h148l111 -119h-104z" />
    <glyph glyph-name="wgrave" unicode="&#x1e81;" horiz-adv-x="818" 
d="M817 512l-135 -512h-191l-84 326l-81 -328h-192l-133 514h156l81 -391l104 391h132l104 -393l83 393h156zM203 690h148l111 -119h-104z" />
    <glyph glyph-name="Wacute" unicode="&#x1e82;" horiz-adv-x="958" 
d="M5 690h157l102 -561h6l123 561h173l122 -561h6l102 561h157l-143 -690h-217l-115 524l-113 -524h-217zM539 868h148l-158 -119h-101z" />
    <glyph glyph-name="wacute" unicode="&#x1e83;" horiz-adv-x="818" 
d="M817 512l-135 -512h-191l-84 326l-81 -328h-192l-133 514h156l81 -391l104 391h132l104 -393l83 393h156zM471 690h148l-158 -119h-101z" />
    <glyph glyph-name="Wdieresis" unicode="&#x1e84;" horiz-adv-x="958" 
d="M5 690h157l102 -561h6l123 561h173l122 -561h6l102 561h157l-143 -690h-217l-115 524l-113 -524h-217zM328 868h109v-114h-109v114zM517 868h109v-114h-109v114z" />
    <glyph glyph-name="wdieresis" unicode="&#x1e85;" horiz-adv-x="818" 
d="M817 512l-135 -512h-191l-84 326l-81 -328h-192l-133 514h156l81 -391l104 391h132l104 -393l83 393h156zM260 690h109v-114h-109v114zM449 690h109v-114h-109v114z" />
    <glyph glyph-name="uni1EBC" unicode="&#x1ebc;" horiz-adv-x="586" 
d="M73 690h468v-128h-316v-152h286v-128h-286v-153h316v-129h-468v690zM338 743.5q-20 9.5 -42 26.5q-16 12 -27.5 18t-24.5 6q-35 0 -36 -58h-86q0 133 107 133q30 0 49 -8.5t42 -25.5q17 -13 27.5 -18.5t25.5 -5.5q38 0 38 56h82q0 -67 -28 -100t-78 -33q-29 0 -49 9.5z
" />
    <glyph glyph-name="uni1EBD" unicode="&#x1ebd;" horiz-adv-x="553" 
d="M513 222h-332q4 -57 33.5 -86t82.5 -29q40 0 68.5 11.5t54.5 44.5l93 -68q-48 -56 -99.5 -80.5t-118.5 -24.5q-75 0 -134.5 31t-93.5 90t-34 141q0 80 31 141.5t87.5 95t129.5 33.5q69 0 122.5 -30t84 -85t30.5 -126q0 -39 -5 -59zM210 386q-25 -25 -29 -70h193
q-2 42 -25.5 68.5t-68.5 26.5t-70 -25zM308 566.5q-20 9.5 -42 26.5q-16 12 -27.5 18t-24.5 6q-35 0 -36 -58h-86q0 133 107 133q30 0 49 -8.5t42 -25.5q17 -13 27.5 -18.5t25.5 -5.5q38 0 38 56h82q0 -67 -28 -100t-78 -33q-29 0 -49 9.5z" />
    <glyph glyph-name="Ygrave" unicode="&#x1ef2;" horiz-adv-x="686" 
d="M268 269l-270 421h171l177 -283l170 283h171l-270 -421v-269h-149v269zM136 867h148l111 -119h-104z" />
    <glyph glyph-name="ygrave" unicode="&#x1ef3;" horiz-adv-x="514" 
d="M41 -63q63 0 95.5 20.5t46.5 55.5l-187 499h156l103 -356h7l104 356h157l-198 -522q-27 -70 -60.5 -106t-85 -49t-138.5 -13v115zM53 690h148l111 -119h-104z" />
    <glyph glyph-name="uni1EF8" unicode="&#x1ef8;" horiz-adv-x="686" 
d="M268 269l-270 421h171l177 -283l170 283h171l-270 -421v-269h-149v269zM373 743.5q-20 9.5 -42 26.5q-16 12 -27.5 18t-24.5 6q-35 0 -36 -58h-86q0 133 107 133q30 0 49 -8.5t42 -25.5q17 -13 27.5 -18.5t25.5 -5.5q38 0 38 56h82q0 -67 -28 -100t-78 -33q-29 0 -49 9.5
z" />
    <glyph glyph-name="uni1EF9" unicode="&#x1ef9;" horiz-adv-x="514" 
d="M41 -63q63 0 95.5 20.5t46.5 55.5l-187 499h156l103 -356h7l104 356h157l-198 -522q-27 -70 -60.5 -106t-85 -49t-138.5 -13v115zM290 566.5q-20 9.5 -42 26.5q-16 12 -27.5 18t-24.5 6q-35 0 -36 -58h-86q0 133 107 133q30 0 49 -8.5t42 -25.5q17 -13 27.5 -18.5
t25.5 -5.5q38 0 38 56h82q0 -67 -28 -100t-78 -33q-29 0 -49 9.5z" />
    <glyph glyph-name="endash" unicode="&#x2013;" horiz-adv-x="427" 
d="M17 313h394v-120h-394v120z" />
    <glyph glyph-name="emdash" unicode="&#x2014;" horiz-adv-x="1000" 
d="M0 313h1000v-120h-1000v120z" />
    <glyph glyph-name="quoteleft" unicode="&#x2018;" horiz-adv-x="234" 
d="M197 540v-158h-177v158h1l87 150h75l-50 -150h64z" />
    <glyph glyph-name="quoteright" unicode="&#x2019;" horiz-adv-x="257" 
d="M220 690v-158h-1l-87 -150h-75l50 150h-64v158h177z" />
    <glyph glyph-name="quotesinglbase" unicode="&#x201a;" horiz-adv-x="275" 
d="M221 158v-158h-1l-87 -150h-75l50 150h-64v158h177z" />
    <glyph glyph-name="quotedblleft" unicode="&#x201c;" horiz-adv-x="482" 
d="M445 540v-158h-177v158h1l87 150h75l-50 -150h64zM197 540v-158h-177v158h1l87 150h75l-50 -150h64z" />
    <glyph glyph-name="quotedblright" unicode="&#x201d;" horiz-adv-x="507" 
d="M220 690v-158h-1l-87 -150h-75l50 150h-64v158h177zM470 690v-158h-1l-87 -150h-75l50 150h-64v158h177z" />
    <glyph glyph-name="quotedblbase" unicode="&#x201e;" horiz-adv-x="525" 
d="M221 158v-158h-1l-87 -150h-75l50 150h-64v158h177zM471 158v-158h-1l-87 -150h-75l50 150h-64v158h177z" />
    <glyph glyph-name="dagger" unicode="&#x2020;" horiz-adv-x="446" 
d="M159 384h-108v130h108v176h129v-176h108v-130h-108v-484h-129v484z" />
    <glyph glyph-name="daggerdbl" unicode="&#x2021;" horiz-adv-x="446" 
d="M159 76h-108v130h108v178h-108v130h108v176h129v-176h108v-130h-108v-178h108v-130h-108v-176h-129v176z" />
    <glyph glyph-name="bullet" unicode="&#x2022;" horiz-adv-x="491" 
d="M139 74q-49 29 -77.5 77.5t-28.5 106.5t28.5 106.5t77.5 77.5t107 29q57 0 106 -29t77.5 -78t28.5 -106t-28.5 -106t-77.5 -78t-106 -29q-58 0 -107 29z" />
    <glyph glyph-name="twodotenleader" unicode="&#x2025;" horiz-adv-x="397" 
d="M29 148h132v-148h-132v148zM231 148h132v-148h-132v148z" />
    <glyph glyph-name="ellipsis" unicode="&#x2026;" horiz-adv-x="846" 
d="M334 158h177v-158h-177v158zM46 158h177v-158h-177v158zM622 158h177v-158h-177v158z" />
    <glyph glyph-name="perthousand" unicode="&#x2030;" horiz-adv-x="1076" 
d="M506 721h127l-396 -739h-127zM88 392.5q-33 27.5 -47 65.5t-14 73q0 38 13.5 76.5t46 66t85.5 27.5q49 0 82.5 -25.5t49 -64.5t15.5 -80q0 -40 -15.5 -78.5t-47.5 -63t-81 -24.5q-54 0 -87 27.5zM201 487q12 18 12 45q0 30 -12 48t-29 18q-18 0 -29.5 -18t-11.5 -49
q0 -28 11.5 -45t30.5 -17q16 0 28 18zM492 20.5q-33 27.5 -47 66t-14 75.5q0 38 13.5 78t46 68t85.5 28q49 0 82.5 -26.5t49 -66.5t15.5 -81t-15.5 -79.5t-48 -64t-80.5 -25.5q-54 0 -87 27.5zM816.5 20.5q-33.5 27.5 -48 66.5t-14.5 75q0 37 14 77t47 68.5t84 28.5
q49 0 83 -26.5t50.5 -66.5t16.5 -81q0 -40 -16 -79t-49.5 -64.5t-81.5 -25.5q-52 0 -85.5 27.5zM605.5 114.5q11.5 19.5 11.5 48.5q0 31 -12 49.5t-29 18.5t-29 -19t-12 -50q0 -30 12 -48.5t31 -18.5q16 0 27.5 19.5zM928 114.5q12 19.5 12 48.5q0 31 -11.5 49.5t-29.5 18.5
q-17 0 -27.5 -18.5t-10.5 -50.5q0 -30 11 -48.5t28 -18.5q16 0 28 19.5z" />
    <glyph glyph-name="guilsinglleft" unicode="&#x2039;" horiz-adv-x="304" 
d="M39 249l226 182v-118l-86 -64l86 -63v-118z" />
    <glyph glyph-name="guilsinglright" unicode="&#x203a;" horiz-adv-x="304" 
d="M39 186l86 63l-86 64v118l226 -182l-226 -181v118z" />
    <glyph glyph-name="fraction" unicode="&#x2044;" horiz-adv-x="217" 
d="M237 690h139l-400 -690h-136z" />
    <glyph glyph-name="Euro" unicode="&#x20ac;" horiz-adv-x="665" 
d="M644 83q-44 -45 -102 -69t-127 -24q-122 0 -200.5 68.5t-105.5 180.5h-117l35 66h72q-2 28 -2 43v17h-98l37 70h69q21 119 100.5 192.5t207.5 73.5q112 0 189 -59l-46 -123q-40 60 -140 60q-81 0 -127.5 -37.5t-62.5 -106.5h297l-29 -70h-276v-7q0 -27 3 -53h250l-26 -66
h-208q22 -59 67.5 -93t114.5 -34q42 0 74.5 14t63.5 46z" />
    <glyph glyph-name="trademark" unicode="&#x2122;" horiz-adv-x="636" 
d="M5 690h231v-72h-72v-223h-86v223h-73v72zM601 690v-295h-79v202l-45 -202h-78l-49 198v-198h-79v295h121l46 -205l43 205h120z" />
    <glyph glyph-name="uni2126" unicode="&#x2126;" horiz-adv-x="746" 
d="M25 118h114q-54 39 -83 106.5t-29 135.5q0 91 47.5 166t127 118t170.5 43q93 0 172.5 -44.5t126.5 -120.5t47 -168q0 -68 -27 -133.5t-78 -107.5h107v-113h-282v109q44 6 80 36t56.5 79t20.5 110q0 72 -29 125t-79.5 81t-113.5 28q-64 0 -115 -29t-79.5 -82.5
t-28.5 -122.5q0 -64 23 -111.5t59 -76t75 -37.5v-109h-282v118z" />
    <glyph glyph-name="partialdiff" unicode="&#x2202;" horiz-adv-x="610" 
d="M93 58.5q-62 64.5 -62 170.5q0 82 37 148t100 103.5t138 37.5q48 0 84 -17.5t51 -56.5h4q-6 88 -43 121.5t-84 33.5q-51 0 -83 -36l-75 72q28 31 67.5 47t87.5 16q127 0 189 -92t62 -235q0 -108 -34.5 -193.5t-102 -134.5t-163.5 -49q-111 0 -173 64.5zM349.5 140.5
q37.5 25.5 58.5 68.5t21 94q0 55 -25.5 83t-73.5 28q-50 0 -88.5 -27t-60 -70t-21.5 -91q0 -53 27.5 -82t77.5 -29q47 0 84.5 25.5z" />
    <glyph glyph-name="uni2206" unicode="&#x2206;" horiz-adv-x="612" 
d="M305 747l307 -747h-613zM438 119l-133 347l-132 -347h265z" />
    <glyph glyph-name="product" unicode="&#x220f;" horiz-adv-x="672" 
d="M113 571h-40v119h525v-119h-40v-571h-119v571h-207v-571h-119v571z" />
    <glyph glyph-name="summation" unicode="&#x2211;" horiz-adv-x="610" 
d="M32 62l275 283l-275 282v63h547v-119h-338l234 -226l-234 -226h338v-119h-547v62z" />
    <glyph glyph-name="radical" unicode="&#x221a;" horiz-adv-x="590" 
d="M100 254h-78v120h166l64 -206l208 531l113 -39l-329 -797z" />
    <glyph glyph-name="infinity" unicode="&#x221e;" horiz-adv-x="826" 
d="M66 224.5q-54 51.5 -54 134.5t54 134.5t150 51.5q51 0 104 -25.5t94 -72.5q41 47 94.5 72.5t103.5 25.5q95 0 149 -51.5t54 -134.5t-54 -134.5t-149 -51.5q-51 0 -104.5 25.5t-93.5 72.5q-42 -47 -95 -72.5t-103 -25.5q-96 0 -150 51.5zM290.5 305.5q33.5 17.5 59.5 53.5
q-26 37 -59.5 54t-59.5 17q-43 0 -68.5 -18.5t-25.5 -52.5q0 -35 25.5 -53t68.5 -18q26 0 59.5 17.5zM690 359q0 35 -24 53t-69 18q-26 0 -60 -17.5t-60 -53.5q27 -37 60.5 -54t59.5 -17q93 0 93 71z" />
    <glyph glyph-name="integral" unicode="&#x222b;" horiz-adv-x="420" 
d="M3 -104q55 0 85 11t42.5 37t12.5 74v530q0 46 21 82t56.5 56.5t79.5 20.5q31 0 62 -11t54 -33l-78 -92q-21 17 -38 17q-15 0 -26 -10t-11 -36v-533q0 -110 -71 -171t-189 -61v119z" />
    <glyph glyph-name="approxequal" unicode="&#x2248;" horiz-adv-x="524" 
d="M271.5 351q-22.5 13 -47.5 37q-19 17 -32.5 25.5t-28.5 8.5q-20 0 -28 -17.5t-6 -53.5h-70q-2 63 25.5 101.5t77.5 38.5q41 0 66 -14t50 -39q17 -16 27.5 -23t23.5 -7q23 0 32.5 19t7.5 61h73q3 -70 -28 -110t-88 -40q-32 0 -54.5 13zM271.5 153q-22.5 13 -47.5 37
q-19 17 -32.5 25.5t-28.5 8.5q-20 0 -28 -17.5t-6 -53.5h-70q-2 63 25.5 101.5t77.5 38.5q41 0 66 -14t50 -39q17 -16 27.5 -23t23.5 -7q23 0 32.5 19t7.5 61h73q3 -70 -28 -110t-88 -40q-32 0 -54.5 13z" />
    <glyph glyph-name="notequal" unicode="&#x2260;" horiz-adv-x="620" 
d="M393 389l-56 -102h229v-121h-297l-92 -166h-119l94 166h-107v121h175l57 102h-232v121h301l101 180h114l-100 -180h105v-121h-173z" />
    <glyph glyph-name="lessequal" unicode="&#x2264;" horiz-adv-x="659" 
d="M43 324l534 275v-131l-289 -144l289 -143v-132zM49 -109v109h528v-109h-528z" />
    <glyph glyph-name="greaterequal" unicode="&#x2265;" horiz-adv-x="655" 
d="M78 181l289 143l-289 144v131l534 -275l-534 -275v132zM78 0h528v-109h-528v109z" />
    <glyph glyph-name="lozenge" unicode="&#x25ca;" horiz-adv-x="572" 
d="M37 350l194 350h111l193 -350l-193 -350h-111zM395 350l-110 218l-108 -218l108 -218z" />
    <glyph glyph-name="i.loclTRK" horiz-adv-x="278" 
d="M66 512h146v-512h-146v512zM84 690h108v-113h-108v113z" />
    <glyph glyph-name="f_t" horiz-adv-x="670" 
d="M542 417v-251q0 -28 10.5 -40t34.5 -12h61v-114h-131q-58 0 -89.5 34t-31.5 96v287h-141v-417h-146v417h-93v95h95v35q0 65 41.5 104t120.5 39h85v-105h-77q-26 0 -26 -33v-40h141v178h146v-178h106v-95h-106z" />
    <glyph glyph-name="t_t" horiz-adv-x="655" 
d="M527 417v-251q0 -28 10.5 -40t34.5 -12h61v-114h-131q-58 0 -89.5 34t-31.5 96v287h-154v-251q0 -28 10.5 -40t34.5 -12h61v-114h-131q-58 0 -89.5 34t-31.5 96v287h-71v95h71v178h146v-178h154v178h146v-178h106v-95h-106z" />
    <glyph glyph-name="HankenDesign" horiz-adv-x="899" 
d="M260.5 21q-86.5 51 -137.5 137.5t-51 189.5t51 189.5t137.5 137.5t189.5 51t189.5 -51t137.5 -137.5t51 -189.5t-51 -189.5t-137.5 -137.5t-189.5 -51t-189.5 51zM622 51q79 46 125 125t46 172t-46 172t-125 125t-172 46t-172 -46t-125 -125t-46 -172t46 -172t125 -125
t172 -46t172 46zM241 205q-5 5 -5 12v262q0 7 5 12.5t12 5.5q8 0 13 -5t5 -13v-262q0 -7 -5 -12t-13 -5q-7 0 -12 5zM438 205q-5 5 -5 12v262q0 8 5 13t12 5t12 -5t5 -13v-262q0 -7 -4.5 -12t-12.5 -5q-7 0 -12 5zM635 205l-132 131q-4 5 -4 12q0 8 4 12l132 131q5 6 11 6
q7 0 12.5 -5.5t5.5 -12.5t-5 -12l-119 -119l119 -119q5 -5 5 -12t-5.5 -12t-12.5 -5t-11 5zM307 336q-5 5 -5 12q0 8 5 12.5t12 4.5h65q8 0 13 -5t5 -12t-5 -12t-13 -5h-65q-7 0 -12 5z" />
    </font>
</defs>
</svg>
